<svg id="Fitness" xmlns="http://www.w3.org/2000/svg" width="84" height="64" viewBox="0 0 84 64"><title>fitness-icon</title><rect width="84" height="64" style="fill:none"/><circle cx="55.96" cy="6.17" r="6.17" transform="translate(34.69 58.3) rotate(-74.1)" style="fill:#fac153"/><path d="M59.94,35.45c4.65,0,12.27-3.74,12.27-3.74l-.76-3.14s-11,2.81-12.68-1.42c-.7-1.76-1.7-6.39-3-8.33-2.44-3.55-4.55-5.53-6.6-6.7-3.88-2.23-14.61-.58-14.61-.58-6,1.23-9.68,10.38-9.68,10.38l2.47,1.29s4-5.32,8.38-5.72a20.37,20.37,0,0,1,7.24.49c-4.32,9.14-7.77,18.89-16.36,20.58s-12.65-5.75-12.65-5.75l-2.13,3.11s7.14,10,15.93,9.29c8.34-.63,12.06-4.47,12.06-4.47s10.71,2,11.18,9.2C51.31,55.06,46.77,64,46.77,64h4.85s5.66-8.11,5.84-15.69c.27-11.15-11.2-14.76-11.2-14.76l5.1-6.83S54.83,35.12,59.94,35.45Z" style="fill:#fac153"/></svg>