<svg xmlns="http://www.w3.org/2000/svg" width="61" height="69" viewBox="0 0 61 69"><title>footer-background</title><polygon points="55.2 0 53.6 0 46.9 0 45.9 0 42.2 0 41.1 0 33 0 31.9 0 0 0 0 69 31.6 69 32.6 69 40.6 69 41.7 69 46 69 47 69 54.9 69 56.3 69 61 69 61 0 55.2 0" style="fill:#54585a"/><path d="M46.8,65.1A21.1,21.1,0,0,0,47,69h7.9C52.4,66.5,48.6,65.4,46.8,65.1Z" style="fill:#54585a"/><path d="M42.1,64.6h-.3c-2,0-5.6.3-8.1,2.3A3.8,3.8,0,0,0,32.6,69h8A17.7,17.7,0,0,0,42.1,64.6Z" style="fill:#54585a"/><path d="M52.8,42.3h.5a2.7,2.7,0,0,0,1.4-.5l.6-.5a3.4,3.4,0,0,0,1.1-2.6,4.5,4.5,0,0,0-.7-2.7c-2.5-3.1-6.9-4.3-8.9-4.7-.1,2,.1,6.6,2.6,9.7A4.7,4.7,0,0,0,52.8,42.3Z" style="fill:#54585a"/><path d="M23.7,14.3h.5a2.7,2.7,0,0,0,1.4-.5l.6-.5a3.4,3.4,0,0,0,1.1-2.6,4.5,4.5,0,0,0-.7-2.7c-2.5-3.1-6.9-4.3-8.9-4.7-.1,2,.1,6.6,2.6,9.7A4.7,4.7,0,0,0,23.7,14.3Z" style="fill:#54585a"/><path d="M4.4,10.1a2.3,2.3,0,0,0,1,.7l1.3.2A3.8,3.8,0,0,0,9,10.4c2.7-2.1,3.7-5.9,4.1-7.7h-.3c-2,0-5.6.3-8.1,2.3C3.7,5.8,3,8.3,4,9.6Z" style="fill:#54585a"/><path d="M33.4,38.1a2.3,2.3,0,0,0,1,.7l1.3.2a3.8,3.8,0,0,0,2.2-.6c2.7-2.1,3.7-5.9,4.1-7.7h-.3c-2,0-5.6.3-8.1,2.3-1,.8-1.7,3.3-.7,4.5Z" style="fill:#54585a"/><path d="M37.2,9.3H37a3.8,3.8,0,0,0-1.8.4l-.9.5A4.9,4.9,0,0,0,32,13.6a6.2,6.2,0,0,0,.3,3.9c2.6,5,8.6,7.7,11,8.6.6-2.5,1.7-8.9-1-13.9A6.7,6.7,0,0,0,37.2,9.3Z" style="fill:#54585a"/><path d="M61,0H55.2l1.2,1.3c1.2,1.5,1.5,5.1-.5,6.7l-.6.5a3.7,3.7,0,0,1-1.8.7h-.6a5.7,5.7,0,0,1-4.2-1.8A14.4,14.4,0,0,1,45.9,0H42.2a12.2,12.2,0,0,1-3.5,5.2,4.7,4.7,0,0,1-2.9.9,4.9,4.9,0,0,1-1.7-.3,3.3,3.3,0,0,1-1.5-1l-.5-.6A4.3,4.3,0,0,1,31.9,0H0V69H31.6a4.9,4.9,0,0,1,1.5-2.9c2.8-2.2,6.7-2.6,8.8-2.6h1.4A18.9,18.9,0,0,1,41.7,69H46a21.2,21.2,0,0,1-.2-5.1s6.9.8,10.5,5.1H61ZM30.7,22.4c1.9,2.2.9,6.2-.7,7.7-4,3.6-10.3,3.9-12.2,3.9h-.6s.4-8,5.3-12.4a6.2,6.2,0,0,1,4-1.3l1.8.3a4.2,4.2,0,0,1,1.9,1.2Zm2.3,9.9c2.8-2.2,6.7-2.6,8.8-2.6h1.4s-.7,6.2-4.6,9.4a4.7,4.7,0,0,1-2.9.9,4.9,4.9,0,0,1-1.7-.3,3.3,3.3,0,0,1-1.5-1l-.5-.6C30.8,36.5,31.7,33.3,33.1,32.3ZM16.8,2s7,.8,10.6,5.2c1.2,1.5,1.5,5.1-.5,6.7l-.6.5a3.7,3.7,0,0,1-1.8.7h-.6a5.7,5.7,0,0,1-4.2-1.8C16,9,16.8,2,16.8,2ZM4,4.3C6.8,2,10.7,1.7,12.8,1.7h1.4S13.6,8,9.6,11.2a4.7,4.7,0,0,1-2.9.9,4.9,4.9,0,0,1-1.7-.3,3.3,3.3,0,0,1-1.5-1l-.5-.6C1.8,8.4,2.7,5.3,4,4.3ZM14.9,67.5s-9-2.8-12.5-9.5c-1.2-2.3-.7-7.1,2.3-8.7l1-.5a4.8,4.8,0,0,1,2.3-.5h.3a7.7,7.7,0,0,1,5.9,3.5C17.7,58.6,14.9,67.5,14.9,67.5ZM4,38.3c2.8-2.2,6.7-2.6,8.8-2.6h1.4s-.7,6.2-4.6,9.4a4.7,4.7,0,0,1-2.9.9,4.9,4.9,0,0,1-1.7-.3,3.3,3.3,0,0,1-1.5-1l-.5-.6C1.8,42.5,2.7,39.3,4,38.3Zm10.9-4.8S5.9,30.7,2.4,24c-1.2-2.3-.7-7.1,2.3-8.7l1-.5a4.8,4.8,0,0,1,2.3-.5h.3a7.7,7.7,0,0,1,5.9,3.5C17.7,24.5,14.9,33.5,14.9,33.5ZM16.8,36s7,.8,10.6,5.2c1.2,1.5,1.5,5.1-.5,6.7l-.6.5a3.7,3.7,0,0,1-1.8.7h-.6a5.7,5.7,0,0,1-4.2-1.8C16,43.1,16.8,36,16.8,36Zm13.3,28C26,67.7,19.8,68,17.8,68h-.6s.4-8,5.3-12.4a6.2,6.2,0,0,1,4-1.3l1.8.3a4.2,4.2,0,0,1,1.9,1.2l.6.7C32.7,58.6,31.7,62.6,30.1,64.1Zm13.9-2.7s-9-2.8-12.5-9.5c-1.2-2.3-.7-7.1,2.3-8.7l1-.5a4.8,4.8,0,0,1,2.3-.5h.3a7.7,7.7,0,0,1,5.9,3.5C46.7,52.4,43.9,61.4,43.9,61.4Zm0-33.9s-9-2.8-12.5-9.5c-1.2-2.3-.7-7.1,2.3-8.7l1-.5A4.8,4.8,0,0,1,37,8.3h.3a7.7,7.7,0,0,1,5.9,3.5C46.7,18.5,43.9,27.5,43.9,27.5ZM45.8,30s7,.8,10.6,5.2c1.2,1.5,1.5,5.1-.5,6.7l-.6.5a3.7,3.7,0,0,1-1.8.7h-.6a5.7,5.7,0,0,1-4.2-1.8C45,37.1,45.8,30,45.8,30ZM59.1,57.9c-4,3.6-10.3,3.9-12.2,3.9h-.6s.4-8,5.3-12.4a6.2,6.2,0,0,1,4-1.3l1.8.3a4.2,4.2,0,0,1,1.9,1.2l.6.7C61.7,52.4,60.7,56.4,59.1,57.9Zm0-33.9c-4,3.6-10.3,3.9-12.2,3.9h-.6s.4-8,5.3-12.4a6.2,6.2,0,0,1,4-1.3l1.8.3a4.2,4.2,0,0,1,1.9,1.2l.6.7C61.7,18.5,60.7,22.6,59.1,24Z" style="fill:#54585a"/><path d="M49.4,6.9a4.7,4.7,0,0,0,3.4,1.4h.5a2.7,2.7,0,0,0,1.4-.5l.6-.5a3.4,3.4,0,0,0,1.1-2.6,4.5,4.5,0,0,0-.7-2.7,10.1,10.1,0,0,0-2-1.9H46.9A13.4,13.4,0,0,0,49.4,6.9Z" style="fill:#54585a"/><path d="M58.4,50.2a3.2,3.2,0,0,0-1.5-.9l-1.5-.2a5.3,5.3,0,0,0-3.3,1c-3.5,3.1-4.5,8.4-4.8,10.6,2.2-.1,7.6-.5,11.1-3.6,1.3-1.2,2.1-4.6.6-6.2Z" style="fill:#54585a"/><path d="M58.4,16.4a3.2,3.2,0,0,0-1.5-.9l-1.5-.2a5.3,5.3,0,0,0-3.3,1c-3.5,3.1-4.5,8.4-4.8,10.6,2.2-.1,7.6-.5,11.1-3.6,1.3-1.2,2.1-4.6.6-6.2Z" style="fill:#54585a"/><path d="M33,3.6l.4.6a2.3,2.3,0,0,0,1,.7l1.3.2A3.8,3.8,0,0,0,38,4.4,10.9,10.9,0,0,0,41.1,0H33A3.6,3.6,0,0,0,33,3.6Z" style="fill:#54585a"/><path d="M26.4,21.2a5.3,5.3,0,0,0-3.3,1c-3.5,3.1-4.5,8.4-4.8,10.6,2.2-.1,7.6-.5,11.1-3.6,1.3-1.2,2.1-4.6.6-6.2l-.6-.7a3.2,3.2,0,0,0-1.5-.9Z" style="fill:#54585a"/><path d="M29.4,56.4a3.2,3.2,0,0,0-1.5-.9l-1.5-.2a5.3,5.3,0,0,0-3.3,1c-3.5,3.1-4.5,8.4-4.8,10.6,2.2-.1,7.6-.5,11.1-3.6,1.3-1.2,2.1-4.6.6-6.2Z" style="fill:#54585a"/><path d="M23.7,48.3h.5a2.7,2.7,0,0,0,1.4-.5l.6-.5a3.4,3.4,0,0,0,1.1-2.6,4.5,4.5,0,0,0-.7-2.7c-2.5-3.1-6.9-4.3-8.9-4.7-.1,2,.1,6.6,2.6,9.7A4.7,4.7,0,0,0,23.7,48.3Z" style="fill:#54585a"/><path d="M8.2,15.3H7.9a3.8,3.8,0,0,0-1.8.4l-.9.5a4.9,4.9,0,0,0-2.2,3.4,6.2,6.2,0,0,0,.3,3.9c2.6,5,8.6,7.7,11,8.6.6-2.5,1.7-8.9-1-13.9A6.7,6.7,0,0,0,8.2,15.3Z" style="fill:#54585a"/><path d="M37.2,43.2H37a3.8,3.8,0,0,0-1.8.4l-.9.5A4.9,4.9,0,0,0,32,47.5a6.2,6.2,0,0,0,.3,3.9c2.6,5,8.6,7.7,11,8.6.6-2.5,1.7-8.9-1-13.9A6.7,6.7,0,0,0,37.2,43.2Z" style="fill:#54585a"/><path d="M4.4,44.1a2.3,2.3,0,0,0,1,.7l1.3.2A3.8,3.8,0,0,0,9,44.4c2.7-2.1,3.7-5.9,4.1-7.7h-.3c-2,0-5.6.3-8.1,2.3-1,.8-1.7,3.3-.7,4.5Z" style="fill:#54585a"/><path d="M8.2,49.4H7.9a3.8,3.8,0,0,0-1.8.4l-.9.5a4.9,4.9,0,0,0-2.2,3.4,6.2,6.2,0,0,0,.3,3.9c2.6,5,8.6,7.7,11,8.6.6-2.5,1.7-8.9-1-13.9A6.7,6.7,0,0,0,8.2,49.4Z" style="fill:#54585a"/><path d="M37.3,8.3H37a4.8,4.8,0,0,0-2.3.5l-1,.5c-3,1.6-3.5,6.4-2.3,8.7,3.5,6.7,12.5,9.5,12.5,9.5s2.8-9-.8-15.7A7.7,7.7,0,0,0,37.3,8.3Zm6,17.9c-2.4-.9-8.3-3.7-11-8.6a6.2,6.2,0,0,1-.3-3.9,4.9,4.9,0,0,1,2.2-3.4l.9-.5A3.8,3.8,0,0,1,37,9.3h.3a6.7,6.7,0,0,1,5.1,2.9C44.9,17.3,43.8,23.7,43.2,26.2Z" style="fill:#5a5e60"/><path d="M59.2,15.7a4.2,4.2,0,0,0-1.9-1.2l-1.8-.3a6.2,6.2,0,0,0-4,1.3c-4.8,4.3-5.3,12.4-5.3,12.4h.6c2,0,8.2-.3,12.2-3.9,1.6-1.5,2.6-5.5.7-7.7Zm-.7,7.6c-3.5,3.1-8.9,3.6-11.1,3.6.3-2.2,1.4-7.5,4.8-10.6a5.3,5.3,0,0,1,3.3-1l1.5.2a3.2,3.2,0,0,1,1.5.9l.6.7C60.5,18.7,59.7,22.1,58.4,23.3Z" style="fill:#5a5e60"/><path d="M32.6,38.8a3.3,3.3,0,0,0,1.5,1,4.9,4.9,0,0,0,1.7.3,4.7,4.7,0,0,0,2.9-.9c4-3.2,4.6-9.4,4.6-9.4H41.8c-2.1,0-6,.3-8.8,2.6s-2.3,4.2-.9,5.9Zm1-5.7c2.5-2,6.2-2.3,8.1-2.3h.3c-.4,1.8-1.4,5.6-4.1,7.7a3.8,3.8,0,0,1-2.2.6l-1.3-.2a2.3,2.3,0,0,1-1-.7l-.4-.6C32,36.4,32.7,33.9,33.7,33.1Z" style="fill:#5a5e60"/><path d="M52.8,43.3h.6a3.7,3.7,0,0,0,1.8-.7l.6-.5c2-1.6,1.7-5.2.5-6.7C52.9,30.8,45.8,30,45.8,30s-.8,7,2.8,11.5A5.7,5.7,0,0,0,52.8,43.3Zm-6-12.1c2,.4,6.4,1.6,8.9,4.7a4.5,4.5,0,0,1,.7,2.7,3.4,3.4,0,0,1-1.1,2.6l-.6.5a2.7,2.7,0,0,1-1.4.5h-.5a4.7,4.7,0,0,1-3.4-1.4C46.9,37.8,46.7,33.3,46.8,31.2Z" style="fill:#5a5e60"/><path d="M8.2,14.3H7.9a4.8,4.8,0,0,0-2.3.5l-1,.5c-3,1.6-3.5,6.4-2.3,8.7,3.5,6.7,12.5,9.5,12.5,9.5s2.8-9-.8-15.7A7.7,7.7,0,0,0,8.2,14.3Zm6,17.9c-2.4-.9-8.3-3.7-11-8.6a6.2,6.2,0,0,1-.3-3.9,4.9,4.9,0,0,1,2.2-3.4l.9-.5a3.8,3.8,0,0,1,1.8-.4h.3a6.7,6.7,0,0,1,5.1,2.9C15.9,23.3,14.8,29.7,14.2,32.2Z" style="fill:#5a5e60"/><path d="M26.4,20.2a6.2,6.2,0,0,0-4,1.3c-4.8,4.3-5.3,12.4-5.3,12.4h.6c2,0,8.2-.3,12.2-3.9,1.6-1.5,2.6-5.5.7-7.7l-.6-.7a4.2,4.2,0,0,0-1.9-1.2ZM30,23c1.5,1.7.7,5.1-.6,6.2-3.5,3.1-8.9,3.6-11.1,3.6.3-2.2,1.4-7.5,4.8-10.6a5.3,5.3,0,0,1,3.3-1l1.5.2a3.2,3.2,0,0,1,1.5.9Z" style="fill:#5a5e60"/><path d="M5.1,45.8a4.9,4.9,0,0,0,1.7.3,4.7,4.7,0,0,0,2.9-.9c4-3.2,4.6-9.4,4.6-9.4H12.8c-2.1,0-6,.3-8.8,2.6s-2.3,4.2-.9,5.9l.5.6A3.3,3.3,0,0,0,5.1,45.8Zm-.4-6.7c2.5-2,6.2-2.3,8.1-2.3h.3c-.4,1.8-1.4,5.6-4.1,7.7a3.8,3.8,0,0,1-2.2.6l-1.3-.2a2.3,2.3,0,0,1-1-.7L4,43.6C3,42.4,3.7,39.9,4.7,39.1Z" style="fill:#5a5e60"/><path d="M23.7,49.3h.6a3.7,3.7,0,0,0,1.8-.7l.6-.5c2-1.6,1.7-5.2.5-6.7C23.8,36.8,16.8,36,16.8,36s-.8,7,2.8,11.5A5.7,5.7,0,0,0,23.7,49.3Zm-6-12.1c2,.4,6.4,1.6,8.9,4.7a4.5,4.5,0,0,1,.7,2.7,3.4,3.4,0,0,1-1.1,2.6l-.6.5a2.7,2.7,0,0,1-1.4.5h-.5a4.7,4.7,0,0,1-3.4-1.4C17.9,43.8,17.7,39.3,17.7,37.2Z" style="fill:#5a5e60"/><path d="M3.6,10.8a3.3,3.3,0,0,0,1.5,1,4.9,4.9,0,0,0,1.7.3,4.7,4.7,0,0,0,2.9-.9c4-3.2,4.6-9.4,4.6-9.4H12.8c-2.1,0-6,.3-8.8,2.6s-2.3,4.2-.9,5.9ZM4.7,5c2.5-2,6.2-2.3,8.1-2.3h.3c-.4,1.8-1.4,5.6-4.1,7.7a3.8,3.8,0,0,1-2.2.6l-1.3-.2a2.3,2.3,0,0,1-1-.7L4,9.6C3,8.3,3.7,5.8,4.7,5Z" style="fill:#5a5e60"/><path d="M23.7,15.3h.6a3.7,3.7,0,0,0,1.8-.7l.6-.5c2-1.6,1.7-5.2.5-6.7C23.8,2.8,16.8,2,16.8,2S16,9,19.6,13.5A5.7,5.7,0,0,0,23.7,15.3Zm-6-12.1c2,.4,6.4,1.6,8.9,4.7a4.5,4.5,0,0,1,.7,2.7,3.4,3.4,0,0,1-1.1,2.6l-.6.5a2.7,2.7,0,0,1-1.4.5h-.5a4.7,4.7,0,0,1-3.4-1.4C17.9,9.8,17.7,5.2,17.7,3.2Z" style="fill:#5a5e60"/><path d="M8.2,48.4H7.9a4.8,4.8,0,0,0-2.3.5l-1,.5c-3,1.6-3.5,6.4-2.3,8.7,3.5,6.7,12.5,9.5,12.5,9.5s2.8-9-.8-15.7A7.7,7.7,0,0,0,8.2,48.4Zm6,17.9c-2.4-.9-8.3-3.7-11-8.6a6.2,6.2,0,0,1-.3-3.9,4.9,4.9,0,0,1,2.2-3.4l.9-.5a3.8,3.8,0,0,1,1.8-.4h.3a6.7,6.7,0,0,1,5.1,2.9C15.9,57.3,14.8,63.8,14.2,66.2Z" style="fill:#5a5e60"/><path d="M30.1,55.7a4.2,4.2,0,0,0-1.9-1.2l-1.8-.3a6.2,6.2,0,0,0-4,1.3c-4.8,4.3-5.3,12.4-5.3,12.4h.6c2,0,8.2-.3,12.2-3.9,1.6-1.5,2.6-5.5.7-7.7Zm-.7,7.6c-3.5,3.1-8.9,3.6-11.1,3.6.3-2.2,1.4-7.5,4.8-10.6a5.3,5.3,0,0,1,3.3-1l1.5.2a3.2,3.2,0,0,1,1.5.9l.6.7C31.5,58.8,30.7,62.1,29.4,63.3Z" style="fill:#5a5e60"/><path d="M32.2,4.2l.5.6a3.3,3.3,0,0,0,1.5,1,4.9,4.9,0,0,0,1.7.3,4.7,4.7,0,0,0,2.9-.9A12.2,12.2,0,0,0,42.2,0H41.1A10.9,10.9,0,0,1,38,4.4a3.8,3.8,0,0,1-2.2.6l-1.3-.2a2.3,2.3,0,0,1-1-.7L33,3.6A3.6,3.6,0,0,1,33,0H31.9A4.3,4.3,0,0,0,32.2,4.2Z" style="fill:#5a5e60"/><path d="M52.8,9.3h.6a3.7,3.7,0,0,0,1.8-.7l.6-.5c2-1.6,1.7-5.2.5-6.7L55.2,0H53.6a10.1,10.1,0,0,1,2,1.9,4.5,4.5,0,0,1,.7,2.7,3.4,3.4,0,0,1-1.1,2.6l-.6.5a2.7,2.7,0,0,1-1.4.5h-.5a4.7,4.7,0,0,1-3.4-1.4A13.4,13.4,0,0,1,46.9,0h-1a14.4,14.4,0,0,0,2.7,7.5A5.7,5.7,0,0,0,52.8,9.3Z" style="fill:#5a5e60"/><path d="M37.3,42.2H37a4.8,4.8,0,0,0-2.3.5l-1,.5c-3,1.6-3.5,6.4-2.3,8.7,3.5,6.7,12.5,9.5,12.5,9.5s2.8-9-.8-15.7A7.7,7.7,0,0,0,37.3,42.2Zm6,17.9c-2.4-.9-8.3-3.7-11-8.6a6.2,6.2,0,0,1-.3-3.9,4.9,4.9,0,0,1,2.2-3.4l.9-.5a3.8,3.8,0,0,1,1.8-.4h.3a6.7,6.7,0,0,1,5.1,2.9C44.9,51.1,43.8,57.6,43.2,60.1Z" style="fill:#5a5e60"/><path d="M59.2,49.5a4.2,4.2,0,0,0-1.9-1.2l-1.8-.3a6.2,6.2,0,0,0-4,1.3c-4.8,4.3-5.3,12.4-5.3,12.4h.6c2,0,8.2-.3,12.2-3.9,1.6-1.5,2.6-5.5.7-7.7Zm-.7,7.6c-3.5,3.1-8.9,3.6-11.1,3.6.3-2.2,1.3-7.5,4.8-10.6a5.3,5.3,0,0,1,3.3-1l1.5.2a3.2,3.2,0,0,1,1.5.9l.6.7C60.5,52.6,59.7,56,58.4,57.1Z" style="fill:#5a5e60"/><path d="M41.8,63.6c-2.1,0-6,.3-8.8,2.6A4.9,4.9,0,0,0,31.6,69h1a3.8,3.8,0,0,1,1.1-2.1c2.5-2,6.2-2.3,8.1-2.3h.3A17.7,17.7,0,0,1,40.6,69h1.1a18.9,18.9,0,0,0,1.6-5.4Z" style="fill:#5a5e60"/><path d="M45.8,63.9A21.2,21.2,0,0,0,46,69h1a21.1,21.1,0,0,1-.3-3.9c1.8.4,5.6,1.4,8.2,3.9h1.4C52.7,64.7,45.8,63.9,45.8,63.9Z" style="fill:#5a5e60"/></svg>