<svg xmlns="http://www.w3.org/2000/svg" width="170.12" height="104.86" viewBox="0 0 170.12 104.86"><title>bon voyage</title><path d="M98.44 17.87h-26.6a3.41 3.41 0 0 0-3.41 3.41v3.85h33.41v-3.85a3.41 3.41 0 0 0-3.4-3.41z" fill="none"/><path d="M98.44 9.05h-26.6a12.25 12.25 0 0 0-12.23 12.23v3.85h6.82v-3.85a5.42 5.42 0 0 1 5.41-5.41h26.6a5.41 5.41 0 0 1 5.4 5.41v3.85h6.82v-3.85A12.24 12.24 0 0 0 98.44 9.05z" fill="none"/><path d="M59.61 21.28A12.25 12.25 0 0 1 71.84 9.05h26.6a12.24 12.24 0 0 1 12.22 12.23v3.85h2v-3.85A14.24 14.24 0 0 0 98.44 7.05h-26.6a14.25 14.25 0 0 0-14.23 14.23v3.85h2z" fill="#09b2d4"/><path d="M98.44 15.87h-26.6a5.42 5.42 0 0 0-5.41 5.41v3.85h2v-3.85a3.41 3.41 0 0 1 3.41-3.41h26.6a3.41 3.41 0 0 1 3.4 3.41v3.85h2v-3.85a5.41 5.41 0 0 0-5.4-5.41z" fill="#09b2d4"/><circle cx="92.08" cy="64.39" r="3.79" fill="#fff"/><path d="M134.1 27.13h-5.87v29a83 83 0 0 0 12.39-26.83 10.87 10.87 0 0 0-6.52-2.17zM25.09 38.13v51.73a10.82 10.82 0 0 0 1.22 5q9 0 17.43-.59V27.13h-7.65a11 11 0 0 0-11 11zm7.71 5.49a1 1 0 0 1-.71-1.71l1.66-1.66a1 1 0 0 1 1.41 0 1 1 0 0 1 0 1.42l-1.65 1.65a1 1 0 0 1-.71.3zm6.94-1.77a1 1 0 0 1 0 1.42l-3.48 3.47a1 1 0 0 1-1.41-1.41l3.47-3.48a1 1 0 0 1 1.42 0zM66.34 51.035l18.25-8.275 4.193 9.244L70.53 60.28z" fill="#fff"/><path d="M54.93 27.13v66.08C81 90 102 82 117 68.59V27.13zm42.94 37.26a5.8 5.8 0 1 1-5.79-5.8 5.8 5.8 0 0 1 5.79 5.8zM85.59 40.11L91.43 53l-21.89 9.92L63.69 50z" fill="#fff"/><path d="M69.54 62.92L91.43 53l-5.84-12.89L63.69 50zm15-20.16L88.79 52l-18.26 8.28L66.34 51zM86.28 64.39a5.8 5.8 0 1 0 5.8-5.8 5.8 5.8 0 0 0-5.8 5.8zm5.8-3.8a3.8 3.8 0 1 1-3.8 3.8 3.8 3.8 0 0 1 3.8-3.8zM14.07 14.2a.5.5 0 0 0-.1-.55L9.85 9.53h4.45l1.7 1.75a.54.54 0 0 0 .36.14h2a.51.51 0 0 0 .46-.3.53.53 0 0 0-.11-.55L16.06 7.9v-.19l2.66-2.66a.51.51 0 0 0 .11-.54.5.5 0 0 0-.46-.31h-2a.54.54 0 0 0-.36.14L14.38 6H9.86L14 1.9a.49.49 0 0 0 .1-.54.49.49 0 0 0-.46-.31h-3a.52.52 0 0 0-.36.14L5.59 5.9a.3.3 0 0 0-.07.1H1.76a1.77 1.77 0 0 0 0 3.53h3.75a.42.42 0 0 0 .08.12l4.7 4.71a.52.52 0 0 0 .36.14h3a.49.49 0 0 0 .42-.3zM22.45 8.77h17.83a1 1 0 0 0 0-2H22.45a1 1 0 0 0 0 2zM34.92 11.1a1 1 0 0 0 1 1h10.93a1 1 0 0 0 0-2H35.92a1 1 0 0 0-1 1zM30.27 5.58h5.46a1 1 0 0 0 0-2h-5.46a1 1 0 0 0 0 2z" fill="#09b2d4"/><path d="M147.1 38.13v51.73a13 13 0 0 1-6.1 11h7.84a8.62 8.62 0 0 0 1.44-4.77V34.9a8.83 8.83 0 0 0-8.83-8.77c-.09.38-.2.73-.29 1.1a13 13 0 0 1 5.94 10.9zM24.1 94.87h-1.65a10.71 10.71 0 0 0 2 6h4.77a13.11 13.11 0 0 1-5.12-6zM128.23 102.86h-102a7.81 7.81 0 0 0 5.05 2h110.17a8.82 8.82 0 0 0 5.6-2h-18.82zM26.31 94.87a11 11 0 0 0 9.78 6h7.65v-6.59q-8.41.59-17.43.59z" fill="#e6f7fb"/><path d="M145.1 89.86V38.13a11 11 0 0 0-4.48-8.83 83 83 0 0 1-12.39 26.83v44.73h5.87a11 11 0 0 0 11-11zM54.93 93.21v7.65H117V68.59C102 82 81 90 54.93 93.21z" fill="#e6f7fb"/><path d="M128.23 27.13h5.87a11.06 11.06 0 0 1 11 11v51.73a11 11 0 0 1-11 11h6.9a13 13 0 0 0 6.1-11V38.13a13 13 0 0 0-13-13h-5.87zM54.93 27.13h62.11v-2H54.93v2M29.19 100.86h6.9a11 11 0 0 1-9.78-6 10.82 10.82 0 0 1-1.22-5V38.13a11 11 0 0 1 11-11h7.65v-2h-7.65a13 13 0 0 0-13 13v51.73a12.88 12.88 0 0 0 1 5 13.11 13.11 0 0 0 5.1 6zM163.52 4.13a6.53 6.53 0 0 0-1.81.25 8.66 8.66 0 0 0-14.92-.24h-.28a6.62 6.62 0 0 0-6.61 6.6 1 1 0 0 0 1 1h28.22a1 1 0 0 0 1-1 6.61 6.61 0 0 0-6.6-6.61z" fill="#09b2d4"/><path d="M34.85 46.74a1 1 0 0 0 1.41 0l3.48-3.47a1 1 0 0 0-1.42-1.42l-3.47 3.48a1 1 0 0 0 0 1.41zM35.16 40.25a1 1 0 0 0-1.41 0l-1.66 1.66a1 1 0 1 0 1.42 1.41l1.65-1.65a1 1 0 0 0 0-1.42z" fill="#09b2d4"/><path fill="#fff" d="M45.74 27.13h7.19v73.73h-7.19zM119.04 27.13h7.19v73.73h-7.19z"/><path d="M155.94 100.86h-27.71V25.13H117v75.73H54.93V25.13H43.74v75.73H14.25a1 1 0 0 0 0 2h141.69a1 1 0 0 0 0-2zm-36.9 0V27.13h7.19v73.73zm-73.3 0V27.13h7.19v73.73z" fill="#09b2d4"/></svg>