<svg id="Learn" xmlns="http://www.w3.org/2000/svg" width="80.06" height="25.44" viewBox="0 0 80.06 25.44"><defs><style>.cls-1{fill:#43b02a;}</style></defs><title>learn</title><path class="cls-1" d="M78.62,18.1a1.88,1.88,0,0,0-1.25.43c-.58.43-1.73,1.54-2.83,1.54a1,1,0,0,1-1-1.1c0-1.44.43-3.07.43-5.28A3.48,3.48,0,0,0,70.22,10c-2,0-4.18,2-5.52,4.18-.14-3.26.29-4.08-1.82-4.08a2.32,2.32,0,0,0-2.06,2.4c0,2.2-.05,4.12,0,5.7-1.13.46-2,2-3.8,2-.62,0-.82-.29-.82-.67a11.91,11.91,0,0,1,1.2-3.6,3.35,3.35,0,0,0,.29-1.44,2.64,2.64,0,0,0-2.21-2.78c-.62,0-1.63.19-2.45.19-1.1,0-1.73-.1-1.73-.72,0-2-1.25-3.17-2.5-3.17-1.63,0-2.4,1.54-2.4,3a2.83,2.83,0,0,0,1.2,2.5,15.42,15.42,0,0,1-2.15,5.35,4,4,0,0,1-2.37,1.14c-.82,0-1-.62-1-1.3s.91-4.22.91-6.34c0-.77-1.34-.91-2.06-.91a4,4,0,0,0-2.64-1c-4.1,0-7.47,4.25-7.66,8l-.21.15c-2.16,1.73-4.27,2.3-6,1.54a6.33,6.33,0,0,0,3.5-5.42,4.07,4.07,0,0,0-4.37-4.22C19,10.51,18,15,18,16.8a7.37,7.37,0,0,0,.41,2.43c-.79.45-1.21,1.32-2.81,1.32A17.37,17.37,0,0,1,9.26,19v-.43C9.17,15.36,8,12.48,8,8.78c0-3.26,1.68-4.85,3.5-4.85,1.2,0,2.16.53,2.16,1.73a2.78,2.78,0,0,1-2.26,2.69c-.58.19-1,.43-1,1.25,0,1.58.86,2.06,1.58,2.06,3.31,0,5.52-3,5.52-6.19A5.29,5.29,0,0,0,12,0C7.68,0,4.08,3.22,4.08,8.88c0,3.36,1.54,6.24,1.58,9a6.45,6.45,0,0,0-1,0A4.39,4.39,0,0,0,0,22.08c0,1.68,1.2,3.36,4.18,3.36a4.65,4.65,0,0,0,4.56-2.88A18,18,0,0,0,15.84,24a5.9,5.9,0,0,0,4.68-1.76,7.34,7.34,0,0,0,4.68,1.52,10.53,10.53,0,0,0,6.49-1.85,4.59,4.59,0,0,0,3.45,1.51,6.15,6.15,0,0,0,4-1.58,4.1,4.1,0,0,0,3.7,1.78,6.51,6.51,0,0,0,3.13-.86,1.83,1.83,0,0,0,.38,0,1.77,1.77,0,0,0,1.49-.58c1.63-1.78,2.83-6,3.17-7.49,1.39.62,2.93.1,2.93,1.3s-1.3,2.3-1.3,4.61c0,1.87,1.25,3.12,3.84,3.12a7.67,7.67,0,0,0,4.77-1.65,1.49,1.49,0,0,0,1.47,1.12c1.63,0,2.16-1,2.11-3.89,1-2.54,3.26-5.71,4.75-5.71.72,0,1,.62,1,1.58s-.38,2.74-.38,4.51c0,2.83,1.92,3.89,4,3.89a7.23,7.23,0,0,0,5.66-3.12,2,2,0,0,0,.24-1A1.5,1.5,0,0,0,78.62,18.1ZM4.18,22.37c-.67,0-.82-.38-.82-.67,0-.82,1.3-1.15,2.26-.72A1.58,1.58,0,0,1,4.18,22.37Zm17.76-3.84A3,3,0,0,1,21.55,17c0-1.54.91-2.93,1.92-2.93a1,1,0,0,1,1,1.1A4.29,4.29,0,0,1,21.94,18.53ZM38.64,18a4.6,4.6,0,0,1-2.93,1.58A1.44,1.44,0,0,1,34.27,18a4.24,4.24,0,0,1,4.22-3.74.81.81,0,0,1,.82.82A5,5,0,0,1,38.64,18Z"/></svg>