<svg xmlns="http://www.w3.org/2000/svg" width="100%" height="63" viewBox="0 0 168.9 63"><title>logo-small</title><polygon points="65.3 59.2 60 43.4 63.9 43.4 67.6 56.2 71.2 43.4 75.1 43.4 69.9 59.2 65.3 59.2" style="fill:#54585a"/><rect x="78.9" y="43.4" width="3.6" height="15.79" style="fill:#54585a"/><polygon points="91.5 59.2 91.5 46.2 85.9 46.2 85.9 43.4 100.3 43.4 100.3 46.2 95.2 46.2 95.2 59.2 91.5 59.2" style="fill:#54585a"/><path d="M104.7,54h5.7l-2.9-7.9Zm7.1,5.2-.8-2.8h-6.9l-.8,2.8H100l5.1-15.8H110l5.3,15.8Z" style="fill:#54585a"/><polygon points="132.7 59.2 132.7 47.7 127.2 55.8 121.7 47.7 121.7 59.2 118.3 59.2 118.3 43.4 123 43.4 127.2 49.9 131.5 43.4 136.2 43.4 136.2 59.2 132.7 59.2" style="fill:#54585a"/><rect x="141.5" y="43.4" width="3.6" height="15.79" style="fill:#54585a"/><polygon points="162.9 59.2 153.9 48.6 153.9 59.2 150.4 59.2 150.4 43.4 155.2 43.4 163.4 53.4 163.4 43.4 166.1 43.4 166.1 59.2 162.9 59.2" style="fill:#54585a"/><path d="M11.6,0A8.9,8.9,0,0,0,7,1l-1.7.9C-.1,4.7-1.1,13.4,1.1,17.5c6.4,12,22.6,17.1,22.6,17.1s5-16.2-1.4-28.3C20.6,3.2,16.1.3,11.6,0" style="fill:#d6ef98"/><path d="M47.6,11.1A7.6,7.6,0,0,1,51,13.3l1.1,1.2c3.5,3.9,1.7,11.2-1.2,13.8-8.7,7.8-23.2,7-23.2,7s.8-14.5,9.5-22.3c2.2-2,6.7-3,10.4-1.9" style="fill:#7bc869"/><path d="M5.9,56.6a5.9,5.9,0,0,1-2.6-1.8l-.8-1C0,50.7,1.7,45.1,4.1,43.1c7.1-5.7,18.4-4.5,18.4-4.5s-1.2,11.2-8.3,17a9.2,9.2,0,0,1-8.2,1" style="fill:#43b02a"/><path d="M40.7,62.9A6.7,6.7,0,0,0,44,61.6l1.1-.9c3.6-2.9,3.1-9.4.9-12.1-6.4-8-19.1-9.4-19.1-9.4s-1.4,12.7,5,20.7c1.6,2,5.4,3.6,8.7,3.1" style="fill:#c5e86c"/><path d="M89.4,12.9s.5,6.1.3,8.6a2.4,2.4,0,0,1-2.4,2.4,2.6,2.6,0,0,1-2.6-2.5c-.2-1.7.3-8.5.3-8.5h-7l-.3,7.6c0,5.2,3.1,9.6,9.9,9.6,0,0,9.1.2,9.1-9.6l-.3-7.6Z" style="fill:#54585a"/><polygon points="145.2 12.9 145.2 12.9 145.2 12.9 145.2 12.9" style="fill:#54585a"/><polygon points="138.1 22 145.2 12.9 145.2 12.9 136.2 12.9 130.8 20.1 130.8 12.9 123.1 12.9 123.1 37.5 130.8 37.5 130.8 30.9 132.9 28.3 138.2 37.5 147.3 37.5 138.1 22" style="fill:#54585a"/><polygon points="160.5 12.9 156.2 21.8 150.1 12.9 145.3 19.5 152 30.4 148.7 37.5 157.9 37.5 168.9 12.9 160.5 12.9" style="fill:#54585a"/><path d="M112.1,31.1c-3.1,0-5.5-2.1-5.5-5.8s2.5-5.9,5.5-5.9a5.2,5.2,0,0,1,4.1,2.2l3.6-5.1a11.4,11.4,0,0,0-8.7-3.7c-6.5,0-11.7,4.7-11.7,12.4s5.2,12.4,11.7,12.4a11.5,11.5,0,0,0,8.7-3.7l-3.6-5.1a5.1,5.1,0,0,1-4.1,2.2" style="fill:#54585a"/><polygon points="68.6 31.1 68.6 12.8 59.8 12.8 59.8 37.5 79.2 37.5 81.1 31.1 68.6 31.1" style="fill:#54585a"/></svg>
