<svg id="Layer_1" data-name="Layer 1" xmlns="http://www.w3.org/2000/svg" width="188" height="188" viewBox="0 0 188 188"><title>Lucky Kids</title><g style="opacity:0.67"><path d="M87.73,4.34c3.45-5.79,9.09-5.79,12.54,0a9.86,9.86,0,0,0,15.48,2.45c5.06-4.44,10.43-2.69,11.92,3.87a9.86,9.86,0,0,0,14,7.12c6.19-2.65,10.75.66,10.14,7.36a9.87,9.87,0,0,0,11.09,11.09c6.7-.61,10,4,7.36,10.14a9.86,9.86,0,0,0,7.12,14c6.56,1.49,8.31,6.86,3.87,11.92a9.86,9.86,0,0,0,2.45,15.48c5.79,3.45,5.79,9.09,0,12.54a9.86,9.86,0,0,0-2.45,15.48c4.44,5.06,2.69,10.43-3.87,11.92a9.86,9.86,0,0,0-7.12,14c2.65,6.19-.66,10.75-7.36,10.14a9.87,9.87,0,0,0-11.09,11.09c.61,6.7-4,10-10.14,7.36a9.86,9.86,0,0,0-14,7.12c-1.49,6.56-6.86,8.31-11.92,3.87a9.86,9.86,0,0,0-15.48,2.45c-3.45,5.79-9.09,5.79-12.54,0a9.86,9.86,0,0,0-15.48-2.45c-5.06,4.44-10.43,2.69-11.92-3.87a9.86,9.86,0,0,0-14-7.12c-6.19,2.65-10.75-.66-10.14-7.36a9.87,9.87,0,0,0-11.09-11.09c-6.7.61-10-4-7.36-10.14a9.86,9.86,0,0,0-7.12-14c-6.56-1.49-8.31-6.86-3.87-11.92a9.86,9.86,0,0,0-2.45-15.48c-5.79-3.45-5.79-9.09,0-12.54A9.86,9.86,0,0,0,6.79,72.25C2.35,67.19,4.1,61.82,10.66,60.33a9.86,9.86,0,0,0,7.12-14c-2.65-6.19.66-10.75,7.36-10.14A9.87,9.87,0,0,0,36.23,25.14c-.61-6.7,4-10,10.14-7.36a9.86,9.86,0,0,0,14-7.12c1.49-6.56,6.86-8.31,11.92-3.87A9.86,9.86,0,0,0,87.73,4.34Z" style="fill:#f7f7e3"/></g><path d="M62.19,79.23l2.09-8.51H46.11V39.3a95.43,95.43,0,0,0-10,7v33Z" style="fill:#43b02a"/><path d="M70.68,46.82s.5,6.68.3,9.4A2.61,2.61,0,0,1,68.4,58.9a2.79,2.79,0,0,1-2.86-2.73c-.18-1.83.3-9.35.3-9.35H58.13l-.31,8.34c0,5.74,3.4,10.55,10.89,10.55,0,0,10,.2,10-10.55l-.3-8.34Z" style="fill:#c5e86c"/><polygon points="126.66 56.75 134.55 46.59 134.54 46.58 124.48 46.58 118.56 54.65 118.56 31.82 110.04 31.82 110.04 73.95 118.56 73.95 118.56 66.56 120.86 63.7 126.73 73.95 136.79 73.95 126.66 56.75" style="fill:#c5e86c"/><polygon points="157.5 49.96 150.68 64.06 141.42 49.55 136.09 56.92 146.07 73.69 137.34 91.19 147.6 91.19 166.86 49.96 157.5 49.96" style="fill:#43b02a"/><path d="M96.55,71.25c-3.37,0-6.06-2.36-6.06-6.37s2.69-6.44,6.06-6.44A5.68,5.68,0,0,1,101,60.81l3.91-5.56a12.54,12.54,0,0,0-9.5-4c-7.1,0-12.84,5.14-12.84,13.63S88.33,78.5,95.43,78.5a12.61,12.61,0,0,0,9.51-4.06L101,68.89a5.64,5.64,0,0,1-4.48,2.36" style="fill:#43b02a"/><path d="M83.11,84.62a2.77,2.77,0,0,0-1.51.13L81,85c-1.81.7-2.43,3.42-1.9,4.78,1.58,4,6.52,6.2,6.52,6.2s2.17-4.93.59-9a4.44,4.44,0,0,0-3.13-2.36" style="fill:#d6ef98"/><path d="M94.05,89.43a2.44,2.44,0,0,1,1,.8l.3.43c1,1.35.13,3.59-.89,4.31-3,2.14-7.57,1.37-7.57,1.37s.77-4.54,3.8-6.69a3.78,3.78,0,0,1,3.34-.22" style="fill:#7bc869"/><path d="M79.25,102.3a1.79,1.79,0,0,1-.75-.67l-.22-.34A2.75,2.75,0,0,1,79.15,98c2.45-1.54,6-.75,6-.75s-.78,3.51-3.24,5.06a2.93,2.93,0,0,1-2.62,0" style="fill:#43b02a"/><path d="M90,105.54a2.12,2.12,0,0,0,1.1-.3l.39-.25c1.23-.77,1.31-2.87.73-3.79-1.73-2.76-5.68-3.68-5.68-3.68s-.91,4,.82,6.72a3.3,3.3,0,0,0,2.64,1.3" style="fill:#c5e86c"/><path d="M101.69,129.85a5.44,5.44,0,0,1-.66,2.54,15.31,15.31,0,0,1-12.34,6.83c-8.59,0-12.34-8.71-12.34-18.4,0-2.76.44-8,1.43-9.59s2.43-2.2,4.74-2.2a4.1,4.1,0,0,1,4.08,4.07c0,2-1.43,7.61-1.43,12,0,3.19,1.1,6.06,4.07,6.06,4.19,0,5.84-4.41,9-4.41A3.38,3.38,0,0,1,101.69,129.85Z" style="fill:#54585a"/><path d="M138.17,130.18a6.35,6.35,0,0,1-2.1,4.19c-1.65,1.65-5.95,5.07-10.14,5.07-5.28,0-7.16-2.42-8.26-4.85-1.43,1.54-5.07,4.74-9.92,4.74-7.71,0-12.12-6.83-12.12-13.22,0-11.68,9.48-17.3,14.77-17.3A9,9,0,0,1,115,110c-.11-1.65-.22-3.31-.22-5,0-11.79,2.86-21.71,7-21.71,3.63,0,4.41,3,4.41,7.06,0,9.14-2.87,28.76-4.52,35.59.22,2.64.33,5.29,4.18,5.29,3.53,0,5.73-4.52,8.71-4.52A3.46,3.46,0,0,1,138.17,130.18Zm-22.59-8.7c0-2.54-1.77-4.85-4.19-4.85-2.64,0-6.83,3.42-6.83,9,0,3,1.54,5.17,3.86,5.17,1.76,0,3.74-1.54,5.61-4.62A8.83,8.83,0,0,0,115.58,121.48Z" style="fill:#54585a"/><path d="M175.52,122.69a4.57,4.57,0,0,1-2,3.64,16.64,16.64,0,0,1-11.24,4c.22,5.84-3.86,9.92-10.25,9.92s-11.57-4.08-11.57-8.7a9.79,9.79,0,0,1,.22-1.88c-2.75,3.86-5.51,6.06-7.16,6.06a4,4,0,0,1-4.19-3.85,4.12,4.12,0,0,1,1.87-3.53c6.06-5,9.15-10.58,14.66-19.28,1.1-1.76,2.09-3,4.52-3,4.29,0,6.5,1.66,6.5,3.42,0,2.2-.55,3.19-.55,5,0,2.2,1.21,5.07,3.41,8.48,4,.33,5.84,0,8.93-2.31a5.12,5.12,0,0,1,3.3-1.32A3.45,3.45,0,0,1,175.52,122.69Zm-23.69.22c-1.21-1.43-2.09-4.85-2.2-7.27-1.77,2.75-3.75,6.61-5.4,9.48C146.54,123.68,148.63,123.24,151.83,122.91Zm3.19,7.93a3.15,3.15,0,0,0-.55-1.87c-1.43-.11-7.16-.44-7.16,2,0,1.87,2.32,2.75,4.41,2.75S155,132.61,155,130.84Z" style="fill:#54585a"/><path d="M25.8,70.76c-.73,23.56,5.67,39.78,5.78,50.29a255.36,255.36,0,0,0,.28,30.87c.65,7.54,3,11.4,5.12,7,2.33-4.73,3-19.11,7-26.29-.48,2.91-1.28,24.74-3.43,30.54-1.28,3.47-3.23,5.75-5.93,5.63-2.32-.1-4.73-1.76-6.25-5.76-4.09-10.79-2.58-31.59-2.87-45.2-.21-9.35-5.6-18,.26-47.09ZM40.78,88a8.5,8.5,0,0,0-1.14.08,5.07,5.07,0,0,1,3.68,4.66c0,2.76-2.58,5-5.76,5a6.22,6.22,0,0,1-4.07-1.46A7.35,7.35,0,1,0,40.78,88Zm41.09,63.43c1.15-4.47-6.68-9.31-12.91-12.61-5.47-2.89-11.9-9.17-12.86-16.24-.23-1.69,1-2.93,4-5.68,5.07-4.73,11.24-12.76,12.15-19.43.51-3.78-.56-7.72-2.68-8.72-3.27-1.56-6,1.62-9.47,5.73-4.6,5.53-10.2,12.83-17.94,13.47,18.4,2.15,23.06-20.14,26.19-14.67s-8.24,17-12.23,20.36c-3.24,2.75-6.59,5.17-6.68,8-.29,8.47,11.36,18.72,17.73,21.73,4.34,2,8.24,3.89,7.67,6.23-.44,1.8-3.36,2.61-7.82,1.73C60.65,150,53.77,145,48.27,140.59c.34,2.46,8.12,14.08,18.8,15.75C74.36,157.48,80.91,155.07,81.87,151.38Z" style="fill:#54585a"/><path d="M165,104.74V98.38h-2.32V97.2h5.91v1.18h-2.32v6.36Z" style="fill:#54585a"/><path d="M169.71,104.74V97.2h1.68l2,6h0l1.95-6h1.71v7.54h-1.23V99.12h0a13.19,13.19,0,0,1-.45,1.53l-1.46,4.09H172.8l-1.46-4.09a15,15,0,0,1-.46-1.58h0v5.67Z" style="fill:#54585a"/></svg>