<svg id="Lucky_Kids" data-name="Lucky Kids" xmlns="http://www.w3.org/2000/svg" width="390.45" height="344" viewBox="0 0 390.45 344"><title>lucky-kids-logo</title><path d="M105.24,100H58.56V19.21a247.48,247.48,0,0,0-25.68,17.9v84.74h67Z" style="fill:#fff"/><path d="M142.1,143.59c4,10.23,16.52,15.74,16.52,15.74s5.5-12.5,1.49-22.77c-1-2.6-4.4-5.39-7.93-6a7.16,7.16,0,0,0-3.82.33l-1.45.57C142.34,133.25,140.76,140.14,142.1,143.59Z" style="fill:#fff"/><path d="M183.28,145.88l-.77-1.08a6.09,6.09,0,0,0-2.58-2,9.49,9.49,0,0,0-8.47.56c-7.69,5.45-9.62,17-9.62,17s11.53,2,19.19-3.48C183.59,155,185.71,149.31,183.28,145.88Z" style="fill:#fff"/><path d="M139.93,172.82l.56.87a4.77,4.77,0,0,0,1.93,1.7,7.42,7.42,0,0,0,6.63-.08c6.22-3.93,8.22-12.82,8.22-12.82s-8.92-2-15.12,1.91C140.07,165.71,138.19,170,139.93,172.82Z" style="fill:#fff"/><path d="M160.92,163.28s-2.32,10,2.08,17a8.35,8.35,0,0,0,6.69,3.31,5.4,5.4,0,0,0,2.78-.78l1-.62c3.13-2,3.33-7.27,1.85-9.62C170.94,165.59,160.92,163.28,160.92,163.28Z" style="fill:#fff"/><path d="M377.52,218.42c-2.79,0-5,.84-8.38,3.35-7.82,5.87-12.57,6.7-22.63,5.87-5.59-8.66-8.66-15.92-8.66-21.51,0-4.47,1.4-7,1.4-12.57,0-4.47-5.59-8.66-16.48-8.66-6.15,0-8.66,3.07-11.45,7.54-14,22.07-21.79,36.31-37.15,48.88a20.68,20.68,0,0,0-2.29,2.18c-3.33,2.74-6.84,5.37-11.12,5.37-9.78,0-10.06-6.7-10.61-13.41,4.19-17.32,11.45-67,11.45-90.23,0-10.34-2-17.88-11.17-17.88-10.62,0-17.88,25.14-17.88,55,0,4.19.28,8.38.56,12.57a22.58,22.58,0,0,0-11.73-3.07c-13.41,0-37.43,14.25-37.43,43.86a36.11,36.11,0,0,0,.24,4.06c-4.7,3.28-9,8.79-16.44,8.79s-10.34-7.26-10.34-15.36c0-11.17,3.63-25.42,3.63-30.45,0-3.91-3.07-10.33-10.33-10.33-5.87,0-9.78,2-12,5.59-2.51,3.91-3.63,17.32-3.63,24.3,0,24.58,9.5,46.65,31.29,46.65,11.09,0,20.05-5.44,25.57-10.48a28.7,28.7,0,0,0,22.75,10.76c12.29,0,21.51-8.1,25.14-12,2.79,6.15,7.54,12.29,20.95,12.29,9.18,0,18.56-6.47,23.64-10.93,3.95-2.24,8.87-7,13.79-13.93a24.66,24.66,0,0,0-.56,4.75c0,11.73,13.13,22.07,29.33,22.07s26.54-10.34,26-25.14c14.53,0,23.74-5.87,28.49-10.06,3.63-2.79,5-6.15,5-9.22A8.75,8.75,0,0,0,377.52,218.42ZM230.59,236c-4.75,7.82-9.78,11.73-14.25,11.73-5.87,0-9.78-5.59-9.78-13.13,0-14.25,10.61-22.91,17.32-22.91,6.15,0,10.62,5.87,10.62,12.29C234.5,227.64,233.38,231.55,230.59,236Zm90.23-26.82c.28,6.15,2.51,14.81,5.59,18.44-8.1.84-13.41,2-19.27,5.59C311.32,226,316.35,216.19,320.82,209.2ZM326.12,255c-5.31,0-11.17-2.23-11.17-7,0-6.15,14.53-5.31,18.16-5a8,8,0,0,1,1.4,4.75C334.5,252.22,331.15,255,326.12,255Z" style="fill:#fff"/><path d="M116.63,87.08s25.73.52,25.73-27.12l-.78-21.42H121.7s1.28,17.16.78,24.17-6.64,6.87-6.64,6.87c-3.61,0-6.91-2.29-7.36-7s.78-24,.78-24H89.44L88.66,60C88.66,74.72,97.39,87.08,116.63,87.08Z" style="fill:#fff"/><polygon points="244.74 89.29 250.65 81.92 265.73 108.27 291.6 108.27 265.55 64.07 285.84 37.96 285.81 37.93 259.95 37.93 244.74 58.66 244.74 0 222.86 0 222.86 108.27 244.74 108.27 244.74 89.29" style="fill:#fff"/><polygon points="293.02 152.57 319.37 152.57 368.88 46.6 344.81 46.6 327.28 82.85 303.48 45.56 289.8 64.5 315.44 107.59 293.02 152.57" style="fill:#fff"/><path d="M185.31,119.95a32.33,32.33,0,0,0,24.42-10.41l-10-14.29a14.49,14.49,0,0,1-11.53,6.08c-8.64,0-15.56-6.06-15.56-16.38s6.92-16.54,15.56-16.54a14.62,14.62,0,0,1,11.51,6.09l10-14.3c-6.1-6.72-14.73-10.31-24.42-10.31-18.25,0-33,13.2-33,35S167.05,119.95,185.31,119.95Z" style="fill:#fff"/><path d="M44.88,176a18.49,18.49,0,1,0,0-37,19,19,0,0,0-2.88.22c5.46,1.83,9.34,6.43,9.34,11.81,0,7-6.54,12.66-14.61,12.66A15.76,15.76,0,0,1,26.39,160,18.6,18.6,0,0,0,44.88,176Z" style="fill:#fff"/><path d="M22.27,301.17c-3.15-36.52-.69-76.77-.71-78.24C21.27,196.28,5,155.15,6.9,95.42-8,169.26,5.72,191.11,6.23,214.81,7,249.3,3.15,302,13.52,329.39c3.85,10.16,10,14.35,15.83,14.6,6.86.3,11.8-5.48,15.05-14.25,5.45-14.72,7.46-70.06,8.68-77.44C42.8,270.49,41.14,307,35.24,318.94,29.76,330.08,23.92,320.3,22.27,301.17Z" style="fill:#fff"/><path d="M116.31,267.85c-13.85-7.34-30.16-23.25-32.61-41.18-.58-4.28,2.66-7.42,10.14-14.39,12.85-12,28.48-32.36,30.79-49.27,1.3-9.57-1.43-19.55-6.78-22.11-8.29-4-15.32,4.11-24,14.54C82.16,169.45,68,188,48.34,189.59c46.65,5.44,58.47-51.06,66.42-37.2,8,14-20.91,43.06-31,51.6-8.24,7-16.72,13.12-17,20.31-.72,21.49,28.8,47.46,45,55.09,11,5.19,20.88,9.87,19.43,15.78-1.12,4.58-8.51,6.64-19.82,4.39-16.12-3.21-33.57-16-47.51-27.1.86,6.23,20.6,35.68,47.67,39.91,18.49,2.89,35.08-3.23,37.51-12.58C152,288.48,132.11,276.21,116.31,267.85Z" style="fill:#fff"/><polygon points="362.99 181.56 362.99 165.46 368.87 165.46 368.87 162.46 353.87 162.46 353.87 165.46 359.76 165.46 359.76 181.56 362.99 181.56" style="fill:#fff"/><path d="M386.11,162.46l-5,15.15h-.05L376,162.46h-4.26v19.1h2.92V167.19h.05a32.66,32.66,0,0,0,1.16,4l3.69,10.35h2.86l3.72-10.35a38.85,38.85,0,0,0,1.14-3.9h.05v14.25h3.12v-19.1Z" style="fill:#fff"/></svg>