<svg xmlns="http://www.w3.org/2000/svg" width="204" height="100" viewBox="0 0 204 100"><title>luckyherbs-misson-logo</title><g style="isolation:isolate"><g id="lucky_herbs_herbal_supplements_by_lucky_vitmain" data-name="lucky herbs herbal supplements by lucky vitmain"><rect width="204" height="100" style="fill:none"/><path d="M2.3,55.59a15.65,15.65,0,1,0,31.31,0Z" style="fill:#6cca81"/><path d="M2.21,43.73a2.67,2.67,0,0,1,.4,0A2.67,2.67,0,0,0,2.21,43.73Z" style="fill:#2cb34a"/><path d="M2.76,43.71a2.55,2.55,0,0,1,.35,0A2.55,2.55,0,0,0,2.76,43.71Z" style="fill:#2cb34a"/><path d="M.76,44.46a2.61,2.61,0,0,0,0,3.69l6,6h3.7L.77,44.45Z" style="fill:#2cb34a"/><path d="M1.25,44.08a2.61,2.61,0,0,1,.38-.2A2.61,2.61,0,0,0,1.25,44.08Z" style="fill:#2cb34a"/><path d="M.86,44.38a2.65,2.65,0,0,1,.31-.25A2.65,2.65,0,0,0,.86,44.38Z" style="fill:#2cb34a"/><path d="M1.7,43.86a2.59,2.59,0,0,1,.41-.12A2.59,2.59,0,0,0,1.7,43.86Z" style="fill:#2cb34a"/><path d="M3.3,43.8a2.48,2.48,0,0,1,.29.09A2.47,2.47,0,0,0,3.3,43.8Z" style="fill:#2cb34a"/><path d="M3.85,44l.19.1Z" style="fill:#2cb34a"/><path d="M4,44.12a2.58,2.58,0,0,1,.41.33A2.58,2.58,0,0,0,4,44.12Z" style="fill:#fff;opacity:0.30000000000000004;mix-blend-mode:screen"/><path d="M1.18,44.12l.07,0Z" style="fill:#fff;opacity:0.30000000000000004;mix-blend-mode:screen"/><path d="M3.11,43.74l.19.06Z" style="fill:#fff;opacity:0.30000000000000004;mix-blend-mode:screen"/><path d="M.77,44.45h0l.1-.08Z" style="fill:#fff;opacity:0.30000000000000004;mix-blend-mode:screen"/><path d="M2.11,43.74h0Z" style="fill:#fff;opacity:0.30000000000000004;mix-blend-mode:screen"/><path d="M2.61,43.69h0Z" style="fill:#fff;opacity:0.30000000000000004;mix-blend-mode:screen"/><path d="M3.59,43.88a2.58,2.58,0,0,1,.26.14A2.58,2.58,0,0,0,3.59,43.88Z" style="fill:#fff;opacity:0.30000000000000004;mix-blend-mode:screen"/><path d="M1.63,43.88l.07,0Z" style="fill:#fff;opacity:0.30000000000000004;mix-blend-mode:screen"/><path d="M4.45,44.46A2.58,2.58,0,0,0,4,44.12L3.85,44a2.58,2.58,0,0,0-.26-.14,2.48,2.48,0,0,0-.29-.09l-.19-.06a2.55,2.55,0,0,0-.35,0H2.61a2.67,2.67,0,0,0-.4,0h-.1a2.59,2.59,0,0,0-.41.12l-.07,0a2.61,2.61,0,0,0-.38.2l-.07,0a2.65,2.65,0,0,0-.31.25l-.1.08,9.67,9.67h3.68Z" style="fill:#2cb34a"/><path d="M4.45,44.46A2.58,2.58,0,0,0,4,44.12L3.85,44a2.58,2.58,0,0,0-.26-.14,2.48,2.48,0,0,0-.29-.09l-.19-.06a2.55,2.55,0,0,0-.35,0H2.61a2.67,2.67,0,0,0-.4,0h-.1a2.59,2.59,0,0,0-.41.12l-.07,0a2.61,2.61,0,0,0-.38.2l-.07,0a2.65,2.65,0,0,0-.31.25l-.1.08,9.67,9.67h3.68Z" style="fill:#6cca81"/><path d="M14.92,28.79a8.15,8.15,0,0,0-6.27-3.7,5.24,5.24,0,0,0-2.75.56l-1,.54C1.7,27.86,1.13,33,2.39,35.41c3.76,7.12,13.34,10.08,13.34,10.08S18.7,35.93,14.92,28.79Z" style="fill:#cee4a7"/><path d="M31.83,41.79c1.72-1.55,2.79-5.85.73-8.14l-.65-.73a4.48,4.48,0,0,0-2-1.27,7,7,0,0,0-6.12,1.11c-5.14,4.61-5.59,13.15-5.59,13.15S26.71,46.38,31.83,41.79Z" style="fill:#6cca81"/><path d="M29,53.76C25.22,49,17.74,48.18,17.74,48.18A22.5,22.5,0,0,0,18,54.12H29.24A3.31,3.31,0,0,0,29,53.76Z" style="fill:#bad982"/><path d="M29.63,55.59H17.95V71.25A15.65,15.65,0,0,0,33.6,55.59Z" style="fill:#2cb34a"/><path d="M49.47,48.07a1.48,1.48,0,0,0,.81-.22,1.42,1.42,0,0,0,.49-1,1.78,1.78,0,0,1,.33-.9.69.69,0,0,1,.45-.16.57.57,0,0,1,.39.2.73.73,0,0,1,.2.54,16,16,0,0,0,.15,2.18q0,.68-.65.61a12.28,12.28,0,0,0-1.32-.05H40.55q-1.15,0-1.15-.6,0-.39.21-.5a1.54,1.54,0,0,1,.63-.12q.82-.05,1-.43a1.85,1.85,0,0,0,.2-.87V33.63a1.57,1.57,0,0,0-.23-.83,1.71,1.71,0,0,0-1-.61,2.1,2.1,0,0,1-.92-.44.74.74,0,0,1-.16-.46.39.39,0,0,1,.19-.29.73.73,0,0,1,.45-.14,3.79,3.79,0,0,1,.85.23,4.5,4.5,0,0,0,1.48.23,6.92,6.92,0,0,0,1.92-.26,5.83,5.83,0,0,1,1.16-.26.72.72,0,0,1,.51.21.61.61,0,0,1,.22.45.5.5,0,0,1-.13.35,1.43,1.43,0,0,1-.68.25,2.3,2.3,0,0,0-1,.38,1.75,1.75,0,0,0-.49,1.4V46.4a2.13,2.13,0,0,0,.3,1.3,1,1,0,0,0,.86.36Z" style="fill:#515555"/><path d="M56.68,43.91a1.28,1.28,0,0,0,.47,1,1.66,1.66,0,0,0,1.11.4A1.94,1.94,0,0,0,59.2,45a1.87,1.87,0,0,1,.79-.32q.25,0,.25.31t-.93.9a4.13,4.13,0,0,1-2.11.54,2.43,2.43,0,0,1-1.6-.56,2,2,0,0,1-.79-1.25c-.07-.46-.11-1.67-.11-4.65q0-.6-1.23-.88-.54-.11-.54-.42a.36.36,0,0,1,.17-.32.73.73,0,0,1,.42-.12l.74.1a7.49,7.49,0,0,0,1.11.1,1.88,1.88,0,0,0,.48-.09,2.13,2.13,0,0,1,.4-.09q.41,0,.42,1.71Zm4.13-3.77a1,1,0,0,0-1-1,1.67,1.67,0,0,1-.74-.22.43.43,0,0,1-.15-.34q0-.47.72-.47a4.29,4.29,0,0,1,.76.13,5.49,5.49,0,0,0,1.23.13,2.4,2.4,0,0,0,.44-.05l.33-.05q.34,0,.34.76c0,3.85,0,5.39.1,5.63s.41.44,1,.59a1.73,1.73,0,0,1,.59.23.31.31,0,0,1,.11.24.38.38,0,0,1-.21.31.94.94,0,0,1-.53.14,5.88,5.88,0,0,1-.68-.09,5.55,5.55,0,0,0-.77-.09,2.37,2.37,0,0,0-.58.09,2.27,2.27,0,0,1-.45.09A.42.42,0,0,1,61,46a1.81,1.81,0,0,1-.13-.74q0-.59,0-2.27Z" style="fill:#515555"/><path d="M74.6,47.43c.23,0,.35.2.35.59s-.42.57-1.27,1a6.21,6.21,0,0,1-2.66.59,5.84,5.84,0,0,1-3.91-1.39,4.39,4.39,0,0,1-1.63-3.49A4.34,4.34,0,0,1,67,41.41,5.26,5.26,0,0,1,70.72,40a8.64,8.64,0,0,1,2.62.47q1.47.48,1.47.86a6.89,6.89,0,0,0,.08,1.14q.08.44.08.5,0,.56-.52.56t-.61-.75a2.07,2.07,0,0,0-.92-1.2,3.17,3.17,0,0,0-1.73-.45,3.61,3.61,0,0,0-2.4,1,3.38,3.38,0,0,0-1.11,2.71,3.26,3.26,0,0,0,1.24,2.64,4,4,0,0,0,2.59,1,4.4,4.4,0,0,0,1-.13,4.24,4.24,0,0,0,1.18-.51A2.23,2.23,0,0,1,74.6,47.43Z" style="fill:#515555"/><path d="M85.78,47.57a.87.87,0,0,0,.68.31q.24,0,.56-.38c.22-.25.39-.38.53-.38a.43.43,0,0,1,.34.18.6.6,0,0,1,.15.38,1.73,1.73,0,0,1-.69,1.25,2.05,2.05,0,0,1-1.33.62A2.48,2.48,0,0,1,84.65,49a15.37,15.37,0,0,1-2.31-2.36q-1.1-1.3-1.33-1.3t-.34.24l-.54.51a1,1,0,0,0-.32.41,6.72,6.72,0,0,0,0,.89A1,1,0,0,0,80,48a1.09,1.09,0,0,0,.75.32,1.25,1.25,0,0,1,.71.24.59.59,0,0,1,.13.39.4.4,0,0,1-.11.3.79.79,0,0,1-.5.11,9.64,9.64,0,0,1-1.12-.09,9.65,9.65,0,0,0-1.12-.09,8.11,8.11,0,0,0-1,.09,8.1,8.1,0,0,1-1,.09q-.79,0-.79-.48a.56.56,0,0,1,.13-.37,1.37,1.37,0,0,1,.76-.21,1,1,0,0,0,.82-.38,1.4,1.4,0,0,0,.19-.74V33.48a1,1,0,0,0-.18-.6,1.41,1.41,0,0,0-.81-.4,1.74,1.74,0,0,1-.77-.3.53.53,0,0,1-.14-.37.37.37,0,0,1,.21-.32.83.83,0,0,1,.43-.13,2.84,2.84,0,0,1,.65.11,2.93,2.93,0,0,0,.69.11,3.43,3.43,0,0,0,.69-.09,3.43,3.43,0,0,1,.55-.09.51.51,0,0,1,.38.13,1.3,1.3,0,0,1,.23.67,17.65,17.65,0,0,1,.08,2.16v9.89c0,.21.08.31.23.31s.44-.3,1-.89L82.66,42q.14-.12.14-.21c0-.05-.1-.12-.3-.2a.4.4,0,0,1-.3-.37.56.56,0,0,1,.12-.39.72.72,0,0,1,.51-.13,7.35,7.35,0,0,1,.76.06c.34,0,.6.06.78.06a9.82,9.82,0,0,0,1-.08,9.74,9.74,0,0,1,1-.08,1.27,1.27,0,0,1,.63.15.47.47,0,0,1,.27.42q0,.49-.93.49a5.33,5.33,0,0,0-1.88.22,4.08,4.08,0,0,0-1.16.87q-.65.65-.73.74a.39.39,0,0,0-.08.26.9.9,0,0,0,.29.62Z" style="fill:#515555"/><path d="M95.11,47.54a.28.28,0,0,1,.32.31q0,.39-1,1a4,4,0,0,1-2,.58A2.89,2.89,0,0,1,91,48.94a2,2,0,0,1-1-1.14,10.39,10.39,0,0,1-.19-2.46l0-2.52a1.08,1.08,0,0,0-.9-1.2,2.27,2.27,0,0,1-.67-.2.42.42,0,0,1-.14-.37.55.55,0,0,1,.11-.35.36.36,0,0,1,.3-.15,4.27,4.27,0,0,1,.72.12,4.42,4.42,0,0,0,.69.12,4.5,4.5,0,0,0,.73-.12,4.74,4.74,0,0,1,.69-.12.4.4,0,0,1,.21.09.31.31,0,0,1,.14.19q0,.1.05,1.74t0,3a10.89,10.89,0,0,0,.07,1.52,1.15,1.15,0,0,0,.47.76,1.69,1.69,0,0,0,1,.29,2,2,0,0,0,1-.31A1.9,1.9,0,0,1,95.11,47.54Zm2.34-7q.44,0,.44.61,0,1.22,0,3.55t0,3.14a9,9,0,0,1-.65,4,4.45,4.45,0,0,1-1.4,1.69,3.9,3.9,0,0,1-3.28.21q-.53-.26-.53-.48a.36.36,0,0,1,.1-.22.3.3,0,0,1,.24-.12,1.44,1.44,0,0,1,.41.13,1.83,1.83,0,0,0,.7.13,2.37,2.37,0,0,0,1.37-.47,2.12,2.12,0,0,0,.87-1.3A11.61,11.61,0,0,0,96,49q0-5.88,0-6.55T95,41.63q-.9-.14-.9-.6t.64-.47a6.93,6.93,0,0,1,.77.08,7.18,7.18,0,0,0,.93.07,2.39,2.39,0,0,0,.58-.07A2.08,2.08,0,0,1,97.45,40.56Z" style="fill:#515555"/><path d="M43.77,67.52a1.24,1.24,0,0,0,.21.7,1.55,1.55,0,0,0,.85.52,2,2,0,0,1,.77.36.53.53,0,0,1,.13.36c0,.12-.09.23-.26.34a1.23,1.23,0,0,1-.66.16,7.18,7.18,0,0,1-1-.12,7.31,7.31,0,0,0-1-.12,6.88,6.88,0,0,0-1,.11,6.71,6.71,0,0,1-.93.11q-.9,0-.9-.55a.48.48,0,0,1,.15-.42,1.59,1.59,0,0,1,.56-.17,1.26,1.26,0,0,0,.68-.33,1.59,1.59,0,0,0,.27-1.11V54.17a1.58,1.58,0,0,0-.19-.77,1.24,1.24,0,0,0-.81-.51,1.58,1.58,0,0,1-.75-.33.63.63,0,0,1-.13-.39.4.4,0,0,1,.19-.3.71.71,0,0,1,.45-.15,8.17,8.17,0,0,1,1.19.11,7.85,7.85,0,0,0,1.11.11,7.2,7.2,0,0,0,1-.09,7.92,7.92,0,0,1,1.18-.09c.4,0,.6.17.6.5a.49.49,0,0,1-.16.43,1.83,1.83,0,0,1-.58.2,1.41,1.41,0,0,0-.71.38,1.65,1.65,0,0,0-.28,1.13Zm11.24,0a1.21,1.21,0,0,0,1.07,1.28,2,2,0,0,1,.77.32.5.5,0,0,1,.12.34c0,.12-.09.23-.26.34A1.23,1.23,0,0,1,56,70a7.2,7.2,0,0,1-1-.12,7.32,7.32,0,0,0-1-.12,6.88,6.88,0,0,0-1,.11,6.71,6.71,0,0,1-.93.11q-.9,0-.9-.55a.47.47,0,0,1,.16-.42,1.69,1.69,0,0,1,.58-.17,1.31,1.31,0,0,0,.7-.33,1.57,1.57,0,0,0,.28-1.11v-5a.82.82,0,0,0-.25-.63,1.81,1.81,0,0,0-1.11-.23h-6a1.72,1.72,0,0,1-.9-.15.53.53,0,0,1-.19-.45.46.46,0,0,1,.26-.43,2.22,2.22,0,0,1,.94-.14h6.46a.87.87,0,0,0,.63-.16.93.93,0,0,0,.14-.59c0-1.84,0-5.52-.07-5.91s-.4-.67-1-.84a1.27,1.27,0,0,1-.63-.32.65.65,0,0,1-.12-.39.4.4,0,0,1,.19-.3.71.71,0,0,1,.45-.15,8.17,8.17,0,0,1,1.19.11,7.85,7.85,0,0,0,1.11.11,7.2,7.2,0,0,0,1-.09,7.92,7.92,0,0,1,1.18-.09c.4,0,.6.17.6.5a.48.48,0,0,1-.15.42,1.66,1.66,0,0,1-.58.18,1.32,1.32,0,0,0-.71.36A1.71,1.71,0,0,0,55,54.37Z" style="fill:#515555"/><path d="M65.57,64.84a.56.56,0,0,0,.39-.1.51.51,0,0,0,.1-.36,2.64,2.64,0,0,0-.75-1.79,2.87,2.87,0,0,0-2.25-.83,3.3,3.3,0,0,0-2.15,1,3.56,3.56,0,0,0-1.11,2.81A3.16,3.16,0,0,0,61,67.93,3.82,3.82,0,0,0,63.6,69,5.05,5.05,0,0,0,66,68.3a1.91,1.91,0,0,1,.64-.26.49.49,0,0,1,.36.13.42.42,0,0,1,.13.32q0,.46-1.39,1.11a6.63,6.63,0,0,1-2.85.65,5,5,0,0,1-3.65-1.48,4.81,4.81,0,0,1-1.48-3.53A4,4,0,0,1,59.36,62,5.61,5.61,0,0,1,63,60.71a5.25,5.25,0,0,1,3.93,1.34,4.45,4.45,0,0,1,1.3,3.21q0,.4-.2.5a2,2,0,0,1-.74.09H61.54c-.47,0-.7-.17-.7-.52s.24-.5.73-.5Z" style="fill:#515555"/><path d="M73.26,63.67l0,.35a6,6,0,0,0,.59-1.19,5.51,5.51,0,0,1,1-1.69,1.54,1.54,0,0,1,1.07-.5,1.14,1.14,0,0,1,.65.15.42.42,0,0,1,.22.34.84.84,0,0,1-.15.53,3,3,0,0,1-.53.49,7,7,0,0,0-2.31,2.95A8,8,0,0,0,73.18,68a1.3,1.3,0,0,0,.14.73A1.26,1.26,0,0,0,74,69a1.74,1.74,0,0,1,.72.28.47.47,0,0,1,.16.36q0,.37-.44.37a5.87,5.87,0,0,1-1-.11,7.52,7.52,0,0,0-1.34-.11,4.31,4.31,0,0,0-1,.11,3.88,3.88,0,0,1-.63.11A1.06,1.06,0,0,1,70,69.9a.39.39,0,0,1-.21-.34.38.38,0,0,1,.12-.27,2.09,2.09,0,0,1,.67-.31,1.39,1.39,0,0,0,.68-.37,3,3,0,0,0,.13-1.17V63.63A1.26,1.26,0,0,0,71.2,63a1.13,1.13,0,0,0-.68-.44,1.51,1.51,0,0,1-.6-.27.39.39,0,0,1-.09-.25q0-.42.59-.42a4,4,0,0,1,.55.06,3.85,3.85,0,0,0,.53.06,2.67,2.67,0,0,0,.41-.05,3.92,3.92,0,0,1,.67-.05q.68,0,.68,1.44Z" style="fill:#515555"/><path d="M81.4,69.33a.82.82,0,0,0-.15.26.67.67,0,0,1-.18.27.62.62,0,0,1-.38.09,3.32,3.32,0,0,1-.67-.11,3.41,3.41,0,0,0-.72-.11,3.58,3.58,0,0,0-.73.11,3.51,3.51,0,0,1-.71.11.87.87,0,0,1-.5-.15.46.46,0,0,1-.21-.4.37.37,0,0,1,.12-.28,2.53,2.53,0,0,1,.87-.26,1.47,1.47,0,0,0,1-.58,1.86,1.86,0,0,0,.27-1V54.38a1.83,1.83,0,0,0-.49-1.45,1.72,1.72,0,0,0-.88-.33,1.36,1.36,0,0,1-.73-.23.52.52,0,0,1-.12-.35.39.39,0,0,1,.24-.34,1,1,0,0,1,.47-.13,3.82,3.82,0,0,1,.74.11,3.77,3.77,0,0,0,.73.11,3.62,3.62,0,0,0,.64-.08,3.53,3.53,0,0,1,.61-.08.68.68,0,0,1,.55.21,1.24,1.24,0,0,1,.18.77V67.26a1.69,1.69,0,0,0,1,1.39,3.4,3.4,0,0,0,1.81.61,3.47,3.47,0,0,0,2.07-.83,3.24,3.24,0,0,0,1.09-2.75,3.92,3.92,0,0,0-.86-2.55,2.76,2.76,0,0,0-2.24-1.06,2.34,2.34,0,0,0-1.08.29,2.22,2.22,0,0,1-.73.29.48.48,0,0,1-.31-.13.36.36,0,0,1-.16-.26q0-.56,1-1a4.3,4.3,0,0,1,1.7-.43A4.48,4.48,0,0,1,88,62.31a5.08,5.08,0,0,1,1.37,3.59,4.08,4.08,0,0,1-1.44,3.21,5.07,5.07,0,0,1-3.46,1.26,6,6,0,0,1-2.61-.83Z" style="fill:#515555"/><path d="M93.44,62.66a.9.9,0,0,0,.27.59,8.18,8.18,0,0,0,1.72,1.06,5.46,5.46,0,0,1,2,1.5,2.69,2.69,0,0,1,.51,1.55,2.36,2.36,0,0,1-1.06,2,4.63,4.63,0,0,1-2.74.75,4.55,4.55,0,0,1-1.85-.41q-.92-.41-.92-.82t0-.84q-.05-.5-.05-.8,0-.62.57-.62a.43.43,0,0,1,.3.14,3.53,3.53,0,0,1,.44.92,2.19,2.19,0,0,0,.73,1.07,1.69,1.69,0,0,0,1,.29,1.57,1.57,0,0,0,1.12-.44,1.49,1.49,0,0,0,.46-1.13,1.33,1.33,0,0,0-.31-.85,5.54,5.54,0,0,0-1.71-1.06A4.5,4.5,0,0,1,92,64.31a2.43,2.43,0,0,1-.42-1.37,2,2,0,0,1,.91-1.64,3.49,3.49,0,0,1,2.11-.66,5.66,5.66,0,0,1,2,.35q1,.35,1,.74a4.29,4.29,0,0,0,0,.59,4.13,4.13,0,0,1,.05.56.82.82,0,0,1-.13.46.39.39,0,0,1-.34.2.51.51,0,0,1-.41-.15,1.42,1.42,0,0,1-.22-.51,1.23,1.23,0,0,0-.32-.58,2.23,2.23,0,0,0-.6-.39,1.92,1.92,0,0,0-.83-.18,1.5,1.5,0,0,0-.88.29A.81.81,0,0,0,93.44,62.66Z" style="fill:#515555"/><path d="M64.65,48.47a.65.65,0,0,1-.65.65H54.91a.65.65,0,0,1-.65-.65h0a.65.65,0,0,1,.65-.65H64a.65.65,0,0,1,.65.65Z" style="fill:#bad982"/><path d="M117.86,44.92h-3.09v2.93h-1.4v-7h1.4v2.75h3.09V40.83h1.4v7h-1.4Z" style="fill:#2cb34a"/><path d="M122.53,40.83h5v1.29h-3.59V43.6h2.7V44.9h-2.7v1.66h3.63v1.29h-5Z" style="fill:#2cb34a"/><path d="M133,45.39h-1v2.47h-1.4v-7h2.49c1.74,0,2.75.88,2.75,2.31a1.92,1.92,0,0,1-1.43,2l1.66,2.74h-1.66Zm.19-1.12c.76,0,1.23-.32,1.23-1.05s-.44-1.1-1.24-1.1H132v2.16Z" style="fill:#2cb34a"/><path d="M143,44.11a1.74,1.74,0,0,1,1.38,1.73c0,1.11-.8,2-2.48,2H139v-7h2.86a1.93,1.93,0,0,1,2.13,1.8,1.5,1.5,0,0,1-1,1.45Zm-1.41-.43a.85.85,0,0,0,1-.84c0-.49-.37-.84-1-.84h-1.19v1.69Zm.18,3c.71,0,1.13-.36,1.13-1a1,1,0,0,0-1.13-1h-1.41v2Z" style="fill:#2cb34a"/><path d="M148.85,46.45l-.53,1.41h-1.48l2.81-7h1.58l2.81,7h-1.5L152,46.45Zm2.09-2.81c-.24-.6-.48-1.22-.49-1.23h0s-.25.62-.49,1.23l-.59,1.55h2.19Z" style="fill:#2cb34a"/><path d="M156.85,40.83h1.4v5.73h3.33v1.29h-4.73Z" style="fill:#2cb34a"/><path d="M114.37,56.61c.11.69.72,1.05,1.59,1.05s1.23-.29,1.23-.87c0-.83-.94-.82-1.82-1s-2.15-.63-2.15-2.1,1-2.07,2.57-2.07a2.58,2.58,0,0,1,2.76,1.81l-1.34.35a1.33,1.33,0,0,0-1.46-.92c-.77,0-1.11.3-1.11.79,0,.7.74.83,1.73,1s2.23.6,2.23,2.14-1,2.1-2.65,2.1c-1.2,0-2.58-.37-2.92-1.92Z" style="fill:#2cb34a"/><path d="M127.44,55.7c0,2.07-1.14,3.19-3,3.19s-3-1.12-3-3.19v-4h1.42v3.92c0,1.32.52,1.92,1.58,1.92s1.58-.6,1.58-1.92V51.73h1.39Z" style="fill:#2cb34a"/><path d="M133.1,51.73c1.69,0,2.71.85,2.71,2.35s-1,2.34-2.71,2.34H132v2.34h-1.4v-7Zm0,3.46c.86,0,1.27-.41,1.27-1.09S134,53,133.14,53H132V55.2Z" style="fill:#2cb34a"/><path d="M141.15,51.73c1.69,0,2.71.85,2.71,2.35s-1,2.34-2.71,2.34h-1.06v2.34h-1.4v-7Zm0,3.46c.86,0,1.27-.41,1.27-1.09S142,53,141.19,53h-1.1V55.2Z" style="fill:#2cb34a"/><path d="M146.75,51.73h1.4v5.73h3.33v1.29h-4.73Z" style="fill:#2cb34a"/><path d="M154.45,51.73h5V53h-3.59v1.48h2.7v1.31h-2.7v1.66h3.63v1.29h-5Z" style="fill:#2cb34a"/><path d="M168.06,56.56c0-1.47,0-2.5,0-2.51h0s-.32.61-.76,1.4L166.42,57h-.79l-.88-1.56c-.45-.8-.75-1.41-.76-1.42h0s0,1,0,2.51v2.2h-1.4v-7h1.49l2,3.52h0l2-3.52h1.43v7h-1.4Z" style="fill:#2cb34a"/><path d="M172.73,51.73h5V53h-3.59v1.48h2.7v1.31h-2.7v1.66h3.63v1.29h-5Z" style="fill:#2cb34a"/><path d="M182.26,54.06h0s0,.85,0,1.75v3h-1.4v-7h1.42l3.36,4.63h0s0-.88,0-1.66v-3H187v7h-1.42Z" style="fill:#2cb34a"/><path d="M193.65,53v5.73h-1.4V53H190V51.73h5.87V53Z" style="fill:#2cb34a"/><path d="M199.76,56.61c.11.69.72,1.05,1.59,1.05s1.23-.29,1.23-.87c0-.83-.94-.82-1.82-1s-2.15-.63-2.15-2.1,1-2.07,2.57-2.07a2.58,2.58,0,0,1,2.76,1.81l-1.34.35a1.33,1.33,0,0,0-1.46-.92c-.77,0-1.11.3-1.11.79,0,.7.74.83,1.73,1s2.23.6,2.23,2.14-1,2.1-2.65,2.1c-1.2,0-2.58-.37-2.92-1.92Z" style="fill:#2cb34a"/><path d="M119.42,67.07c0,.54,0,.37-.63,1a2.17,2.17,0,0,1-1.73.23,2,2,0,0,1,.17.81,1.91,1.91,0,0,1-2,2c-2.06,0-1.63-2.38-1.63-4.67,0-1.18.07-2.45.15-3.3.07-.67-.12-1.13.33-1.13s.6.3.6,1.19c0,1.13-.28,5-.28,5.33,0,1.51.47,1.69,1.18,1.69.56,0,.82-.64.82-1.13a2.2,2.2,0,0,0-.15-.95c-.3-.05-1-.13-1-.58s.32-.39.73-.39a15,15,0,0,0,2,.34c.56,0,.72-.89.93-.89A.56.56,0,0,1,119.42,67.07Z" style="fill:#2cb34a"/><path d="M123.56,70.08c.41-.34.43-.53.68-.53s.31.6.07.86a17.85,17.85,0,0,1-1.39,1.24s.3,3-1.45,3.12a1.41,1.41,0,0,1-1.62-1.58c0-1.12,1.13-1.66,2.09-2.2,0-.25,0-.74,0-.91a1.83,1.83,0,0,1-1.42.85,1.79,1.79,0,0,1-1.71-1.25,7.5,7.5,0,0,1-.15-1.5c0-.54-.26-1.83.63-1.83.54,0,.35.75.32,1.13,0,.67-.1,1-.1,1.49a1,1,0,0,0,1,1.08c.81-.05,1.55-1.49,1.55-2.59,0-.76-.09-1.07.44-1.07s.39.58.39,1.39c0,.59-.13,1.82-.11,2.89A4,4,0,0,0,123.56,70.08ZM122,71.91c-.47.29-1.39.5-1.3,1.46a.62.62,0,0,0,.76.53C122.14,73.79,122,72.81,122,71.91Z" style="fill:#2cb34a"/><path d="M133.5,70c0,.67-.76,1.18-1.86,1.18a6.85,6.85,0,0,1-2.6-.55c-.29.63-.56,1-1.37,1-.46,0-1.51-.21-1.59-.82s.72-1.37,1.75-1.37a2.27,2.27,0,0,1,.34,0c0-1-.67-2.36-.67-3.54a2.82,2.82,0,0,1,2.77-3.13,1.86,1.86,0,0,1,2,1.93,2.07,2.07,0,0,1-1.94,2.18c-.25,0,0-.72.21-.79a1.87,1.87,0,0,0,.87-1.55c0-1-1-1-1.64-.85a2.12,2.12,0,0,0-1.2,2.18c0,1.3.57,2.64.6,3.75v.15a7.7,7.7,0,0,0,2.56.59c.76,0,1.11-.8,1.22-.91S133.5,69.6,133.5,70Zm-5.37.15c-.44-.58-1.34.09-1.28.37s.53.39.77.39S128.28,70.34,128.13,70.14Z" style="fill:#2cb34a"/><path d="M136.15,70.14a2,2,0,0,1-3,.24,3.15,3.15,0,0,1-.6-2.11c0-.64,0-1.76.63-1.76.41,0,.43.34.43.75s-.15.76-.15,1.45c0,.47.28,1.36,1.09,1.36a1.3,1.3,0,0,0,1.18-1.26c.12-1.45-.08-2.35.59-2.45.42-.06.45.3.45.69s-.08,1.5-.08,1.81c0,.81.5,1.35.78,1.36,1.09,0,1.18-.94,1.39-1.11s.54.19.54.47a1,1,0,0,1-.32.69,2.56,2.56,0,0,1-1.61.74A1.5,1.5,0,0,1,136.15,70.14Z" style="fill:#2cb34a"/><path d="M143.13,69.09a.48.48,0,0,1,.46.46,1.12,1.12,0,0,1-.44.71,3.55,3.55,0,0,1-2.25.81,2.25,2.25,0,0,1-2.45-2.32,2.39,2.39,0,0,1,2.11-2.45,1.22,1.22,0,0,1,1.32,1.13c0,.29-.17.25-.5.25s-.24-.64-.55-.64a1.54,1.54,0,0,0-1.5,1.5c-.09,1.47.9,1.81,1.78,1.81.69,0,1.47,0,1.77-1.45C142.93,68.71,142.95,69.09,143.13,69.09Z" style="fill:#2cb34a"/><path d="M149,69.55a1.11,1.11,0,0,1-.39.78,2.43,2.43,0,0,1-1.91.74,2.21,2.21,0,0,1-2.18-1.91c0-.36.31-.42.52-.46.49-.09,1.48-.45,1.29-1.42a.21.21,0,0,0-.2-.19,3.14,3.14,0,0,0-2.28,2.08c-.08.36.21,1.71-.34,1.71-.29,0-.69-.09-.69-.8,0-.24.07-1.38.07-2.72,0-2.6-.08-3.31-.08-3.84a1.59,1.59,0,0,1,1.37-1.71,1,1,0,0,1,.78.41,2.2,2.2,0,0,1,.42,1.27,8.19,8.19,0,0,1-1.1,3.77c1-1,1.52-1,2.1-1s.89.44.89,1.08a1.43,1.43,0,0,1-.28.87,3.46,3.46,0,0,1-1.73,1,2.09,2.09,0,0,0,1.5,1.11c1.48.11,1.72-.84,1.66-1.54C148.41,68.54,149,69.28,149,69.55ZM144.67,64c.14-1.19-.49-1.48-.58-1.48-.92,0-.47,4.13-.48,4.82C143.62,66.78,144.47,65.71,144.67,64Z" style="fill:#2cb34a"/><path d="M162.93,63.51c0,.41-.39.73-1.22.95.15,2.47-1.35,6.48-3.31,6.48-2.66,0-3.3-4-3.3-6.1,0-1.62.18-1.94.78-1.94.24,0,.24.21.24.8,0,.17-.08.84-.09,1.44,0,1.59.61,3.78,1.92,4.73a1,1,0,0,0,.46.17c1.14.11,2.63-3.84,2.5-5.58-.52,0-1-.17-1.22-.76a.67.67,0,0,1,.71-1,1.44,1.44,0,0,1,1.22.77,5.11,5.11,0,0,1,.91-.4C162.85,63.09,162.93,63.15,162.93,63.51Z" style="fill:#2cb34a"/><path d="M166.43,69.56a.85.85,0,0,1-.1.39,2.35,2.35,0,0,1-1.9,1c-1.32,0-1.89-1.33-1.89-2.82a3.87,3.87,0,0,1,.31-1.44.66.66,0,0,1,.64-.37c.44,0-.35.93-.18,2.13.07.49.39,1.7,1.17,1.7a1.46,1.46,0,0,0,1.43-1.11C166.24,68.27,166.43,69.31,166.43,69.56Zm-2.64-4a.57.57,0,0,1-.59-.55.74.74,0,0,1,.75-.7.51.51,0,0,1,.54.53A.69.69,0,0,1,163.79,65.56Z" style="fill:#2cb34a"/><path d="M169,69.09c0-.32.45.25.45.45a1.74,1.74,0,0,1-1.9,1.49c-1.69,0-2-1.37-1.81-3.58-.62-.2-.85-.43-.83-.71,0-.44.63-.22,1-.22h.17c.2-1.1.5-3.24,1.38-3.24.49,0,0,1.12-.14,1.81s-.28,1.55-.28,1.55l1.12-.08c.31,0,.71-.11.67.21-.05.51-.68.74-1.86.79a1.64,1.64,0,0,0-.17.36c-.13,1.11-.31,2.42,1,2.42A1.58,1.58,0,0,0,169,69.09Z" style="fill:#2cb34a"/><path d="M175.24,69.56a1,1,0,0,1-.32.69,2.61,2.61,0,0,1-1.74.78,1.44,1.44,0,0,1-1.3-.63,2.18,2.18,0,0,1-1.4.56,1.56,1.56,0,0,1-1.61-1.62,3,3,0,0,1,2.7-2.93,1.41,1.41,0,0,1,.93.36c.25,0,.73.05.73.32a11.8,11.8,0,0,1-.32,2.23c-.08.3-.5,1,.26,1,1,0,1.43-1,1.9-1C175.39,69.3,175.24,69.35,175.24,69.56Zm-3.41-.13a2.33,2.33,0,0,0,.33-1.61c0-.17-.36-.55-.52-.55a2.1,2.1,0,0,0-1.9,2c0,.32.24.87.59.89A1.72,1.72,0,0,0,171.82,69.44Z" style="fill:#2cb34a"/><path d="M183.56,69.6a.71.71,0,0,1-.09.34,2.61,2.61,0,0,1-2,1.1c-.81,0-1.19-.29-1.19-1.1,0-.25.2-1.13.2-1.5s.08-1.09-.36-1.09-1.37,1.14-1.42,1.69-.05,1.78-.74,1.78-.42-.41-.42-.79c0-.14.05-.58.05-1.1s-.14-1.12-.46-1.12-1,.7-1.27,1.36c0,.42-.15.92-.15,1.41,0,.32-.1.43-.46.43s-.43-.08-.46-.35c-.07-.49.06-2.12.06-3.32,0-.29-.31-.89.35-.89s.58,1.14.58,1.73c.29-.42.87-1.77,1.41-1.77s.87,1,1,1.69c.34-.49,1-1.64,1.83-1.64A1.4,1.4,0,0,1,181.39,68c0,.61-.26,1.47-.26,1.76s.12.47.3.47c.42,0,1.12-.79,1.32-.95s.11-.24.29-.24A.53.53,0,0,1,183.56,69.6Z" style="fill:#2cb34a"/><path d="M186.51,69.56a.84.84,0,0,1-.1.39,2.34,2.34,0,0,1-1.89,1c-1.32,0-1.72-1.18-1.69-2.67,0-.81.39-2,.74-2s.39.43.39.67-.22,1.17-.22,1.84c0,.49.11,1.26.83,1.29,1,0,.93-1.08,1.42-1.08A.52.52,0,0,1,186.51,69.56Zm-2.76-4.15a.54.54,0,0,1-.57-.53.71.71,0,0,1,.72-.67.49.49,0,0,1,.52.5A.66.66,0,0,1,183.75,65.42Z" style="fill:#2cb34a"/><path d="M191.35,69.27c.14-.1,0,1.82-1.13,1.79-.74,0-1.09-.29-1.09-1.29,0-.62,0-1.56,0-1.95s-.09-.56-.34-.56c-.53,0-1.69,1.52-2.05,2.42,0,1,0,1.24-.59,1.24-.83,0-.31-1.44-.31-3.77,0-.39-.06-.84.38-.84.74,0,.47.94.53,2.09.47-.78,1.35-2.12,2.06-2.12,1,0,1.13.75,1.13,1.36,0,.78,0,.82,0,1.33,0,.25-.14,1.48.26,1.5S191.15,69.43,191.35,69.27Z" style="fill:#2cb34a"/><path d="M153.26,70c.61-.62,1.07,0,.75.32-.49.46-1.39,1.24-1.39,1.24s.3,3-1.45,3.12a1.41,1.41,0,0,1-1.62-1.58c0-1.12,1.13-1.66,2.09-2.2,0-.25,0-.74,0-.91a1.83,1.83,0,0,1-1.42.85,1.79,1.79,0,0,1-1.71-1.25,7.54,7.54,0,0,1-.15-1.5c0-.54-.27-1.83.63-1.83.54,0,.34.76.32,1.13,0,.67-.1,1-.1,1.49A1,1,0,0,0,150.27,70c.81-.05,1.55-1.49,1.55-2.59,0-.76-.09-1.07.44-1.07s.38.58.38,1.4c0,.59-.13,1.82-.11,2.89A3,3,0,0,0,153.26,70Zm-1.53,1.84c-.47.29-1.39.5-1.3,1.46a.62.62,0,0,0,.76.53C151.84,73.76,151.73,72.78,151.73,71.88Z" style="fill:#2cb34a"/><path d="M107,74.92c-.36,0-.4-.32-.4-.68V37.94c0-.36,0-.65.39-.65h0c.36,0,.4.29.4.65v36.3c0,.36,0,.68-.4.68Z" style="fill:#bad982"/></g></g></svg>