<svg id="lucky_eats_natural_foods_by_lucky_vitamin" data-name="lucky eats natural foods by lucky vitamin" xmlns="http://www.w3.org/2000/svg" width="204" height="100" viewBox="0 0 204 100"><title>luckyeats-mission-logo</title><rect width="204" height="100" style="fill:none"/><polygon points="110.94 70.55 110.85 70.55 110.89 70.63 110.94 70.55" style="fill:none"/><polygon points="107.94 65.25 107.93 65.26 108.78 66.63 107.94 65.25" style="fill:none"/><polygon points="108.78 66.64 108.78 66.63 108.78 66.64 108.78 66.64" style="fill:none"/><path d="M115.93,84.32a1.21,1.21,0,1,0,1.18,1.21A1.13,1.13,0,0,0,115.93,84.32Z" style="fill:none"/><path d="M126.5,84.4h-.71v2.28h.71a1.1,1.1,0,0,0,1.23-1.12A1.13,1.13,0,0,0,126.5,84.4Z" style="fill:none"/><path d="M79.88,98.94a.47.47,0,0,0,.58.4c.49-.09.41-.84.41-1.52C80.51,98,79.81,98.2,79.88,98.94Z" style="fill:none"/><path d="M121.38,86.74a1.21,1.21,0,1,0-1.18-1.21A1.13,1.13,0,0,0,121.38,86.74Z" style="fill:none"/><polygon points="96.65 70.29 96.43 69.72 95.38 72.88 96.16 72.88 96.71 72.88 97.62 72.88 96.65 70.29 96.65 70.29" style="fill:none"/><polygon points="98.85 72.58 98.85 72.57 98.81 72.46 98.85 72.58" style="fill:none"/><path d="M99,67.72h0v0Z" style="fill:none"/><path d="M100.39,85.2l-.23-.61h0l-.23.6-.29.82h1.07Z" style="fill:none"/><polygon points="98.72 72.2 98.73 72.2 98.7 72.14 98.72 72.2" style="fill:none"/><path d="M95.26,84.37h-.64v1.08h.64c.36,0,.57-.18.57-.53A.5.5,0,0,0,95.26,84.37Z" style="fill:none"/><path d="M97.71,90.67c-.7,0-.36,3.15-.37,3.68a19.89,19.89,0,0,0,.81-2.55C98.26,90.9,97.77,90.67,97.71,90.67Z" style="fill:none"/><path d="M84.55,96.75c.05.29.41.3.59.3s.51-.43.39-.59C85.19,96,84.51,96.54,84.55,96.75Z" style="fill:none"/><polygon points="98.95 72.88 98.98 72.97 98.98 72.97 98.95 72.88 98.95 72.88" style="fill:none"/><path d="M122,38.67v4.52l1.69.31.08-3.63A2.33,2.33,0,0,1,122,38.67Z" style="fill:none"/><path d="M118.74,94.29a1.6,1.6,0,0,0-1.45,1.5c0,.25.18.67.45.68a1.3,1.3,0,0,0,1.14-.54,1.78,1.78,0,0,0,.25-1.23C119.13,94.58,118.85,94.29,118.74,94.29Z" style="fill:none"/><path d="M102.55,98.92a.47.47,0,0,0,.58.4c.49-.09.41-.84.41-1.52C103.18,98,102.48,98.18,102.55,98.92Z" style="fill:none"/><path d="M81.41,84.59h0l-.23.6-.29.82h1.07l-.29-.82Z" style="fill:none"/><path d="M126.37,39.1a2.24,2.24,0,0,1-.92.62l-.59-4.37,0,4.4.09,4q1.4.3,2.86.68l.13-4.65A3.23,3.23,0,0,1,126.37,39.1Z" style="fill:none"/><path d="M85.65,21.4s2.33-10.6-2.4-18A8.83,8.83,0,0,0,76.13,0,5.69,5.69,0,0,0,73.2.86l-1,.67c-3.28,2.1-3.43,7.73-1.85,10.2C75,19.08,85.65,21.4,85.65,21.4Z" style="fill:#b9d882"/><path d="M102.71,15.93c1.72-1.83,2.48-6.57.05-8.86L102,6.35a4.85,4.85,0,0,0-2.33-1.18,7.55,7.55,0,0,0-6.52,1.76C88,12.38,88.3,21.65,88.3,21.65S97.59,21.36,102.71,15.93Z" style="fill:#7dc47a"/><path d="M75.54,36.46a5.9,5.9,0,0,0,5.16-1.1c4.24-4,4.4-11.28,4.4-11.28s-7.26-.17-11.48,3.86c-1.42,1.35-2.21,5-.41,6.91l.57.6A3.79,3.79,0,0,0,75.54,36.46Z" style="fill:#3fae2a"/><path d="M126.37,39.1a3.23,3.23,0,0,0,1.61.68l-.13,4.65,1.61.44-.14-5.1,0-8,.64,7.86c4.51-1.45,1.55-10.71-.46-15.75-.31-.78-.6-1.46-.83-2-.23.53-.52,1.21-.83,2a53.53,53.53,0,0,0-2,6C126.95,33.21,127.9,37.38,126.37,39.1Z" style="fill:#b9d882"/><path d="M123.83,39.86l-.08,3.63,1.24.25-.09-4,0-4.4.59,4.37a2.24,2.24,0,0,0,.92-.62c1.53-1.72.58-5.89-.55-9.22-.27-.8-.55-1.55-.81-2.2s-.46-1.12-.64-1.53c-.18.41-.4.93-.64,1.53A39.37,39.37,0,0,0,122,32.82v5.85A2.33,2.33,0,0,0,123.83,39.86Z" style="fill:#3fae2a"/><path d="M119.79,23.77v-9a2.83,2.83,0,0,0-2.88-2.46,2.85,2.85,0,0,0-.9,2h0v5.22l1.59.67Z" style="fill:#959697"/><path d="M89.36,24.76l-3.83,5.55,10.36-2L86,31v13.5a14.52,14.52,0,0,0-4.19,1.42c31.19-4.1,52.86.68,52.86.68-1.77-.68-3.51-1.26-5.21-1.75l-1.61-.44q-1.46-.38-2.86-.68l-1.24-.25L122,43.18V27.45l-1.57-2.56V14.74h0c0-1.75-1.74-3.16-3.88-3.16s-3.87,1.42-3.88,3.16h0v3.4L110,17l-3,1.16L95.63,22.36Zm4.31,14L90,39.31V34.53l3.65-.68ZM116,14.31h0a2.85,2.85,0,0,1,.9-2,2.83,2.83,0,0,1,2.88,2.46v9L117.6,20.2,116,19.53Zm-6.52,3.58,6.81,2.92,4.61,6.69-15.25.32,14.83.46V42.85h-.57c-1.34-.18-2.58-.31-3.7-.4l-.57,0-.22,0-.87-.05a45.25,45.25,0,0,0-5,0c-1.87,0-3.62.09-5.25.16l-.85,0h-.12l-.57,0c-1.68.09-3.24.19-4.68.3v-15l-.87-.23,9.82-.4-9.14-.36,6.24-.38-5.56-.33,4.09-.31L99,25.53l2.27-.23-2.28-.25,2.93-4.25ZM96.16,27.06l-8.87,2.09,2.64-3.85,10.17-3.68Z" style="fill:#555759"/><path d="M101.22,25.3,99,25.53l3.71.29-4.09.31,5.56.33-6.24.38,9.14.36-9.82.4.87.23v15c1.44-.11,3-.21,4.68-.3V30.14h13.45V42.45c1.13.09,2.37.22,3.7.4h.57V28.27l-14.83-.46,15.25-.32-4.61-6.69-6.81-2.92-7.61,2.92-2.93,4.25Zm8.34-3.91a1.87,1.87,0,1,1-1.87,1.87A1.87,1.87,0,0,1,109.56,21.39Z" style="fill:#ca602c"/><path d="M104,30.72l4.64,4.94-.41.41-4.94-4.94V42.5h.12l11.77-11.77Z" style="fill:#ca602c"/><path d="M104.31,42.45c1.64-.07,3.38-.13,5.25-.16a45.25,45.25,0,0,1,5,0l-5.06-5.06Z" style="fill:#ca602c"/><path d="M109.89,36.87l5.52,5.52.22,0V31.12Z" style="fill:#ca602c"/><path d="M102.76,30.14V42.53l.57,0V31.12l4.94,4.94.41-.41L104,30.72h11.19L103.46,42.49l.85,0,5.18-5.18,5.06,5.06.87.05-5.52-5.52,5.74-5.74V42.41l.57,0V30.14Z" style="fill:#fff"/><circle cx="109.56" cy="23.26" r="1.87" style="fill:#fff"/><polygon points="87.29 29.15 96.16 27.06 100.09 21.62 89.92 25.29 87.29 29.15" style="fill:#959697"/><polygon points="90.02 39.31 93.67 38.8 93.67 33.86 90.02 34.53 90.02 39.31" style="fill:#fff"/><polygon points="84.83 57.05 84.5 57.05 83.72 57.83 79.67 57.83 78.87 57.83 78.57 57.83 78.47 57.83 78.27 57.83 78.27 47.28 79.04 46.51 79.04 46.2 73.76 46.2 73.76 46.51 74.53 47.28 74.53 59.82 73.76 60.59 73.76 60.9 84.83 60.9 84.83 57.05" style="fill:#555759"/><path d="M105.92,57.67a2.6,2.6,0,0,1-1.83,0,2.86,2.86,0,0,1-.79-.46,2.82,2.82,0,0,1-.92-1.32,3.46,3.46,0,0,1-.2-1.13,3.24,3.24,0,0,1,.83-2.18,2.87,2.87,0,0,1,.9-.67,2.52,2.52,0,0,1,1.1-.25,2.63,2.63,0,0,1,1.53.48l1.8-2.5A5.68,5.68,0,0,0,105,48.57a5.52,5.52,0,0,0-2.3.48,7.52,7.52,0,0,0-2.17,1.32,6.1,6.1,0,0,0-1.27,2,6.26,6.26,0,0,0-.46,2.4,6.16,6.16,0,0,0,.46,2.38,6.33,6.33,0,0,0,1.25,1.95h0a7.17,7.17,0,0,0,2,1.37,6.87,6.87,0,0,0,2.54.46,5.43,5.43,0,0,0,2-.34,6.38,6.38,0,0,0,1.62-1l-2-2.37A3,3,0,0,1,105.92,57.67Z" style="fill:#555759"/><polygon points="129.42 48.88 129.79 49.65 127.56 53.92 125.06 49.65 125.43 48.88 125.28 48.57 121.41 48.57 120.36 48.57 116.79 48.57 116.56 48.88 116.73 49.65 115.79 50.88 115.78 50.88 115.47 51.3 115.2 51.65 115.2 51.65 115.05 51.84 114.61 52.42 114.49 52.58 114.43 52.66 113.83 53.44 113.83 49.65 114.6 48.88 114.6 48.57 109.98 48.57 109.98 48.88 110.75 49.65 110.75 59.82 109.98 60.59 109.98 60.9 114.6 60.9 114.6 60.59 114.43 60.42 114.14 60.13 113.83 59.82 113.83 57.45 113.86 57.45 115.25 55.63 115.77 56.7 117.31 59.82 116.93 60.59 117.08 60.9 121.7 60.9 121.55 60.59 121.31 60.43 120.39 59.82 117.11 53.18 119.81 49.65 120.82 49.08 121.69 49.65 125.72 56.87 125.72 59.82 124.95 60.59 124.95 60.9 130.16 60.9 130.16 60.59 129.99 60.42 129.99 60.41 129.39 59.82 129.39 56.89 133.16 49.65 134.04 49.17 134.21 48.57 129.59 48.57 129.42 48.88" style="fill:#555759"/><path d="M91.57,57.37c1.85,0,5.1-.45,5.1-4V49.65l.77-.77v-.31H92.82v.31l.77.77v2.67c0,1.71-.73,2-2,2s-2.31-.47-2.31-2V49.65l.77-.77v-.31H85.41v.31l.77.77v3.72C86.18,56.92,89.89,57.37,91.57,57.37Z" style="fill:#555759"/><path d="M82.56,96c-.19,0-.21.15-.52.41a3,3,0,0,1-.56.44c0-.81.09-1.75.09-2.2,0-.62.14-1.06-.3-1.06s-.33.24-.33.82c0,.84-.57,1.94-1.18,2a.78.78,0,0,1-.8-.82c0-.35,0-.62.08-1.14,0-.28.17-.86-.25-.86s-.44.21-.49.48a.59.59,0,0,1-.46.36,11.5,11.5,0,0,1-1.55-.25c-.31,0-.56-.05-.56.3s.54.41.77.44a1.68,1.68,0,0,1,.12.72c0,.37-.2.86-.63.86s-.9-.14-.9-1.29c0-.28.22-3.2.22-4.07,0-.68,0-.91-.46-.91s-.2.35-.25.86-.12,1.61-.12,2.52c0,1.74-.33,3.56,1.25,3.56a1.46,1.46,0,0,0,1.49-1.5,1.48,1.48,0,0,0-.13-.62,1.79,1.79,0,0,0,1.23-.11v0a5.67,5.67,0,0,0,.12,1.15,1.37,1.37,0,0,0,1.3,1,1.4,1.4,0,0,0,1.08-.65c0,.13,0,.5,0,.7-.74.41-1.61.83-1.6,1.68A1.08,1.08,0,0,0,80.45,100c1.33-.08,1.1-2.39,1.1-2.39a13.09,13.09,0,0,0,1.06-.95C82.79,96.47,82.75,96,82.56,96Zm-2.1,3.33a.47.47,0,0,1-.58-.4c-.07-.74.63-.9,1-1.12C80.87,98.51,81,99.26,80.46,99.35Z" style="fill:#3fae2a"/><path d="M112.09,91.41c0-.27-.07-.32-.31-.32a3.88,3.88,0,0,0-.7.31,1.1,1.1,0,0,0-.93-.59.51.51,0,0,0-.54.73c.13.45.53.54.93.58.1,1.33-1,4.35-1.9,4.26a.74.74,0,0,1-.35-.13,4.74,4.74,0,0,1-1.46-3.61c0-.45.06-1,.06-1.1,0-.45,0-.61-.18-.61-.45,0-.59.25-.59,1.48,0,1.64.49,4.66,2.52,4.66,1.5,0,2.64-3.06,2.53-4.95C111.79,92,112.09,91.72,112.09,91.41Z" style="fill:#3fae2a"/><path d="M112.75,93a.53.53,0,0,0,.53-.56.39.39,0,0,0-.41-.4.57.57,0,0,0-.58.54A.43.43,0,0,0,112.75,93Z" style="fill:#3fae2a"/><path d="M127.55,92.46a.41.41,0,0,0,.43.4.5.5,0,0,0,.51-.53.37.37,0,0,0-.39-.38A.54.54,0,0,0,127.55,92.46Z" style="fill:#3fae2a"/><path d="M133.78,95.81c-.15.12-.58.92-.88.91s-.2-.95-.2-1.14c0-.39,0-.42,0-1s-.12-1-.87-1c-.54,0-1.21,1-1.57,1.62,0-.88.17-1.6-.4-1.6-.33,0-.29.35-.29.64,0,.6,0,1.12-.08,1.55-.21.21-.29.76-.91.75s-.63-.61-.63-1,.17-1.17.17-1.41,0-.51-.3-.51-.56.88-.57,1.49a4.6,4.6,0,0,0,0,.66.34.34,0,0,1-.09.1c-.16.12-.69.72-1,.72-.14,0-.23-.1-.23-.36s.2-.88.2-1.34a1.07,1.07,0,0,0-1-1.2c-.63,0-1.14.88-1.4,1.25-.13-.49-.36-1.29-.79-1.29s-.86,1-1.08,1.35c0-.45,0-1.32-.45-1.32s-.27.46-.27.68c0,.5,0,1.09,0,1.59-.29.21-.62.7-1.21.69s-.26-.54-.2-.76a8.93,8.93,0,0,0,.24-1.7c0-.21-.36-.24-.55-.24a1.08,1.08,0,0,0-.71-.27,2.31,2.31,0,0,0-2.06,2.23s0,.07,0,.11a1.18,1.18,0,0,1-.87.63c-1,0-.83-1-.74-1.85a1.12,1.12,0,0,1,.13-.27c.9,0,1.38-.22,1.42-.6s-.28-.16-.51-.16l-.86.06s.13-.68.21-1.18.48-1.38.11-1.38c-.67,0-.9,1.64-1.05,2.47h-.13c-.25,0-.7-.16-.73.17s.16.39.63.54a6.37,6.37,0,0,0,0,1.48,1,1,0,0,1-1,.62c-.6,0-.84-.93-.89-1.3-.13-.92.48-1.63.14-1.63a.5.5,0,0,0-.49.28,3,3,0,0,0-.24,1.1c0,1.14.44,2.15,1.45,2.15a1.79,1.79,0,0,0,1.24-.54,1.21,1.21,0,0,0,1.15.57,1.48,1.48,0,0,0,1.22-.54,1.22,1.22,0,0,0,1,.49,1.66,1.66,0,0,0,1.07-.43,1.1,1.1,0,0,0,1,.48,1.92,1.92,0,0,0,1.19-.47,1.87,1.87,0,0,0,0,.19c0,.21.15.27.35.27s.35-.08.35-.33.09-.76.12-1.08c.21-.5.66-1,1-1s.35.49.35.85,0,.74,0,.84c0,.28-.1.6.32.6s.52-.84.57-1.36.65-1.29,1.09-1.29.27.55.27.83-.16.95-.16,1.14c0,.62.29.84.91.84a2.12,2.12,0,0,0,1.34-.58,1.09,1.09,0,0,0,1,.55,1.7,1.7,0,0,0,.95-.3.3.3,0,0,0,.32.25c.44,0,.46-.18.45-1,.27-.68,1.16-1.84,1.56-1.84.19,0,.26.17.26.43s0,1,0,1.49c0,.76.27,1,.83,1C133.79,97.19,133.89,95.73,133.78,95.81Zm-14.9.12a1.3,1.3,0,0,1-1.14.54c-.27,0-.45-.43-.45-.68a1.6,1.6,0,0,1,1.45-1.5c.12,0,.39.29.39.42A1.78,1.78,0,0,1,118.88,95.93Z" style="fill:#3fae2a"/><path d="M104.71,96.4a2.21,2.21,0,0,1-.56.44c0-.81.09-1.75.09-2.2,0-.62.14-1.06-.3-1.06s-.33.24-.33.82c0,.84-.56,1.94-1.18,2a.78.78,0,0,1-.8-.82c0-.35,0-.62.08-1.13,0-.28.17-.86-.24-.86-.69,0-.48,1-.48,1.39a5.59,5.59,0,0,0,.05.73c0,.49-.3,1-1.27.94a1.59,1.59,0,0,1-1.14-.85A2.66,2.66,0,0,0,99.93,95a1.1,1.1,0,0,0,.21-.66c0-.49-.2-.82-.68-.82s-.81,0-1.6.75a6.24,6.24,0,0,0,.84-2.88,1.68,1.68,0,0,0-.32-1,.74.74,0,0,0-.59-.31,1.21,1.21,0,0,0-1,1.3c0,.4.06.94.06,2.93,0,.43,0,.83,0,1.17-.23,1.07-.82,1.11-1.35,1.11s-1.43-.26-1.36-1.38a1.17,1.17,0,0,1,1.14-1.14c.23,0,.16.49.42.49s.38,0,.38-.19a.93.93,0,0,0-1-.86,1.83,1.83,0,0,0-1.61,1.87,2,2,0,0,0,.1.62.87.87,0,0,1-.86.49c-.22,0-.6-.41-.6-1,0-.23.06-1.08.06-1.38s0-.57-.34-.53c-.51.07-.36.76-.45,1.87a1,1,0,0,1-.9,1c-.62,0-.83-.68-.83-1,0-.53.12-.79.12-1.11s0-.57-.33-.57-.48.85-.48,1.34A3.39,3.39,0,0,0,89,96.1a1,1,0,0,1-.79.5,5.9,5.9,0,0,1-2-.45V96c0-.85-.46-1.87-.46-2.86s.44-1.56.92-1.66,1.24-.14,1.25.64a1.43,1.43,0,0,1-.66,1.19c-.15.05-.36.6-.16.6a1.58,1.58,0,0,0,1.48-1.66,1.42,1.42,0,0,0-1.5-1.47A2.16,2.16,0,0,0,85,93.19c0,.9.5,2,.51,2.7H85.3c-.79,0-1.41.47-1.34,1s.86.61,1.22.63c.62,0,.82-.25,1-.73a5.22,5.22,0,0,0,2,.42,1.57,1.57,0,0,0,1.27-.49,1.53,1.53,0,0,0,1,.32,1.45,1.45,0,0,0,1.16-.62,1.15,1.15,0,0,0,1,.66,1.92,1.92,0,0,0,1.18-.53,1.91,1.91,0,0,0,1.45.58,2.78,2.78,0,0,0,1.52-.47.46.46,0,0,0,.49.33c.43,0,.2-1,.26-1.31a2.4,2.4,0,0,1,1.74-1.59.16.16,0,0,1,.15.14c.14.74-.61,1-1,1.08-.15,0-.4.08-.4.35a1.69,1.69,0,0,0,1.67,1.46,1.85,1.85,0,0,0,1.46-.57l.1-.11a1.52,1.52,0,0,0,1.11.54,1.4,1.4,0,0,0,1.08-.65c0,.13,0,.5,0,.7-.74.41-1.61.83-1.6,1.68a1.08,1.08,0,0,0,1.24,1.21c1.33-.08,1.1-2.39,1.1-2.39s.69-.59,1.06-.95S105.18,95.92,104.71,96.4Zm-19.58.66c-.18,0-.53,0-.59-.3s.65-.73,1-.29C85.65,96.62,85.34,97.05,85.13,97.05Zm12.21-2.7c0-.52-.33-3.68.37-3.68.07,0,.55.23.44,1.13A19.89,19.89,0,0,1,97.34,94.35Zm5.79,5a.47.47,0,0,1-.58-.4c-.07-.74.63-.9,1-1.12C103.54,98.48,103.62,99.23,103.13,99.32Z" style="fill:#3fae2a"/><polygon points="87.09 74.84 86.69 74.84 85.69 75.83 80.62 75.83 79.46 75.83 78.7 75.83 78.7 73.86 83.48 73.86 83.48 69.96 79.46 69.96 78.7 69.96 78.7 68 85.65 68 85.65 64.1 73.82 64.1 73.82 64.49 74.8 65.47 74.8 78.35 73.82 79.33 73.82 79.72 87.09 79.72 87.09 74.84" style="fill:#555759"/><path d="M104.84,79.32l-.17-.13-1.16-.84L98.78,65.47l.61-1-.12-.39H93.41l-.12.39.64,1L89.68,78.35l-1.29,1-.14.39h5.85l.14-.39-.16-.21h0l-.51-.75.51-1.56h5L99.48,78h0l.06.17h0l.08.22-.37.59h0l-.25.39.16.39H105Zm-8.14-6.44H95.38l1.05-3.16.21.57h0l1,2.59Zm2-.68,0-.07,0,.07Zm.12.37,0-.11,0,.11ZM99,73l0-.08h0L99,73Zm0-5.25v0Z" style="fill:#555759"/><path d="M103.65,69.18H104l1-1.17h4.43V78.35l-1,1v.39h5.85v-.39l-.11-.11-.1-.1-.76-.76V68h4.33l1,1.17h.56V64.1H103.65Zm7.29,1.38,0,.07,0-.07Zm-3-5.3.84,1.38h0l-.84-1.37Z" style="fill:#555759"/><path d="M128.59,75.65a6.78,6.78,0,0,1-2,.19,5.78,5.78,0,0,1-2.26-.39,3.32,3.32,0,0,1-1.27-.82l-1.78,2.95a3.23,3.23,0,0,0,.74.82,12,12,0,0,0,1.33.79,8.68,8.68,0,0,0,1.11.41,8.07,8.07,0,0,0,1.1.24,6.93,6.93,0,0,0,1,.08,8.21,8.21,0,0,0,2.59-.39,6.8,6.8,0,0,0,2-1.06,4.94,4.94,0,0,0,1.35-1.56A3.87,3.87,0,0,0,133,75a4.47,4.47,0,0,0-.22-1.45,7.25,7.25,0,0,0-.77-1.41,5.14,5.14,0,0,0-1.51-1.28,9.67,9.67,0,0,0-1.81-.79l-.62-.14H126.2l-.25,0a1.09,1.09,0,0,1-.72-1q0-.43.57-.74a4.55,4.55,0,0,1,2-.31,7.3,7.3,0,0,1,1.4.13,1.67,1.67,0,0,1,1,.63L133,65.27l-.29-.2-.92.12a4.66,4.66,0,0,0-.84-.55,4.18,4.18,0,0,0-.95-.33,8,8,0,0,0-1.14-.17q-.62,0-1.44,0a6.27,6.27,0,0,0-2,.37,7.18,7.18,0,0,0-2,1.05,6.06,6.06,0,0,0-1.49,1.61,3.74,3.74,0,0,0-.59,2,4.35,4.35,0,0,0,.42,2,4.29,4.29,0,0,0,1.09,1.39,6.8,6.8,0,0,0,2,1,7.07,7.07,0,0,0,2,.28h.35a3.38,3.38,0,0,1,1.11.18,1.07,1.07,0,0,1,.84,1Q129.11,75.46,128.59,75.65Z" style="fill:#555759"/><path d="M75.33,86.18c0-.54,0-1,0-1h0l1.75,2.46h1V83.48h-1v1.43c0,.45,0,1,0,1h0l-1.75-2.41h-1V87.6h1Z" style="fill:#3fae2a"/><path d="M80.85,83.48,79.26,87.6h1l.25-.68h1.71l.25.68h1.06L82,83.48Zm0,2.54.29-.82.23-.6h0l.23.61.29.82Z" style="fill:#3fae2a"/><polygon points="85.19 87.6 86.18 87.6 86.18 84.39 87.44 84.39 87.44 83.48 83.93 83.48 83.93 84.39 85.19 84.39 85.19 87.6" style="fill:#3fae2a"/><path d="M88.67,83.48v2.28a1.8,1.8,0,1,0,3.59,0V83.48h-1v2.25c0,.71-.28,1-.81,1s-.81-.31-.81-1V83.48Z" style="fill:#3fae2a"/><path d="M96.84,84.87c0-.85-.61-1.4-1.64-1.4H93.63V87.6h1V86.24h.44l.77,1.36H97L96.06,86A1.17,1.17,0,0,0,96.84,84.87Zm-1.58.58h-.64V84.37h.64a.5.5,0,0,1,.57.55C95.83,85.27,95.63,85.45,95.26,85.45Z" style="fill:#3fae2a"/><path d="M98,87.6h1l.25-.68H101l.25.68h1.06l-1.6-4.12H99.6Zm1.91-2.41.23-.6h0l.23.61.29.82H99.62Z" style="fill:#3fae2a"/><polygon points="106.31 86.68 104.46 86.68 104.46 83.48 103.47 83.48 103.47 87.6 106.31 87.6 106.31 86.68" style="fill:#3fae2a"/><polygon points="112.75 84.39 112.75 83.48 109.8 83.48 109.8 87.6 110.79 87.6 110.79 86.1 112.31 86.1 112.31 85.18 110.79 85.18 110.79 84.39 112.75 84.39" style="fill:#3fae2a"/><path d="M115.93,83.39a2.14,2.14,0,1,0,2.17,2.14A2.08,2.08,0,0,0,115.93,83.39Zm0,3.35a1.21,1.21,0,1,1,1.18-1.21A1.13,1.13,0,0,1,115.93,86.74Z" style="fill:#3fae2a"/><path d="M119.21,85.54a2.17,2.17,0,1,0,2.17-2.14A2.08,2.08,0,0,0,119.21,85.54Zm2.17-1.21a1.21,1.21,0,1,1-1.18,1.21A1.13,1.13,0,0,1,121.38,84.32Z" style="fill:#3fae2a"/><path d="M126.55,83.48H124.8V87.6h1.76a2,2,0,0,0,2.17-2A2.05,2.05,0,0,0,126.55,83.48Zm-.05,3.2h-.71V84.4h.71a1.13,1.13,0,0,1,1.23,1.16A1.1,1.1,0,0,1,126.5,86.68Z" style="fill:#3fae2a"/><path d="M131.45,84.26a.69.69,0,0,1,.75.47l.94-.25a1.56,1.56,0,0,0-1.67-1.08c-.92,0-1.56.42-1.56,1.26s.69,1.13,1.25,1.27,1,.1,1,.49-.23.39-.61.39-.74-.18-.82-.49l-.94.25a1.62,1.62,0,0,0,1.77,1.11c1,0,1.6-.42,1.6-1.27s-.67-1.15-1.28-1.27-1-.17-1-.52S131.08,84.26,131.45,84.26Z" style="fill:#3fae2a"/></svg>