<svg id="lucky_vitamin" data-name="lucky vitamin" xmlns="http://www.w3.org/2000/svg" width="204" height="100" viewBox="0 0 204 100"><title>luckyvitamin-mission-logo</title><polygon points="85.23 84.87 80.86 71.8 84.09 71.8 87.14 82.37 90.16 71.8 93.39 71.8 89.02 84.87 85.23 84.87" style="fill:#54585a"/><rect x="96.53" y="71.8" width="3.02" height="13.07" style="fill:#54585a"/><polygon points="106.92 84.87 106.92 74.1 102.31 74.1 102.31 71.8 114.19 71.8 114.19 74.1 109.96 74.1 109.96 84.87 106.92 84.87" style="fill:#54585a"/><path d="M117.88,80.53h4.73L120.25,74Zm5.87,4.34-.64-2.28h-5.72l-.64,2.28H114l4.24-13.07h4l4.39,13.07Z" style="fill:#54585a"/><polygon points="141.05 84.87 141.05 75.35 136.5 82.02 131.95 75.35 131.95 84.87 129.09 84.87 129.09 71.8 132.96 71.8 136.5 77.2 140.04 71.8 143.92 71.8 143.92 84.87 141.05 84.87" style="fill:#54585a"/><rect x="148.32" y="71.8" width="3.02" height="13.07" style="fill:#54585a"/><polygon points="166.01 84.87 158.57 76.07 158.57 84.87 155.7 84.87 155.7 71.8 159.63 71.8 166.41 80.1 166.41 71.8 168.64 71.8 168.64 84.87 166.01 84.87" style="fill:#54585a"/><path d="M42.64,15.15a7.35,7.35,0,0,0-3.86.78l-1.42.75c-4.46,2.35-5.26,9.57-3.49,12.93,5.27,10,18.69,14.12,18.69,14.12s4.15-13.4-1.14-23.4c-1.34-2.54-5.11-5-8.79-5.18" style="fill:#d6ef98"/><path d="M72.38,24.35a6.26,6.26,0,0,1,2.87,1.77l.91,1c2.88,3.21,1.39,9.23-1,11.4C68,45,56,44.33,56,44.33s.63-12,7.84-18.43a9.75,9.75,0,0,1,8.58-1.56" style="fill:#7bc86a"/><path d="M37.92,62a4.9,4.9,0,0,1-2.16-1.5l-.67-.83c-2.11-2.62-.69-7.27,1.28-8.85,5.87-4.72,15.2-3.72,15.2-3.72s-1,9.31-6.89,14a7.62,7.62,0,0,1-6.76.86" style="fill:#43b02a"/><path d="M66.7,67.21a5.54,5.54,0,0,0,2.74-1.12l.94-.75c3-2.36,2.55-7.8.77-10-5.28-6.63-15.77-7.82-15.77-7.82S54.18,58,59.49,64.61a8.57,8.57,0,0,0,7.21,2.6" style="fill:#c5e86c"/><path d="M105.18,46.51s.38,5.05.23,7.11a2,2,0,0,1-2,2,2.11,2.11,0,0,1-2.17-2.06c-.13-1.39.23-7.07.23-7.07H95.69l-.23,6.3c0,4.34,2.57,8,8.23,8,0,0,7.57.15,7.57-8l-.23-6.3Z" style="fill:#54585a"/><polygon points="151.4 46.51 151.4 46.52 151.41 46.51 151.4 46.51" style="fill:#54585a"/><polygon points="145.51 54.1 151.4 46.52 151.4 46.51 143.89 46.51 139.47 52.53 139.47 46.51 133.12 46.51 133.12 66.93 139.47 66.93 139.47 61.42 141.19 59.28 145.57 66.93 153.08 66.93 145.51 54.1" style="fill:#54585a"/><polygon points="164.01 46.51 160.47 53.88 155.4 46.51 151.42 52.01 157.04 61.06 154.23 66.93 161.88 66.93 171 46.51 164.01 46.51" style="fill:#54585a"/><path d="M124,61.59a4.47,4.47,0,0,1-4.57-4.81A4.5,4.5,0,0,1,124,51.92a4.3,4.3,0,0,1,3.38,1.79l3-4.2a9.48,9.48,0,0,0-7.17-3c-5.36,0-9.69,3.88-9.69,10.29s4.33,10.29,9.69,10.29A9.49,9.49,0,0,0,130.31,64l-2.95-4.2A4.26,4.26,0,0,1,124,61.59" style="fill:#54585a"/><polygon points="87.94 61.61 87.94 46.51 80.66 46.51 80.66 66.93 96.78 66.93 98.3 61.61 87.94 61.61" style="fill:#54585a"/><rect width="204" height="100" style="fill:none"/></svg>