<svg xmlns="http://www.w3.org/2000/svg" width="47" height="23.18" viewBox="0 0 47 23.18"><title>or</title><path d="M44.73,14.82c-2.2,0-3.33,3.19-6.52,3.19-.92,0-1.21-.43-1.21-1,0-1,.64-2.69,1.78-5.31a5,5,0,0,0,.42-2.13c0-2.41-1.77-4.11-3.26-4.11-.92,0-2.41.28-3.61.28-1.64,0-2.56-.14-2.56-1.06,0-3-1.84-4.68-3.68-4.68-2.41,0-3.55,2.27-3.55,4.47A5.37,5.37,0,0,0,22.77,6a5.29,5.29,0,0,0-3.2,1.83,2.77,2.77,0,0,1-1.85.92c-2,0-2.48-1.77-4.75-2.13a2.56,2.56,0,0,0,.29-1.41c0-1.14-1.07-2.34-4-2.34C2.2,2.91,0,11.06,0,14.32c0,4.89,3.69,8.86,8.22,8.86,6.31,0,9.29-4.75,9.29-7.94a4.34,4.34,0,0,0-.28-1.7h.56a7.54,7.54,0,0,0,5.8-2.63c-1.46,4.42-3.67,6.25-3.67,8.16a2.53,2.53,0,0,0,2.55,2.69,2.61,2.61,0,0,0,2.2-.85c2.41-2.62,4.18-8.93,4.68-11.06,2,.93,4.32.15,4.32,1.92s-1.91,3.4-1.91,6.8c0,2.77,1.84,4.61,5.67,4.61a11.53,11.53,0,0,0,8.22-3.47A4.42,4.42,0,0,0,47,16.8,2.19,2.19,0,0,0,44.73,14.82Zm-36.22,3c-2.06,0-3.41-1.7-3.41-3.89A5.69,5.69,0,0,1,9.92,8.29a2.91,2.91,0,0,0-.21,1.07,3.69,3.69,0,0,0,2.7,3.19,3.74,3.74,0,0,1,.28,1.27A4,4,0,0,1,8.51,17.86Z" style="fill:#fff"/></svg>