<svg id="our_story" data-name="our story" xmlns="http://www.w3.org/2000/svg" width="140.93" height="33.89" viewBox="0 0 140.93 33.89"><defs><style>.cls-1{fill:#43b02a;}</style></defs><title>our-story</title><path class="cls-1" d="M15.22,3.65V3.31c0-2-2.21-2.69-4.22-2.69C3.7.62,0,8.26,0,13.44c0,8.3,5.52,10.32,10.27,10.32S20.5,20.64,20.5,12.43C20.5,6.1,17.14,4.37,15.22,3.65ZM9.79,20.21c-2.83,0-5.52-2.06-5.52-6.53,0-3.31,1.73-8.88,8.11-9a3.71,3.71,0,0,0-.1.72,2.62,2.62,0,0,0,1.3,2.16,7,7,0,0,1,2.88,5.57A6.85,6.85,0,0,1,9.79,20.21Z"/><path class="cls-1" d="M54.48,18.1c-1.49,0-2.26,2.16-4.42,2.16-.62,0-.82-.29-.82-.67a11.91,11.91,0,0,1,1.2-3.6,3.35,3.35,0,0,0,.29-1.44,2.64,2.64,0,0,0-2.21-2.78c-.62,0-1.63.19-2.45.19-1.1,0-1.73-.1-1.73-.72,0-2-1.25-3.17-2.5-3.17-1.63,0-2.4,1.54-2.4,3a2.83,2.83,0,0,0,1.2,2.5,15.41,15.41,0,0,1-2.15,5.35,4,4,0,0,1-2.36,1.13c-.82,0-1.49-.43-1.49-2.74,0-.86.24-4,.24-5.14A1.74,1.74,0,0,0,33,10.32c-2.35,0-1.87,2.78-2.21,6.91-.1,1.34-.38,2.69-2.64,2.69s-2.54-1.82-2.54-3.17c0-2,.43-2.93.43-4.13a1.82,1.82,0,0,0-2-1.87c-1.68,0-2.16,3.07-2.16,4.9A9.18,9.18,0,0,0,24,21.75a5.34,5.34,0,0,0,4.27,1.63,5.4,5.4,0,0,0,4.32-2.3,4.27,4.27,0,0,0,3.7,2.45A5.82,5.82,0,0,0,39,22.75a1.81,1.81,0,0,0,.4,0,1.77,1.77,0,0,0,1.49-.58c1.63-1.78,2.83-6,3.17-7.49,1.39.62,2.93.1,2.93,1.3s-1.3,2.3-1.3,4.61c0,1.87,1.25,3.12,3.84,3.12a7.81,7.81,0,0,0,5.57-2.35,3,3,0,0,0,.91-2A1.49,1.49,0,0,0,54.48,18.1Z"/><path class="cls-1" d="M67.87,7.49c0-2.45,3.12-4.13,6-4.13,1.58,0,3.26.48,3.26,1.2,0,.38-1.58.86-1.58,2.69a1.66,1.66,0,0,0,1.78,1.63,3.49,3.49,0,0,0,3.22-3.55C80.54,1.68,77.47,0,74,0c-4.7,0-9.75,2.64-9.75,7.92,0,9.12,13.44,4.46,13.44,9.5,0,2.35-2.5,3.26-4.9,3.26-2.06,0-3.89-.72-4.56-2.4-.48-1.2-.62-1.87-1.58-1.87a2.12,2.12,0,0,0-2.4,2.21c0,1.92,1.44,5.38,8.64,5.38,4.7,0,8.54-2.4,8.54-7.06C81.46,7.54,67.87,12.63,67.87,7.49Z"/><path class="cls-1" d="M139.39,18.1c-.72,0-1.25.43-2.4,1.39a18.26,18.26,0,0,1-2.45,1.58c0-3,0-5.66,0-7.34,0-2.3-.24-3.36-1.87-3.36s-1.87,1-1.87,3.17c0,3.12-2.4,5.81-4,5.81-1.2,0-1.54-1.15-1.54-2.4s.29-2.88.29-4.22c0-1.06-.14-2.45-1.68-2.45-2.54,0-2.26,3.65-2.26,5.18a20.81,20.81,0,0,0,.19,2.71c-1.25.33-2.07,2.09-4,2.09-.62,0-.82-.29-.82-.67a11.91,11.91,0,0,1,1.2-3.6,3.35,3.35,0,0,0,.29-1.44,2.64,2.64,0,0,0-2.21-2.78c-.62,0-1.63.19-2.45.19-1.1,0-1.73-.1-1.73-.72,0-2-1.25-3.17-2.5-3.17-1.63,0-2.4,1.54-2.4,3a3.46,3.46,0,0,0,.25,1.32,4.56,4.56,0,0,0-1.31,1,1.84,1.84,0,0,1-1.25.62c-1.34,0-1.68-1.2-3.22-1.44a1.79,1.79,0,0,0,.19-1c0-.77-.72-1.58-2.69-1.58-4.8,0-6.29,5.52-6.29,7.73a6.49,6.49,0,0,0,0,.73C92.06,19.05,91.2,20,89.9,20c-1.82,0-2.45-1.78-2.4-4.8a6.53,6.53,0,0,0,.48-1c3.36-.14,4.61-1.3,4.75-2.74.1-.91-.77-1.1-1.63-1.1-.34,0-.86,0-1.73,0a24.63,24.63,0,0,0,1.1-4.9c.14-2-.24-3.94-1.63-3.94-2.5,0-3.89,5.14-4.46,8.26H83.9c-.91,0-2.06.34-2.16,1.58,0,.82.48,1.82,2.26,2.4-.53,6.29.43,9.79,5.23,9.79a7.48,7.48,0,0,0,5.09-1.89,5.39,5.39,0,0,0,4.17,2c4.27,0,6.29-3.22,6.29-5.38a2.9,2.9,0,0,0-.19-1.15H105a5.82,5.82,0,0,0,2.53-.62c-.94,2.18-2,3.25-2,4.36a1.72,1.72,0,0,0,1.73,1.82,1.77,1.77,0,0,0,1.49-.58c1.63-1.78,2.83-6,3.17-7.49,1.39.62,2.93.1,2.93,1.3s-1.3,2.3-1.3,4.61c0,1.87,1.25,3.12,3.84,3.12a7.81,7.81,0,0,0,5.57-2.35l0,0a5.68,5.68,0,0,0,4,1.91,5.2,5.2,0,0,0,4-2.4c0,.48,0,1.25,0,2-2.74,1.54-6,3.7-6,6.86a4.33,4.33,0,0,0,4.56,4.18c3,0,4.9-2.45,5.14-6.34,0-.48.1-1.49.14-3.26,2-.82,4-1.63,5.28-3a2.62,2.62,0,0,0,.77-1.73A1.53,1.53,0,0,0,139.39,18.1Zm-40.7,2.06a2.4,2.4,0,0,1-2.3-2.64,3.85,3.85,0,0,1,3.26-3.84,1.92,1.92,0,0,0-.14.72,2.49,2.49,0,0,0,1.82,2.16,2.54,2.54,0,0,1,.19.86A2.69,2.69,0,0,1,98.69,20.16Zm31.34,10a.9.9,0,0,1-1-1c0-1.3.86-2.26,2.21-3.07C131.23,28.66,131,30.1,130,30.15Z"/></svg>