<svg width="91px" height="52px" viewBox="0 0 91 52" version="1.1" xmlns="http://www.w3.org/2000/svg" xmlns:xlink="http://www.w3.org/1999/xlink">
    <!-- Generator: Sketch 50.2 (55047) - http://www.bohemiancoding.com/sketch -->
    <desc>Created with Sketch.</desc>
    <defs></defs>
    <g id="Payment-Method" stroke="none" stroke-width="1" fill="none" fill-rule="evenodd">
        <g id="4c-PayPal" transform="translate(-125.000000, -212.000000)">
            <g id="PayPal" transform="translate(32.000000, 136.000000)">
                <g id="Group" transform="translate(9.000000, 77.000000)">
                    <g id="exit" transform="translate(85.000000, 0.000000)">
                        <path d="M78,32 L78,48.8 C78,49.5 77.6,50 77,50 L1.3,50 C0.6,50 0.1,49.4 0.1,48.8 L0.1,1.2 C0.1,0.5 0.7,0 1.3,0 L77,0 C77.7,0 78,0.6 78,1.2 L78,23 M0,9 L78,9 M61,27 L88,27 M84.1,22.4 L88.6,27 L84.1,31.6" id="Shape" stroke="#B2B2B2" stroke-width="2"></path>
                        <circle id="Oval" fill="#B2B2B2" fill-rule="nonzero" cx="4.5" cy="4.5" r="1.5"></circle>
                        <circle id="Oval" fill="#B2B2B2" fill-rule="nonzero" cx="9.5" cy="4.5" r="1.5"></circle>
                        <circle id="Oval" fill="#B2B2B2" fill-rule="nonzero" cx="14.5" cy="4.5" r="1.5"></circle>
                    </g>
                </g>
            </g>
        </g>
    </g>
</svg>