<svg xmlns="http://www.w3.org/2000/svg" width="100%" viewBox="0 0 180.6 30"><title>quick-reorder-logo</title><path d="M93.2,12.4c0-2.4-1.6-3.2-4.6-3.2H84.6v6.5h3.9C91.6,15.7,93.2,14.9,93.2,12.4Z" style="fill:none"/><path d="M104.9,14.5c-1.7,0-3.3,1-3.6,3.6h7.1C108.2,15.7,107.1,14.5,104.9,14.5Z" style="fill:none"/><path d="M146.2,14.6c-2.7,0-3.8,1.7-3.8,5.1s1.4,4.8,3.6,4.8a5.1,5.1,0,0,0,3.7-1.9V16.5A4.6,4.6,0,0,0,146.2,14.6Z" style="fill:none"/><path d="M66.7,9.2c-.5,0-.3,2.9-.4,5.9a16.7,16.7,0,0,0,.8-4.7C67.2,9.6,66.9,9.2,66.7,9.2Z" style="fill:none"/><path d="M120.3,14.7c-2.6,0-3.9,1.8-3.9,4.9s1.2,5,3.9,5,3.9-1.8,3.9-5S122.9,14.7,120.3,14.7Z" style="fill:none"/><path d="M162.6,14.5c-1.7,0-3.3,1-3.6,3.6h7.1C165.9,15.7,164.7,14.5,162.6,14.5Z" style="fill:none"/><path d="M47.7,15.1a2.2,2.2,0,0,0,2.2-2.3,1.6,1.6,0,0,0-1.7-1.7,2.3,2.3,0,0,0-2.4,2.2A1.8,1.8,0,0,0,47.7,15.1Z" style="fill:#de7f01"/><path d="M77.5,23.1c-1,0-2.2,2-4.4,2a2.4,2.4,0,0,1-2.2-1.5c1-.2,2.2-1.4,3-2.5a4.6,4.6,0,0,0,.7-2.5,2.5,2.5,0,0,0-2.5-2.8c-1.4,0-2.4.5-4.9,2.9a20.1,20.1,0,0,0,2.7-9.3,5.4,5.4,0,0,0-1-3.1,2.4,2.4,0,0,0-1.9-1c-1.4,0-3.4,1.5-3.4,4.2s.2,3,.2,9.4c0,1.6,0,3.2-.1,4.4l-.5.3c-.7.5-1.9,1.7-3.6,1.7a3.4,3.4,0,0,1-3.4-3.5c0-1.2.8-2.3,1.8-2.3s1,1.1,1.8,1.1A1.6,1.6,0,0,0,61.2,19,3,3,0,0,0,58,16.2c-2.7,0-5.2,2.9-5.2,6a6.8,6.8,0,0,0,.1,1.1c-.7.5-1.4,1.3-2.5,1.3s-1.5-1.1-1.5-2.3.5-3.8.5-4.5a1.5,1.5,0,0,0-1.5-1.5,1.9,1.9,0,0,0-1.8.8,10.2,10.2,0,0,0-.5,3.6,12.3,12.3,0,0,0,.2,2.4c-.9.5-1.7,1.5-2.8,1.5s-1.3-.4-1.3-2.4.2-3.5.2-4.4a1.5,1.5,0,0,0-1.6-1.6c-2,0-1.6,2.4-1.9,6-.1,1.2-.3,2.3-2.3,2.3s-2.2-1.6-2.2-2.7.4-2.5.4-3.6a1.6,1.6,0,0,0-1.7-1.6c-1.5,0-1.9,2.7-1.9,4.2a7.9,7.9,0,0,0,1.8,5.3,4.6,4.6,0,0,0,3.7,1.4,4.7,4.7,0,0,0,3.7-2A3.7,3.7,0,0,0,43,27.8a6.2,6.2,0,0,0,3.8-1.7,3.9,3.9,0,0,0,3.3,1.7,5.8,5.8,0,0,0,4-1.7,6.2,6.2,0,0,0,4.7,1.9,9,9,0,0,0,4.9-1.5,1.5,1.5,0,0,0,1.6,1c1.4,0,1.7-.9,1.7-2s-.1-1.9-.1-2.8c1.6-2.5,3.2-3.4,4-3.4a.5.5,0,0,1,.5.5c0,.8-1.2,1.7-2.4,1.9a1.7,1.7,0,0,0-1.2,1.6,5.5,5.5,0,0,0,5.4,4.7,6.8,6.8,0,0,0,4.7-1.8,2.7,2.7,0,0,0,1-1.9A1.3,1.3,0,0,0,77.5,23.1Zm-11.1-8c.1-3-.1-5.9.4-5.9s.4.3.4,1.2A16.7,16.7,0,0,1,66.3,15.1Z" style="fill:#de7f01"/><path d="M96.7,12.3c0-4.3-2.9-6.4-8-6.4H81.1V27.2h3.5V18.8h3.7l4.8,8.4H97l-5-8.8A5.6,5.6,0,0,0,96.7,12.3Zm-12,3.4V9.2h3.9c3,0,4.6.7,4.6,3.2s-1.6,3.3-4.6,3.3Z" style="fill:#43b02a"/><path d="M105,11.6c-3.2,0-7.3,2.1-7.3,7.9s3.5,7.9,7.3,7.9a8.2,8.2,0,0,0,6.4-2.8l-1.9-1.8a5.5,5.5,0,0,1-4.3,1.8,3.8,3.8,0,0,1-4.1-4h10.4v-.8C111.7,13.7,108.4,11.6,105,11.6Zm-3.7,6.4c.3-2.6,1.9-3.6,3.6-3.6s3.3,1.2,3.5,3.6Z" style="fill:#43b02a"/><path d="M120.3,11.6c-3.7,0-7.4,2.3-7.4,7.9s3.7,7.9,7.4,7.9,7.4-2.4,7.4-7.9S124,11.6,120.3,11.6Zm0,12.9c-2.7,0-3.9-2.1-3.9-5s1.3-4.9,3.9-4.9,3.9,2.1,3.9,4.9S122.8,24.5,120.3,24.5Z" style="fill:#43b02a"/><path d="M138.8,11.6a6,6,0,0,0-5.5,2.8h-.1V11.9h-3.5V27.2h3.5V17.5a5.2,5.2,0,0,1,4.7-2.7h.9V11.6Z" style="fill:#43b02a"/><path d="M153.3,5.9h-3.5v7.6a5.8,5.8,0,0,0-4.4-1.9c-3.9,0-6.5,2.7-6.5,7.9s2.6,7.8,6,7.8a6.1,6.1,0,0,0,4.8-2.3,5.7,5.7,0,0,0,.3,2.1h3.6a9.7,9.7,0,0,1-.5-3.7Zm-3.5,16.6a5.1,5.1,0,0,1-3.7,1.9c-2.3,0-3.6-1.6-3.6-4.8s1.1-5.1,3.8-5.1a4.6,4.6,0,0,1,3.6,1.9Z" style="fill:#43b02a"/><path d="M162.6,11.6c-3.2,0-7.3,2.1-7.3,7.9s3.5,7.9,7.3,7.9a8.2,8.2,0,0,0,6.4-2.8l-1.9-1.8a5.5,5.5,0,0,1-4.3,1.8,3.8,3.8,0,0,1-4.1-4h10.4v-.8C169.3,13.7,166,11.6,162.6,11.6ZM159,18.1c.3-2.6,1.9-3.6,3.6-3.6s3.3,1.2,3.5,3.6Z" style="fill:#43b02a"/><path d="M180.4,11.6a6,6,0,0,0-5.5,2.8h-.1V11.9h-3.5V27.2h3.5V17.5a5.2,5.2,0,0,1,4.7-2.7h.9V11.6Z" style="fill:#43b02a"/><path d="M29.4,14.7A14.7,14.7,0,1,0,22.7,27,35.1,35.1,0,0,0,26,30l-2.1-3.9A14.7,14.7,0,0,0,29.4,14.7ZM23.5,25.4A53.1,53.1,0,0,0,18,17.2a2.3,2.3,0,1,0-2.4,1.4A77.4,77.4,0,0,0,22,26.4a11.6,11.6,0,1,1,1.5-1Z" style="fill:#de7f01"/><rect x="14.8" y="7.4" width="0.6" height="3.57" transform="translate(-0.6 1.2) rotate(-4.3)" style="fill:#ffc658"/><rect x="15.9" y="22.6" width="0.6" height="3.57" transform="translate(-1.8 1.3) rotate(-4.3)" style="fill:#ffc658"/><rect x="6.7" y="17.1" width="3.6" height="0.56" transform="matrix(1, -0.08, 0.08, 1, -1.28, 0.69)" style="fill:#ffc658"/><rect x="9.7" y="10.7" width="0.6" height="2.26" transform="translate(-5.5 11.7) rotate(-49.3)" style="fill:#ffc658"/><rect x="9.3" y="22.3" width="2.3" height="0.56" transform="translate(-13.5 15.8) rotate(-49.4)" style="fill:#ffc658"/><path d="M17.9,6.8a9.1,9.1,0,0,1,5.6,8.4A8.7,8.7,0,0,1,22,19.8a24.7,24.7,0,0,1,1.6,2.6A9.6,9.6,0,0,0,17.9,6.8Z" style="fill:#ffc658"/></svg>
