<svg xmlns="http://www.w3.org/2000/svg" width="84.3" height="14" viewBox="0 0 84.3 14"><title>quick-reorder-logo-tablet</title><path d="M43.5,5.8c0-1.1-.7-1.5-2.2-1.5H39.5v3h1.8C42.7,7.3,43.5,7,43.5,5.8Z" style="fill:none"/><path d="M49,6.8a1.7,1.7,0,0,0-1.7,1.7h3.3C50.5,7.3,50,6.8,49,6.8Z" style="fill:none"/><path d="M68.2,6.8c-1.2,0-1.8.8-1.8,2.4s.6,2.2,1.7,2.2a2.4,2.4,0,0,0,1.7-.9V7.7A2.2,2.2,0,0,0,68.2,6.8Z" style="fill:none"/><path d="M31.1,4.3c-.2,0-.1,1.3-.2,2.7a7.8,7.8,0,0,0,.4-2.2C31.3,4.5,31.2,4.3,31.1,4.3Z" style="fill:none"/><path d="M56.1,6.8c-1.2,0-1.8.9-1.8,2.3s.5,2.3,1.8,2.3,1.8-.9,1.8-2.3S57.4,6.8,56.1,6.8Z" style="fill:none"/><path d="M75.9,6.8a1.7,1.7,0,0,0-1.7,1.7h3.3C77.4,7.3,76.9,6.8,75.9,6.8Z" style="fill:none"/><path d="M22.3,7a1,1,0,0,0,1-1.1.7.7,0,0,0-.8-.8,1.1,1.1,0,0,0-1.1,1A.8.8,0,0,0,22.3,7Z" style="fill:#de7f01"/><path d="M36.1,10.8c-.5,0-1,.9-2,.9a1.1,1.1,0,0,1-1-.7,2.7,2.7,0,0,0,1.4-1.2,2.1,2.1,0,0,0,.3-1.1,1.2,1.2,0,0,0-1.1-1.3c-.7,0-1.1.3-2.3,1.4a9.4,9.4,0,0,0,1.3-4.3,2.5,2.5,0,0,0-.5-1.5,1.1,1.1,0,0,0-.9-.5,1.8,1.8,0,0,0-1.6,2c0,.6.1,1.4.1,4.4,0,.8,0,1.5,0,2h-.3a2.9,2.9,0,0,1-1.7.8,1.6,1.6,0,0,1-1.6-1.6c0-.6.4-1.1.8-1.1s.4.5.8.5a.7.7,0,0,0,.7-.7,1.4,1.4,0,0,0-1.5-1.3,2.7,2.7,0,0,0-2.4,2.8,3.2,3.2,0,0,0,0,.5c-.3.2-.6.6-1.2.6s-.7-.5-.7-1.1.3-1.8.3-2.1a.7.7,0,0,0-.7-.7.9.9,0,0,0-.8.4,4.8,4.8,0,0,0-.3,1.7,5.7,5.7,0,0,0,.1,1.1c-.4.2-.8.7-1.3.7s-.6-.2-.6-1.1.1-1.6.1-2.1a.7.7,0,0,0-.8-.8c-1,0-.8,1.1-.9,2.8s-.2,1.1-1.1,1.1-1-.7-1-1.3S16,9,16,8.6a.7.7,0,0,0-.8-.8c-.7,0-.9,1.2-.9,2a3.7,3.7,0,0,0,.8,2.5,2.2,2.2,0,0,0,1.7.7,2.2,2.2,0,0,0,1.7-.9,1.7,1.7,0,0,0,1.5,1,2.9,2.9,0,0,0,1.8-.8,1.8,1.8,0,0,0,1.5.8,2.7,2.7,0,0,0,1.9-.8,2.9,2.9,0,0,0,2.2.9,4.2,4.2,0,0,0,2.3-.7.7.7,0,0,0,.7.5c.6,0,.8-.4.8-.9s0-.9,0-1.3S32.8,9,33.1,9a.2.2,0,0,1,.2.2c0,.4-.6.8-1.1.9a.8.8,0,0,0-.6.8A2.6,2.6,0,0,0,34.1,13a3.2,3.2,0,0,0,2.2-.9,1.3,1.3,0,0,0,.4-.9A.6.6,0,0,0,36.1,10.8ZM30.9,7c.1-1.4,0-2.7.2-2.7s.2.2.2.5A7.8,7.8,0,0,1,30.9,7Z" style="fill:#de7f01"/><path d="M45.1,5.7c0-2-1.4-3-3.7-3H37.9v9.9h1.6V8.8h1.7l2.2,3.9h1.8L42.9,8.6A2.6,2.6,0,0,0,45.1,5.7ZM39.5,7.3v-3h1.8c1.4,0,2.2.3,2.2,1.5s-.7,1.5-2.1,1.5Z" style="fill:#43b02a"/><path d="M49,5.4a3.4,3.4,0,0,0-3.4,3.7c0,2.6,1.6,3.7,3.4,3.7a3.8,3.8,0,0,0,3-1.3l-.9-.9a2.6,2.6,0,0,1-2,.8,1.8,1.8,0,0,1-1.9-1.8h4.9V9.3C52.1,6.4,50.6,5.4,49,5.4Zm-1.7,3A1.7,1.7,0,0,1,49,6.8c1,0,1.5.6,1.6,1.7Z" style="fill:#43b02a"/><path d="M56.1,5.4a3.3,3.3,0,0,0-3.5,3.7,3.5,3.5,0,1,0,6.9,0A3.4,3.4,0,0,0,56.1,5.4Zm0,6c-1.3,0-1.8-1-1.8-2.3s.6-2.3,1.8-2.3,1.8,1,1.8,2.3S57.3,11.4,56.1,11.4Z" style="fill:#43b02a"/><path d="M64.8,5.4a2.8,2.8,0,0,0-2.6,1.3h0V5.6H60.5v7.1h1.6V8.2a2.4,2.4,0,0,1,2.2-1.3h.4V5.4Z" style="fill:#43b02a"/><path d="M71.6,2.8H69.9V6.3a2.7,2.7,0,0,0-2-.9c-1.8,0-3,1.2-3,3.7s1.2,3.6,2.8,3.6a2.8,2.8,0,0,0,2.3-1.1,2.7,2.7,0,0,0,.2,1h1.7a4.5,4.5,0,0,1-.2-1.7Zm-1.6,7.8a2.4,2.4,0,0,1-1.7.9c-1.1,0-1.7-.7-1.7-2.2s.5-2.4,1.8-2.4a2.2,2.2,0,0,1,1.7.9Z" style="fill:#43b02a"/><path d="M75.9,5.4a3.4,3.4,0,0,0-3.4,3.7c0,2.6,1.6,3.7,3.4,3.7a3.8,3.8,0,0,0,3-1.3l-.9-.9a2.6,2.6,0,0,1-2,.8,1.8,1.8,0,0,1-1.9-1.8H79V9.3C79,6.4,77.5,5.4,75.9,5.4Zm-1.7,3a1.7,1.7,0,0,1,1.7-1.7c1,0,1.5.6,1.6,1.7Z" style="fill:#43b02a"/><path d="M84.2,5.4a2.8,2.8,0,0,0-2.6,1.3h0V5.6H80v7.1h1.6V8.2a2.4,2.4,0,0,1,2.2-1.3h.4V5.4Z" style="fill:#43b02a"/><path d="M13.7,6.9a6.9,6.9,0,1,0-3.1,5.8L12.1,14l-1-1.8A6.8,6.8,0,0,0,13.7,6.9Zm-2.7,5A24.8,24.8,0,0,0,8.4,8a1.1,1.1,0,1,0-1.1.7,36.1,36.1,0,0,0,3,3.6,5.4,5.4,0,1,1,.7-.5Z" style="fill:#de7f01"/><rect x="6.9" y="3.4" width="0.3" height="1.67" transform="translate(-0.3 0.5) rotate(-4.3)" style="fill:#ffc658"/><rect x="7.4" y="10.5" width="0.3" height="1.67" transform="translate(-0.8 0.6) rotate(-4.3)" style="fill:#ffc658"/><rect x="3.1" y="8" width="1.7" height="0.26" transform="translate(-0.6 0.3) rotate(-4.3)" style="fill:#ffc658"/><rect x="4.5" y="5" width="0.3" height="1.05" transform="translate(-2.6 5.4) rotate(-49.3)" style="fill:#ffc658"/><rect x="4.4" y="10.4" width="1.1" height="0.26" transform="translate(-6.3 7.4) rotate(-49.4)" style="fill:#ffc658"/><path d="M8.3,3.2a4.2,4.2,0,0,1,2.6,3.9,4,4,0,0,1-.7,2.2l.7,1.2A4.5,4.5,0,0,0,8.3,3.2Z" style="fill:#ffc658"/></svg>