<svg xmlns="http://www.w3.org/2000/svg" width="108.4" height="18" viewBox="0 0 108.4 18"><title>quick-reorder-logo-small</title><path d="M55.9,7.4c0-1.5-.9-1.9-2.8-1.9H50.8V9.4h2.4C54.9,9.4,55.9,8.9,55.9,7.4Z" style="fill:none"/><path d="M63,8.7a2.1,2.1,0,0,0-2.2,2.1h4.3C64.9,9.4,64.2,8.7,63,8.7Z" style="fill:none"/><path d="M87.7,8.7c-1.6,0-2.3,1-2.3,3.1s.8,2.9,2.2,2.9a3.1,3.1,0,0,0,2.2-1.2V9.9A2.8,2.8,0,0,0,87.7,8.7Z" style="fill:none"/><path d="M40,5.5c-.3,0-.2,1.7-.2,3.5a10,10,0,0,0,.5-2.8C40.3,5.7,40.2,5.5,40,5.5Z" style="fill:none"/><path d="M72.2,8.8c-1.5,0-2.3,1.1-2.3,2.9s.7,3,2.3,3,2.3-1.1,2.3-3S73.8,8.8,72.2,8.8Z" style="fill:none"/><path d="M97.6,8.7a2.1,2.1,0,0,0-2.2,2.1h4.3C99.5,9.4,98.8,8.7,97.6,8.7Z" style="fill:none"/><path d="M28.6,9a1.3,1.3,0,0,0,1.3-1.4,1,1,0,0,0-1-1A1.4,1.4,0,0,0,27.5,8,1.1,1.1,0,0,0,28.6,9Z" style="fill:#de7f01"/><path d="M46.5,13.8c-.6,0-1.3,1.2-2.6,1.2a1.4,1.4,0,0,1-1.3-.9,3.5,3.5,0,0,0,1.8-1.5,2.7,2.7,0,0,0,.4-1.5,1.5,1.5,0,0,0-1.5-1.7c-.8,0-1.4.3-2.9,1.7a12.1,12.1,0,0,0,1.6-5.6,3.3,3.3,0,0,0-.6-1.9,1.4,1.4,0,0,0-1.1-.6,2.3,2.3,0,0,0-2,2.5c0,.8.1,1.8.1,5.7,0,1,0,1.9-.1,2.6l-.3.2a3.8,3.8,0,0,1-2.2,1,2.1,2.1,0,0,1-2-2.1c0-.7.5-1.4,1.1-1.4s.6.6,1.1.6a.9.9,0,0,0,.9-.8,1.8,1.8,0,0,0-1.9-1.7c-1.6,0-3.1,1.7-3.1,3.6a4.1,4.1,0,0,0,.1.7c-.4.3-.8.8-1.5.8s-.9-.6-.9-1.4.3-2.3.3-2.7a.9.9,0,0,0-.9-.9,1.2,1.2,0,0,0-1.1.5,6.1,6.1,0,0,0-.3,2.2,7.4,7.4,0,0,0,.1,1.5c-.5.3-1,.9-1.7.9s-.8-.2-.8-1.4.1-2.1.1-2.7a.9.9,0,0,0-1-1c-1.2,0-1,1.4-1.1,3.6s-.2,1.4-1.4,1.4-1.3-.9-1.3-1.6.2-1.5.2-2.1a.9.9,0,0,0-1-1c-.9,0-1.1,1.6-1.1,2.5a4.8,4.8,0,0,0,1.1,3.2,2.8,2.8,0,0,0,2.2.8,2.8,2.8,0,0,0,2.2-1.2,2.2,2.2,0,0,0,1.9,1.3,3.7,3.7,0,0,0,2.3-1,2.3,2.3,0,0,0,2,1,3.5,3.5,0,0,0,2.4-1,3.7,3.7,0,0,0,2.8,1.1,5.4,5.4,0,0,0,2.9-.9.9.9,0,0,0,.9.6c.8,0,1-.5,1-1.2s0-1.1,0-1.7,1.9-2,2.4-2a.3.3,0,0,1,.3.3c0,.5-.7,1-1.4,1.1a1,1,0,0,0-.7,1,3.3,3.3,0,0,0,3.2,2.8,4.1,4.1,0,0,0,2.8-1.1,1.6,1.6,0,0,0,.6-1.1A.8.8,0,0,0,46.5,13.8ZM39.8,9.1c.1-1.8,0-3.5.2-3.5s.2.2.2.7A10,10,0,0,1,39.8,9.1Z" style="fill:#de7f01"/><path d="M58,7.4c0-2.6-1.8-3.8-4.8-3.8H48.7V16.3h2.1v-5H53l2.9,5h2.3l-3-5.3A3.4,3.4,0,0,0,58,7.4Zm-7.2,2V5.5h2.3c1.8,0,2.8.4,2.8,1.9s-1,2-2.8,2Z" style="fill:#43b02a"/><path d="M63,7c-1.9,0-4.4,1.3-4.4,4.7s2.1,4.7,4.4,4.7a4.9,4.9,0,0,0,3.8-1.7l-1.1-1.1a3.3,3.3,0,0,1-2.6,1.1,2.3,2.3,0,0,1-2.4-2.4H67v-.5C67,8.2,65,7,63,7Zm-2.2,3.9A2.1,2.1,0,0,1,63,8.7c1.3,0,2,.7,2.1,2.1Z" style="fill:#43b02a"/><path d="M72.2,7c-2.2,0-4.5,1.4-4.5,4.7s2.2,4.7,4.5,4.7,4.5-1.4,4.5-4.7S74.4,7,72.2,7Zm0,7.7c-1.6,0-2.3-1.2-2.3-3s.8-2.9,2.3-2.9,2.3,1.2,2.3,2.9S73.7,14.7,72.2,14.7Z" style="fill:#43b02a"/><path d="M83.3,7A3.6,3.6,0,0,0,80,8.7h0V7.2H77.8v9.1H80V10.5a3.1,3.1,0,0,1,2.8-1.6h.6V7Z" style="fill:#43b02a"/><path d="M92,3.6H89.9V8.1A3.5,3.5,0,0,0,87.3,7c-2.3,0-3.9,1.6-3.9,4.8s1.5,4.7,3.6,4.7a3.6,3.6,0,0,0,2.9-1.4,3.4,3.4,0,0,0,.2,1.2h2.2a5.8,5.8,0,0,1-.3-2.2Zm-2.1,10a3.1,3.1,0,0,1-2.2,1.2c-1.4,0-2.2-1-2.2-2.9s.7-3.1,2.3-3.1a2.8,2.8,0,0,1,2.2,1.1Z" style="fill:#43b02a"/><path d="M97.6,7c-1.9,0-4.4,1.3-4.4,4.7s2.1,4.7,4.4,4.7a4.9,4.9,0,0,0,3.8-1.7l-1.1-1.1a3.3,3.3,0,0,1-2.6,1.1,2.3,2.3,0,0,1-2.4-2.4h6.2v-.5C101.6,8.2,99.6,7,97.6,7Zm-2.2,3.9a2.1,2.1,0,0,1,2.2-2.1c1.3,0,2,.7,2.1,2.1Z" style="fill:#43b02a"/><path d="M108.2,7A3.6,3.6,0,0,0,105,8.7h0V7.2h-2.1v9.1h2.1V10.5a3.1,3.1,0,0,1,2.8-1.6h.6V7Z" style="fill:#43b02a"/><path d="M17.6,8.8a8.8,8.8,0,1,0-4,7.4l2,1.8-1.3-2.3A8.8,8.8,0,0,0,17.6,8.8Zm-3.5,6.4a31.9,31.9,0,0,0-3.3-4.9,1.4,1.4,0,1,0-1.5.9,46.4,46.4,0,0,0,3.9,4.6,7,7,0,1,1,.9-.6Z" style="fill:#de7f01"/><rect x="8.9" y="4.4" width="0.3" height="2.14" transform="translate(-0.4 0.7) rotate(-4.3)" style="fill:#ffc658"/><rect x="9.5" y="13.5" width="0.3" height="2.14" transform="translate(-1.1 0.8) rotate(-4.3)" style="fill:#ffc658"/><rect x="4" y="10.2" width="2.1" height="0.34" transform="translate(-0.8 0.4) rotate(-4.3)" style="fill:#ffc658"/><rect x="5.8" y="6.4" width="0.3" height="1.35" transform="translate(-3.3 7) rotate(-49.3)" style="fill:#ffc658"/><rect x="5.6" y="13.4" width="1.4" height="0.34" transform="translate(-8.1 9.5) rotate(-49.4)" style="fill:#ffc658"/><path d="M10.7,4.1a5.5,5.5,0,0,1,3.4,5,5.2,5.2,0,0,1-.9,2.8l.9,1.6a5.8,5.8,0,0,0-3.4-9.4Z" style="fill:#ffc658"/></svg>