<svg xmlns="http://www.w3.org/2000/svg" width="106.25" height="54.33" viewBox="0 0 106.25 54.33"><title>shopper</title><path d="M42.5,20.6a1.5,1.5,0,0,1-.15-3,11.51,11.51,0,0,0,7-3.33,1.49,1.49,0,0,1,2.12,0,1.51,1.51,0,0,1,0,2.13,14.52,14.52,0,0,1-8.81,4.21Z" style="fill:#54585a"/><polygon points="43.2 53.98 21.6 46.56 0 53.98 0 0 43.2 2.15 43.2 53.98" style="fill:#7bc869"/><polygon points="43.2 53.98 21.6 46.56 0 53.98 0 51.82 22.98 43.22 43.2 47.47 43.2 53.98" style="fill:#43b02a"/><path d="M22.68,25.75s-1,5,1.86,8.37a5.34,5.34,0,0,0,4,1.49,3.45,3.45,0,0,0,1.59-.45l.55-.33c1.75-1,1.66-3.67.72-4.8C28.6,26.66,22.68,25.75,22.68,25.75Zm-9.26,1.77c-.92.81-1.58,3.2-.6,4.55l.31.42a2.31,2.31,0,0,0,1,.78,3.3,3.3,0,0,0,3.16-.44c2.74-2.44,3.21-7.23,3.21-7.23S16.16,25.09,13.42,27.52Zm17.9-6.37c1.11-1,1.79-4,.47-5.5l-.42-.5a2.84,2.84,0,0,0-1.31-.85,4.29,4.29,0,0,0-3.94.75c-3.31,3.12-3.6,8.89-3.6,8.89S28,24.25,31.32,21.15ZM16,9.71a3.15,3.15,0,0,0-1.8.39l-.65.37c-2.07,1.18-2.44,4.77-1.62,6.45,2.45,5,8.67,7,8.67,7s1.92-6.67-.53-11.66A5.25,5.25,0,0,0,16,9.71Z" style="fill:#fff"/><path d="M99.07,41.59H66.55a1.5,1.5,0,0,1-1.41-1l-.19-.5-7.9-24.73H51.58a1.5,1.5,0,0,1,0-3h6.57a1.51,1.51,0,0,1,1.43,1l8,25.16H97.88l5.41-23.08a1.5,1.5,0,0,1,2.92.69l-5.68,24.23A1.49,1.49,0,0,1,99.07,41.59Z" style="fill:#ffc658"/><path d="M92.1,47A2.15,2.15,0,1,1,90,49.18,2.15,2.15,0,0,1,92.1,47m0-3a5.15,5.15,0,1,0,5.15,5.15A5.14,5.14,0,0,0,92.1,44Z" style="fill:#ffc658"/><path d="M72.08,47a2.15,2.15,0,1,1-2.15,2.15A2.15,2.15,0,0,1,72.08,47m0-3a5.15,5.15,0,1,0,5.15,5.15A5.14,5.14,0,0,0,72.08,44Z" style="fill:#ffc658"/><path d="M27.71,30.65a42.29,42.29,0,0,1-22-6.2,1.5,1.5,0,0,1-.49-2.06,1.52,1.52,0,0,1,2.07-.49A39.23,39.23,0,0,0,33,27.27,39.18,39.18,0,0,0,56.27,14.83a1.5,1.5,0,1,1,2.23,2,42.27,42.27,0,0,1-25,13.4A40.86,40.86,0,0,1,27.71,30.65Z" style="fill:#54585a"/><circle cx="78.17" cy="26.99" r="5.22" style="fill:#f58220"/><circle cx="89.57" cy="15.67" r="4.44" style="fill:#43b02a"/><circle cx="78.17" cy="13.88" r="3.76" style="fill:#ffc658"/></svg>