<svg id="spread_the_wellness" data-name="spread the wellness" xmlns="http://www.w3.org/2000/svg" width="206.36" height="32" viewBox="0 0 206.36 32"><title>spread-the-wellness-text</title><path d="M206.36,22.56h-2.94V19.45h2.94Z" style="fill:#54585a"/><path d="M74.84,19.15a1.42,1.42,0,0,0-1.06.49,1.86,1.86,0,0,1-1.3.59c-1.76,0-1.86-1.27-2-2.28v-.19C71.11,9,72.73,7.42,73.12,3.52,73.3,1.7,72.9.76,71.87,1c-2,.39-3.45,11-3.45,11L68,11.65a3.26,3.26,0,0,0-1.7-.44c-2,0-5.65,2.22-5.65,6.66a5.52,5.52,0,0,0,.31,1.81,2.92,2.92,0,0,1-1.59.56c-.55,0-1.21-.26-1.21-1.48A12.61,12.61,0,0,1,58.38,17a24.85,24.85,0,0,0,.57-4.13c0-.36-.81-.55-1.61-.55h-.11l-.08-.07a3.37,3.37,0,0,0-2.25-.87c-3.76,0-6.8,4-6.8,7.37a4.55,4.55,0,0,0,.09.88,6,6,0,0,1-3,1,3.67,3.67,0,0,1-1.56-.33l-.51-.23.48-.28A5.58,5.58,0,0,0,46.68,15a3.48,3.48,0,0,0-3.74-3.61c-4.78,0-4.84,5.45-4.84,5.51a6.47,6.47,0,0,0,.76,3,9.1,9.1,0,0,1-2.51.43c-.73,0-1.26-.38-1.26-.91a6.09,6.09,0,0,1,.76-2.11c.18-.39.39-.83.6-1.33a2.88,2.88,0,0,0,.23-1.21,2.17,2.17,0,0,0-1.74-2.29,8.55,8.55,0,0,0-.95.08,11.35,11.35,0,0,1-1.31.1c-.78,0-2.1,0-2.1-1,0-1.71-.86-2.44-1.84-2.44-1.35,0-1.83,1.34-1.83,2.49a4,4,0,0,0,1,2.07l0,.16c-.46,3.22-1.15,4-1.81,4.74a4.27,4.27,0,0,1-1.14.85,6.11,6.11,0,0,0,.54-2.53c0-3.18-1.92-5.86-4.19-5.86A7.24,7.24,0,0,0,16.7,13.6l-.54.55s.19-2.55-1.56-2.37a2,2,0,0,0-1.88,2.06V14l.06.78c.07.93.16,2.11.23,3.79a6.17,6.17,0,0,1-1.72,1.35h0a6.06,6.06,0,0,0-1.39-3.27,9.81,9.81,0,0,1-1.59-4.75c0-.14,0-.28,0-.44.23-2.22-3.72-2-3.39.52a6.6,6.6,0,0,0,.14.77,3.61,3.61,0,0,1,.13.72C5.33,15.55,1.78,18.58.11,20c0,0-.11.15-.11.49a1.44,1.44,0,0,0,1.6,1.47c.49,0,4.17-2.87,4.82-4.66l.26-.72.28.71a6.38,6.38,0,0,0,.7,1.27,1.93,1.93,0,0,1,.45,1.14c0,.82-.95,1.18-1.86,1.53s-1.79.7-1.79,1.36a1.58,1.58,0,0,0,1.74,1.6,15,15,0,0,0,3.62-.7,9.93,9.93,0,0,0,3.25-1.73c0,.94,0,2,0,3.12,0,.76,0,1.55-.06,2.36S13,28.91,13,29.76c0,1.55.5,2.24,1.62,2.24a.94.94,0,0,0,.7-.29c.88-.88.85-3.55.84-5.5v-.78c0-.56,0-1.67,0-2.79s0-2.31,0-2.92c0-2,3-5.59,4.62-5.59,1.24,0,1.71,1.77,1.71,2.89,0,2.42-1.43,2.46-2.58,2.5-.82,0-1.9,0-2.3.68a2.12,2.12,0,0,0-.27,1c0,1.07,1.35,1.72,3,1.72.13,0,.27,0,.4,0s0,0,.06,0c.43,0,4.58.08,7.39-2.52a8.19,8.19,0,0,0,2.07-5.47l0-.43.41.16a7,7,0,0,0,1.64.39c.82.11,1.59.22,1.59,1.16a3.43,3.43,0,0,1-.58,1.6,5.08,5.08,0,0,0-.83,2.63c0,1.62,1.3,2.59,3.47,2.59a11.23,11.23,0,0,0,4.64-1.19,6.54,6.54,0,0,0,4,1.19,10.25,10.25,0,0,0,5-1.17,4.07,4.07,0,0,0,2.53.86,5.39,5.39,0,0,0,3.46-1.37l.28-.31.19.37a3.5,3.5,0,0,0,3.15,1.48,5.93,5.93,0,0,0,3.28-1.08,4.25,4.25,0,0,0,2.81,1A5.5,5.5,0,0,0,69,21.07l.29-.32.18.39c.42.93,1.08,1.78,3.06,1.78a3.62,3.62,0,0,0,2.73-1.22A2.32,2.32,0,0,0,76,20.23,1.11,1.11,0,0,0,74.84,19.15Zm-33.28-.36-.21.1-.14-.18a3,3,0,0,1-.41-1.6c0-1.58,1-3,2.06-3A1.24,1.24,0,0,1,44,15.43,4.26,4.26,0,0,1,41.56,18.79Zm13.9-.56a4.48,4.48,0,0,1-2.92,1.56,1.65,1.65,0,0,1-1-.38,1.49,1.49,0,0,1-.52-.81,2.2,2.2,0,0,1-.09-.59,4.18,4.18,0,0,1,4.18-3.74,1,1,0,0,1,1,1A4.81,4.81,0,0,1,55.46,18.23ZM68,18.06c-.8,1.31-1.66,2-2.5,2a1.64,1.64,0,0,1-1.25-.6,2.29,2.29,0,0,1-.46-.83,3.44,3.44,0,0,1-.13-.94c0-2.39,1.8-3.92,3-3.92a2.12,2.12,0,0,1,2,2.24A3.81,3.81,0,0,1,68,18.06Z" style="fill:#43b02a"/><path d="M128.2,12c-1.33,0-1.21,3.21-1.21,3.21v.14c-.07,2.43-.34,4.79-2.58,4.79-1.06,0-2.2-.7-2.2-2.64,0-.28,0-.6.08-1s.09-.95.1-1.5c.08-2.41-1.26-2.51-1.61-2.51-1.76,0-2.24,2.82-2.24,4.55-.34,1.73-1.69,3.15-3,3.15-.89,0-1.84-.72-1.84-2.32,0-.57.21-2.49.26-2.92.36-3-1.58-2.63-1.71-2.63-1.7,0-1.79,3.82-1.79,4.58,0,2.44.55,6.53,4.27,6.53,1.84,0,3.45-1,4.94-3.11l.32-.46.18.52a4.19,4.19,0,0,0,4.08,3.09c4.83,0,5.49-6.87,5.55-7.65C130,14,129.88,12,128.2,12Z" style="fill:#43b02a"/><path d="M200.28,15.4a1.8,1.8,0,0,0-1.15.48,4.2,4.2,0,0,1-2.86,1c-.27,0-.57,0-.92,0h-.14l-.09-.11a7.22,7.22,0,0,1-1.4-3.56,5,5,0,0,1,.1-.93,5.34,5.34,0,0,0,.11-1.06c0-.54-.8-1.09-2.32-1.09-.73,0-1,.42-1.36,1l-.13.21c-.35.54-.65,1-.93,1.49-1.36,2.22-2.12,3.44-4.3,3.94l-.17,0-.12-.14c-.23-.29-.48-.57-.72-.85-1-1.09-1.94-2.22-1.94-3.63a6.72,6.72,0,0,1,.07-.69,2.76,2.76,0,0,0,.06-.55c0-.23,0-.95-1.44-.95-2,0-2.24,1-2.24,2.11,0,1.26,1.63,3.3,3.21,4.54l.57.45-.72.06c-1.52.14-4.06.72-4.14,3h0a5.34,5.34,0,0,1-2.11.48,3.71,3.71,0,0,1-1.57-.33l-.51-.23.48-.28a5.59,5.59,0,0,0,3.1-4.75A3.49,3.49,0,0,0,173,11.42c-4.8,0-4.85,5.45-4.85,5.51a6.47,6.47,0,0,0,.67,2.82h0a2.88,2.88,0,0,1-1.43.47,1.17,1.17,0,0,1-1.16-1.31,15.57,15.57,0,0,1,.17-2,23,23,0,0,0,.22-2.91,2.91,2.91,0,0,0-3.2-3.07c-1.79,0-3.72,1.86-4.85,3.71l-.49.8,0-.94c0-.52,0-1,0-1.37,0-1.87,0-2.11-1.36-2.11-1,0-1.16.76-1.16,1.67s0,1.84,0,2.66c0,1.4-.11,2.66-.15,3.74a3.84,3.84,0,0,1-2.22.95c-1,0-1.74-1.14-1.83-2.53a49.23,49.23,0,0,0,4-15.39c.16-3.2-3.64-2.43-4.63-.43-.42.84-2.12,3.33-2.12,10.64a36.28,36.28,0,0,0,.25,4.74,4.06,4.06,0,0,1,0,.48c0,1.18-1.86,2.51-2.85,2.51-2.1,0-2.26-2.13-2.32-2.87A68.21,68.21,0,0,0,145.88,5.4c0-3.21-.49-4.46-1.61-3.65-.26.18-2.94,3.35-2.94,10.47,0,2.53,0,4.52.11,6.08-.95,1.66-2.69,3.1-6.08,1.76l.49-.28A5.58,5.58,0,0,0,138.93,15a3.48,3.48,0,0,0-3.74-3.61c-4.79,0-4.85,5.45-4.85,5.51a6,6,0,0,0,6.35,6.13c2.2,0,4-.16,5.34-2,.54,1.15,1.49,1.72,3.18,1.83a5.77,5.77,0,0,0,4.19-1.69l.26-.24.19.3a3.16,3.16,0,0,0,2.93,1.63,5.9,5.9,0,0,0,2.79-.74,1.09,1.09,0,0,0,.12.19,1,1,0,0,0,.74.28,1.39,1.39,0,0,0,1.09-.36c.42-.42.6-1.33.57-2.94v-.05l0,0c.88-2.23,3-5.45,4.65-5.45.77,0,1.17.59,1.17,1.75a13.59,13.59,0,0,1-.15,1.63,19.11,19.11,0,0,0-.21,2.53,3.11,3.11,0,0,0,3.44,3.3,6.5,6.5,0,0,0,3.4-1.14h0a6.48,6.48,0,0,0,4.05,1.27,11.33,11.33,0,0,0,4-.65,5.44,5.44,0,0,0,3.32,1,3.84,3.84,0,0,0,4.14-3.78,3.69,3.69,0,0,0-.09-.75l0-.25.24-.08a7.44,7.44,0,0,0,4.77-4.42,4.49,4.49,0,0,1,.31-.59l.49-.75,0,.89a5.5,5.5,0,0,0,.81,2.74l.35.42-.54.06c-1.6.17-4.29.81-4.29,3.17,0,1.74,2,3.21,4.35,3.21a3.92,3.92,0,0,0,2.92-1.1,3.43,3.43,0,0,0,.9-2.59v-.3h.3a6.43,6.43,0,0,0,4.35-1.54,1.55,1.55,0,0,0,.68-1.23A1.12,1.12,0,0,0,200.28,15.4Zm-66.47,3.39-.2.1-.15-.18a3,3,0,0,1-.41-1.6c0-1.59,1-3,2.06-3a1.22,1.22,0,0,1,1.17,1.31A4.28,4.28,0,0,1,133.81,18.79ZM151.18,5.28s.49-1.58,1.23-1.81.61.78.52,1.59a63.91,63.91,0,0,1-2.26,8.76A20.88,20.88,0,0,1,151.18,5.28Zm20.58,13.39-.19.12-.21.1-.14-.18a1.07,1.07,0,0,1-.16-.29,3.52,3.52,0,0,1-.26-1.32c0-1.58,1-3,2-3a1.24,1.24,0,0,1,1.18,1.3A4.26,4.26,0,0,1,171.76,18.67Zm10,2.62a1.78,1.78,0,0,1-1-.31.92.92,0,0,1-.41-.77c0-.28.14-.85,1.15-1.1a4.75,4.75,0,0,1,1.12-.13h.32l.08.1a1.64,1.64,0,0,1,.3,1C183.32,20.66,182.92,21.29,181.8,21.29Zm10.35-.08c-1,0-2-.48-2-1.4,0-.31.15-.73.9-1a5.34,5.34,0,0,1,1.44-.16c.36,0,.66,0,.82,0h.13l.08.1a1.55,1.55,0,0,1,.28.93A1.44,1.44,0,0,1,192.14,21.2Z" style="fill:#43b02a"/><path d="M107.65,19.42a1.26,1.26,0,0,0-.92.37,3.71,3.71,0,0,1-2.31,1,3.31,3.31,0,0,1-1.58-.32l.52-.35a4.76,4.76,0,0,0,2.37-3.94,3.08,3.08,0,0,0-3.31-3.2c-3.47,0-4.23,3.46-4.23,4.8a5.54,5.54,0,0,0,.54,2.31,4.38,4.38,0,0,1-.77.2c-.63.1-2.1.36-2-1.27,0-.4.07-.9.17-1.55A15.34,15.34,0,0,0,96.36,15c0-1.89-.72-2.84-2.64-2.84-1.44,0-3,1-4.15,2.83l-.47.7h0c0-.15,2.23-7.1,2.41-8.47.3-2.29-.05-3.82-1.09-3.82s-3,8.1-3.27,9.88c-.44,3-.75,4.06-.69,5.29a11.33,11.33,0,0,1-.95,1,3.2,3.2,0,0,1-1.91.83,1.54,1.54,0,0,1-1.18-.47c-.56-.56-.81-1.61-.8-3.32v-.08l0-.9.57,0c2.28,0,3-.8,3.1-2a.53.53,0,0,0-.13-.47,1.39,1.39,0,0,0-1-.29h0c-.23,0-.56,0-1.08,0l-1,0c.43-2.26,2-5.9,1.39-6.57A.82.82,0,0,0,82.78,6c-1.39,0-2.61,2.43-3.36,6.38l0,.23h-.45c-1,0-1.53.24-1.58,1,0,.43.15,1.22,1.56,1.72l.21.07,0,.22c-.28,3.29.06,5.24,1,6.32A3.77,3.77,0,0,0,83.08,23a5.83,5.83,0,0,0,3.8-1.4c.3.85.71,1,1.23,1,.9,0,1.37-.72,1.37-2.15a10.91,10.91,0,0,0-.06-1.1l0-.18,0,0c.38-1.83,1.82-4,3.35-4,.61,0,.92.43.92,1.29a10.18,10.18,0,0,1-.15,1.5,14.13,14.13,0,0,0-.19,2c0,2,1.34,3.06,3.37,3.06a8.56,8.56,0,0,0,3.59-1,5.58,5.58,0,0,0,3.4,1.07c3.16,0,5-1.4,5-2.75A1.08,1.08,0,0,0,107.65,19.42Zm-6.28-.27-.28.15L101,19a3,3,0,0,1-.2-1.06c0-1.25.76-2.38,1.6-2.38a.88.88,0,0,1,.84,1A3.45,3.45,0,0,1,101.37,19.15Z" style="fill:#43b02a"/></svg>