<svg id="swipe_left_to_right_to_see_selected_items_below" data-name="swipe left to right to see selected items below" xmlns="http://www.w3.org/2000/svg" width="30.21" height="38.88" viewBox="0 0 30.21 38.88"><title>swipe-icon</title><path d="M27.66,19.51a3,3,0,0,0-1-.11,2.65,2.65,0,0,0-.44,0c0,.39,0,.78,0,1.18v.83a1,1,0,0,1-2,0v-.63c0-.44,0-.89,0-1.33h0c0-.18,0-.35,0-.53a1.09,1.09,0,0,0-.43-.9,1.23,1.23,0,0,0-.75-.15H21.3c0,.06,0,.12,0,.19s0,.07,0,.1v3.76a1,1,0,0,1-2,0V18.29a2.38,2.38,0,0,0-.12-1,1,1,0,0,0-.91-.52h-1.7a.46.46,0,0,0-.17,0v5.92a1,1,0,0,1-2,0c0-.65,0-1.3,0-2,0-1.31,0-2.66,0-4V8.57c0-.17,0-.33,0-.49A1,1,0,0,0,13.55,7,3.09,3.09,0,0,0,12,7.16a1.19,1.19,0,0,0-.45,1v6.27c0,1.87,0,3.74,0,5.61v.12A9.15,9.15,0,0,1,11.24,23c-.42,1.37-1.27,1.62-1.74,1.65a1.88,1.88,0,0,1-1.17-.34l-.86-.62a11.65,11.65,0,0,0-1.75-1.14c-.87-.43-1.62-.53-1.92-.27a1.61,1.61,0,0,0-.26,1.23,5.44,5.44,0,0,0,.84.71A25.68,25.68,0,0,1,9.15,29.7c2.19,3,4.46,6.16,7,6.77.06,0,6.38,1.5,9.88-1.26A6.31,6.31,0,0,0,28.18,30v-8c0-.18,0-.38,0-.57a5,5,0,0,0,0-1.17A1,1,0,0,0,27.66,19.51Z" style="fill:none"/><path d="M6.08,7.71a1,1,0,0,0-1-1H3.24c8.65-6.33,16.83-6.31,25,.07a1,1,0,0,0,1.23-1.58C20.6-1.71,11.36-1.73,2,5.14V3.43a1,1,0,0,0-2,0V7.71a1,1,0,0,0,1,1H5.08A1,1,0,0,0,6.08,7.71Z" style="fill:#43b02a"/><path d="M30.1,19.73a3,3,0,0,0-1.49-2,3.88,3.88,0,0,0-1.89-.34,4,4,0,0,0-.88,0,3,3,0,0,0-.93-1.06,3.14,3.14,0,0,0-1.9-.52h-1.4a2.89,2.89,0,0,0-.92.09,3,3,0,0,0-2.41-1.22H16.41V8.59c0-.18,0-.37,0-.55a3,3,0,0,0-2.83-3,4.34,4.34,0,0,0-2.73.48A3.15,3.15,0,0,0,9.52,8.18v6.28c0,1.88,0,3.75,0,5.63v.12a7.44,7.44,0,0,1-.19,2.17l0,.12L8.67,22a13.31,13.31,0,0,0-2.05-1.33c-1.7-.84-3.17-.82-4.13,0s-1.41,2.86-.47,4A6.7,6.7,0,0,0,3.21,25.8a24.58,24.58,0,0,1,4.32,5.07c2.4,3.33,4.89,6.76,8.12,7.54a20.11,20.11,0,0,0,4.33.47,11.77,11.77,0,0,0,7.26-2.1A8.2,8.2,0,0,0,30.18,30v-8c0-.16,0-.33,0-.5A6.5,6.5,0,0,0,30.1,19.73Zm-1.91,1.62c0,.19,0,.39,0,.57v8A6.31,6.31,0,0,1,26,35.21c-3.5,2.75-9.82,1.27-9.88,1.26-2.51-.6-4.78-3.74-7-6.77A25.68,25.68,0,0,0,4.4,24.19a5.44,5.44,0,0,1-.84-.71,1.61,1.61,0,0,1,.26-1.23c.3-.26,1-.16,1.92.27a11.65,11.65,0,0,1,1.75,1.14l.86.62a1.88,1.88,0,0,0,1.17.34c.47,0,1.32-.29,1.74-1.65a9.15,9.15,0,0,0,.27-2.77v-.12c0-1.87,0-3.74,0-5.61V8.19a1.19,1.19,0,0,1,.45-1A3.09,3.09,0,0,1,13.55,7a1,1,0,0,1,.87,1.05c0,.16,0,.33,0,.49v8.15c0,1.33,0,2.68,0,4,0,.65,0,1.31,0,2a1,1,0,0,0,2,0V16.76a.46.46,0,0,1,.17,0h1.7a1,1,0,0,1,.91.52,2.38,2.38,0,0,1,.12,1v3.63a1,1,0,0,0,2,0V18.16s0-.06,0-.1,0-.12,0-.19H23a1.23,1.23,0,0,1,.75.15,1.09,1.09,0,0,1,.43.9c0,.18,0,.35,0,.53h0c0,.44,0,.89,0,1.33v.63a1,1,0,0,0,2,0v-.83c0-.39,0-.79,0-1.18a2.65,2.65,0,0,1,.44,0,3,3,0,0,1,1,.11,1,1,0,0,1,.49.67A5,5,0,0,1,28.19,21.35Z" style="fill:#43b02a"/></svg>