<svg id="thumbs_down" data-name="thumbs down" xmlns="http://www.w3.org/2000/svg" width="18" height="18" viewBox="0 0 18 18"><title>thumbs-down</title><path d="M16,2v8.87H12V9.45l-1.87,1.93L8.68,13.61,8.44,16A2.26,2.26,0,0,1,8,16c-.94,0-2.84-.51-1.68-5H3.09A1.08,1.08,0,0,1,2,10V9.87A1.08,1.08,0,0,1,3.09,8.79,1.08,1.08,0,0,1,2,7.72V7.63A1.08,1.08,0,0,1,3.09,6.56,1.08,1.08,0,0,1,2,5.49V5.39A1.08,1.08,0,0,1,3.09,4.32h.76A1.08,1.08,0,0,1,2.76,3.25V3.16A1.08,1.08,0,0,1,3.85,2.09H9.8L12,3V2h4M6.25,8.8h0M16,0H12a2,2,0,0,0-1.14.35l-.23-.1A2,2,0,0,0,9.8.09H3.85A3.09,3.09,0,0,0,.76,3.16v.09s0,.08,0,.13a3,3,0,0,0-.76,2v.09A3,3,0,0,0,.19,6.56,3,3,0,0,0,0,7.63v.09A3,3,0,0,0,.19,8.79,3,3,0,0,0,0,9.87V10A3.09,3.09,0,0,0,3.09,13h.84a5.1,5.1,0,0,0,.91,3.5A3.84,3.84,0,0,0,8,18a4.18,4.18,0,0,0,.93-.1,2,2,0,0,0,1.53-1.74l.19-1.88.92-1.45a2,2,0,0,0,.42,0h4a2,2,0,0,0,2-2V2a2,2,0,0,0-2-2Z" style="fill:#c84425"/></svg>