<svg id="autoship" xmlns="http://www.w3.org/2000/svg" width="292" height="107.02" viewBox="0 0 292 107.02"><title>autoship-logo</title><path d="M0,0H69.92V45.57H0Z" style="fill:#43b02a;fill-rule:evenodd"/><path d="M12.78,6.77l-4.63,13H11.7l.58-1.8h4.78l.58,1.8h3.61l-4.63-13Zm.56,7.94.77-2.37c.35-1.06.51-1.56.53-1.57h.07s.18.54.53,1.59L16,14.71Zm20.56-.85V6.77H30.56v7c0,2.05-.74,2.91-2.11,2.91s-2.11-.85-2.11-2.91v-7H22.93v7.09c0,4,2.25,6.13,5.49,6.13S33.9,17.82,33.9,13.86Zm2.37-3.79H39.9v9.66h3.38V10.07H46.9V6.77H36.27Zm25,3.18a6.53,6.53,0,1,0-13.05,0,6.53,6.53,0,1,0,13.05,0Zm-9.66,0a3.14,3.14,0,1,1,6.26,0,3.14,3.14,0,1,1-6.26,0ZM15.5,29.8c-2.18-.46-3.95-.85-3.95-2.71,0-1.38.94-2.22,2.9-2.22s3.12.89,3.53,2.45l2.29-.64c-.74-2.77-2.86-4.06-5.8-4.06-3.27,0-5.36,1.61-5.36,4.56,0,3.28,2.62,4.15,4.71,4.66,1.87.46,4.16.5,4.16,2.77C18,36.24,16.8,37,14.86,37c-2.09,0-3.68-.92-3.88-2.87l-2.31.66c.63,3.58,3.6,4.45,6.19,4.45,3.49,0,5.56-1.58,5.56-4.68C20.42,31.08,17.76,30.26,15.5,29.8Zm19.31-.32H27.24V22.94h-2.4V39h2.4V31.91H34.8V39h2.4V22.94H34.8ZM42.89,39h2.4V22.94h-2.4Zm12.6-16.05h-5V39h2.4V33.28h2.57c3.62,0,5.8-1.93,5.8-5.16S59.1,22.94,55.48,22.94Zm.07,8.12H52.91v-5.8h2.64c2.14,0,3.33,1,3.33,2.89S57.77,31.06,55.55,31.06Z" style="fill:#fff"/><path d="M0,48.31C0,58,0,55,0,61c0,4.75,30.59,18.5,35,18.5s35-13.85,35-18.5V48.31" style="fill:#878a8b;fill-rule:evenodd"/><path d="M30.06,51.64a2.83,2.83,0,0,0-1.49.3l-.55.29c-1.71.91-2,3.69-1.34,5,2,3.84,7.19,5.44,7.19,5.44s1.6-5.16-.44-9a4.39,4.39,0,0,0-3.38-2" style="fill:#fff"/><path d="M41.51,55.19a2.41,2.41,0,0,1,1.1.68l.35.39c1.11,1.24.53,3.55-.4,4.39-2.76,2.48-7.38,2.23-7.38,2.23s.24-4.61,3-7.09a3.75,3.75,0,0,1,3.3-.6" style="fill:#fff"/><path d="M28.25,69.68a1.88,1.88,0,0,1-.83-.58l-.26-.32a2.75,2.75,0,0,1,.49-3.41c2.26-1.82,5.85-1.43,5.85-1.43s-.38,3.58-2.65,5.41a2.93,2.93,0,0,1-2.6.33" style="fill:#fff"/><path d="M39.32,71.68a2.13,2.13,0,0,0,1.06-.43l.36-.29c1.14-.91,1-3,.3-3.86-2-2.55-6.07-3-6.07-3s-.46,4,1.58,6.59a3.3,3.3,0,0,0,2.78,1" style="fill:#fff"/><path d="M88.21,20.59c.21,4.05,3.52,5.76,7.65,5.76s6.44-1.64,6.44-5c0-4.55-4.45-4.84-7.54-5.55C91.34,15,87,13.91,87,9c0-4.13,3-6.58,8.11-6.58,4.52,0,7.86,1.88,8.89,6.12L102,9c-.71-3-2.88-4.8-6.9-4.8s-6,1.78-6,4.62c0,3.63,3.34,4.48,6.9,5.19,3.73.71,8.39,1.74,8.39,7.25,0,4.59-3.17,6.9-8.57,6.9-4.13,0-8.89-1.39-9.53-7.08Z" style="fill:#43b02a"/><path d="M117.05,4.8v23H115V4.8h-8.82V2.88h19.7V4.8Z" style="fill:#43b02a"/><path d="M129.61,20.49l-3.17,7.29h-2.17l10.88-24.9h2.17l10.85,24.9H146l-3.17-7.29ZM139,11.67c-1-2.31-2.7-6.4-2.74-6.44h-.07s-1.74,4.09-2.74,6.4l-3,7H142Z" style="fill:#43b02a"/><path d="M157.64,27.78h-2V16.68l-9.74-13.8h2.38l6,8.57,2.38,3.34h0s.89-1.35,2.28-3.27l6.15-8.64h2.28l-9.78,13.8Z" style="fill:#43b02a"/><path d="M179.91,2.88h2v23H195.6v1.92H179.91Z" style="fill:#43b02a"/><path d="M217.65,17.57c0,6.93-3.27,10.63-9.71,10.63s-9.71-3.7-9.71-10.63V2.88h2.1V17.64c0,5.73,2.38,8.64,7.61,8.64s7.65-2.92,7.65-8.64V2.88h2.06Z" style="fill:#43b02a"/><path d="M246.15,20.88a12.18,12.18,0,0,1-11.59,7.33c-7.18,0-12.77-5.09-12.77-12.95S227.3,2.38,234.55,2.38c5.76,0,9.67,3.09,11.24,6.69l-2,.57c-.82-1.64-3.34-5.3-9.25-5.3-6.26,0-10.7,4.16-10.7,10.92s4.69,11,10.63,11a10.44,10.44,0,0,0,9.67-5.94Z" style="fill:#43b02a"/><path d="M252.84,19.17v8.61h-2V2.88h2v8c0,3.52,0,5.76,0,5.8h.07l4.41-4.62,8.86-9.18h2.53l-9.53,9.92,10.6,15-2.42,0L257.6,14.26Z" style="fill:#43b02a"/><path d="M282.22,27.78h-2V16.68l-9.74-13.8h2.38l6,8.57,2.38,3.34h0s.89-1.35,2.28-3.27l6.15-8.64H292l-9.78,13.8Z" style="fill:#43b02a"/><path d="M93.44,57.48,91.9,61.73H85.41l9.9-25.66h7l9.93,25.66h-6.6l-1.54-4.25Zm6.82-10.7C99.45,44.65,98.86,43,98.83,43h-.11s-.62,1.61-1.43,3.74l-1.83,5.13h6.63Z" style="fill:#54585a"/><path d="M135.19,50.3c0,7.73-4.47,11.95-11.18,11.95S112.83,58,112.83,50.3V36.08h6.23v14c0,4.4,1.69,6.3,5,6.3s5-1.91,5-6.3v-14h6.09Z" style="fill:#54585a"/><path d="M152.17,41.79V61.73H146V41.79h-7.84V36.08H160v5.72Z" style="fill:#54585a"/><path d="M174.82,35.56c7.84,0,13.52,5.5,13.52,13.34s-5.68,13.34-13.52,13.34S161.3,56.75,161.3,48.9,167,35.56,174.82,35.56Zm0,20.86c4.25,0,7.33-2.93,7.33-7.51s-3.08-7.55-7.33-7.55-7.33,2.93-7.33,7.55S170.57,56.42,174.82,56.42Z" style="fill:#54585a"/><path d="M196.23,53.74c.51,1.94,2.31,3.08,5.09,3.08,2.35,0,3.78-.81,3.78-2.46,0-2.46-3.08-2.31-6.23-3.08-3.48-.84-7.81-2.46-7.81-7.88,0-5.24,4-7.84,9.71-7.84,5.24,0,9,2.13,10.41,6.71l-5.86,1.58c-.62-1.87-2.09-2.9-4.66-2.9-2.35,0-3.34.92-3.34,2.27,0,2.16,2.46,2.49,6,3.23,3.78.73,8,2.35,8,7.88,0,5.28-3.7,7.92-10,7.92-4.47,0-9.53-1.36-11-6.93Z" style="fill:#54585a"/><path d="M230.43,51.65h-9.86V61.73h-6.16V36.08h6.16v9.68h9.86V36.08h6.16V61.73h-6.16Z" style="fill:#54585a"/><path d="M240.7,36.08h6.16V61.73H240.7Z" style="fill:#54585a"/><path d="M260.53,36.08c6.3,0,10.12,3.34,10.12,8.83s-3.81,8.83-10.12,8.83h-3.41v8H251V36.08Zm.18,12.32c2.6,0,3.77-1.36,3.77-3.37s-1.17-3.34-3.77-3.34h-3.59v6.71Z" style="fill:#54585a"/><path d="M10.25,97.56c0,2.6-2.14,3.94-4.77,3.94-4,0-4.82-1.93-4.82-3A1.18,1.18,0,0,1,2,97.26c.54,0,.62.37.88,1a2.53,2.53,0,0,0,2.55,1.34c1.34,0,2.73-.51,2.73-1.82,0-2.81-7.5-.21-7.5-5.31,0-2.95,2.81-4.42,5.44-4.42,1.93,0,3.64.94,3.64,3a2,2,0,0,1-1.8,2,.93.93,0,0,1-1-.91c0-1,.88-1.29.88-1.5,0-.4-.94-.67-1.82-.67-1.61,0-3.35.94-3.35,2.3C2.66,95.14,10.25,92.3,10.25,97.56Z" style="fill:#878a8b"/><path d="M17.32,98.2a.84.84,0,0,1,.8.8c0,.83-1.39,2.28-3.54,2.28-2.68,0-3.22-2-2.92-5.47-1-.32-1.29-.88-1.26-1.34.05-.7.7-.88,1.21-.88h.27C12.2,91.85,13,89,14.38,89c.78,0,1,1.1.91,2.2a13.76,13.76,0,0,1-.62,2.73c.48,0,.78,0,1,0,.48,0,1,.11.91.62-.08.8-.78,1.45-2.65,1.53a3.61,3.61,0,0,1-.27.56c0,1.69.32,2.68,1.34,2.68S16.52,98.2,17.32,98.2Z" style="fill:#878a8b"/><path d="M26.76,98.95a1.64,1.64,0,0,1-.51,1.1,4.15,4.15,0,0,1-2.76,1.23,2.29,2.29,0,0,1-2.06-1,3.43,3.43,0,0,1-2.22.88,2.47,2.47,0,0,1-2.55-2.57c0-2.12,1.93-4.64,4.29-4.64a2.24,2.24,0,0,1,1.47.56c.4,0,1.15.08,1.15.51,0,1.18-.51,3.11-.51,3.54s.11.72.56.72c.94,0,1.53-1.1,2.28-1.1A.83.83,0,0,1,26.76,98.95Zm-5.6-.8a2.79,2.79,0,0,0,.38-1.66.45.45,0,0,0-.46-.46,2.37,2.37,0,0,0-2.36,2.09.8.8,0,0,0,.8.91A2.57,2.57,0,0,0,21.16,98.15Z" style="fill:#878a8b"/><path d="M34.13,99c.64-.54.94-.78,1.34-.78a.85.85,0,0,1,.86.8,1.46,1.46,0,0,1-.43,1,8.34,8.34,0,0,1-2.95,1.69c0,1-.05,1.55-.08,1.82C32.73,105.65,31.69,107,30,107a2.42,2.42,0,0,1-2.55-2.33c0-1.77,1.82-3,3.35-3.83,0-.4,0-.83,0-1.1a2.9,2.9,0,0,1-2.25,1.34,2.83,2.83,0,0,1-2.71-2,11.77,11.77,0,0,1-.24-2.39c0-.86-.16-2.89,1.26-2.89.86,0,.94.78.94,1.37,0,.75-.16,1.63-.16,2.36s.19,1.34.86,1.34c.88,0,2.22-1.5,2.22-3.24,0-1.21.21-1.77,1-1.77s1,.59,1,1.88c0,.94-.05,2.41,0,4.1A10.27,10.27,0,0,0,34.13,99Zm-3.22,3.7a2.08,2.08,0,0,0-1.23,1.72.5.5,0,0,0,.56.54C30.78,104.9,30.91,104.09,30.91,102.67Z" style="fill:#878a8b"/><path d="M51,98.95c0,1-1.66,2.33-3.27,2.33A2.08,2.08,0,0,1,45.38,99c0-.91.24-1.82.24-2.49,0-.48-.13-.86-.59-.86-1.07,0-2.22,1.53-2.49,2.81,0,.32.05.62.05.91,0,.83-.21,1.61-1,1.61-1.15,0-1.34-1.26-1.34-6.78a37.36,37.36,0,0,1,.16-4.1c.27-2.36,1.47-3.06,2.25-3.06s1.23,1.13,1.23,2.71a13,13,0,0,1-1.58,4.77,8.89,8.89,0,0,0,.05,1.18c1-1.61,2.17-2.39,3.24-2.39a1.89,1.89,0,0,1,2.14,2.12c0,1.1-.3,2.22-.3,2.89,0,.46.13.83.62.83,1,0,1.34-1,2.17-1A.75.75,0,0,1,51,98.95Z" style="fill:#878a8b"/><path d="M58,98.95c0,1-1.53,2.41-4.48,2.41a3.81,3.81,0,0,1-4-3.89c0-1,.54-3.51,3.11-3.51a2.27,2.27,0,0,1,2.44,2.36,3.53,3.53,0,0,1-2,3c.94.43,2.12.11,3.32-.86a1.16,1.16,0,0,1,.72-.29A.83.83,0,0,1,58,98.95Zm-5.44-3c-.56,0-1.07.78-1.07,1.63a1.65,1.65,0,0,0,.21.86,2.4,2.4,0,0,0,1.39-1.88A.57.57,0,0,0,52.57,95.95Z" style="fill:#878a8b"/><path d="M66.63,98.95a1.64,1.64,0,0,1-.51,1.1,4.15,4.15,0,0,1-2.76,1.23,2.29,2.29,0,0,1-2.06-1,3.43,3.43,0,0,1-2.22.88,2.47,2.47,0,0,1-2.55-2.57c0-2.12,1.93-4.64,4.29-4.64a2.24,2.24,0,0,1,1.47.56c.4,0,1.15.08,1.15.51,0,1.18-.51,3.11-.51,3.54s.11.72.56.72c.94,0,1.53-1.1,2.28-1.1A.83.83,0,0,1,66.63,98.95Zm-5.6-.8a2.79,2.79,0,0,0,.38-1.66A.45.45,0,0,0,61,96a2.37,2.37,0,0,0-2.36,2.09.8.8,0,0,0,.8.91A2.57,2.57,0,0,0,61,98.15Z" style="fill:#878a8b"/><path d="M66.58,100A3.67,3.67,0,0,1,65,101.15c-.43,0-.91-.62-.91-1.07s.67-.72,1.58-1.77a13.23,13.23,0,0,1-.75-4.45c0-3.62,1.26-7.1,3.4-7.1,1.82,0,2.14,2.44,2.14,3.48a16.77,16.77,0,0,1-2.79,8.25,1.46,1.46,0,0,0,1.26.86c1.15,0,1.77-1.15,2.6-1.15a.8.8,0,0,1,.8.8c0,1-1.72,2.28-3.3,2.28A3.06,3.06,0,0,1,66.58,100ZM67,96.32a11,11,0,0,0,1.5-5.6c0-.78-.16-1.45-.51-1.45-.67,0-1.18,1.82-1.18,4A19.9,19.9,0,0,0,67,96.32Z" style="fill:#878a8b"/><path d="M76.85,98.2a.84.84,0,0,1,.8.8c0,.83-1.39,2.28-3.54,2.28-2.68,0-3.22-2-2.92-5.47-1-.32-1.29-.88-1.26-1.34.05-.7.7-.88,1.21-.88h.27C71.73,91.85,72.5,89,73.9,89c.78,0,1,1.1.91,2.2a13.76,13.76,0,0,1-.62,2.73c.48,0,.78,0,1,0,.48,0,1,.11.91.62-.08.8-.78,1.45-2.65,1.53a3.61,3.61,0,0,1-.27.56c0,1.69.32,2.68,1.34,2.68S76,98.2,76.85,98.2Z" style="fill:#878a8b"/><path d="M86.95,98.95c0,1-1.66,2.33-3.27,2.33A2.08,2.08,0,0,1,81.35,99c0-.91.24-1.82.24-2.49,0-.48-.13-.86-.59-.86-1.07,0-2.22,1.53-2.49,2.81,0,.32.05.62.05.91,0,.83-.21,1.61-1,1.61-1.15,0-1.34-1.26-1.34-6.78a37.36,37.36,0,0,1,.16-4.1c.27-2.36,1.47-3.06,2.25-3.06s1.23,1.13,1.23,2.71a13,13,0,0,1-1.58,4.77,8.89,8.89,0,0,0,.05,1.18c1-1.61,2.17-2.39,3.24-2.39a1.89,1.89,0,0,1,2.14,2.12c0,1.1-.3,2.22-.3,2.89,0,.46.13.83.62.83,1,0,1.34-1,2.17-1A.75.75,0,0,1,86.95,98.95Z" style="fill:#878a8b"/><path d="M94.32,99c.64-.54.94-.78,1.34-.78a.85.85,0,0,1,.86.8,1.46,1.46,0,0,1-.43,1,8.35,8.35,0,0,1-2.95,1.69c0,1-.05,1.55-.08,1.82-.13,2.17-1.18,3.54-2.87,3.54a2.42,2.42,0,0,1-2.55-2.33c0-1.77,1.82-3,3.35-3.83,0-.4,0-.83,0-1.1a2.9,2.9,0,0,1-2.25,1.34,2.83,2.83,0,0,1-2.71-2,11.77,11.77,0,0,1-.24-2.39c0-.86-.16-2.89,1.26-2.89.86,0,.94.78.94,1.37,0,.75-.16,1.63-.16,2.36s.19,1.34.86,1.34c.88,0,2.22-1.5,2.22-3.24,0-1.21.21-1.77,1-1.77s1,.59,1,1.88c0,.94-.05,2.41,0,4.1A10.38,10.38,0,0,0,94.32,99Zm-3.22,3.7a2.08,2.08,0,0,0-1.23,1.72.5.5,0,0,0,.56.54C91,104.9,91.1,104.09,91.1,102.67Z" style="fill:#878a8b"/><path d="M99.68,99.54a1.25,1.25,0,0,1-1.29,1.34,1.21,1.21,0,0,1-1.34-1.18,1.34,1.34,0,0,1,1.39-1.39A1.15,1.15,0,0,1,99.68,99.54Z" style="fill:#878a8b"/><path d="M116,97.56c0,2.6-2.14,3.94-4.77,3.94-4,0-4.82-1.93-4.82-3a1.18,1.18,0,0,1,1.34-1.23c.54,0,.62.37.89,1a2.53,2.53,0,0,0,2.55,1.34c1.34,0,2.73-.51,2.73-1.82,0-2.81-7.5-.21-7.5-5.31,0-2.95,2.81-4.42,5.44-4.42,1.93,0,3.64.94,3.64,3a2,2,0,0,1-1.8,2,.93.93,0,0,1-1-.91c0-1,.89-1.29.89-1.5,0-.4-.94-.67-1.82-.67-1.61,0-3.35.94-3.35,2.3C108.44,95.14,116,92.3,116,97.56Z" style="fill:#878a8b"/><path d="M123.1,98.2a.84.84,0,0,1,.8.8c0,.83-1.39,2.28-3.54,2.28-2.68,0-3.22-2-2.92-5.47-1-.32-1.29-.88-1.26-1.34.05-.7.7-.88,1.21-.88h.27c.32-1.74,1.1-4.61,2.49-4.61.78,0,1,1.1.91,2.2a13.75,13.75,0,0,1-.62,2.73c.48,0,.78,0,1,0,.48,0,1,.11.91.62-.08.8-.78,1.45-2.65,1.53a3.74,3.74,0,0,1-.27.56c0,1.69.32,2.68,1.34,2.68S122.3,98.2,123.1,98.2Z" style="fill:#878a8b"/><path d="M132.54,98.95A1.64,1.64,0,0,1,132,100a4.15,4.15,0,0,1-2.76,1.23,2.29,2.29,0,0,1-2.06-1,3.43,3.43,0,0,1-2.23.88,2.47,2.47,0,0,1-2.55-2.57c0-2.12,1.93-4.64,4.29-4.64a2.23,2.23,0,0,1,1.47.56c.4,0,1.15.08,1.15.51,0,1.18-.51,3.11-.51,3.54s.11.72.56.72c.94,0,1.53-1.1,2.28-1.1A.83.83,0,0,1,132.54,98.95Zm-5.6-.8a2.79,2.79,0,0,0,.37-1.66.45.45,0,0,0-.46-.46,2.37,2.37,0,0,0-2.36,2.09.8.8,0,0,0,.8.91A2.57,2.57,0,0,0,126.93,98.15Z" style="fill:#878a8b"/><path d="M139.9,99c.64-.54.94-.78,1.34-.78a.85.85,0,0,1,.86.8,1.46,1.46,0,0,1-.43,1,8.34,8.34,0,0,1-2.95,1.69c0,1-.05,1.55-.08,1.82-.13,2.17-1.18,3.54-2.87,3.54a2.42,2.42,0,0,1-2.55-2.33c0-1.77,1.82-3,3.35-3.83,0-.4,0-.83,0-1.1a2.91,2.91,0,0,1-2.25,1.34,2.83,2.83,0,0,1-2.71-2,11.82,11.82,0,0,1-.24-2.39c0-.86-.16-2.89,1.26-2.89.86,0,.94.78.94,1.37,0,.75-.16,1.63-.16,2.36s.19,1.34.86,1.34c.88,0,2.22-1.5,2.22-3.24,0-1.21.21-1.77,1-1.77s1,.59,1,1.88c0,.94-.05,2.41,0,4.1A10.2,10.2,0,0,0,139.9,99Zm-3.22,3.7a2.08,2.08,0,0,0-1.23,1.72.5.5,0,0,0,.56.54C136.55,104.9,136.69,104.09,136.69,102.67Z" style="fill:#878a8b"/><path d="M156.76,98.95c0,1-1.66,2.33-3.27,2.33A2.08,2.08,0,0,1,151.16,99c0-.91.24-1.82.24-2.49,0-.48-.13-.86-.59-.86-1.07,0-2.22,1.53-2.49,2.81,0,.32.05.62.05.91,0,.83-.21,1.61-1,1.61-1.15,0-1.34-1.26-1.34-6.78a37.36,37.36,0,0,1,.16-4.1c.27-2.36,1.47-3.06,2.25-3.06s1.23,1.13,1.23,2.71a13,13,0,0,1-1.58,4.77,8.89,8.89,0,0,0,.05,1.18c1-1.61,2.17-2.39,3.24-2.39a1.89,1.89,0,0,1,2.14,2.12c0,1.1-.29,2.22-.29,2.89,0,.46.13.83.62.83,1,0,1.34-1,2.17-1A.75.75,0,0,1,156.76,98.95Z" style="fill:#878a8b"/><path d="M165.39,98.95a1.64,1.64,0,0,1-.51,1.1,4.15,4.15,0,0,1-2.76,1.23,2.29,2.29,0,0,1-2.06-1,3.43,3.43,0,0,1-2.23.88,2.47,2.47,0,0,1-2.55-2.57c0-2.12,1.93-4.64,4.29-4.64a2.23,2.23,0,0,1,1.47.56c.4,0,1.15.08,1.15.51,0,1.18-.51,3.11-.51,3.54s.11.72.56.72c.94,0,1.53-1.1,2.28-1.1A.83.83,0,0,1,165.39,98.95Zm-5.6-.8a2.79,2.79,0,0,0,.37-1.66.45.45,0,0,0-.46-.46,2.37,2.37,0,0,0-2.36,2.09.8.8,0,0,0,.8.91A2.57,2.57,0,0,0,159.79,98.15Z" style="fill:#878a8b"/><path d="M163.92,95.6a1.34,1.34,0,0,1,1.31-1.42c.37,0,.86.3,1.15,1.15a4.63,4.63,0,0,1,2.92-1.45c1.47,0,2.71,1.72,2.71,3.72a3.56,3.56,0,0,1-3.35,3.7c-1.29,0-1.77-.59-1.77-1.21a1.46,1.46,0,0,1,.19-.72c.7-1.15,2.71.38,2.71-1.85,0-.64-.27-1.58-.86-1.58-.91,0-2.63,2.12-2.63,3.22,0,.72,0,2.76,0,3.46,0,1.55.16,4.15-1.1,4.15-1,0-1.15-.8-1.15-1.53,0-1,.08-2,.08-3,0-3.86-.16-5.41-.24-6.57Z" style="fill:#878a8b"/><path d="M172.95,95.6a1.34,1.34,0,0,1,1.31-1.42c.37,0,.86.3,1.15,1.15a4.63,4.63,0,0,1,2.92-1.45c1.47,0,2.71,1.72,2.71,3.72a3.56,3.56,0,0,1-3.35,3.7c-1.29,0-1.77-.59-1.77-1.21a1.46,1.46,0,0,1,.19-.72c.7-1.15,2.71.38,2.71-1.85,0-.64-.27-1.58-.86-1.58-.91,0-2.63,2.12-2.63,3.22,0,.72,0,2.76,0,3.46,0,1.55.16,4.15-1.1,4.15-1,0-1.15-.8-1.15-1.53,0-1,.08-2,.08-3,0-3.86-.16-5.41-.24-6.57Z" style="fill:#878a8b"/><path d="M190.82,99c.64-.54.94-.78,1.34-.78a.85.85,0,0,1,.86.8,1.46,1.46,0,0,1-.43,1,8.34,8.34,0,0,1-2.95,1.69c0,1-.05,1.55-.08,1.82-.13,2.17-1.18,3.54-2.87,3.54a2.42,2.42,0,0,1-2.55-2.33c0-1.77,1.82-3,3.35-3.83,0-.4,0-.83,0-1.1a2.91,2.91,0,0,1-2.25,1.34,2.83,2.83,0,0,1-2.71-2,11.82,11.82,0,0,1-.24-2.39c0-.86-.16-2.89,1.26-2.89.86,0,.94.78.94,1.37,0,.75-.16,1.63-.16,2.36s.19,1.34.86,1.34c.88,0,2.22-1.5,2.22-3.24,0-1.21.21-1.77,1-1.77s1,.59,1,1.88c0,.94-.05,2.41,0,4.1A10.2,10.2,0,0,0,190.82,99Zm-3.22,3.7a2.08,2.08,0,0,0-1.23,1.72.5.5,0,0,0,.56.54C187.47,104.9,187.61,104.09,187.61,102.67Z" style="fill:#878a8b"/><path d="M196.18,99.54a1.25,1.25,0,0,1-1.29,1.34,1.21,1.21,0,0,1-1.34-1.18A1.34,1.34,0,0,1,195,98.31,1.15,1.15,0,0,1,196.18,99.54Z" style="fill:#878a8b"/><path d="M212.53,97.56c0,2.6-2.14,3.94-4.77,3.94-4,0-4.82-1.93-4.82-3a1.18,1.18,0,0,1,1.34-1.23c.54,0,.62.37.89,1a2.53,2.53,0,0,0,2.55,1.34c1.34,0,2.73-.51,2.73-1.82,0-2.81-7.5-.21-7.5-5.31,0-2.95,2.81-4.42,5.44-4.42,1.93,0,3.64.94,3.64,3a2,2,0,0,1-1.8,2,.93.93,0,0,1-1-.91c0-1,.89-1.29.89-1.5,0-.4-.94-.67-1.82-.67-1.61,0-3.35.94-3.35,2.3C204.95,95.14,212.53,92.3,212.53,97.56Z" style="fill:#878a8b"/><path d="M219.61,98.2a.84.84,0,0,1,.8.8c0,.83-1.39,2.28-3.54,2.28-2.68,0-3.22-2-2.92-5.47-1-.32-1.29-.88-1.26-1.34.05-.7.7-.88,1.21-.88h.27c.32-1.74,1.1-4.61,2.49-4.61.78,0,1,1.1.91,2.2a13.75,13.75,0,0,1-.62,2.73c.48,0,.78,0,1,0,.48,0,1,.11.91.62-.08.8-.78,1.45-2.65,1.53a3.61,3.61,0,0,1-.27.56c0,1.69.32,2.68,1.34,2.68S218.8,98.2,219.61,98.2Z" style="fill:#878a8b"/><path d="M229,98.95a1.64,1.64,0,0,1-.51,1.1,4.15,4.15,0,0,1-2.76,1.23,2.29,2.29,0,0,1-2.06-1,3.43,3.43,0,0,1-2.23.88,2.47,2.47,0,0,1-2.55-2.57c0-2.12,1.93-4.64,4.29-4.64a2.23,2.23,0,0,1,1.47.56c.4,0,1.15.08,1.15.51,0,1.18-.51,3.11-.51,3.54s.11.72.56.72c.94,0,1.53-1.1,2.28-1.1A.83.83,0,0,1,229,98.95Zm-5.6-.8a2.79,2.79,0,0,0,.37-1.66.45.45,0,0,0-.46-.46A2.37,2.37,0,0,0,221,98.12a.8.8,0,0,0,.8.91A2.57,2.57,0,0,0,223.44,98.15Z" style="fill:#878a8b"/><path d="M236.41,99c.64-.54.94-.78,1.34-.78a.85.85,0,0,1,.86.8,1.46,1.46,0,0,1-.43,1,8.34,8.34,0,0,1-2.95,1.69c0,1-.05,1.55-.08,1.82C235,105.65,234,107,232.28,107a2.42,2.42,0,0,1-2.55-2.33c0-1.77,1.82-3,3.35-3.83,0-.4,0-.83,0-1.1a2.91,2.91,0,0,1-2.25,1.34,2.83,2.83,0,0,1-2.71-2,11.82,11.82,0,0,1-.24-2.39c0-.86-.16-2.89,1.26-2.89.86,0,.94.78.94,1.37,0,.75-.16,1.63-.16,2.36s.19,1.34.86,1.34c.88,0,2.22-1.5,2.22-3.24,0-1.21.21-1.77,1-1.77s1,.59,1,1.88c0,.94-.05,2.41,0,4.1A10.2,10.2,0,0,0,236.41,99Zm-3.22,3.7a2.08,2.08,0,0,0-1.23,1.72.5.5,0,0,0,.56.54C233.06,104.9,233.19,104.09,233.19,102.67Z" style="fill:#878a8b"/><path d="M253.35,99.62c0,1.07-1.21,1.88-2.95,1.88a10.06,10.06,0,0,1-4-.8,2.59,2.59,0,0,1-2.55,1.61c-1.66,0-2.33-.94-2.33-1.88a2.45,2.45,0,0,1,2.63-2.36,3.59,3.59,0,0,1,.54,0c0-1.55-.88-3.16-.88-5,0-3.16,2-5,4.39-5a3,3,0,0,1,3.11,3.06,3.28,3.28,0,0,1-3.08,3.46c-.4,0-.88-.27-.88-1.15,0-.46.24-.59.56-.7a1.55,1.55,0,0,0,1.26-1.5c0-.67-.54-1-1.21-1-1,0-2,.88-2,2.71,0,2.06.64,3.67.7,5.44v.24a9.7,9.7,0,0,0,3.54.89c1.21,0,1.21-.89,2.14-.89A.9.9,0,0,1,253.35,99.62Zm-8.66.19c-.54-.24-1.26-.05-1.26.4,0,.16.08.38.46.38A.88.88,0,0,0,244.69,99.81Z" style="fill:#878a8b"/><path d="M257.56,99.86a3,3,0,0,1-2.41,1.29,3,3,0,0,1-2.38-.91,5.12,5.12,0,0,1-1.15-3.4c0-1,.27-2.73,1.21-2.73a1,1,0,0,1,1.1,1c0,.67-.24,1.21-.24,2.3,0,.75.13,1.77,1.42,1.77s1.42-.75,1.47-1.5c.19-2.3-.08-3.86,1.23-3.86a1,1,0,0,1,1,1c0,.62-.13,2.39-.13,2.87,0,1.29.37,1.53.83,1.53.94,0,1.53-1.1,2.28-1.1a.83.83,0,0,1,.86.75,1.64,1.64,0,0,1-.51,1.1,4,4,0,0,1-2.55,1.18A2.38,2.38,0,0,1,257.56,99.86Z" style="fill:#878a8b"/><path d="M268.62,98.2a.76.76,0,0,1,.72.72,1.78,1.78,0,0,1-.7,1.13,5.61,5.61,0,0,1-3.56,1.29,3.57,3.57,0,0,1-3.89-3.67c0-2,1.58-3.89,3.35-3.89a1.93,1.93,0,0,1,2.09,1.8,1,1,0,0,1-1,.91c-.54,0-.67-.7-1.15-.7s-1.15.72-1.15,1.5a2.22,2.22,0,0,0,2.2,2.28,4,4,0,0,0,2.33-1.1A1.35,1.35,0,0,1,268.62,98.2Z" style="fill:#878a8b"/><path d="M278,98.92a1.76,1.76,0,0,1-.62,1.23,4.38,4.38,0,0,1-3,1.18,3.53,3.53,0,0,1-3.46-3,1.12,1.12,0,0,1,.8-1c.78-.13,1.55-.72,1.55-1.23a.3.3,0,0,0-.32-.29c-.48,0-1.55.59-2.57,2.2,0,.59.05,1.37.05,1.82,0,.72-.24,1.29-1.12,1.29-.46,0-1.1-.13-1.1-1.26,0-.38.11-2.2.11-4.31,0-4.13-.13-5.25-.13-6.08a2.52,2.52,0,0,1,2.17-2.71,1.54,1.54,0,0,1,1.23.64,3.5,3.5,0,0,1,.67,2,13,13,0,0,1-1.74,6c1.63-1.53,2.25-1.88,3.16-1.88a1.63,1.63,0,0,1,1.58,1.82,2.94,2.94,0,0,1-.46,1.58,3.75,3.75,0,0,1-1.9,1.63,1.53,1.53,0,0,0,1.45,1c1.42,0,2.14-1.26,2.81-1.26A.84.84,0,0,1,278,98.92Zm-7.5-8.9c0-.54-.14-.75-.27-.75-.32,0-.19,1.85-.27,3.78A10.8,10.8,0,0,0,270.47,90Z" style="fill:#878a8b"/><path d="M285.37,99c.64-.54.94-.78,1.34-.78a.85.85,0,0,1,.86.8,1.46,1.46,0,0,1-.43,1,8.34,8.34,0,0,1-2.95,1.69c0,1-.05,1.55-.08,1.82-.13,2.17-1.18,3.54-2.87,3.54a2.42,2.42,0,0,1-2.55-2.33c0-1.77,1.82-3,3.35-3.83,0-.4,0-.83,0-1.1a2.91,2.91,0,0,1-2.25,1.34,2.83,2.83,0,0,1-2.71-2,11.82,11.82,0,0,1-.24-2.39c0-.86-.16-2.89,1.26-2.89.86,0,.94.78.94,1.37,0,.75-.16,1.63-.16,2.36s.19,1.34.86,1.34c.88,0,2.22-1.5,2.22-3.24,0-1.21.21-1.77,1-1.77s1,.59,1,1.88c0,.94-.05,2.41,0,4.1A10.2,10.2,0,0,0,285.37,99Zm-3.22,3.7a2.08,2.08,0,0,0-1.23,1.72.5.5,0,0,0,.56.54C282,104.9,282.16,104.09,282.16,102.67Z" style="fill:#878a8b"/><path d="M290.73,99.54a1.25,1.25,0,0,1-1.29,1.34,1.21,1.21,0,0,1-1.34-1.18,1.34,1.34,0,0,1,1.39-1.39A1.15,1.15,0,0,1,290.73,99.54Z" style="fill:#878a8b"/></svg>