<?xml version="1.0"?>
<svg xmlns="http://www.w3.org/2000/svg" xmlns:xlink="http://www.w3.org/1999/xlink" style="display: none;">
    <symbol id="darkForwardIcon">
        <title>darkForwardIcon</title>
        <path d="M1,11a1,1,0,0,1-.72-.3,1,1,0,0,1,0-1.42L4.13,5.55.29,1.71A1,1,0,0,1,1.71.29L7,5.57,1.7,10.72A1,1,0,0,1,1,11Z" style="fill:#54585a"/>
    </symbol>
    <symbol id="payPal">
        <title>Pay Pal</title>
        <path d="M63.92,4.5H59.36a.64.64,0,0,0-.63.54l-1.85,11.7a.39.39,0,0,0,.38.44H59.6a.44.44,0,0,0,.44-.37l.52-3.32a.64.64,0,0,1,.63-.54h1.44q4.51,0,5.2-4.34a3.52,3.52,0,0,0-.58-2.94A4.25,4.25,0,0,0,63.92,4.5m.53,4.28c-.25,1.64-1.5,1.64-2.71,1.64h-.69l.48-3.06A.38.38,0,0,1,61.91,7h.31c.82,0,1.6,0,2,.47a1.51,1.51,0,0,1,.23,1.27" style="fill:#009ddc"/><path d="M31.37,4.5H26.8a.63.63,0,0,0-.62.54l-1.85,11.7a.38.38,0,0,0,.38.44h2.18a.63.63,0,0,0,.62-.53l.5-3.16a.64.64,0,0,1,.63-.54h1.44q4.52,0,5.2-4.34a3.48,3.48,0,0,0-.59-2.94A4.21,4.21,0,0,0,31.37,4.5m.52,4.28c-.24,1.64-1.5,1.64-2.71,1.64H28.5L29,7.36A.38.38,0,0,1,29.35,7h.32c.82,0,1.6,0,2,.47a1.48,1.48,0,0,1,.22,1.27" style="fill:#1d3586"/><path d="M45,8.73H42.82a.38.38,0,0,0-.37.32l-.1.61-.15-.22a3.1,3.1,0,0,0-2.58-.92,5,5,0,0,0-4.88,4.4,4.12,4.12,0,0,0,.81,3.35,3.41,3.41,0,0,0,2.76,1.11,4.18,4.18,0,0,0,3-1.25l-.1.61a.39.39,0,0,0,.38.44h2a.63.63,0,0,0,.62-.53l1.18-7.48A.37.37,0,0,0,45,8.73M42,13a2.43,2.43,0,0,1-2.46,2.09A1.87,1.87,0,0,1,38,14.48a1.86,1.86,0,0,1-.34-1.54,2.43,2.43,0,0,1,2.45-2.1,1.82,1.82,0,0,1,1.45.59A1.86,1.86,0,0,1,42,13" style="fill:#1d3586"/><path d="M77.56,8.73H75.37a.38.38,0,0,0-.37.32l-.1.61-.15-.22a3.1,3.1,0,0,0-2.58-.92,5,5,0,0,0-4.88,4.4,4.12,4.12,0,0,0,.81,3.35,3.41,3.41,0,0,0,2.76,1.11,4.18,4.18,0,0,0,3-1.25l-.1.61a.39.39,0,0,0,.38.44h2a.63.63,0,0,0,.62-.53l1.19-7.48a.38.38,0,0,0-.38-.44m-3,4.25a2.43,2.43,0,0,1-2.46,2.09,1.87,1.87,0,0,1-1.47-.59,1.89,1.89,0,0,1-.34-1.54,2.43,2.43,0,0,1,2.45-2.1,1.82,1.82,0,0,1,1.45.59A1.86,1.86,0,0,1,74.51,13" style="fill:#009ddc"/><path d="M56.65,8.73h-2.2a.63.63,0,0,0-.52.27l-3,4.47L49.61,9.18a.62.62,0,0,0-.6-.45H46.85a.37.37,0,0,0-.36.5l2.41,7.1-2.27,3.21a.38.38,0,0,0,.31.6h2.19a.63.63,0,0,0,.53-.28L57,9.32a.37.37,0,0,0-.31-.59" style="fill:#1d3586"/><path d="M80.14,4.82,78.26,16.74a.38.38,0,0,0,.38.44h1.88a.64.64,0,0,0,.63-.53L83,4.94a.39.39,0,0,0-.38-.44H80.51a.37.37,0,0,0-.37.32" style="fill:#009ddc"/><path d="M15.38,5.12a4,4,0,0,0-.85-3.6C13.6.46,11.91,0,9.76,0H3.5a.9.9,0,0,0-.89.76L0,17.28a.54.54,0,0,0,.53.62H4.4l-.27,1.7a.48.48,0,0,0,.47.54H7.86a.78.78,0,0,0,.77-.66l0-.17.61-3.89,0-.21a.79.79,0,0,1,.78-.67h.49c3.15,0,5.62-1.28,6.34-5a4.26,4.26,0,0,0-.65-3.76,3,3,0,0,0-.89-.68" style="fill:#009ddc"/>
        <path d="M15.38,5.12a4,4,0,0,0-.85-3.6C13.6.46,11.91,0,9.76,0H3.5a.9.9,0,0,0-.89.76L0,17.28a.54.54,0,0,0,.53.62H4.4l1-6.15,0,.19a.89.89,0,0,1,.88-.75H8.06c3.61,0,6.43-1.47,7.26-5.71l.06-.36" style="fill:#211d70"/><path d="M6.41,5.14a.82.82,0,0,1,.44-.59.77.77,0,0,1,.34-.07h4.9a10.15,10.15,0,0,1,1.62.11l.42.08.39.1.18.06a4.63,4.63,0,0,1,.68.29,4,4,0,0,0-.85-3.6C13.6.46,11.91,0,9.76,0H3.5a.9.9,0,0,0-.89.76L0,17.28a.54.54,0,0,0,.53.62H4.4l1-6.15Z" style="fill:#1d3586"/>
    </symbol>
    <symbol id="printIcon">
        <title>Print Icon</title>
        <rect x="5" y="1" width="8" height="7" style="fill:#fff"/><path d="M12,2V7H6V2h6m2-2H4V9H14V0Z" style="fill:#b5b5b5"/><rect x="1" y="6" width="16" height="8" style="fill:#fff"/><path d="M16,7v6H2V7H16m2-2H0V15H18V5Z" style="fill:#b5b5b5"/><rect x="5" y="10" width="8" height="7" style="fill:#fff"/><path d="M12,11v5H6V11h6m2-2H4v9H14V9Z" style="fill:#b5b5b5"/>
    </symbol>
    <symbol id="emailIcon">
        <title>Email Icon</title>
        <polygon points="16 4.06 16 4 15.96 4 16 4.06" style="fill:none"/><polygon points="14.34 4 3.46 4 8.99 8.17 14.34 4" style="fill:none"/><polygon points="9.01 10.69 2 5.41 2 13.99 16 13.99 16 5.25 9.01 10.69" style="fill:none"/><path d="M0,2V16H18V2ZM16,4.06,16,4h0ZM14.34,4,9,8.17,3.46,4ZM2,14V5.41l7,5.28,7-5.44V14Z" style="fill:#b5b5b5"/><rect width="18" height="18" style="fill:none"/>
    </symbol>
    <symbol id="shipSaver">
        <title>Ship Saver</title>
        <path d="M9.33,8.55l-3.39,2a.48.48,0,0,1-.49,0L.36,7.57A.24.24,0,0,0,0,7.78V9.51a.49.49,0,0,0,.24.42l5.21,3a.53.53,0,0,0,.49,0l5.21-3a.49.49,0,0,0,.24-.42V7.07a.47.47,0,0,0-.24-.42l-5.21-3a.48.48,0,0,0-.49,0l-1.39.8a.31.31,0,0,0,0,.54L9.33,8A.31.31,0,0,1,9.33,8.55Z" style="fill:#43b02a"/><path d="M2.07,4.45l3.38-2a.53.53,0,0,1,.49,0L11,5.43a.24.24,0,0,0,.36-.2V3.49a.49.49,0,0,0-.24-.42L5.94.06a.53.53,0,0,0-.49,0l-5.21,3A.49.49,0,0,0,0,3.49V5.93a.47.47,0,0,0,.24.42l5.21,3a.48.48,0,0,0,.49,0l1.39-.8a.31.31,0,0,0,0-.54L2.07,5A.3.3,0,0,1,2.07,4.45Z" style="fill:#43b02a"/>
    </symbol>
    <symbol id="autoShipIconInverted">
    <title>selected</title>
        <path d="M15.58,12.76c-.43.71-4.73,3-6.87,3.31h0c-2.15-.31-6.44-2.6-6.87-3.31V1.92H15.58v.66l.57-.27a8.64,8.64,0,0,1,1.23-.39V0H0V13.82c.55.89,6,3.78,8.67,4.17h0c2.71-.39,8.13-3.28,8.67-4.17V5.44c-.64.51-1.24,1-1.8,1.5Z" style="fill:#d5ee97"/><path d="M19.4,2.57c-.24-.3-1.13-.2-1.95,0A7.21,7.21,0,0,0,16.22,3l-.58.25a17.37,17.37,0,0,0-7,6A9.93,9.93,0,0,0,6.14,6.33c-.81-.55-1.69-.3-2.48.56-.56.62.39,1.24,1,2a26.83,26.83,0,0,1,2.43,3.67,1.83,1.83,0,0,0,1.37,1h.1a1.58,1.58,0,0,0,1.34-.77A26.93,26.93,0,0,1,15.64,6c.56-.48,1.16-1,1.81-1.47l1.15-.86C19,3.39,19.71,3,19.4,2.57Z" style="fill:#fff"/>
    </symbol>
    <symbol id="saveForLater">
    <title>saveForLater</title>
        <path d="M8,15.72A7.72,7.72,0,1,1,15.72,8,7.74,7.74,0,0,1,8,15.72ZM8,2.28A5.72,5.72,0,1,0,13.72,8,5.73,5.73,0,0,0,8,2.28Z" /><path d="M10,11.44a1,1,0,0,1-.52-.15L7.19,9.88A1,1,0,0,1,6.72,9V5.37a1,1,0,0,1,2,0v3.1l1.79,1.12A1,1,0,0,1,10,11.44Z" /><rect width="16" height="16" style="fill:none"/>
    </symbol>
    <symbol id="shoprunnerLogo">
        <title>Shop Runner</title><path d="M.4,10.72a4.3,4.3,0,0,0,.78,2.19A5.36,5.36,0,0,0,4.61,15a6.05,6.05,0,0,0,5.12-1.17A4,4,0,0,0,10,7.54c-.25-.23-.53-.43-.8-.64l0-.06a15.67,15.67,0,0,1,1.46.63,5.64,5.64,0,0,1,2.89,3.14,4.78,4.78,0,0,1-1.18,5.22A7.21,7.21,0,0,1,6.56,18,7.18,7.18,0,0,1,2,16.24a5.11,5.11,0,0,1-1.9-4.18A4.11,4.11,0,0,1,.4,10.72Z" style="fill:#b5b5b5"/><path d="M4.67,11.15c-.4-.15-.8-.29-1.18-.47a5.85,5.85,0,0,1-3-2.91,4.8,4.8,0,0,1,.83-5.39A6.85,6.85,0,0,1,5.86.07,7.75,7.75,0,0,1,11,1.12a5.52,5.52,0,0,1,2.71,3.75,4.24,4.24,0,0,1-.23,2.41c0-.17,0-.35-.06-.52A4.48,4.48,0,0,0,11.15,3.7a6.28,6.28,0,0,0-7.07.49,4,4,0,0,0-1.6,3.36,4.17,4.17,0,0,0,1.77,3.21c.14.12.3.22.45.33Z" style="fill:#b5b5b5"/>
    </symbol>
    <symbol id="shipSaverIcon">
        <title>shipSaverIcon</title>
        <path d="M73.17,12.29H15.32a.55.55,0,0,1-.58-.62V1.36c0-.33.2-.38.32-.38H73.2c.51,0,.51.35.51.52V11.81C73.71,12.18,73.55,12.29,73.17,12.29Z" style="fill:#54585a;opacity:0.85"/><path d="M19.4,7.76a.91.91,0,0,0,1,.75c.45,0,.72-.17.72-.54s-.53-.56-1.53-.84A1.86,1.86,0,0,1,18,5.25c0-1.26.87-1.89,2.3-1.89s2.23.56,2.47,1.59l-1.46.39a.86.86,0,0,0-.92-.63c-.43,0-.69.18-.69.49s.41.49,1.35.76a2,2,0,0,1,1.78,2c0,1.38-1,1.92-2.4,1.92-1.1,0-2.3-.36-2.55-1.7Z" style="fill:#fff"/><path d="M27.74,9.65V7.32H25.92V9.65H24.23V3.41h1.69V5.75h1.82V3.41h1.69V9.65Z" style="fill:#fff"/><path d="M31,3.42h1.68V9.66H31Z" style="fill:#fff"/><path d="M36.51,3.43a2.16,2.16,0,0,1,2.41,2.22,2.14,2.14,0,0,1-2.41,2.19h-.68V9.68H34.14V3.43Zm0,3c.47,0,.7-.3.7-.77a.65.65,0,0,0-.7-.74h-.71V6.45Z" style="fill:#fff"/><path d="M42.53,7.65a.92.92,0,0,0,1,.76c.44,0,.71-.18.71-.55S43.74,7.3,42.73,7a1.86,1.86,0,0,1-1.6-1.88c0-1.26.87-1.89,2.31-1.89s2.23.56,2.46,1.59l-1.46.39a.84.84,0,0,0-.91-.63c-.44,0-.7.18-.7.49s.42.49,1.35.76a2,2,0,0,1,1.79,2c0,1.38-1,1.92-2.41,1.92-1.09,0-2.3-.36-2.54-1.7Z" style="fill:#fff"/><path d="M48.48,8.59l-.27,1.1H46.52l1.9-6.25h2.21l1.89,6.25H50.79l-.29-1.1Zm1.24-2.33c-.25-1-.36-1.47-.37-1.49h0l-.4,1.55-.22.85H50Z" style="fill:#fff"/><path d="M54.26,9.7l-2-6.24h1.86L54.85,6c.36,1.26.53,1.94.55,2h0L56,6l.7-2.56h1.76l-2,6.24Z" style="fill:#fff"/><path d="M59.28,3.47h4.48V5H61v.82h1.93V7.25H61v.89h2.85V9.71H59.28Z" style="fill:#fff"/><path d="M67.46,7.69h-.68v2H65.11V3.48h2.44c1.57,0,2.43.85,2.43,2.13a1.79,1.79,0,0,1-1,1.73l1.26,2.38H68.48Zm0-1.29a.63.63,0,0,0,.7-.69.62.62,0,0,0-.7-.69h-.79V6.4Z" style="fill:#fff"/><path d="M9.33,8.55l-3.39,2a.48.48,0,0,1-.49,0L.36,7.57A.24.24,0,0,0,0,7.78V9.51a.49.49,0,0,0,.24.42l5.21,3a.53.53,0,0,0,.49,0l5.21-3a.49.49,0,0,0,.24-.42V7.07a.47.47,0,0,0-.24-.42l-5.21-3a.48.48,0,0,0-.49,0l-1.39.8a.31.31,0,0,0,0,.54L9.33,8A.31.31,0,0,1,9.33,8.55Z" style="fill:#43b02a"/><path d="M2.07,4.45l3.38-2a.53.53,0,0,1,.49,0L11,5.43a.24.24,0,0,0,.36-.2V3.49a.49.49,0,0,0-.24-.42L5.94.06a.53.53,0,0,0-.49,0l-5.21,3A.49.49,0,0,0,0,3.49V5.93a.47.47,0,0,0,.24.42l5.21,3a.48.48,0,0,0,.49,0l1.39-.8a.31.31,0,0,0,0-.54L2.07,5A.3.3,0,0,1,2.07,4.45Z" style="fill:#43b02a"/>
    </symbol>
    <symbol id="luckyItemLineLogo">
        <title>luckyItemLineLogo</title>
        <path d="M.58,0C.43,5.05,1.8,8.52,1.82,10.77a53.22,53.22,0,0,0,.06,6.61C2,19,2.51,19.82,3,18.88s.64-4.09,1.5-5.63c-.1.63-.27,5.3-.73,6.54C3.48,20.54,3.06,21,2.48,21s-1-.38-1.34-1.23C.27,17.46.59,13,.53,10.09.48,8.08-.67,6.24.58,0ZM3.79,3.68l-.24,0a1.09,1.09,0,0,1,.79,1A1.17,1.17,0,0,1,3.1,5.77a1.34,1.34,0,0,1-.87-.31A1.58,1.58,0,1,0,3.79,3.68Zm8.8,13.59c.25-1-1.43-2-2.76-2.7a5.28,5.28,0,0,1-2.76-3.48c-.05-.36.23-.63.86-1.22a8.46,8.46,0,0,0,2.6-4.16c.11-.81-.12-1.65-.57-1.87-.71-.33-1.3.35-2,1.23C6.94,6.25,5.74,7.82,4.08,8,8,8.42,9,3.64,9.69,4.81S7.93,8.45,7.08,9.17s-1.42,1.11-1.44,1.72c-.06,1.81,2.44,4,3.8,4.65.93.44,1.77.84,1.64,1.34s-.72.56-1.67.37a10.75,10.75,0,0,1-4-2.29,6,6,0,0,0,4,3.37C11,18.57,12.39,18.06,12.59,17.27Z" style="fill:#43b02a"/>
    </symbol>
    <symbol id="greyCart">
        <title>Action</title><path d="M15.33,9.71H5.76a1,1,0,0,1-.94-.66l-.05-.14L2.56,2H1A1,1,0,0,1,1,0H3.29a1,1,0,0,1,1,.7l2.25,7h8L16,1.35A1,1,0,0,1,18,1.81L16.3,8.94A1,1,0,0,1,15.33,9.71Z" style="fill:#b5b5b5"/><circle cx="13.65" cy="11.38" r="1.08" style="fill:#43b02a"/><path d="M13.65,10.3a1.08,1.08,0,1,0,1.08,1.08,1.08,1.08,0,0,0-1.08-1.08Z" style="fill:#b5b5b5"/><circle cx="7.87" cy="11.38" r="1.08" style="fill:#43b02a"/><path d="M7.87,10.3a1.08,1.08,0,0,0,0,2.16,1.08,1.08,0,0,0,0-2.16Z" style="fill:#b5b5b5"/><circle cx="8.49" cy="5.4" r="1.08" style="fill:#43b02a"/><path d="M8.49,4.32A1.08,1.08,0,1,0,9.57,5.4,1.08,1.08,0,0,0,8.49,4.32Z" style="fill:#b5b5b5"/><circle cx="10.31" cy="2.68" r="1.08" style="fill:#43b02a"/><path d="M10.31,1.6a1.08,1.08,0,1,0,1.08,1.08A1.08,1.08,0,0,0,10.31,1.6Z" style="fill:#b5b5b5"/><circle cx="6.67" cy="2.68" r="1.08" style="fill:#43b02a"/><path d="M6.67,1.6A1.08,1.08,0,1,0,7.75,2.68,1.08,1.08,0,0,0,6.67,1.6Z" style="fill:#b5b5b5"/><circle cx="13.94" cy="2.68" r="1.08" style="fill:#43b02a"/><path d="M13.94,1.6A1.08,1.08,0,1,0,15,2.68,1.08,1.08,0,0,0,13.94,1.6Z" style="fill:#b5b5b5"/><circle cx="12.12" cy="5.4" r="1.08" style="fill:#43b02a"/><path d="M12.12,4.32A1.08,1.08,0,1,0,13.21,5.4a1.08,1.08,0,0,0-1.09-1.08Z" style="fill:#b5b5b5"/>
    </symbol>
    <symbol id="swapIcon">
        <title>swapIcon</title><path d="M20.7,15.84H7.55a1,1,0,0,1-.94-.65L6.53,15,3.42,5.24H1a1,1,0,0,1,0-2H4.15a1,1,0,0,1,.95.7l3.17,9.9H19.91l2.12-9A1,1,0,1,1,24,5.27l-2.29,9.8A1,1,0,0,1,20.7,15.84Z" style="fill:#fff"/><circle cx="18.39" cy="18.52" r="1.49" style="fill:#fff"/><path d="M18.39,17a1.49,1.49,0,1,0,1.49,1.49A1.49,1.49,0,0,0,18.39,17Z" style="fill:#fff"/><circle cx="10.45" cy="18.52" r="1.49" style="fill:#fff"/><path d="M10.45,17a1.49,1.49,0,1,0,1.49,1.49A1.49,1.49,0,0,0,10.45,17Z" style="fill:#fff"/><path d="M19.18,3.41a6.34,6.34,0,0,0-.35-.61c-.13-.18-.28-.35-.43-.52L19.73,1h-4V5l1.74-1.74a4.26,4.26,0,0,1,.41.54,4.76,4.76,0,0,1,.33.63,4.35,4.35,0,0,1-4,6,4,4,0,0,1-.5-.05v1.36c.17,0,.33,0,.5,0A5.72,5.72,0,0,0,19.86,6,5.59,5.59,0,0,0,19.18,3.41Z" style="fill:#fff"/><path d="M10.14,8a4.71,4.71,0,0,1-.33-.63,4.46,4.46,0,0,1-.32-1.63,4.36,4.36,0,0,1,4.36-4.35c.17,0,.33,0,.5,0V.05a4.23,4.23,0,0,0-.5,0A5.71,5.71,0,0,0,8.14,5.71a5.71,5.71,0,0,0,.67,2.63A6,6,0,0,0,9.16,9a5.52,5.52,0,0,0,.43.53L8.27,10.8h4v-4L10.55,8.52A5.23,5.23,0,0,1,10.14,8Z" style="fill:#fff"/>
    </symbol>
</svg>
