<svg id="pattern" xmlns="http://www.w3.org/2000/svg" width="39.55" height="44.49" viewBox="0 0 39.55 44.49"><defs><style>.cls-1{fill:#fff;}.cls-2{fill:#d6ef98;}.cls-3{fill:#7bc869;}.cls-4{fill:#43b02a;}.cls-5{fill:#c5e86c;}</style></defs><title>cover-pattern</title><path class="cls-1" d="M0,.2S4.5.7,6.75,3.52c.76.95.93,3.26-.33,4.26L6,8.1a2.36,2.36,0,0,1-1.17.47,3.64,3.64,0,0,1-3.06-1.1A9.32,9.32,0,0,1,0,2.45v19.9s4.46.5,6.7,3.32c.76.95.93,3.26-.33,4.26l-.4.32a2.36,2.36,0,0,1-1.17.47,3.64,3.64,0,0,1-3.06-1.1A9.32,9.32,0,0,1,0,24.6V44.49H35.38a12.11,12.11,0,0,1,3.08-.16l0,.16h1.11V0H0ZM8.44,40.69c-3,2.73-8.14,2.46-8.14,2.46s.27-5.08,3.33-7.83a4.14,4.14,0,0,1,3.64-.66,2.66,2.66,0,0,1,1.22.75l.39.43C10.1,37.21,9.46,39.77,8.44,40.69Zm7.08,1.2a3.24,3.24,0,0,1-2.87.36,2.08,2.08,0,0,1-.92-.64l-.28-.35A3,3,0,0,1,12,37.51c2.49-2,6.46-1.58,6.46-1.58S18,39.88,15.52,41.89Zm12.93-9.61c-3,2.73-8.14,2.46-8.14,2.46s.27-5.08,3.33-7.83a4.14,4.14,0,0,1,3.64-.66A2.66,2.66,0,0,1,28.5,27l.39.43C30.11,28.8,29.48,31.36,28.45,32.29ZM32,1.62C34.5-.39,38.46,0,38.46,0S38,4,35.54,6a3.24,3.24,0,0,1-2.87.36,2.08,2.08,0,0,1-.92-.64l-.28-.35A3,3,0,0,1,32,1.62Zm.42,7.64.6-.32a3.12,3.12,0,0,1,1.64-.33,4.85,4.85,0,0,1,3.73,2.2c2.25,4.25.48,9.94.48,9.94s-5.7-1.76-7.94-6C30.2,13.33,30.54,10.26,32.43,9.26Zm6,12.93s-.42,4-2.93,6a3.24,3.24,0,0,1-2.87.36,2.08,2.08,0,0,1-.92-.64l-.28-.35A3,3,0,0,1,32,23.77C34.5,21.76,38.46,22.19,38.46,22.19Zm-6,9.22.6-.32a3.12,3.12,0,0,1,1.64-.33A4.85,4.85,0,0,1,38.41,33c2.25,4.25.48,9.94.48,9.94s-5.7-1.76-7.94-6C30.2,35.48,30.54,32.41,32.43,31.41ZM23.64,4.94a4.14,4.14,0,0,1,3.64-.66A2.66,2.66,0,0,1,28.5,5l.39.43c1.22,1.36.59,3.92-.44,4.84-3,2.73-8.14,2.46-8.14,2.46S20.58,7.68,23.64,4.94Zm-3.58,9.17s4.46.5,6.7,3.32c.76.95.93,3.26-.33,4.26L26,22a2.35,2.35,0,0,1-1.17.47,3.64,3.64,0,0,1-3.06-1.1C19.56,18.56,20.06,14.11,20.06,14.11Zm0,22s4.46.5,6.7,3.32c.76.95.93,3.26-.33,4.26L26,44a2.36,2.36,0,0,1-1.17.47,3.64,3.64,0,0,1-3.06-1.1C19.56,40.54,20.06,36.09,20.06,36.09ZM12.41,1,13,.7A3.12,3.12,0,0,1,14.66.37a4.85,4.85,0,0,1,3.73,2.2c2.25,4.25.48,9.94.48,9.94s-5.7-1.76-7.94-6C10.18,5.09,10.52,2,12.41,1Zm6,12.93s-.42,4-2.93,6a3.24,3.24,0,0,1-2.87.36,2.08,2.08,0,0,1-.92-.64l-.28-.35A3,3,0,0,1,12,15.53C14.48,13.52,18.45,13.95,18.45,13.95Zm-6,9.05.6-.32a3.12,3.12,0,0,1,1.64-.33,4.85,4.85,0,0,1,3.73,2.2c2.25,4.25.48,9.94.48,9.94s-5.7-1.76-7.94-6C10.18,27.07,10.52,24,12.41,23ZM8.87,13.7c1.22,1.36.59,3.92-.44,4.84C5.39,21.28.29,21,.29,21s.27-5.08,3.33-7.83a4.14,4.14,0,0,1,3.64-.66,2.66,2.66,0,0,1,1.22.75Z"/><path class="cls-2" d="M18.87,12.51s1.76-5.69-.48-9.94A4.85,4.85,0,0,0,14.66.37,3.12,3.12,0,0,0,13,.7l-.6.32c-1.89,1-2.23,4.07-1.48,5.49C13.17,10.75,18.87,12.51,18.87,12.51Z"/><path class="cls-3" d="M28.45,10.3c1-.92,1.66-3.48.44-4.84L28.5,5a2.66,2.66,0,0,0-1.22-.75,4.14,4.14,0,0,0-3.64.66c-3.06,2.74-3.33,7.83-3.33,7.83S25.41,13,28.45,10.3Z"/><path class="cls-4" d="M11.45,19.29l.28.35a2.08,2.08,0,0,0,.92.64,3.24,3.24,0,0,0,2.87-.36c2.5-2,2.93-6,2.93-6s-4-.43-6.46,1.58A3,3,0,0,0,11.45,19.29Z"/><path class="cls-5" d="M24.88,22.48A2.35,2.35,0,0,0,26,22l.4-.32c1.26-1,1.08-3.31.33-4.26-2.24-2.82-6.7-3.32-6.7-3.32s-.51,4.45,1.75,7.27A3.64,3.64,0,0,0,24.88,22.48Z"/><path class="cls-3" d="M3.62,13.18C.56,15.92.29,21,.29,21s5.09.27,8.14-2.46c1-.92,1.66-3.48.44-4.84l-.39-.43a2.66,2.66,0,0,0-1.22-.75A4.14,4.14,0,0,0,3.62,13.18Z"/><path class="cls-5" d="M0,24.6V22.35A13.05,13.05,0,0,0,0,24.6Z"/><path class="cls-5" d="M4.86,30.72A2.36,2.36,0,0,0,6,30.25l.4-.32c1.26-1,1.08-3.31.33-4.26C4.5,22.85,0,22.35,0,22.35V24.6a9.32,9.32,0,0,0,1.75,5A3.64,3.64,0,0,0,4.86,30.72Z"/><path class="cls-2" d="M38.89,20.75s1.76-5.69-.48-9.94a4.85,4.85,0,0,0-3.73-2.2A3.12,3.12,0,0,0,33,8.94l-.6.32c-1.89,1-2.23,4.07-1.48,5.49C33.19,19,38.89,20.75,38.89,20.75Z"/><path class="cls-4" d="M31.46,27.53l.28.35a2.08,2.08,0,0,0,.92.64,3.24,3.24,0,0,0,2.87-.36c2.5-2,2.93-6,2.93-6s-4-.43-6.46,1.58A3,3,0,0,0,31.46,27.53Z"/><path class="cls-5" d="M0,2.45V.2A13.05,13.05,0,0,0,0,2.45Z"/><path class="cls-5" d="M4.86,8.58A2.36,2.36,0,0,0,6,8.1l.4-.32c1.26-1,1.08-3.31.33-4.26C4.5.7,0,.2,0,.2V2.45a9.32,9.32,0,0,0,1.75,5A3.64,3.64,0,0,0,4.86,8.58Z"/><path class="cls-4" d="M31.75,5.73a2.08,2.08,0,0,0,.92.64A3.24,3.24,0,0,0,35.54,6c2.5-2,2.93-6,2.93-6S34.5-.39,32,1.62a3,3,0,0,0-.55,3.76Z"/><path class="cls-2" d="M18.87,34.49s1.76-5.69-.48-9.94a4.85,4.85,0,0,0-3.73-2.2,3.12,3.12,0,0,0-1.64.33l-.6.32c-1.89,1-2.23,4.07-1.48,5.49C13.17,32.73,18.87,34.49,18.87,34.49Z"/><path class="cls-3" d="M28.5,27a2.66,2.66,0,0,0-1.22-.75,4.14,4.14,0,0,0-3.64.66c-3.06,2.74-3.33,7.83-3.33,7.83s5.09.27,8.14-2.46c1-.92,1.66-3.48.44-4.84Z"/><path class="cls-4" d="M12,37.51a3,3,0,0,0-.55,3.76l.28.35a2.08,2.08,0,0,0,.92.64,3.24,3.24,0,0,0,2.87-.36c2.5-2,2.93-6,2.93-6S14.48,35.5,12,37.51Z"/><path class="cls-5" d="M24.88,44.47A2.36,2.36,0,0,0,26,44l.4-.32c1.26-1,1.08-3.31.33-4.26-2.24-2.82-6.7-3.32-6.7-3.32s-.51,4.45,1.75,7.27A3.64,3.64,0,0,0,24.88,44.47Z"/><path class="cls-3" d="M8.49,35.42a2.66,2.66,0,0,0-1.22-.75,4.14,4.14,0,0,0-3.64.66C.56,38.07.29,43.16.29,43.16s5.09.27,8.14-2.46c1-.92,1.66-3.48.44-4.84Z"/><path class="cls-2" d="M38.89,42.9s1.76-5.69-.48-9.94a4.85,4.85,0,0,0-3.73-2.2,3.12,3.12,0,0,0-1.64.33l-.6.32c-1.89,1-2.23,4.07-1.48,5.49C33.19,41.14,38.89,42.9,38.89,42.9Z"/><path class="cls-4" d="M35.38,44.49h3.06l0-.16A12.11,12.11,0,0,0,35.38,44.49Z"/></svg>