<svg id="Í_ã_1" data-name="Í¼²ã_1" xmlns="http://www.w3.org/2000/svg" width="84" height="64" viewBox="0 0 84 64"><title>education-icon</title><path d="M80.52,12h-4V4.64A4.28,4.28,0,0,0,73.3.5,21.48,21.48,0,0,0,68.23,0,44.71,44.71,0,0,0,54.28,2.46,42.4,42.4,0,0,0,41.75,9.55,42.38,42.38,0,0,0,29.22,2.46,44.7,44.7,0,0,0,15.28,0,21.48,21.48,0,0,0,10.2.5,4.28,4.28,0,0,0,7,4.64V12H3.48A3.49,3.49,0,0,0,0,15.5V56.25a3.49,3.49,0,0,0,3.48,3.47H33.89a44.77,44.77,0,0,1,3.78,2.49,8.19,8.19,0,0,0,3.22,1.7h0a4.33,4.33,0,0,0,1.72,0h0a8.19,8.19,0,0,0,3.22-1.7,44.73,44.73,0,0,1,3.78-2.49h30.9A3.49,3.49,0,0,0,84,56.25V15.5A3.49,3.49,0,0,0,80.52,12ZM72.22,50.12s-5.73-.51-16.36,2.35c-8.52,2.29-13.34,7.25-14.11,7.25s-5.59-5-14.11-7.25C17,49.61,11.28,50.12,11.28,50.12V4.64s6.14-1.58,16.59,1.88c4.84,1.61,10.28,5.11,12.66,7.84V51.59a1.23,1.23,0,0,0,2.46,0V14.36c2.38-2.73,7.82-6.23,12.66-7.83C66.09,3.06,72.22,4.64,72.22,4.64Z" style="fill:#6bcaba"/></svg>