<svg xmlns="http://www.w3.org/2000/svg" width="85" height="39" viewBox="0 0 85 39"><title>fast-shipping-icon</title><path d="M81,32.2a8.8,8.8,0,0,1-.8,1.9,10,10,0,0,1-17.1,0,8.7,8.7,0,0,1-.8-1.9H41.9a8.7,8.7,0,0,1-.8,1.9,10,10,0,0,1-17.1,0,8.7,8.7,0,0,1-.8-1.9H18V29H9.5a1.5,1.5,0,0,1,0-3H18V20h8.5a1.5,1.5,0,0,0,.4-2.9,1.5,1.5,0,0,1-1.4.9H18v2h0V18H1.5a1.5,1.5,0,0,1,0-3H18V10H37.5a1.5,1.5,0,0,0,.4-2.9,1.5,1.5,0,0,1-1.4.9h-24a1.5,1.5,0,1,1,0-3H18V.1H77.1l2.6,13.7L85,18.2v14ZM32.6,25a5.1,5.1,0,0,0-5.3,5,4.7,4.7,0,0,0,.6,2.3,5.4,5.4,0,0,0,9.3,0,4.7,4.7,0,0,0,.6-2.3A5.1,5.1,0,0,0,32.6,25Zm34-20.7H57.4V28.2H62l4.6-5.6Zm7.6,0H68.8v9.3h7.1ZM71.7,24.9a5.1,5.1,0,0,0-5.3,5,4.7,4.7,0,0,0,.6,2.3,5.4,5.4,0,0,0,9.3,0,4.7,4.7,0,0,0,.6-2.3A5.1,5.1,0,0,0,71.7,24.9Z" style="fill:#43b02a;fill-rule:evenodd"/></svg>