<svg xmlns="http://www.w3.org/2000/svg" width="216" height="251.8" viewBox="0 0 216 251.8"><title>large-green-clover</title><path d="M46.5.1A35.5,35.5,0,0,0,27.9,3.8L21.1,7.5C-.4,18.8-4.3,53.7,4.2,69.9c25.5,48.1,90.3,68.2,90.3,68.2s20-64.7-5.5-113C82.5,12.8,64.3,1,46.5.1" style="fill:#43b02a"/><path d="M190.1,44.5A30.2,30.2,0,0,1,204,53.1l4.4,4.9c13.9,15.5,6.7,44.6-5,55.1-34.7,31.1-92.6,28-92.6,28s3.1-57.8,37.8-89c8.8-7.9,26.9-12,41.4-7.5" style="fill:#43b02a"/><path d="M23.7,226.4a23.6,23.6,0,0,1-10.4-7.3l-3.2-4c-10.2-12.7-3.3-35.1,6.2-42.8,28.3-22.8,73.4-17.9,73.4-17.9s-4.8,45-33.3,67.8c-7.2,5.8-21.5,8.2-32.6,4.1" style="fill:#43b02a"/><path d="M162.7,251.5a26.8,26.8,0,0,0,13.2-5.4l4.5-3.6c14.3-11.4,12.3-37.7,3.7-48.5-25.5-32-76.2-37.7-76.2-37.7s-5.8,50.6,19.9,82.7c6.5,8.1,21.6,14.3,34.8,12.6" style="fill:#43b02a"/></svg>