<svg xmlns="http://www.w3.org/2000/svg" width="193.9" height="98" viewBox="0 0 193.9 98"><title>logo-main</title><polygon points="73.4 98 67.3 79.6 71.8 79.6 76.1 94.5 80.3 79.6 84.9 79.6 78.7 98 73.4 98" style="fill:#54585a"/><rect x="89.3" y="79.6" width="4.2" height="18.37" style="fill:#54585a"/><polygon points="103.9 98 103.9 82.9 97.4 82.9 97.4 79.6 114.1 79.6 114.1 82.9 108.1 82.9 108.1 98 103.9 98" style="fill:#54585a"/><path d="M119.3,91.9h6.7l-3.3-9.2Zm8.2,6.1-.9-3.2h-8l-.9,3.2h-3.9l6-18.4h5.7L131.6,98Z" style="fill:#54585a"/><polygon points="151.8 98 151.8 84.6 145.5 94 139.1 84.6 139.1 98 135 98 135 79.6 140.5 79.6 145.5 87.2 150.4 79.6 155.9 79.6 155.9 98 151.8 98" style="fill:#54585a"/><rect x="162.1" y="79.6" width="4.2" height="18.37" style="fill:#54585a"/><polygon points="186.9 98 176.5 85.6 176.5 98 172.4 98 172.4 79.6 178 79.6 187.5 91.3 187.5 79.6 190.6 79.6 190.6 98 186.9 98" style="fill:#54585a"/><path d="M13.5,0A10.3,10.3,0,0,0,8.1,1.1l-2,1.1C-.1,5.5-1.3,15.6,1.2,20.3c7.4,14,26.3,19.8,26.3,19.8s5.8-18.8-1.6-32.9C24,3.7,18.7.3,13.5,0" style="fill:#d6ef98"/><path d="M55.3,13a8.8,8.8,0,0,1,4,2.5l1.3,1.4c4,4.5,1.9,13-1.4,16C49.1,41.9,32.3,41,32.3,41s.9-16.8,11-25.9c2.6-2.3,7.8-3.5,12.1-2.2" style="fill:#7bc869"/><path d="M6.9,65.9a6.9,6.9,0,0,1-3-2.1l-.9-1.2C0,58.9,2,52.4,4.7,50.2c8.2-6.6,21.4-5.2,21.4-5.2S24.7,58,16.4,64.7c-2.1,1.7-6.3,2.4-9.5,1.2" style="fill:#43b02a"/><path d="M47.4,73.2a7.8,7.8,0,0,0,3.9-1.6l1.3-1.1c4.2-3.3,3.6-11,1.1-14.1-7.4-9.3-22.2-11-22.2-11s-1.7,14.7,5.8,24.1c1.9,2.4,6.3,4.2,10.1,3.7" style="fill:#c5e86c"/><path d="M101.4,44.1s.5,7.1.3,10A2.8,2.8,0,0,1,99,56.9,3,3,0,0,1,96,54c-.2-2,.3-9.9.3-9.9H88.1L87.8,53c0,6.1,3.6,11.2,11.6,11.2,0,0,10.6.2,10.6-11.2l-.3-8.9Z" style="fill:#54585a"/><polygon points="166.4 44.1 166.4 44.1 166.4 44.1 166.4 44.1" style="fill:#54585a"/><polygon points="158.1 54.8 166.4 44.1 166.4 44.1 155.8 44.1 149.6 52.6 149.6 44.1 140.7 44.1 140.7 72.8 149.6 72.8 149.6 65 152 62 158.2 72.8 168.7 72.8 158.1 54.8" style="fill:#54585a"/><polygon points="184.1 44.1 179.1 54.5 172 44.1 166.4 51.8 174.3 64.6 170.4 72.8 181.1 72.8 193.9 44.1 184.1 44.1" style="fill:#54585a"/><path d="M127.8,65.3c-3.6,0-6.4-2.5-6.4-6.8s2.9-6.8,6.4-6.8a6,6,0,0,1,4.8,2.5l4.1-5.9a13.3,13.3,0,0,0-10.1-4.3c-7.5,0-13.6,5.4-13.6,14.5S119.1,73,126.7,73a13.3,13.3,0,0,0,10.1-4.3l-4.1-5.9a6,6,0,0,1-4.8,2.5" style="fill:#54585a"/><polygon points="77.2 65.3 77.2 44.1 67 44.1 67 72.8 89.6 72.8 91.8 65.3 77.2 65.3" style="fill:#54585a"/></svg>