<svg id="lucky_fit_fitness_nutrition_by_lucky_vitamin" data-name="lucky fit fitness nutrition by lucky vitamin" xmlns="http://www.w3.org/2000/svg" width="204" height="100" viewBox="0 0 204 100"><title>luckyfit-mission-logo</title><rect x="0.08" width="204" height="100" style="fill:none"/><path d="M86.74,45.54s.3,4.06.18,5.71a1.58,1.58,0,0,1-1.57,1.62,1.7,1.7,0,0,1-1.74-1.65c-.11-1.11.19-5.68.19-5.68H79.12l-.19,5.06c0,3.49,2.06,6.41,6.6,6.41a6,6,0,0,0,6.08-6.41l-.18-5.06Z" style="fill:#515555"/><polygon points="123.83 45.54 123.84 45.55 123.84 45.54 123.83 45.54" style="fill:#515555"/><polygon points="119.11 51.63 123.84 45.55 123.83 45.54 117.8 45.54 114.26 50.38 114.26 45.54 109.16 45.54 109.16 61.94 114.26 61.94 114.26 57.51 115.64 55.8 119.15 61.94 125.18 61.94 119.11 51.63" style="fill:#515555"/><polygon points="133.95 45.54 131.12 51.46 127.04 45.54 123.85 49.96 128.36 57.23 126.1 61.94 132.24 61.94 139.56 45.54 133.95 45.54" style="fill:#515555"/><path d="M101.82,57.65a3.58,3.58,0,0,1-3.67-3.86,3.62,3.62,0,0,1,3.67-3.9,3.45,3.45,0,0,1,2.71,1.44L106.91,48a7.61,7.61,0,0,0-5.76-2.43c-4.3,0-7.78,3.11-7.78,8.26S96.85,62,101.15,62a7.62,7.62,0,0,0,5.76-2.46l-2.37-3.37a3.42,3.42,0,0,1-2.72,1.43" style="fill:#515555"/><polygon points="72.9 57.67 72.9 45.54 67.06 45.54 67.06 61.94 80 61.94 81.22 57.67 72.9 57.67" style="fill:#515555"/><polygon points="68.53 66.66 68.53 67.75 70.63 67.75 70.63 69.01 68.53 69.01 68.53 71.08 67.17 71.08 67.17 65.4 71.23 65.4 71.23 66.66 68.53 66.66" style="fill:#2cb34a"/><rect x="73.52" y="65.4" width="1.36" height="5.68" style="fill:#2cb34a"/><polygon points="80.18 66.66 80.18 71.08 78.81 71.08 78.81 66.66 77.08 66.66 77.08 65.4 81.91 65.4 81.91 66.66 80.18 66.66" style="fill:#2cb34a"/><path d="M85.5,67.69h0s0,.7,0,1.44v1.95H84.12V65.4H85.5l2.42,3.32h0s0-.74,0-1.35v-2H89.3v5.68H87.91Z" style="fill:#2cb34a"/><polygon points="91.93 65.4 96.06 65.4 96.06 66.66 93.29 66.66 93.29 67.64 95.33 67.64 95.33 68.77 93.29 68.77 93.29 69.81 96.11 69.81 96.11 71.08 91.93 71.08 91.93 65.4" style="fill:#2cb34a"/><path d="M99.54,69.31c.11.43.51.68,1.13.68s.83-.18.83-.54c0-.54-.68-.51-1.38-.68S98.4,68.22,98.4,67s.88-1.74,2.15-1.74a2.16,2.16,0,0,1,2.3,1.48l-1.3.35a1,1,0,0,0-1-.64c-.52,0-.74.2-.74.5,0,.48.54.55,1.34.71s1.76.52,1.76,1.74-.82,1.75-2.2,1.75a2.23,2.23,0,0,1-2.43-1.53Z" style="fill:#2cb34a"/><path d="M106.26,69.31c.11.43.51.68,1.13.68s.83-.18.83-.54c0-.54-.68-.51-1.38-.68s-1.73-.54-1.73-1.74.88-1.74,2.15-1.74a2.16,2.16,0,0,1,2.3,1.48l-1.3.35a1,1,0,0,0-1-.64c-.52,0-.74.2-.74.5,0,.48.54.55,1.34.71s1.76.52,1.76,1.74-.82,1.75-2.2,1.75A2.23,2.23,0,0,1,105,69.65Z" style="fill:#2cb34a"/><path d="M116.93,67.69h0s0,.7,0,1.44v1.95h-1.36V65.4h1.38l2.42,3.32h0s0-.74,0-1.35v-2h1.36v5.68h-1.39Z" style="fill:#2cb34a"/><path d="M128.26,68.54a2.48,2.48,0,1,1-4.95,0V65.4h1.38V68.5c0,1,.37,1.4,1.11,1.4s1.11-.42,1.11-1.4V65.4h1.35Z" style="fill:#2cb34a"/><polygon points="133.55 66.66 133.55 71.08 132.18 71.08 132.18 66.66 130.45 66.66 130.45 65.4 135.28 65.4 135.28 66.66 133.55 66.66" style="fill:#2cb34a"/><path d="M139.46,69.2h-.61v1.87h-1.36V65.4h2.16c1.43,0,2.26.75,2.26,1.92a1.61,1.61,0,0,1-1.07,1.61l1.3,2.14h-1.61Zm.28-1.09c.5,0,.78-.25.78-.73a.69.69,0,0,0-.79-.75h-.88v1.48Z" style="fill:#2cb34a"/><rect x="144.37" y="65.4" width="1.36" height="5.68" style="fill:#2cb34a"/><polygon points="151.03 66.66 151.03 71.08 149.66 71.08 149.66 66.66 147.93 66.66 147.93 65.4 152.76 65.4 152.76 66.66 151.03 66.66" style="fill:#2cb34a"/><rect x="154.97" y="65.4" width="1.36" height="5.68" style="fill:#2cb34a"/><path d="M161.68,65.28a3,3,0,1,1-3,3,2.86,2.86,0,0,1,3-3m0,4.62a1.67,1.67,0,1,0-1.62-1.66,1.56,1.56,0,0,0,1.62,1.66" style="fill:#2cb34a"/><path d="M168.4,67.69h0s0,.7,0,1.44v1.95H167V65.4h1.38l2.42,3.32h0s0-.74,0-1.35v-2h1.36v5.68h-1.39Z" style="fill:#2cb34a"/><polygon points="139.55 51.28 139.52 62.09 145 62.09 145 56.64 150.19 56.64 151.59 51.94 145 51.94 145 50.13 152.4 50.13 153.64 45.43 142.14 45.43 139.55 51.28" style="fill:#2cb34a"/><rect x="155.12" y="45.41" width="5.48" height="16.69" style="fill:#2cb34a"/><polygon points="162.08 45.43 162.08 50.13 166.81 50.13 166.81 62.09 172.36 62.09 172.36 50.13 176.68 50.13 178.22 45.43 162.08 45.43" style="fill:#2cb34a"/><path d="M121.39,77.77c0,.36-.36.6-.92.6a1.72,1.72,0,0,1-.73-.14,1.29,1.29,0,0,1,.11.54,1.38,1.38,0,0,1-1.44,1.3c-1.38,0-1.43-1.7-1.43-3.23,0-.79,0-1.64.1-2.2s.26-.64.56-.64.53.25.53.85c0,.76-.32,3.26-.32,3.51s.14.82.61.82a.58.58,0,0,0,.56-.63.89.89,0,0,0-.14-.48c-.2,0-.5-.16-.5-.46s.17-.53.44-.53.79.51,1.58.51a4.16,4.16,0,0,0,.7-.11A.31.31,0,0,1,121.39,77.77Z" style="fill:#2cb34a"/><path d="M124.31,79.12c.27-.23.39-.33.56-.33a.36.36,0,0,1,.36.34.61.61,0,0,1-.18.41,3.53,3.53,0,0,1-1.24.71c0,.42,0,.65,0,.77-.06.91-.5,1.49-1.21,1.49a1,1,0,0,1-1.07-1c0-.74.77-1.25,1.41-1.61,0-.17,0-.35,0-.46A1.22,1.22,0,0,1,122,80a1.19,1.19,0,0,1-1.14-.83,5,5,0,0,1-.1-1c0-.36-.07-1.22.53-1.22.36,0,.39.33.39.58s-.07.69-.07,1,.08.56.36.56.94-.63.94-1.37c0-.51.09-.74.44-.74s.44.25.44.79,0,1,0,1.73A4.32,4.32,0,0,0,124.31,79.12ZM123,80.67a.87.87,0,0,0-.52.72.21.21,0,0,0,.24.23C122.9,81.61,123,81.27,123,80.67Z" style="fill:#2cb34a"/><path d="M131.44,79.39c0,.45-.51.79-1.24.79a4.22,4.22,0,0,1-1.67-.34,1.09,1.09,0,0,1-1.07.68c-.7,0-1-.39-1-.79a1,1,0,0,1,1.11-1h.23c0-.65-.37-1.33-.37-2.12a1.88,1.88,0,0,1,1.85-2.09,1.24,1.24,0,0,1,1.31,1.29,1.38,1.38,0,0,1-1.3,1.45c-.17,0-.37-.11-.37-.48,0-.19.1-.25.24-.29a.65.65,0,0,0,.53-.63c0-.28-.23-.41-.51-.41s-.82.37-.82,1.14.27,1.55.29,2.29V79a4.08,4.08,0,0,0,1.49.37c.51,0,.51-.37.9-.37A.38.38,0,0,1,131.44,79.39Zm-3.64.08c-.23-.1-.53,0-.53.17s0,.16.19.16A.37.37,0,0,0,127.8,79.47Z" style="fill:#2cb34a"/><path d="M133.5,79.49a1.34,1.34,0,0,1-2,.16,2.16,2.16,0,0,1-.48-1.43c0-.43.11-1.15.51-1.15a.43.43,0,0,1,.46.44c0,.28-.1.51-.1,1s.06.74.6.74.6-.32.62-.63c.08-1,0-1.62.52-1.62a.41.41,0,0,1,.44.44c0,.26-.06,1-.06,1.21,0,.54.16.64.35.64.39,0,.64-.46,1-.46a.35.35,0,0,1,.36.32.69.69,0,0,1-.21.46,1.7,1.7,0,0,1-1.07.5A1,1,0,0,1,133.5,79.49Z" style="fill:#2cb34a"/><path d="M138.16,78.79a.32.32,0,0,1,.3.3.75.75,0,0,1-.29.47,2.36,2.36,0,0,1-1.5.54A1.5,1.5,0,0,1,135,78.56a1.6,1.6,0,0,1,1.41-1.63.81.81,0,0,1,.88.76.43.43,0,0,1-.42.38c-.23,0-.28-.29-.48-.29s-.48.3-.48.63a.93.93,0,0,0,.92,1,1.7,1.7,0,0,0,1-.46A.57.57,0,0,1,138.16,78.79Z" style="fill:#2cb34a"/><path d="M142.12,79.09a.74.74,0,0,1-.26.52,1.84,1.84,0,0,1-1.27.5,1.49,1.49,0,0,1-1.45-1.27.47.47,0,0,1,.34-.44c.33-.06.65-.3.65-.52a.13.13,0,0,0-.13-.12c-.2,0-.65.25-1.08.92,0,.25,0,.58,0,.77s-.1.54-.47.54c-.19,0-.46-.06-.46-.53,0-.16,0-.93,0-1.82,0-1.74-.06-2.21-.06-2.56a1.06,1.06,0,0,1,.91-1.14.65.65,0,0,1,.52.27,1.47,1.47,0,0,1,.28.85,5.46,5.46,0,0,1-.73,2.52c.69-.64.95-.79,1.33-.79a.69.69,0,0,1,.67.77,1.23,1.23,0,0,1-.19.67,1.58,1.58,0,0,1-.8.69.64.64,0,0,0,.61.42c.6,0,.9-.53,1.18-.53A.35.35,0,0,1,142.12,79.09ZM139,75.35c0-.23-.06-.32-.11-.32s-.08.78-.11,1.59A4.52,4.52,0,0,0,139,75.35Z" style="fill:#2cb34a"/><path d="M145.23,79.12c.27-.23.39-.33.56-.33a.36.36,0,0,1,.36.34.62.62,0,0,1-.18.41,3.53,3.53,0,0,1-1.24.71c0,.42,0,.65,0,.77-.06.91-.5,1.49-1.21,1.49a1,1,0,0,1-1.07-1c0-.74.77-1.25,1.41-1.61,0-.17,0-.35,0-.46a1.22,1.22,0,0,1-.95.56,1.19,1.19,0,0,1-1.14-.83,5,5,0,0,1-.1-1c0-.36-.07-1.22.53-1.22.36,0,.39.33.39.58s-.07.69-.07,1,.08.56.36.56.94-.63.94-1.37c0-.51.09-.74.44-.74s.44.25.44.79,0,1,0,1.73A4.32,4.32,0,0,0,145.23,79.12Zm-1.35,1.56a.87.87,0,0,0-.52.72.21.21,0,0,0,.24.23C143.82,81.61,143.88,81.27,143.88,80.67Z" style="fill:#2cb34a"/><path d="M152.36,75.19c0,.27-.26.49-.81.63.1,1.65-.92,4.19-2.23,4.19-1.77,0-2.2-2.64-2.2-4.07,0-1.08.12-1.3.52-1.3a.44.44,0,0,1,.5.45c0,.11-.06.56-.06,1,0,.73.07,2.33.94,3a.57.57,0,0,0,.3.11c.62,0,1.47-2.06,1.38-3.23a.71.71,0,0,1-.74-.72.64.64,0,0,1,.7-.65.72.72,0,0,1,.68.46,3.4,3.4,0,0,1,.61-.27A.48.48,0,0,1,152.36,75.19Z" style="fill:#2cb34a"/><path d="M154.45,79.11a.56.56,0,0,1-.07.26,1.57,1.57,0,0,1-1.26.7c-.88,0-1.26-.89-1.26-1.88a2.78,2.78,0,0,1,.15-1,.52.52,0,0,1,.49-.23.42.42,0,0,1,.42.42c0,.2-.15.78-.15,1.23s.11.62.42.62.6-.45.93-.45A.35.35,0,0,1,154.45,79.11Zm-2-2.49a.49.49,0,0,1-.51-.47.63.63,0,0,1,.64-.6A.44.44,0,0,1,153,76,.59.59,0,0,1,152.45,76.61Z" style="fill:#2cb34a"/><path d="M156.35,78.79a.35.35,0,0,1,.34.34c0,.35-.59,1-1.49,1-1.13,0-1.35-.82-1.23-2.3-.42-.14-.54-.37-.53-.56s.29-.37.51-.37h.11c.13-.73.46-1.94,1-1.94.33,0,.42.46.38.92a5.78,5.78,0,0,1-.26,1.15h.41c.2,0,.41,0,.38.26s-.33.61-1.12.64a1.5,1.5,0,0,1-.11.24c0,.71.13,1.13.56,1.13S156,78.79,156.35,78.79Z" style="fill:#2cb34a"/><path d="M160.39,79.11a.69.69,0,0,1-.21.46,1.75,1.75,0,0,1-1.16.52,1,1,0,0,1-.87-.42,1.45,1.45,0,0,1-.94.37A1,1,0,0,1,156.14,79a2,2,0,0,1,1.8-2,.94.94,0,0,1,.62.24c.17,0,.49,0,.49.21,0,.5-.21,1.31-.21,1.49s0,.3.24.3c.39,0,.64-.46,1-.46A.35.35,0,0,1,160.39,79.11ZM158,78.77a1.18,1.18,0,0,0,.16-.7.19.19,0,0,0-.19-.19,1,1,0,0,0-1,.88.34.34,0,0,0,.34.38A1.09,1.09,0,0,0,158,78.77Z" style="fill:#2cb34a"/><path d="M166,79.13a.48.48,0,0,1-.06.23,1.74,1.74,0,0,1-1.35.73c-.54,0-.9-.27-.9-.81,0-.17,0-.48,0-.73s-.06-.61-.35-.61-.61.45-.64.82,0,1.18-.5,1.18-.43-.33-.43-.57c0-.09,0-.38,0-.73s-.06-.61-.27-.61-.55.38-.73.82c0,.28,0,.58,0,.9s-.2.33-.44.33a.35.35,0,0,1-.38-.27c0-.33-.11-1.41-.11-2.21,0-.19,0-.56.46-.56s.44.25.44.64c.19-.28.53-.67.89-.67a.86.86,0,0,1,.83.68,1.26,1.26,0,0,1,1.08-.64.93.93,0,0,1,.9,1c0,.41-.08.65-.08.85s.08.32.2.32a1.29,1.29,0,0,0,.69-.36.45.45,0,0,1,.29-.1A.35.35,0,0,1,166,79.13Z" style="fill:#2cb34a"/><path d="M168,79.11a.56.56,0,0,1-.07.26,1.57,1.57,0,0,1-1.26.7c-.88,0-1.26-.89-1.26-1.88a2.78,2.78,0,0,1,.15-1A.52.52,0,0,1,166,77a.42.42,0,0,1,.42.42c0,.2-.15.78-.15,1.23s.11.62.42.62.6-.45.93-.45A.35.35,0,0,1,168,79.11Zm-2-2.49a.49.49,0,0,1-.51-.47.63.63,0,0,1,.64-.6.44.44,0,0,1,.46.45A.59.59,0,0,1,166,76.61Z" style="fill:#2cb34a"/><path d="M171.37,78.89a.44.44,0,0,1,.29-.1.35.35,0,0,1,.34.34.47.47,0,0,1-.06.23,1.7,1.7,0,0,1-1.33.73.85.85,0,0,1-.95-.91c0-.42.09-.8.09-1.06s-.06-.37-.23-.37c-.35,0-.88.74-1.12,1.34,0,.68-.11.91-.5.91-.55,0-.44-1-.44-2.52a.54.54,0,0,1,.48-.56c.5,0,.39.19.43,1a1.82,1.82,0,0,1,1.3-1,.82.82,0,0,1,.89.86c0,.52-.1.9-.1,1.24a.23.23,0,0,0,.23.26C171,79.25,171.24,79,171.37,78.89Z" style="fill:#2cb34a"/><path d="M34.29,17.51a6.35,6.35,0,0,0-3.34.68l-1.23.65c-3.85,2-4.55,8.28-3,11.19,4.56,8.63,16.17,12.22,16.17,12.22s3.59-11.59-1-20.25a9.87,9.87,0,0,0-7.61-4.49" style="fill:#cee3a4"/><path d="M60,25.47A5.43,5.43,0,0,1,62.49,27l.79.88c2.49,2.78,1.2,8-.89,9.87-6.21,5.57-16.58,5-16.58,5s.55-10.35,6.78-15.94A8.44,8.44,0,0,1,60,25.47" style="fill:#7cc57a"/><path d="M30.2,58.07a4.25,4.25,0,0,1-1.87-1.3L27.75,56c-1.82-2.27-.6-6.29,1.11-7.66C33.93,44.3,42,45.17,42,45.17s-.86,8.06-6,12.15a6.6,6.6,0,0,1-5.85.74" style="fill:#2cb34a"/><path d="M55.1,62.56a4.81,4.81,0,0,0,2.37-1l.81-.65c2.56-2,2.2-6.75.66-8.68-4.57-5.73-13.65-6.76-13.65-6.76s-1,9.06,3.56,14.81a7.42,7.42,0,0,0,6.24,2.25" style="fill:#bad982"/></svg>