<?xml version="1.0"?>
<svg xmlns="http://www.w3.org/2000/svg" xmlns:xlink="http://www.w3.org/1999/xlink" style="display: none;">
    <symbol id="luckyVitaminMissionLogo">
        <title>luckyvitamin-mission-logo</title>
        <polygon points="85.23 84.87 80.86 71.8 84.09 71.8 87.14 82.37 90.16 71.8 93.39 71.8 89.02 84.87 85.23 84.87" style="fill:#54585a"/><rect x="96.53" y="71.8" width="3.02" height="13.07" style="fill:#54585a"/><polygon points="106.92 84.87 106.92 74.1 102.31 74.1 102.31 71.8 114.19 71.8 114.19 74.1 109.96 74.1 109.96 84.87 106.92 84.87" style="fill:#54585a"/><path d="M117.88,80.53h4.73L120.25,74Zm5.87,4.34-.64-2.28h-5.72l-.64,2.28H114l4.24-13.07h4l4.39,13.07Z" style="fill:#54585a"/><polygon points="141.05 84.87 141.05 75.35 136.5 82.02 131.95 75.35 131.95 84.87 129.09 84.87 129.09 71.8 132.96 71.8 136.5 77.2 140.04 71.8 143.92 71.8 143.92 84.87 141.05 84.87" style="fill:#54585a"/><rect x="148.32" y="71.8" width="3.02" height="13.07" style="fill:#54585a"/><polygon points="166.01 84.87 158.57 76.07 158.57 84.87 155.7 84.87 155.7 71.8 159.63 71.8 166.41 80.1 166.41 71.8 168.64 71.8 168.64 84.87 166.01 84.87" style="fill:#54585a"/><path d="M42.64,15.15a7.35,7.35,0,0,0-3.86.78l-1.42.75c-4.46,2.35-5.26,9.57-3.49,12.93,5.27,10,18.69,14.12,18.69,14.12s4.15-13.4-1.14-23.4c-1.34-2.54-5.11-5-8.79-5.18" style="fill:#d6ef98"/><path d="M72.38,24.35a6.26,6.26,0,0,1,2.87,1.77l.91,1c2.88,3.21,1.39,9.23-1,11.4C68,45,56,44.33,56,44.33s.63-12,7.84-18.43a9.75,9.75,0,0,1,8.58-1.56" style="fill:#7bc86a"/><path d="M37.92,62a4.9,4.9,0,0,1-2.16-1.5l-.67-.83c-2.11-2.62-.69-7.27,1.28-8.85,5.87-4.72,15.2-3.72,15.2-3.72s-1,9.31-6.89,14a7.62,7.62,0,0,1-6.76.86" style="fill:#43b02a"/><path d="M66.7,67.21a5.54,5.54,0,0,0,2.74-1.12l.94-.75c3-2.36,2.55-7.8.77-10-5.28-6.63-15.77-7.82-15.77-7.82S54.18,58,59.49,64.61a8.57,8.57,0,0,0,7.21,2.6" style="fill:#c5e86c"/><path d="M105.18,46.51s.38,5.05.23,7.11a2,2,0,0,1-2,2,2.11,2.11,0,0,1-2.17-2.06c-.13-1.39.23-7.07.23-7.07H95.69l-.23,6.3c0,4.34,2.57,8,8.23,8,0,0,7.57.15,7.57-8l-.23-6.3Z" style="fill:#54585a"/><polygon points="151.4 46.51 151.4 46.52 151.41 46.51 151.4 46.51" style="fill:#54585a"/><polygon points="145.51 54.1 151.4 46.52 151.4 46.51 143.89 46.51 139.47 52.53 139.47 46.51 133.12 46.51 133.12 66.93 139.47 66.93 139.47 61.42 141.19 59.28 145.57 66.93 153.08 66.93 145.51 54.1" style="fill:#54585a"/><polygon points="164.01 46.51 160.47 53.88 155.4 46.51 151.42 52.01 157.04 61.06 154.23 66.93 161.88 66.93 171 46.51 164.01 46.51" style="fill:#54585a"/><path d="M124,61.59a4.47,4.47,0,0,1-4.57-4.81A4.5,4.5,0,0,1,124,51.92a4.3,4.3,0,0,1,3.38,1.79l3-4.2a9.48,9.48,0,0,0-7.17-3c-5.36,0-9.69,3.88-9.69,10.29s4.33,10.29,9.69,10.29A9.49,9.49,0,0,0,130.31,64l-2.95-4.2A4.26,4.26,0,0,1,124,61.59" style="fill:#54585a"/><polygon points="87.94 61.61 87.94 46.51 80.66 46.51 80.66 66.93 96.78 66.93 98.3 61.61 87.94 61.61" style="fill:#54585a"/><rect width="204" height="100" style="fill:none"/>
    </symbol>
    <symbol id="luckyEatsMissionLogo">
        <title>luckyeats-mission-logo</title>
        <rect width="204" height="100" style="fill:none"/><polygon points="110.94 70.55 110.85 70.55 110.89 70.63 110.94 70.55" style="fill:none"/><polygon points="107.94 65.25 107.93 65.26 108.78 66.63 107.94 65.25" style="fill:none"/><polygon points="108.78 66.64 108.78 66.63 108.78 66.64 108.78 66.64" style="fill:none"/><path d="M115.93,84.32a1.21,1.21,0,1,0,1.18,1.21A1.13,1.13,0,0,0,115.93,84.32Z" style="fill:none"/><path d="M126.5,84.4h-.71v2.28h.71a1.1,1.1,0,0,0,1.23-1.12A1.13,1.13,0,0,0,126.5,84.4Z" style="fill:none"/><path d="M79.88,98.94a.47.47,0,0,0,.58.4c.49-.09.41-.84.41-1.52C80.51,98,79.81,98.2,79.88,98.94Z" style="fill:none"/><path d="M121.38,86.74a1.21,1.21,0,1,0-1.18-1.21A1.13,1.13,0,0,0,121.38,86.74Z" style="fill:none"/><polygon points="96.65 70.29 96.43 69.72 95.38 72.88 96.16 72.88 96.71 72.88 97.62 72.88 96.65 70.29 96.65 70.29" style="fill:none"/><polygon points="98.85 72.58 98.85 72.57 98.81 72.46 98.85 72.58" style="fill:none"/><path d="M99,67.72h0v0Z" style="fill:none"/><path d="M100.39,85.2l-.23-.61h0l-.23.6-.29.82h1.07Z" style="fill:none"/><polygon points="98.72 72.2 98.73 72.2 98.7 72.14 98.72 72.2" style="fill:none"/><path d="M95.26,84.37h-.64v1.08h.64c.36,0,.57-.18.57-.53A.5.5,0,0,0,95.26,84.37Z" style="fill:none"/><path d="M97.71,90.67c-.7,0-.36,3.15-.37,3.68a19.89,19.89,0,0,0,.81-2.55C98.26,90.9,97.77,90.67,97.71,90.67Z" style="fill:none"/><path d="M84.55,96.75c.05.29.41.3.59.3s.51-.43.39-.59C85.19,96,84.51,96.54,84.55,96.75Z" style="fill:none"/><polygon points="98.95 72.88 98.98 72.97 98.98 72.97 98.95 72.88 98.95 72.88" style="fill:none"/><path d="M122,38.67v4.52l1.69.31.08-3.63A2.33,2.33,0,0,1,122,38.67Z" style="fill:none"/><path d="M118.74,94.29a1.6,1.6,0,0,0-1.45,1.5c0,.25.18.67.45.68a1.3,1.3,0,0,0,1.14-.54,1.78,1.78,0,0,0,.25-1.23C119.13,94.58,118.85,94.29,118.74,94.29Z" style="fill:none"/><path d="M102.55,98.92a.47.47,0,0,0,.58.4c.49-.09.41-.84.41-1.52C103.18,98,102.48,98.18,102.55,98.92Z" style="fill:none"/><path d="M81.41,84.59h0l-.23.6-.29.82h1.07l-.29-.82Z" style="fill:none"/><path d="M126.37,39.1a2.24,2.24,0,0,1-.92.62l-.59-4.37,0,4.4.09,4q1.4.3,2.86.68l.13-4.65A3.23,3.23,0,0,1,126.37,39.1Z" style="fill:none"/><path d="M85.65,21.4s2.33-10.6-2.4-18A8.83,8.83,0,0,0,76.13,0,5.69,5.69,0,0,0,73.2.86l-1,.67c-3.28,2.1-3.43,7.73-1.85,10.2C75,19.08,85.65,21.4,85.65,21.4Z" style="fill:#b9d882"/><path d="M102.71,15.93c1.72-1.83,2.48-6.57.05-8.86L102,6.35a4.85,4.85,0,0,0-2.33-1.18,7.55,7.55,0,0,0-6.52,1.76C88,12.38,88.3,21.65,88.3,21.65S97.59,21.36,102.71,15.93Z" style="fill:#7dc47a"/><path d="M75.54,36.46a5.9,5.9,0,0,0,5.16-1.1c4.24-4,4.4-11.28,4.4-11.28s-7.26-.17-11.48,3.86c-1.42,1.35-2.21,5-.41,6.91l.57.6A3.79,3.79,0,0,0,75.54,36.46Z" style="fill:#3fae2a"/><path d="M126.37,39.1a3.23,3.23,0,0,0,1.61.68l-.13,4.65,1.61.44-.14-5.1,0-8,.64,7.86c4.51-1.45,1.55-10.71-.46-15.75-.31-.78-.6-1.46-.83-2-.23.53-.52,1.21-.83,2a53.53,53.53,0,0,0-2,6C126.95,33.21,127.9,37.38,126.37,39.1Z" style="fill:#b9d882"/><path d="M123.83,39.86l-.08,3.63,1.24.25-.09-4,0-4.4.59,4.37a2.24,2.24,0,0,0,.92-.62c1.53-1.72.58-5.89-.55-9.22-.27-.8-.55-1.55-.81-2.2s-.46-1.12-.64-1.53c-.18.41-.4.93-.64,1.53A39.37,39.37,0,0,0,122,32.82v5.85A2.33,2.33,0,0,0,123.83,39.86Z" style="fill:#3fae2a"/><path d="M119.79,23.77v-9a2.83,2.83,0,0,0-2.88-2.46,2.85,2.85,0,0,0-.9,2h0v5.22l1.59.67Z" style="fill:#959697"/><path d="M89.36,24.76l-3.83,5.55,10.36-2L86,31v13.5a14.52,14.52,0,0,0-4.19,1.42c31.19-4.1,52.86.68,52.86.68-1.77-.68-3.51-1.26-5.21-1.75l-1.61-.44q-1.46-.38-2.86-.68l-1.24-.25L122,43.18V27.45l-1.57-2.56V14.74h0c0-1.75-1.74-3.16-3.88-3.16s-3.87,1.42-3.88,3.16h0v3.4L110,17l-3,1.16L95.63,22.36Zm4.31,14L90,39.31V34.53l3.65-.68ZM116,14.31h0a2.85,2.85,0,0,1,.9-2,2.83,2.83,0,0,1,2.88,2.46v9L117.6,20.2,116,19.53Zm-6.52,3.58,6.81,2.92,4.61,6.69-15.25.32,14.83.46V42.85h-.57c-1.34-.18-2.58-.31-3.7-.4l-.57,0-.22,0-.87-.05a45.25,45.25,0,0,0-5,0c-1.87,0-3.62.09-5.25.16l-.85,0h-.12l-.57,0c-1.68.09-3.24.19-4.68.3v-15l-.87-.23,9.82-.4-9.14-.36,6.24-.38-5.56-.33,4.09-.31L99,25.53l2.27-.23-2.28-.25,2.93-4.25ZM96.16,27.06l-8.87,2.09,2.64-3.85,10.17-3.68Z" style="fill:#555759"/><path d="M101.22,25.3,99,25.53l3.71.29-4.09.31,5.56.33-6.24.38,9.14.36-9.82.4.87.23v15c1.44-.11,3-.21,4.68-.3V30.14h13.45V42.45c1.13.09,2.37.22,3.7.4h.57V28.27l-14.83-.46,15.25-.32-4.61-6.69-6.81-2.92-7.61,2.92-2.93,4.25Zm8.34-3.91a1.87,1.87,0,1,1-1.87,1.87A1.87,1.87,0,0,1,109.56,21.39Z" style="fill:#ca602c"/><path d="M104,30.72l4.64,4.94-.41.41-4.94-4.94V42.5h.12l11.77-11.77Z" style="fill:#ca602c"/><path d="M104.31,42.45c1.64-.07,3.38-.13,5.25-.16a45.25,45.25,0,0,1,5,0l-5.06-5.06Z" style="fill:#ca602c"/><path d="M109.89,36.87l5.52,5.52.22,0V31.12Z" style="fill:#ca602c"/><path d="M102.76,30.14V42.53l.57,0V31.12l4.94,4.94.41-.41L104,30.72h11.19L103.46,42.49l.85,0,5.18-5.18,5.06,5.06.87.05-5.52-5.52,5.74-5.74V42.41l.57,0V30.14Z" style="fill:#fff"/><circle cx="109.56" cy="23.26" r="1.87" style="fill:#fff"/><polygon points="87.29 29.15 96.16 27.06 100.09 21.62 89.92 25.29 87.29 29.15" style="fill:#959697"/><polygon points="90.02 39.31 93.67 38.8 93.67 33.86 90.02 34.53 90.02 39.31" style="fill:#fff"/><polygon points="84.83 57.05 84.5 57.05 83.72 57.83 79.67 57.83 78.87 57.83 78.57 57.83 78.47 57.83 78.27 57.83 78.27 47.28 79.04 46.51 79.04 46.2 73.76 46.2 73.76 46.51 74.53 47.28 74.53 59.82 73.76 60.59 73.76 60.9 84.83 60.9 84.83 57.05" style="fill:#555759"/><path d="M105.92,57.67a2.6,2.6,0,0,1-1.83,0,2.86,2.86,0,0,1-.79-.46,2.82,2.82,0,0,1-.92-1.32,3.46,3.46,0,0,1-.2-1.13,3.24,3.24,0,0,1,.83-2.18,2.87,2.87,0,0,1,.9-.67,2.52,2.52,0,0,1,1.1-.25,2.63,2.63,0,0,1,1.53.48l1.8-2.5A5.68,5.68,0,0,0,105,48.57a5.52,5.52,0,0,0-2.3.48,7.52,7.52,0,0,0-2.17,1.32,6.1,6.1,0,0,0-1.27,2,6.26,6.26,0,0,0-.46,2.4,6.16,6.16,0,0,0,.46,2.38,6.33,6.33,0,0,0,1.25,1.95h0a7.17,7.17,0,0,0,2,1.37,6.87,6.87,0,0,0,2.54.46,5.43,5.43,0,0,0,2-.34,6.38,6.38,0,0,0,1.62-1l-2-2.37A3,3,0,0,1,105.92,57.67Z" style="fill:#555759"/><polygon points="129.42 48.88 129.79 49.65 127.56 53.92 125.06 49.65 125.43 48.88 125.28 48.57 121.41 48.57 120.36 48.57 116.79 48.57 116.56 48.88 116.73 49.65 115.79 50.88 115.78 50.88 115.47 51.3 115.2 51.65 115.2 51.65 115.05 51.84 114.61 52.42 114.49 52.58 114.43 52.66 113.83 53.44 113.83 49.65 114.6 48.88 114.6 48.57 109.98 48.57 109.98 48.88 110.75 49.65 110.75 59.82 109.98 60.59 109.98 60.9 114.6 60.9 114.6 60.59 114.43 60.42 114.14 60.13 113.83 59.82 113.83 57.45 113.86 57.45 115.25 55.63 115.77 56.7 117.31 59.82 116.93 60.59 117.08 60.9 121.7 60.9 121.55 60.59 121.31 60.43 120.39 59.82 117.11 53.18 119.81 49.65 120.82 49.08 121.69 49.65 125.72 56.87 125.72 59.82 124.95 60.59 124.95 60.9 130.16 60.9 130.16 60.59 129.99 60.42 129.99 60.41 129.39 59.82 129.39 56.89 133.16 49.65 134.04 49.17 134.21 48.57 129.59 48.57 129.42 48.88" style="fill:#555759"/><path d="M91.57,57.37c1.85,0,5.1-.45,5.1-4V49.65l.77-.77v-.31H92.82v.31l.77.77v2.67c0,1.71-.73,2-2,2s-2.31-.47-2.31-2V49.65l.77-.77v-.31H85.41v.31l.77.77v3.72C86.18,56.92,89.89,57.37,91.57,57.37Z" style="fill:#555759"/><path d="M82.56,96c-.19,0-.21.15-.52.41a3,3,0,0,1-.56.44c0-.81.09-1.75.09-2.2,0-.62.14-1.06-.3-1.06s-.33.24-.33.82c0,.84-.57,1.94-1.18,2a.78.78,0,0,1-.8-.82c0-.35,0-.62.08-1.14,0-.28.17-.86-.25-.86s-.44.21-.49.48a.59.59,0,0,1-.46.36,11.5,11.5,0,0,1-1.55-.25c-.31,0-.56-.05-.56.3s.54.41.77.44a1.68,1.68,0,0,1,.12.72c0,.37-.2.86-.63.86s-.9-.14-.9-1.29c0-.28.22-3.2.22-4.07,0-.68,0-.91-.46-.91s-.2.35-.25.86-.12,1.61-.12,2.52c0,1.74-.33,3.56,1.25,3.56a1.46,1.46,0,0,0,1.49-1.5,1.48,1.48,0,0,0-.13-.62,1.79,1.79,0,0,0,1.23-.11v0a5.67,5.67,0,0,0,.12,1.15,1.37,1.37,0,0,0,1.3,1,1.4,1.4,0,0,0,1.08-.65c0,.13,0,.5,0,.7-.74.41-1.61.83-1.6,1.68A1.08,1.08,0,0,0,80.45,100c1.33-.08,1.1-2.39,1.1-2.39a13.09,13.09,0,0,0,1.06-.95C82.79,96.47,82.75,96,82.56,96Zm-2.1,3.33a.47.47,0,0,1-.58-.4c-.07-.74.63-.9,1-1.12C80.87,98.51,81,99.26,80.46,99.35Z" style="fill:#3fae2a"/><path d="M112.09,91.41c0-.27-.07-.32-.31-.32a3.88,3.88,0,0,0-.7.31,1.1,1.1,0,0,0-.93-.59.51.51,0,0,0-.54.73c.13.45.53.54.93.58.1,1.33-1,4.35-1.9,4.26a.74.74,0,0,1-.35-.13,4.74,4.74,0,0,1-1.46-3.61c0-.45.06-1,.06-1.1,0-.45,0-.61-.18-.61-.45,0-.59.25-.59,1.48,0,1.64.49,4.66,2.52,4.66,1.5,0,2.64-3.06,2.53-4.95C111.79,92,112.09,91.72,112.09,91.41Z" style="fill:#3fae2a"/><path d="M112.75,93a.53.53,0,0,0,.53-.56.39.39,0,0,0-.41-.4.57.57,0,0,0-.58.54A.43.43,0,0,0,112.75,93Z" style="fill:#3fae2a"/><path d="M127.55,92.46a.41.41,0,0,0,.43.4.5.5,0,0,0,.51-.53.37.37,0,0,0-.39-.38A.54.54,0,0,0,127.55,92.46Z" style="fill:#3fae2a"/><path d="M133.78,95.81c-.15.12-.58.92-.88.91s-.2-.95-.2-1.14c0-.39,0-.42,0-1s-.12-1-.87-1c-.54,0-1.21,1-1.57,1.62,0-.88.17-1.6-.4-1.6-.33,0-.29.35-.29.64,0,.6,0,1.12-.08,1.55-.21.21-.29.76-.91.75s-.63-.61-.63-1,.17-1.17.17-1.41,0-.51-.3-.51-.56.88-.57,1.49a4.6,4.6,0,0,0,0,.66.34.34,0,0,1-.09.1c-.16.12-.69.72-1,.72-.14,0-.23-.1-.23-.36s.2-.88.2-1.34a1.07,1.07,0,0,0-1-1.2c-.63,0-1.14.88-1.4,1.25-.13-.49-.36-1.29-.79-1.29s-.86,1-1.08,1.35c0-.45,0-1.32-.45-1.32s-.27.46-.27.68c0,.5,0,1.09,0,1.59-.29.21-.62.7-1.21.69s-.26-.54-.2-.76a8.93,8.93,0,0,0,.24-1.7c0-.21-.36-.24-.55-.24a1.08,1.08,0,0,0-.71-.27,2.31,2.31,0,0,0-2.06,2.23s0,.07,0,.11a1.18,1.18,0,0,1-.87.63c-1,0-.83-1-.74-1.85a1.12,1.12,0,0,1,.13-.27c.9,0,1.38-.22,1.42-.6s-.28-.16-.51-.16l-.86.06s.13-.68.21-1.18.48-1.38.11-1.38c-.67,0-.9,1.64-1.05,2.47h-.13c-.25,0-.7-.16-.73.17s.16.39.63.54a6.37,6.37,0,0,0,0,1.48,1,1,0,0,1-1,.62c-.6,0-.84-.93-.89-1.3-.13-.92.48-1.63.14-1.63a.5.5,0,0,0-.49.28,3,3,0,0,0-.24,1.1c0,1.14.44,2.15,1.45,2.15a1.79,1.79,0,0,0,1.24-.54,1.21,1.21,0,0,0,1.15.57,1.48,1.48,0,0,0,1.22-.54,1.22,1.22,0,0,0,1,.49,1.66,1.66,0,0,0,1.07-.43,1.1,1.1,0,0,0,1,.48,1.92,1.92,0,0,0,1.19-.47,1.87,1.87,0,0,0,0,.19c0,.21.15.27.35.27s.35-.08.35-.33.09-.76.12-1.08c.21-.5.66-1,1-1s.35.49.35.85,0,.74,0,.84c0,.28-.1.6.32.6s.52-.84.57-1.36.65-1.29,1.09-1.29.27.55.27.83-.16.95-.16,1.14c0,.62.29.84.91.84a2.12,2.12,0,0,0,1.34-.58,1.09,1.09,0,0,0,1,.55,1.7,1.7,0,0,0,.95-.3.3.3,0,0,0,.32.25c.44,0,.46-.18.45-1,.27-.68,1.16-1.84,1.56-1.84.19,0,.26.17.26.43s0,1,0,1.49c0,.76.27,1,.83,1C133.79,97.19,133.89,95.73,133.78,95.81Zm-14.9.12a1.3,1.3,0,0,1-1.14.54c-.27,0-.45-.43-.45-.68a1.6,1.6,0,0,1,1.45-1.5c.12,0,.39.29.39.42A1.78,1.78,0,0,1,118.88,95.93Z" style="fill:#3fae2a"/><path d="M104.71,96.4a2.21,2.21,0,0,1-.56.44c0-.81.09-1.75.09-2.2,0-.62.14-1.06-.3-1.06s-.33.24-.33.82c0,.84-.56,1.94-1.18,2a.78.78,0,0,1-.8-.82c0-.35,0-.62.08-1.13,0-.28.17-.86-.24-.86-.69,0-.48,1-.48,1.39a5.59,5.59,0,0,0,.05.73c0,.49-.3,1-1.27.94a1.59,1.59,0,0,1-1.14-.85A2.66,2.66,0,0,0,99.93,95a1.1,1.1,0,0,0,.21-.66c0-.49-.2-.82-.68-.82s-.81,0-1.6.75a6.24,6.24,0,0,0,.84-2.88,1.68,1.68,0,0,0-.32-1,.74.74,0,0,0-.59-.31,1.21,1.21,0,0,0-1,1.3c0,.4.06.94.06,2.93,0,.43,0,.83,0,1.17-.23,1.07-.82,1.11-1.35,1.11s-1.43-.26-1.36-1.38a1.17,1.17,0,0,1,1.14-1.14c.23,0,.16.49.42.49s.38,0,.38-.19a.93.93,0,0,0-1-.86,1.83,1.83,0,0,0-1.61,1.87,2,2,0,0,0,.1.62.87.87,0,0,1-.86.49c-.22,0-.6-.41-.6-1,0-.23.06-1.08.06-1.38s0-.57-.34-.53c-.51.07-.36.76-.45,1.87a1,1,0,0,1-.9,1c-.62,0-.83-.68-.83-1,0-.53.12-.79.12-1.11s0-.57-.33-.57-.48.85-.48,1.34A3.39,3.39,0,0,0,89,96.1a1,1,0,0,1-.79.5,5.9,5.9,0,0,1-2-.45V96c0-.85-.46-1.87-.46-2.86s.44-1.56.92-1.66,1.24-.14,1.25.64a1.43,1.43,0,0,1-.66,1.19c-.15.05-.36.6-.16.6a1.58,1.58,0,0,0,1.48-1.66,1.42,1.42,0,0,0-1.5-1.47A2.16,2.16,0,0,0,85,93.19c0,.9.5,2,.51,2.7H85.3c-.79,0-1.41.47-1.34,1s.86.61,1.22.63c.62,0,.82-.25,1-.73a5.22,5.22,0,0,0,2,.42,1.57,1.57,0,0,0,1.27-.49,1.53,1.53,0,0,0,1,.32,1.45,1.45,0,0,0,1.16-.62,1.15,1.15,0,0,0,1,.66,1.92,1.92,0,0,0,1.18-.53,1.91,1.91,0,0,0,1.45.58,2.78,2.78,0,0,0,1.52-.47.46.46,0,0,0,.49.33c.43,0,.2-1,.26-1.31a2.4,2.4,0,0,1,1.74-1.59.16.16,0,0,1,.15.14c.14.74-.61,1-1,1.08-.15,0-.4.08-.4.35a1.69,1.69,0,0,0,1.67,1.46,1.85,1.85,0,0,0,1.46-.57l.1-.11a1.52,1.52,0,0,0,1.11.54,1.4,1.4,0,0,0,1.08-.65c0,.13,0,.5,0,.7-.74.41-1.61.83-1.6,1.68a1.08,1.08,0,0,0,1.24,1.21c1.33-.08,1.1-2.39,1.1-2.39s.69-.59,1.06-.95S105.18,95.92,104.71,96.4Zm-19.58.66c-.18,0-.53,0-.59-.3s.65-.73,1-.29C85.65,96.62,85.34,97.05,85.13,97.05Zm12.21-2.7c0-.52-.33-3.68.37-3.68.07,0,.55.23.44,1.13A19.89,19.89,0,0,1,97.34,94.35Zm5.79,5a.47.47,0,0,1-.58-.4c-.07-.74.63-.9,1-1.12C103.54,98.48,103.62,99.23,103.13,99.32Z" style="fill:#3fae2a"/><polygon points="87.09 74.84 86.69 74.84 85.69 75.83 80.62 75.83 79.46 75.83 78.7 75.83 78.7 73.86 83.48 73.86 83.48 69.96 79.46 69.96 78.7 69.96 78.7 68 85.65 68 85.65 64.1 73.82 64.1 73.82 64.49 74.8 65.47 74.8 78.35 73.82 79.33 73.82 79.72 87.09 79.72 87.09 74.84" style="fill:#555759"/><path d="M104.84,79.32l-.17-.13-1.16-.84L98.78,65.47l.61-1-.12-.39H93.41l-.12.39.64,1L89.68,78.35l-1.29,1-.14.39h5.85l.14-.39-.16-.21h0l-.51-.75.51-1.56h5L99.48,78h0l.06.17h0l.08.22-.37.59h0l-.25.39.16.39H105Zm-8.14-6.44H95.38l1.05-3.16.21.57h0l1,2.59Zm2-.68,0-.07,0,.07Zm.12.37,0-.11,0,.11ZM99,73l0-.08h0L99,73Zm0-5.25v0Z" style="fill:#555759"/><path d="M103.65,69.18H104l1-1.17h4.43V78.35l-1,1v.39h5.85v-.39l-.11-.11-.1-.1-.76-.76V68h4.33l1,1.17h.56V64.1H103.65Zm7.29,1.38,0,.07,0-.07Zm-3-5.3.84,1.38h0l-.84-1.37Z" style="fill:#555759"/><path d="M128.59,75.65a6.78,6.78,0,0,1-2,.19,5.78,5.78,0,0,1-2.26-.39,3.32,3.32,0,0,1-1.27-.82l-1.78,2.95a3.23,3.23,0,0,0,.74.82,12,12,0,0,0,1.33.79,8.68,8.68,0,0,0,1.11.41,8.07,8.07,0,0,0,1.1.24,6.93,6.93,0,0,0,1,.08,8.21,8.21,0,0,0,2.59-.39,6.8,6.8,0,0,0,2-1.06,4.94,4.94,0,0,0,1.35-1.56A3.87,3.87,0,0,0,133,75a4.47,4.47,0,0,0-.22-1.45,7.25,7.25,0,0,0-.77-1.41,5.14,5.14,0,0,0-1.51-1.28,9.67,9.67,0,0,0-1.81-.79l-.62-.14H126.2l-.25,0a1.09,1.09,0,0,1-.72-1q0-.43.57-.74a4.55,4.55,0,0,1,2-.31,7.3,7.3,0,0,1,1.4.13,1.67,1.67,0,0,1,1,.63L133,65.27l-.29-.2-.92.12a4.66,4.66,0,0,0-.84-.55,4.18,4.18,0,0,0-.95-.33,8,8,0,0,0-1.14-.17q-.62,0-1.44,0a6.27,6.27,0,0,0-2,.37,7.18,7.18,0,0,0-2,1.05,6.06,6.06,0,0,0-1.49,1.61,3.74,3.74,0,0,0-.59,2,4.35,4.35,0,0,0,.42,2,4.29,4.29,0,0,0,1.09,1.39,6.8,6.8,0,0,0,2,1,7.07,7.07,0,0,0,2,.28h.35a3.38,3.38,0,0,1,1.11.18,1.07,1.07,0,0,1,.84,1Q129.11,75.46,128.59,75.65Z" style="fill:#555759"/><path d="M75.33,86.18c0-.54,0-1,0-1h0l1.75,2.46h1V83.48h-1v1.43c0,.45,0,1,0,1h0l-1.75-2.41h-1V87.6h1Z" style="fill:#3fae2a"/><path d="M80.85,83.48,79.26,87.6h1l.25-.68h1.71l.25.68h1.06L82,83.48Zm0,2.54.29-.82.23-.6h0l.23.61.29.82Z" style="fill:#3fae2a"/><polygon points="85.19 87.6 86.18 87.6 86.18 84.39 87.44 84.39 87.44 83.48 83.93 83.48 83.93 84.39 85.19 84.39 85.19 87.6" style="fill:#3fae2a"/><path d="M88.67,83.48v2.28a1.8,1.8,0,1,0,3.59,0V83.48h-1v2.25c0,.71-.28,1-.81,1s-.81-.31-.81-1V83.48Z" style="fill:#3fae2a"/><path d="M96.84,84.87c0-.85-.61-1.4-1.64-1.4H93.63V87.6h1V86.24h.44l.77,1.36H97L96.06,86A1.17,1.17,0,0,0,96.84,84.87Zm-1.58.58h-.64V84.37h.64a.5.5,0,0,1,.57.55C95.83,85.27,95.63,85.45,95.26,85.45Z" style="fill:#3fae2a"/><path d="M98,87.6h1l.25-.68H101l.25.68h1.06l-1.6-4.12H99.6Zm1.91-2.41.23-.6h0l.23.61.29.82H99.62Z" style="fill:#3fae2a"/><polygon points="106.31 86.68 104.46 86.68 104.46 83.48 103.47 83.48 103.47 87.6 106.31 87.6 106.31 86.68" style="fill:#3fae2a"/><polygon points="112.75 84.39 112.75 83.48 109.8 83.48 109.8 87.6 110.79 87.6 110.79 86.1 112.31 86.1 112.31 85.18 110.79 85.18 110.79 84.39 112.75 84.39" style="fill:#3fae2a"/><path d="M115.93,83.39a2.14,2.14,0,1,0,2.17,2.14A2.08,2.08,0,0,0,115.93,83.39Zm0,3.35a1.21,1.21,0,1,1,1.18-1.21A1.13,1.13,0,0,1,115.93,86.74Z" style="fill:#3fae2a"/><path d="M119.21,85.54a2.17,2.17,0,1,0,2.17-2.14A2.08,2.08,0,0,0,119.21,85.54Zm2.17-1.21a1.21,1.21,0,1,1-1.18,1.21A1.13,1.13,0,0,1,121.38,84.32Z" style="fill:#3fae2a"/><path d="M126.55,83.48H124.8V87.6h1.76a2,2,0,0,0,2.17-2A2.05,2.05,0,0,0,126.55,83.48Zm-.05,3.2h-.71V84.4h.71a1.13,1.13,0,0,1,1.23,1.16A1.1,1.1,0,0,1,126.5,86.68Z" style="fill:#3fae2a"/><path d="M131.45,84.26a.69.69,0,0,1,.75.47l.94-.25a1.56,1.56,0,0,0-1.67-1.08c-.92,0-1.56.42-1.56,1.26s.69,1.13,1.25,1.27,1,.1,1,.49-.23.39-.61.39-.74-.18-.82-.49l-.94.25a1.62,1.62,0,0,0,1.77,1.11c1,0,1.6-.42,1.6-1.27s-.67-1.15-1.28-1.27-1-.17-1-.52S131.08,84.26,131.45,84.26Z" style="fill:#3fae2a"/>
    </symbol>
    <symbol id="luckyFitMissionLogo">
        <title>luckyfit-mission-logo</title>
        <rect x="0.08" width="204" height="100" style="fill:none"/><path d="M86.74,45.54s.3,4.06.18,5.71a1.58,1.58,0,0,1-1.57,1.62,1.7,1.7,0,0,1-1.74-1.65c-.11-1.11.19-5.68.19-5.68H79.12l-.19,5.06c0,3.49,2.06,6.41,6.6,6.41a6,6,0,0,0,6.08-6.41l-.18-5.06Z" style="fill:#515555"/><polygon points="123.83 45.54 123.84 45.55 123.84 45.54 123.83 45.54" style="fill:#515555"/><polygon points="119.11 51.63 123.84 45.55 123.83 45.54 117.8 45.54 114.26 50.38 114.26 45.54 109.16 45.54 109.16 61.94 114.26 61.94 114.26 57.51 115.64 55.8 119.15 61.94 125.18 61.94 119.11 51.63" style="fill:#515555"/><polygon points="133.95 45.54 131.12 51.46 127.04 45.54 123.85 49.96 128.36 57.23 126.1 61.94 132.24 61.94 139.56 45.54 133.95 45.54" style="fill:#515555"/><path d="M101.82,57.65a3.58,3.58,0,0,1-3.67-3.86,3.62,3.62,0,0,1,3.67-3.9,3.45,3.45,0,0,1,2.71,1.44L106.91,48a7.61,7.61,0,0,0-5.76-2.43c-4.3,0-7.78,3.11-7.78,8.26S96.85,62,101.15,62a7.62,7.62,0,0,0,5.76-2.46l-2.37-3.37a3.42,3.42,0,0,1-2.72,1.43" style="fill:#515555"/><polygon points="72.9 57.67 72.9 45.54 67.06 45.54 67.06 61.94 80 61.94 81.22 57.67 72.9 57.67" style="fill:#515555"/><polygon points="68.53 66.66 68.53 67.75 70.63 67.75 70.63 69.01 68.53 69.01 68.53 71.08 67.17 71.08 67.17 65.4 71.23 65.4 71.23 66.66 68.53 66.66" style="fill:#2cb34a"/><rect x="73.52" y="65.4" width="1.36" height="5.68" style="fill:#2cb34a"/><polygon points="80.18 66.66 80.18 71.08 78.81 71.08 78.81 66.66 77.08 66.66 77.08 65.4 81.91 65.4 81.91 66.66 80.18 66.66" style="fill:#2cb34a"/><path d="M85.5,67.69h0s0,.7,0,1.44v1.95H84.12V65.4H85.5l2.42,3.32h0s0-.74,0-1.35v-2H89.3v5.68H87.91Z" style="fill:#2cb34a"/><polygon points="91.93 65.4 96.06 65.4 96.06 66.66 93.29 66.66 93.29 67.64 95.33 67.64 95.33 68.77 93.29 68.77 93.29 69.81 96.11 69.81 96.11 71.08 91.93 71.08 91.93 65.4" style="fill:#2cb34a"/><path d="M99.54,69.31c.11.43.51.68,1.13.68s.83-.18.83-.54c0-.54-.68-.51-1.38-.68S98.4,68.22,98.4,67s.88-1.74,2.15-1.74a2.16,2.16,0,0,1,2.3,1.48l-1.3.35a1,1,0,0,0-1-.64c-.52,0-.74.2-.74.5,0,.48.54.55,1.34.71s1.76.52,1.76,1.74-.82,1.75-2.2,1.75a2.23,2.23,0,0,1-2.43-1.53Z" style="fill:#2cb34a"/><path d="M106.26,69.31c.11.43.51.68,1.13.68s.83-.18.83-.54c0-.54-.68-.51-1.38-.68s-1.73-.54-1.73-1.74.88-1.74,2.15-1.74a2.16,2.16,0,0,1,2.3,1.48l-1.3.35a1,1,0,0,0-1-.64c-.52,0-.74.2-.74.5,0,.48.54.55,1.34.71s1.76.52,1.76,1.74-.82,1.75-2.2,1.75A2.23,2.23,0,0,1,105,69.65Z" style="fill:#2cb34a"/><path d="M116.93,67.69h0s0,.7,0,1.44v1.95h-1.36V65.4h1.38l2.42,3.32h0s0-.74,0-1.35v-2h1.36v5.68h-1.39Z" style="fill:#2cb34a"/><path d="M128.26,68.54a2.48,2.48,0,1,1-4.95,0V65.4h1.38V68.5c0,1,.37,1.4,1.11,1.4s1.11-.42,1.11-1.4V65.4h1.35Z" style="fill:#2cb34a"/><polygon points="133.55 66.66 133.55 71.08 132.18 71.08 132.18 66.66 130.45 66.66 130.45 65.4 135.28 65.4 135.28 66.66 133.55 66.66" style="fill:#2cb34a"/><path d="M139.46,69.2h-.61v1.87h-1.36V65.4h2.16c1.43,0,2.26.75,2.26,1.92a1.61,1.61,0,0,1-1.07,1.61l1.3,2.14h-1.61Zm.28-1.09c.5,0,.78-.25.78-.73a.69.69,0,0,0-.79-.75h-.88v1.48Z" style="fill:#2cb34a"/><rect x="144.37" y="65.4" width="1.36" height="5.68" style="fill:#2cb34a"/><polygon points="151.03 66.66 151.03 71.08 149.66 71.08 149.66 66.66 147.93 66.66 147.93 65.4 152.76 65.4 152.76 66.66 151.03 66.66" style="fill:#2cb34a"/><rect x="154.97" y="65.4" width="1.36" height="5.68" style="fill:#2cb34a"/><path d="M161.68,65.28a3,3,0,1,1-3,3,2.86,2.86,0,0,1,3-3m0,4.62a1.67,1.67,0,1,0-1.62-1.66,1.56,1.56,0,0,0,1.62,1.66" style="fill:#2cb34a"/><path d="M168.4,67.69h0s0,.7,0,1.44v1.95H167V65.4h1.38l2.42,3.32h0s0-.74,0-1.35v-2h1.36v5.68h-1.39Z" style="fill:#2cb34a"/><polygon points="139.55 51.28 139.52 62.09 145 62.09 145 56.64 150.19 56.64 151.59 51.94 145 51.94 145 50.13 152.4 50.13 153.64 45.43 142.14 45.43 139.55 51.28" style="fill:#2cb34a"/><rect x="155.12" y="45.41" width="5.48" height="16.69" style="fill:#2cb34a"/><polygon points="162.08 45.43 162.08 50.13 166.81 50.13 166.81 62.09 172.36 62.09 172.36 50.13 176.68 50.13 178.22 45.43 162.08 45.43" style="fill:#2cb34a"/><path d="M121.39,77.77c0,.36-.36.6-.92.6a1.72,1.72,0,0,1-.73-.14,1.29,1.29,0,0,1,.11.54,1.38,1.38,0,0,1-1.44,1.3c-1.38,0-1.43-1.7-1.43-3.23,0-.79,0-1.64.1-2.2s.26-.64.56-.64.53.25.53.85c0,.76-.32,3.26-.32,3.51s.14.82.61.82a.58.58,0,0,0,.56-.63.89.89,0,0,0-.14-.48c-.2,0-.5-.16-.5-.46s.17-.53.44-.53.79.51,1.58.51a4.16,4.16,0,0,0,.7-.11A.31.31,0,0,1,121.39,77.77Z" style="fill:#2cb34a"/><path d="M124.31,79.12c.27-.23.39-.33.56-.33a.36.36,0,0,1,.36.34.61.61,0,0,1-.18.41,3.53,3.53,0,0,1-1.24.71c0,.42,0,.65,0,.77-.06.91-.5,1.49-1.21,1.49a1,1,0,0,1-1.07-1c0-.74.77-1.25,1.41-1.61,0-.17,0-.35,0-.46A1.22,1.22,0,0,1,122,80a1.19,1.19,0,0,1-1.14-.83,5,5,0,0,1-.1-1c0-.36-.07-1.22.53-1.22.36,0,.39.33.39.58s-.07.69-.07,1,.08.56.36.56.94-.63.94-1.37c0-.51.09-.74.44-.74s.44.25.44.79,0,1,0,1.73A4.32,4.32,0,0,0,124.31,79.12ZM123,80.67a.87.87,0,0,0-.52.72.21.21,0,0,0,.24.23C122.9,81.61,123,81.27,123,80.67Z" style="fill:#2cb34a"/><path d="M131.44,79.39c0,.45-.51.79-1.24.79a4.22,4.22,0,0,1-1.67-.34,1.09,1.09,0,0,1-1.07.68c-.7,0-1-.39-1-.79a1,1,0,0,1,1.11-1h.23c0-.65-.37-1.33-.37-2.12a1.88,1.88,0,0,1,1.85-2.09,1.24,1.24,0,0,1,1.31,1.29,1.38,1.38,0,0,1-1.3,1.45c-.17,0-.37-.11-.37-.48,0-.19.1-.25.24-.29a.65.65,0,0,0,.53-.63c0-.28-.23-.41-.51-.41s-.82.37-.82,1.14.27,1.55.29,2.29V79a4.08,4.08,0,0,0,1.49.37c.51,0,.51-.37.9-.37A.38.38,0,0,1,131.44,79.39Zm-3.64.08c-.23-.1-.53,0-.53.17s0,.16.19.16A.37.37,0,0,0,127.8,79.47Z" style="fill:#2cb34a"/><path d="M133.5,79.49a1.34,1.34,0,0,1-2,.16,2.16,2.16,0,0,1-.48-1.43c0-.43.11-1.15.51-1.15a.43.43,0,0,1,.46.44c0,.28-.1.51-.1,1s.06.74.6.74.6-.32.62-.63c.08-1,0-1.62.52-1.62a.41.41,0,0,1,.44.44c0,.26-.06,1-.06,1.21,0,.54.16.64.35.64.39,0,.64-.46,1-.46a.35.35,0,0,1,.36.32.69.69,0,0,1-.21.46,1.7,1.7,0,0,1-1.07.5A1,1,0,0,1,133.5,79.49Z" style="fill:#2cb34a"/><path d="M138.16,78.79a.32.32,0,0,1,.3.3.75.75,0,0,1-.29.47,2.36,2.36,0,0,1-1.5.54A1.5,1.5,0,0,1,135,78.56a1.6,1.6,0,0,1,1.41-1.63.81.81,0,0,1,.88.76.43.43,0,0,1-.42.38c-.23,0-.28-.29-.48-.29s-.48.3-.48.63a.93.93,0,0,0,.92,1,1.7,1.7,0,0,0,1-.46A.57.57,0,0,1,138.16,78.79Z" style="fill:#2cb34a"/><path d="M142.12,79.09a.74.74,0,0,1-.26.52,1.84,1.84,0,0,1-1.27.5,1.49,1.49,0,0,1-1.45-1.27.47.47,0,0,1,.34-.44c.33-.06.65-.3.65-.52a.13.13,0,0,0-.13-.12c-.2,0-.65.25-1.08.92,0,.25,0,.58,0,.77s-.1.54-.47.54c-.19,0-.46-.06-.46-.53,0-.16,0-.93,0-1.82,0-1.74-.06-2.21-.06-2.56a1.06,1.06,0,0,1,.91-1.14.65.65,0,0,1,.52.27,1.47,1.47,0,0,1,.28.85,5.46,5.46,0,0,1-.73,2.52c.69-.64.95-.79,1.33-.79a.69.69,0,0,1,.67.77,1.23,1.23,0,0,1-.19.67,1.58,1.58,0,0,1-.8.69.64.64,0,0,0,.61.42c.6,0,.9-.53,1.18-.53A.35.35,0,0,1,142.12,79.09ZM139,75.35c0-.23-.06-.32-.11-.32s-.08.78-.11,1.59A4.52,4.52,0,0,0,139,75.35Z" style="fill:#2cb34a"/><path d="M145.23,79.12c.27-.23.39-.33.56-.33a.36.36,0,0,1,.36.34.62.62,0,0,1-.18.41,3.53,3.53,0,0,1-1.24.71c0,.42,0,.65,0,.77-.06.91-.5,1.49-1.21,1.49a1,1,0,0,1-1.07-1c0-.74.77-1.25,1.41-1.61,0-.17,0-.35,0-.46a1.22,1.22,0,0,1-.95.56,1.19,1.19,0,0,1-1.14-.83,5,5,0,0,1-.1-1c0-.36-.07-1.22.53-1.22.36,0,.39.33.39.58s-.07.69-.07,1,.08.56.36.56.94-.63.94-1.37c0-.51.09-.74.44-.74s.44.25.44.79,0,1,0,1.73A4.32,4.32,0,0,0,145.23,79.12Zm-1.35,1.56a.87.87,0,0,0-.52.72.21.21,0,0,0,.24.23C143.82,81.61,143.88,81.27,143.88,80.67Z" style="fill:#2cb34a"/><path d="M152.36,75.19c0,.27-.26.49-.81.63.1,1.65-.92,4.19-2.23,4.19-1.77,0-2.2-2.64-2.2-4.07,0-1.08.12-1.3.52-1.3a.44.44,0,0,1,.5.45c0,.11-.06.56-.06,1,0,.73.07,2.33.94,3a.57.57,0,0,0,.3.11c.62,0,1.47-2.06,1.38-3.23a.71.71,0,0,1-.74-.72.64.64,0,0,1,.7-.65.72.72,0,0,1,.68.46,3.4,3.4,0,0,1,.61-.27A.48.48,0,0,1,152.36,75.19Z" style="fill:#2cb34a"/><path d="M154.45,79.11a.56.56,0,0,1-.07.26,1.57,1.57,0,0,1-1.26.7c-.88,0-1.26-.89-1.26-1.88a2.78,2.78,0,0,1,.15-1,.52.52,0,0,1,.49-.23.42.42,0,0,1,.42.42c0,.2-.15.78-.15,1.23s.11.62.42.62.6-.45.93-.45A.35.35,0,0,1,154.45,79.11Zm-2-2.49a.49.49,0,0,1-.51-.47.63.63,0,0,1,.64-.6A.44.44,0,0,1,153,76,.59.59,0,0,1,152.45,76.61Z" style="fill:#2cb34a"/><path d="M156.35,78.79a.35.35,0,0,1,.34.34c0,.35-.59,1-1.49,1-1.13,0-1.35-.82-1.23-2.3-.42-.14-.54-.37-.53-.56s.29-.37.51-.37h.11c.13-.73.46-1.94,1-1.94.33,0,.42.46.38.92a5.78,5.78,0,0,1-.26,1.15h.41c.2,0,.41,0,.38.26s-.33.61-1.12.64a1.5,1.5,0,0,1-.11.24c0,.71.13,1.13.56,1.13S156,78.79,156.35,78.79Z" style="fill:#2cb34a"/><path d="M160.39,79.11a.69.69,0,0,1-.21.46,1.75,1.75,0,0,1-1.16.52,1,1,0,0,1-.87-.42,1.45,1.45,0,0,1-.94.37A1,1,0,0,1,156.14,79a2,2,0,0,1,1.8-2,.94.94,0,0,1,.62.24c.17,0,.49,0,.49.21,0,.5-.21,1.31-.21,1.49s0,.3.24.3c.39,0,.64-.46,1-.46A.35.35,0,0,1,160.39,79.11ZM158,78.77a1.18,1.18,0,0,0,.16-.7.19.19,0,0,0-.19-.19,1,1,0,0,0-1,.88.34.34,0,0,0,.34.38A1.09,1.09,0,0,0,158,78.77Z" style="fill:#2cb34a"/><path d="M166,79.13a.48.48,0,0,1-.06.23,1.74,1.74,0,0,1-1.35.73c-.54,0-.9-.27-.9-.81,0-.17,0-.48,0-.73s-.06-.61-.35-.61-.61.45-.64.82,0,1.18-.5,1.18-.43-.33-.43-.57c0-.09,0-.38,0-.73s-.06-.61-.27-.61-.55.38-.73.82c0,.28,0,.58,0,.9s-.2.33-.44.33a.35.35,0,0,1-.38-.27c0-.33-.11-1.41-.11-2.21,0-.19,0-.56.46-.56s.44.25.44.64c.19-.28.53-.67.89-.67a.86.86,0,0,1,.83.68,1.26,1.26,0,0,1,1.08-.64.93.93,0,0,1,.9,1c0,.41-.08.65-.08.85s.08.32.2.32a1.29,1.29,0,0,0,.69-.36.45.45,0,0,1,.29-.1A.35.35,0,0,1,166,79.13Z" style="fill:#2cb34a"/><path d="M168,79.11a.56.56,0,0,1-.07.26,1.57,1.57,0,0,1-1.26.7c-.88,0-1.26-.89-1.26-1.88a2.78,2.78,0,0,1,.15-1A.52.52,0,0,1,166,77a.42.42,0,0,1,.42.42c0,.2-.15.78-.15,1.23s.11.62.42.62.6-.45.93-.45A.35.35,0,0,1,168,79.11Zm-2-2.49a.49.49,0,0,1-.51-.47.63.63,0,0,1,.64-.6.44.44,0,0,1,.46.45A.59.59,0,0,1,166,76.61Z" style="fill:#2cb34a"/><path d="M171.37,78.89a.44.44,0,0,1,.29-.1.35.35,0,0,1,.34.34.47.47,0,0,1-.06.23,1.7,1.7,0,0,1-1.33.73.85.85,0,0,1-.95-.91c0-.42.09-.8.09-1.06s-.06-.37-.23-.37c-.35,0-.88.74-1.12,1.34,0,.68-.11.91-.5.91-.55,0-.44-1-.44-2.52a.54.54,0,0,1,.48-.56c.5,0,.39.19.43,1a1.82,1.82,0,0,1,1.3-1,.82.82,0,0,1,.89.86c0,.52-.1.9-.1,1.24a.23.23,0,0,0,.23.26C171,79.25,171.24,79,171.37,78.89Z" style="fill:#2cb34a"/><path d="M34.29,17.51a6.35,6.35,0,0,0-3.34.68l-1.23.65c-3.85,2-4.55,8.28-3,11.19,4.56,8.63,16.17,12.22,16.17,12.22s3.59-11.59-1-20.25a9.87,9.87,0,0,0-7.61-4.49" style="fill:#cee3a4"/><path d="M60,25.47A5.43,5.43,0,0,1,62.49,27l.79.88c2.49,2.78,1.2,8-.89,9.87-6.21,5.57-16.58,5-16.58,5s.55-10.35,6.78-15.94A8.44,8.44,0,0,1,60,25.47" style="fill:#7cc57a"/><path d="M30.2,58.07a4.25,4.25,0,0,1-1.87-1.3L27.75,56c-1.82-2.27-.6-6.29,1.11-7.66C33.93,44.3,42,45.17,42,45.17s-.86,8.06-6,12.15a6.6,6.6,0,0,1-5.85.74" style="fill:#2cb34a"/><path d="M55.1,62.56a4.81,4.81,0,0,0,2.37-1l.81-.65c2.56-2,2.2-6.75.66-8.68-4.57-5.73-13.65-6.76-13.65-6.76s-1,9.06,3.56,14.81a7.42,7.42,0,0,0,6.24,2.25" style="fill:#bad982"/>
    </symbol>
    <symbol id="luckyRootsMissionLogo">
        <title>luckyroots-misson-logo</title>
        <rect width="204" height="100" style="fill:none"/><path d="M60.61,60.09h0L60.58,60S60.58,60.07,60.61,60.09Z" style="fill:none"/><path d="M61,60.61l.08,0L61,60.54S61,60.6,61,60.61Z" style="fill:none"/><path d="M62.59,59.64l-.15,0,.16,0Z" style="fill:none"/><path d="M66.86,61.55l0,.06h.05Z" style="fill:none"/><path d="M50.7,35.49q.1.17.21,0Q50.84,35.4,50.7,35.49Z" style="fill:none"/><path d="M48.93,40.33v.25h.18L49,40.33Z" style="fill:none"/><path d="M53.49,34.23q0,.17.19.06Q53.66,34.12,53.49,34.23Z" style="fill:none"/><path d="M63,59.43s0,0,.07,0l-.1,0Z" style="fill:none"/><path d="M55.56,33.82c-.06-.08-.32-.21-.26.06Z" style="fill:none"/><path d="M77.43,21.47c.05,0,.08,0,.09,0l0-.08h0S77.43,21.39,77.43,21.47Z" style="fill:none"/><path d="M77.66,23h0a.24.24,0,0,0,0-.11S77.66,22.94,77.66,23Z" style="fill:none"/><path d="M77.57,24.29h.11V24h-.07C77.6,24.12,77.59,24.2,77.57,24.29Z" style="fill:none"/><path d="M58.06,47.57a.44.44,0,0,0,0-.14h-.25v.28A.21.21,0,0,0,58.06,47.57Z" style="fill:none"/><path d="M58.35,47.21a.67.67,0,0,0-.24,0s0,.08,0,.21h.28Z" style="fill:none"/><rect x="58.35" y="46.18" width="0.23" height="0.25" style="fill:none"/><path d="M72,46h.1s0,0,0-.06Z" style="fill:none"/><path d="M74,42.12h.19v-.25H74C74,42,74,42,74,42.12Z" style="fill:none"/><path d="M125.83,71.27h-.12a1.2,1.2,0,0,0-.3,0l-.25.09-.22.11-.23.09-.33.34a2.43,2.43,0,0,0-.29.39,2,2,0,0,0-.2.47,2.16,2.16,0,0,0-.07.6,1.75,1.75,0,0,0,.23,1,2,2,0,0,0,.67.68,2.46,2.46,0,0,0,.92.33,2.53,2.53,0,0,0,1,0,2.06,2.06,0,0,0,.84-.41,1.53,1.53,0,0,0,.51-.81A2.93,2.93,0,0,0,128,73a2,2,0,0,0-.36-.93,1.91,1.91,0,0,0-.76-.61A2.59,2.59,0,0,0,125.83,71.27Z" style="fill:none"/><path d="M121.57,54.19a5.69,5.69,0,0,0-2.11-.77,5.83,5.83,0,0,0-2.25.07,4.73,4.73,0,0,0-1.94.94,3.51,3.51,0,0,0-1.17,1.86,6.73,6.73,0,0,0-.22,2.68,4.63,4.63,0,0,0,.83,2.13,4.4,4.4,0,0,0,1.74,1.4A6,6,0,0,0,119,63h.28a2.81,2.81,0,0,0,.7-.08,3.21,3.21,0,0,0,.57-.21l.52-.25a4,4,0,0,1,.53-.22q.39-.39.76-.79a5.67,5.67,0,0,0,.67-.89,4.51,4.51,0,0,0,.47-1.09,5,5,0,0,0,.17-1.38,4,4,0,0,0-.53-2.34A4.61,4.61,0,0,0,121.57,54.19Z" style="fill:none"/><path d="M127.66,76.28h0l-.05,0Z" style="fill:none"/><polygon points="113.05 44.31 113.05 44.33 113.08 44.33 113.05 44.31" style="fill:none"/><path d="M108.75,73.24h.65q.35,0,.7,0a4,4,0,0,0,.64-.1,1.24,1.24,0,0,0,.49-.23.73.73,0,0,0,.25-.41,1.16,1.16,0,0,0-.08-.64.73.73,0,0,0-.39-.36,2.43,2.43,0,0,0-.63-.16,5.42,5.42,0,0,0-.75,0h-.76a1,1,0,0,0-.11.38,4.56,4.56,0,0,0,0,.54q0,.29,0,.57T108.75,73.24Z" style="fill:none"/><path d="M108.78,74.54l-.06,0h.06Z" style="fill:none"/><path d="M119.54,50v-.19h-.27a1.27,1.27,0,0,0,0,.25Q119.34,50.23,119.54,50Z" style="fill:none"/><path d="M117.69,50.06c.06,0,.16,0,.3,0v-.19h-.37a.16.16,0,0,0,.07.22Z" style="fill:none"/><path d="M117.46,50v-.19l-.25.06V50Z" style="fill:none"/><path d="M77.68,22.48a.39.39,0,0,0,0-.22l-.07,0c0,.08,0,.15,0,.23Z" style="fill:none"/><polygon points="122.45 32.84 122.41 32.89 122.45 32.89 122.45 32.84" style="fill:none"/><path d="M59.85,35.61a.49.49,0,0,0-.06-.27C59.83,35.21,59.6,35.86,59.85,35.61Z" style="fill:none"/><path d="M50,13.73s-.25.1-.25.25A.33.33,0,0,0,50,13.73Z" style="fill:none"/><path d="M105.94,31.42s0,0,0-.07a.29.29,0,0,0-.11-.07l0,.11C105.9,31.42,105.93,31.43,105.94,31.42Z" style="fill:none"/><polygon points="102.53 41.72 102.53 41.72 102.53 41.72 102.53 41.72" style="fill:none"/><path d="M96.87,41.42v0h0Z" style="fill:none"/><path d="M61.86,21.93q0-.11,0-.13Q61.79,22,61.86,21.93Z" style="fill:none"/><path d="M73.81,18.33c.12,0,.15,0,.09-.09S73.81,18.2,73.81,18.33Z" style="fill:none"/><path d="M103.42,62a3.51,3.51,0,0,0,1.17-1.86,6.73,6.73,0,0,0,.22-2.68,4.63,4.63,0,0,0-.83-2.13,4.4,4.4,0,0,0-1.74-1.4,6,6,0,0,0-2.53-.5h-.28a2.81,2.81,0,0,0-.7.08,3.21,3.21,0,0,0-.57.21l-.52.25a4,4,0,0,1-.53.22q-.39.39-.76.79a5.65,5.65,0,0,0-.66.89A4.51,4.51,0,0,0,95.23,57a5,5,0,0,0-.17,1.38,4,4,0,0,0,.53,2.34,4.61,4.61,0,0,0,1.55,1.57,5.69,5.69,0,0,0,2.11.77,5.83,5.83,0,0,0,2.25-.07A4.73,4.73,0,0,0,103.42,62Z" style="fill:none"/><path d="M95.9,71.64a2.63,2.63,0,0,0-.63-.18,4.54,4.54,0,0,0-.71-.06,3.49,3.49,0,0,0-.6,0v1.08q0,.5,0,1a5.4,5.4,0,0,0,.93,0,2.5,2.5,0,0,0,.84-.2,1.06,1.06,0,0,0,.52-.48,1.15,1.15,0,0,0,0-.86A.68.68,0,0,0,95.9,71.64Z" style="fill:none"/><path d="M109.32,87.12a.4.4,0,0,0,.49.34c.41-.07.34-.7.34-1.27C109.85,86.37,109.26,86.5,109.32,87.12Z" style="fill:none"/><path d="M113.21,85.29c0,.24.34.25.49.25s.43-.36.33-.49C113.75,84.68,113.18,85.11,113.21,85.29Z" style="fill:none"/><path d="M88.54,65h.19a.72.72,0,0,1-.2-.05A.44.44,0,0,1,88.54,65Z" style="fill:none"/><polygon points="85.93 57.77 85.93 57.77 85.93 57.77 85.93 57.77" style="fill:none"/><path d="M85,53.89a5.57,5.57,0,0,0-1.44-.37,12.49,12.49,0,0,0-1.72-.09H80.11a2.19,2.19,0,0,0-.25.87,10.42,10.42,0,0,0-.07,1.24q0,.67,0,1.32t0,1.13h1.5q.81,0,1.6-.07a9.14,9.14,0,0,0,1.47-.24,2.85,2.85,0,0,0,1.12-.54,1.7,1.7,0,0,0,.58-1,2.68,2.68,0,0,0-.18-1.48A1.68,1.68,0,0,0,85,53.89Z" style="fill:none"/><path d="M136.9,76.28h0l-.05,0Z" style="fill:none"/><path d="M136.93,72.1a1.91,1.91,0,0,0-.76-.61,2.59,2.59,0,0,0-1.1-.22H135a1.2,1.2,0,0,0-.3,0l-.25.09-.22.11-.23.09-.33.34a2.43,2.43,0,0,0-.29.39,2,2,0,0,0-.2.47,2.16,2.16,0,0,0-.07.6,1.75,1.75,0,0,0,.23,1,2,2,0,0,0,.67.68,2.46,2.46,0,0,0,.92.33,2.53,2.53,0,0,0,1,0,2.06,2.06,0,0,0,.84-.41,1.53,1.53,0,0,0,.51-.81,2.93,2.93,0,0,0,.09-1.16A2,2,0,0,0,136.93,72.1Z" style="fill:none"/><path d="M76.61,26.83c0-.06,0-.11,0-.16L76.4,27v.1Q76.58,27.13,76.61,26.83Z" style="fill:none"/><path d="M128.23,87.1a.4.4,0,0,0,.49.34c.41-.07.34-.7.34-1.27C128.76,86.35,128.18,86.48,128.23,87.1Z" style="fill:none"/><path d="M83.63,58.79h0Z" style="fill:none"/><path d="M124.2,80.22c-.59,0-.3,2.63-.31,3.07a16.49,16.49,0,0,0,.68-2.12C124.65,80.41,124.25,80.22,124.2,80.22Z" style="fill:none"/><path d="M144.18,75.4a2.43,2.43,0,0,0,1.08-.52,1.86,1.86,0,0,0,.59-1,2.64,2.64,0,0,0-.09-1.42,2.07,2.07,0,0,0-1.11-1,4.12,4.12,0,0,0-1.86-.23q-.08,1-.08,2.09t.08,2.09A4.28,4.28,0,0,0,144.18,75.4Z" style="fill:none"/><path d="M141.74,83.23a1.34,1.34,0,0,0-1.21,1.25c0,.2.15.55.38.57a1.09,1.09,0,0,0,1-.45,1.49,1.49,0,0,0,.21-1C142.07,83.47,141.84,83.23,141.74,83.23Z" style="fill:none"/><path d="M72.29,18.23l.17,0a.23.23,0,0,0,.07-.18l-.14,0A.18.18,0,0,0,72.29,18.23Z" style="fill:none"/><path d="M75.85,19.35s0,.05,0,.08l.34.19v-.23C76,19.32,75.91,19.31,75.85,19.35Z" style="fill:none"/><path d="M74.88,19,75,19l.09,0h0v-.13l-.16,0Z" style="fill:none"/><path d="M68.88,19v.09L69,19Z" style="fill:none"/><path d="M69.94,18.55l.23-.09a1.22,1.22,0,0,0,0-.14l-.14,0A.23.23,0,0,0,69.94,18.55Z" style="fill:none"/><path d="M64.37,26.58q.2-.27-.1-.23Z" style="fill:none"/><path d="M59.59,14.58c.06.17-.11.16.15.18Z" style="fill:#cee4a7"/><path d="M49.25,22.71c.11.18.31.33.05.33a18.66,18.66,0,0,0,3.27,3.49,25.64,25.64,0,0,0,5.76,3.54c.05-.23.22,0,.44.06a.19.19,0,0,1-.15.07q.62.28,1.25.52,0-.25.22-.05,0,.12-.21.06c.36.14.73.28,1.1.4l.06-.22a.16.16,0,0,1-.15,0c.66-.72.75-2.36.84-3.31a31.9,31.9,0,0,0,.2-5.87,19.19,19.19,0,0,0-.49-3.06,12.06,12.06,0,0,0-.76-2c.06-.05.1,0,.12.07a6.15,6.15,0,0,0-.44-.71h.13l-.25-.5c-.11.3-.22-.09-.3-.22a.71.71,0,0,1,.14-.05c0-.06-.84-.86-.6-.79a8.31,8.31,0,0,0-3.26-2.08,6.11,6.11,0,0,0-.81-.23,3.37,3.37,0,0,0-.54-.1c-.11,0-.56.09-.35,0a5.5,5.5,0,0,0-1.43.06.22.22,0,0,1,.19.08,5.94,5.94,0,0,0-4.8,3.63,6.92,6.92,0,0,0-.5,2.1c0,.24-.08.52-.09.83a3.66,3.66,0,0,0,0,1.06s.56.61,0,.34A7,7,0,0,0,49.25,23Zm12.59-.9q.07.1,0,.14Q61.76,21.78,61.83,21.8Zm-6,6.85C55.88,28.7,55.81,28.71,55.81,28.66Zm-.5-.29C55.47,28.46,55.3,28.47,55.32,28.37Zm-3.73-2.78S51.59,25.6,51.59,25.58ZM49.87,13.75l.14,0a2,2,0,0,1-.25.25A.22.22,0,0,1,49.87,13.75Z" style="fill:#cee4a7"/><path d="M55.55,42.88a10.62,10.62,0,0,0,3.27-4.32,17.62,17.62,0,0,0,.82-2.18,8.91,8.91,0,0,0,.29-1.06c0-.07.1-1,.11-.49a4.77,4.77,0,0,0,.21-1.12c-.07-.47.14-.19-.3-.36a5,5,0,0,0-1.69,0c-.23,0-1.23.11-1.2.07a18,18,0,0,0-2.1.32l-.72.17v.24c-.22.11-.6.24-.43-.12a12.27,12.27,0,0,0-1.86.72c.13.29-.19.18-.38.25a4.87,4.87,0,0,0-1.31.79A4.23,4.23,0,0,0,49,37.53h.17c-.1.26-.21.18-.32.4s0,.43-.07.6a4.35,4.35,0,0,0-.2,1c.38-.11.49.28,0,.28,0,.32,0,.14.18.19-.37.22.67,1.48.84,1.83-.1,0-.2,0-.3,0,.1.23.91.57.65.76a3.73,3.73,0,0,0,2.08.93,4.3,4.3,0,0,0,2,0C54.56,43.41,55,43,55.55,42.88Zm4.24-7.54c0,.09,0,.39-.06.29A.36.36,0,0,1,59.79,35.34Zm-2.22-1.89Zm-2,.28c-.08.18.31,0-.26.15C55.24,33.63,55.38,33.75,55.56,33.73Zm-6.63,6.85v-.25c.2.09,0-.27.18.25Zm.76-4.06Zm1.11-.95-.11-.09q.15-.1.21,0Zm2.75-1.25c-.11-.17.1-.16.13,0Z" style="fill:#2cb34a"/><path d="M48.86,41.09c0,.08.07.15.11.22h0A.19.19,0,0,0,48.86,41.09Z" style="fill:#2cb34a"/><path d="M73.48,45h-.06a.46.46,0,0,0,0,.13Z" style="fill:#bad982"/><path d="M60.48,40.3h-.12l-.19,0-.05.17h0l.18.08.09,0Z" style="fill:#2cb34a"/><path d="M60.66,38.46c0-.11,0-.21,0-.32-.07.44-.17.9-.29,1.35a.61.61,0,0,1,.21,0c0-.28.06-.55.07-.83h0v-.23Z" style="fill:#2cb34a"/><path d="M60.12,40.77a.45.45,0,0,0,.13.33l.07,0q.06-.26.1-.52h0l-.18,0A.11.11,0,0,0,60.12,40.77Z" style="fill:#2cb34a"/><path d="M60.55,39.78v0h-.18V39.5l-.13.46h.2a.72.72,0,0,1,0-.18Z" style="fill:#2cb34a"/><path d="M111.56,84.67c-.16,0-.17.13-.43.34a2.56,2.56,0,0,1-.47.37c0-.68.07-1.46.07-1.84s.12-.89-.25-.89-.28.2-.28.68c0,.7-.47,1.62-1,1.65a.65.65,0,0,1-.67-.69c0-.29,0-.52.06-.95,0-.24.14-.72-.2-.72s-.36.17-.4.39-.21.3-.39.3a9.64,9.64,0,0,1-1.3-.21c-.26,0-.47,0-.47.25s.45.34.64.37a1.41,1.41,0,0,1,.1.6c0,.31-.17.72-.52.72s-.75-.12-.75-1.08c0-.24.18-2.67.18-3.39s0-.76-.38-.76-.17.29-.21.72-.1,1.35-.1,2.1c0,1.45-.27,3,1,3a1.21,1.21,0,0,0,1.25-1.25,1.24,1.24,0,0,0-.11-.52,1.48,1.48,0,0,0,1-.09v0a4.7,4.7,0,0,0,.1,1,1.14,1.14,0,0,0,1.09.8,1.17,1.17,0,0,0,.9-.54c0,.11,0,.42,0,.58-.61.34-1.35.69-1.33,1.4a.9.9,0,0,0,1,1c1.11-.07.92-2,.92-2a11.07,11.07,0,0,0,.89-.79C111.75,85.06,111.72,84.67,111.56,84.67Zm-1.75,2.78a.4.4,0,0,1-.49-.34c-.06-.62.53-.75.83-.93C110.15,86.76,110.22,87.38,109.81,87.45Z" style="fill:#2cb34a"/><path d="M136.2,80.83c0-.22-.05-.27-.26-.27a3.24,3.24,0,0,0-.58.26.92.92,0,0,0-.77-.49.43.43,0,0,0-.45.61c.11.38.44.45.78.49.09,1.11-.86,3.63-1.59,3.56a.61.61,0,0,1-.29-.11,4,4,0,0,1-1.22-3c0-.38.05-.81.05-.92,0-.38,0-.51-.15-.51-.38,0-.5.2-.5,1.24,0,1.37.41,3.89,2.1,3.89,1.25,0,2.2-2.56,2.11-4.13C135.95,81.29,136.2,81.09,136.2,80.83Z" style="fill:#2cb34a"/><path d="M136.37,81.78a.36.36,0,0,0,.38.35.44.44,0,0,0,.45-.46.33.33,0,0,0-.35-.34A.47.47,0,0,0,136.37,81.78Z" style="fill:#2cb34a"/><path d="M149.88,81.61a.31.31,0,0,0-.33-.32.45.45,0,0,0-.46.43.34.34,0,0,0,.36.34A.42.42,0,0,0,149.88,81.61Z" style="fill:#2cb34a"/><path d="M153.56,85.26c-.26,0-.17-.79-.17-1,0-.32,0-.35,0-.84s-.1-.87-.72-.87c-.45,0-1,.86-1.31,1.35,0-.73.14-1.33-.33-1.33-.28,0-.24.29-.24.54,0,.51,0,.94-.07,1.3-.17.18-.24.63-.76.61s-.53-.51-.53-.82.14-1,.14-1.17,0-.43-.25-.43-.47.73-.47,1.25a3.78,3.78,0,0,0,0,.55.3.3,0,0,1-.07.09c-.13.1-.57.6-.84.6-.12,0-.19-.09-.19-.3s.17-.73.17-1.12a.89.89,0,0,0-.86-1c-.53,0-1,.73-1.17,1-.11-.41-.3-1.08-.66-1.08s-.72.86-.9,1.13c0-.38,0-1.1-.37-1.1s-.22.38-.22.57c0,.42,0,.91,0,1.33-.24.18-.52.58-1,.57s-.22-.45-.17-.63a7.51,7.51,0,0,0,.2-1.42c0-.17-.3-.2-.46-.2a.9.9,0,0,0-.59-.23A1.92,1.92,0,0,0,140,84.55s0,.06,0,.09a1,1,0,0,1-.73.53c-.81,0-.69-.83-.61-1.54a.94.94,0,0,1,.11-.23c.75,0,1.15-.18,1.18-.5s-.23-.13-.43-.13l-.71.05s.11-.56.18-1,.4-1.15.09-1.15c-.56,0-.75,1.36-.88,2.06h-.11c-.21,0-.59-.14-.61.14s.13.32.53.45a5.26,5.26,0,0,0,0,1.23.86.86,0,0,1-.83.52c-.5,0-.7-.77-.74-1.08-.11-.76.4-1.36.12-1.36a.42.42,0,0,0-.41.23,2.46,2.46,0,0,0-.2.92c0,.95.37,1.8,1.21,1.8a1.5,1.5,0,0,0,1-.46,1,1,0,0,0,.95.48,1.23,1.23,0,0,0,1-.45,1,1,0,0,0,.84.41,1.38,1.38,0,0,0,.89-.35.92.92,0,0,0,.83.4,1.6,1.6,0,0,0,1-.4,1.56,1.56,0,0,0,0,.16c0,.17.12.22.29.22s.29-.07.29-.27.08-.63.1-.9c.17-.42.55-.87.81-.87s.29.41.29.71,0,.61,0,.7c0,.24-.09.5.27.5s.43-.7.47-1.13.54-1.08.91-1.08.23.46.23.7-.13.79-.13,1c0,.52.24.7.76.7a1.77,1.77,0,0,0,1.12-.48.9.9,0,0,0,.84.46,1.42,1.42,0,0,0,.8-.26.25.25,0,0,0,.26.21c.37,0,.39-.15.38-.79.23-.57,1-1.54,1.31-1.54.16,0,.21.14.21.35s0,.84,0,1.24c0,.64.22.81.7.82.72,0,.81-1.21.72-1.14S153.81,85.27,153.56,85.26Zm-11.7-.66a1.09,1.09,0,0,1-1,.45c-.23,0-.38-.36-.38-.57a1.34,1.34,0,0,1,1.21-1.25c.1,0,.33.24.33.35A1.49,1.49,0,0,1,141.86,84.61Z" style="fill:#2cb34a"/><path d="M130,85a1.84,1.84,0,0,1-.47.36c0-.68.07-1.46.07-1.84s.12-.89-.25-.89-.28.2-.28.68c0,.7-.47,1.62-1,1.65a.65.65,0,0,1-.67-.69c0-.29,0-.52.07-.95,0-.24.14-.72-.2-.72-.57,0-.4.82-.4,1.16a4.68,4.68,0,0,0,0,.61c0,.41-.25.85-1.06.79a1.33,1.33,0,0,1-1-.71,2.21,2.21,0,0,0,1.1-.63.91.91,0,0,0,.18-.55c0-.41-.17-.69-.57-.69s-.68,0-1.34.63a5.2,5.2,0,0,0,.7-2.4,1.41,1.41,0,0,0-.27-.81.62.62,0,0,0-.5-.26,1,1,0,0,0-.87,1.09c0,.33.05.79.05,2.44,0,.36,0,.7,0,1h0c-.19.89-.68.92-1.12.92S121.11,85,121.17,84a1,1,0,0,1,1-1c.19,0,.13.41.35.41s.32,0,.32-.16a.78.78,0,0,0-.84-.72,1.53,1.53,0,0,0-1.35,1.56,1.61,1.61,0,0,0,.08.51.72.72,0,0,1-.72.42c-.18,0-.5-.35-.5-.86,0-.19.05-.9.05-1.15s0-.48-.29-.44c-.43.06-.3.63-.37,1.56a.83.83,0,0,1-.75.8c-.52,0-.7-.56-.7-.87s.1-.66.1-.93,0-.48-.28-.48-.4.71-.4,1.12a2.79,2.79,0,0,0,.13.88.83.83,0,0,1-.67.42,4.93,4.93,0,0,1-1.63-.37v-.1c0-.71-.38-1.56-.38-2.39s.36-1.3.76-1.39,1-.11,1,.54a1.19,1.19,0,0,1-.55,1c-.13,0-.3.5-.14.5a1.32,1.32,0,0,0,1.24-1.39,1.19,1.19,0,0,0-1.25-1.23,1.8,1.8,0,0,0-1.77,2c0,.75.41,1.63.42,2.26h-.22c-.66,0-1.18.39-1.11.88s.72.5,1,.52c.52,0,.69-.21.87-.61a4.35,4.35,0,0,0,1.66.35,1.31,1.31,0,0,0,1.06-.41,1.27,1.27,0,0,0,.85.27,1.21,1.21,0,0,0,1-.52,1,1,0,0,0,.83.55,1.6,1.6,0,0,0,1-.44,1.59,1.59,0,0,0,1.2.49,2.32,2.32,0,0,0,1.27-.39.38.38,0,0,0,.41.27c.36,0,.17-.86.22-1.09a2,2,0,0,1,1.45-1.32.13.13,0,0,1,.13.12c.12.62-.51.85-.82.9-.13,0-.33.07-.33.29a1.41,1.41,0,0,0,1.39,1.22,1.54,1.54,0,0,0,1.22-.47l.08-.09a1.27,1.27,0,0,0,.93.45A1.17,1.17,0,0,0,129,85c0,.11,0,.42,0,.58-.61.34-1.35.69-1.33,1.4a.9.9,0,0,0,1,1c1.11-.07.92-2,.92-2s.58-.5.89-.79S130.43,84.6,130,85Zm-16.33.55c-.15,0-.45,0-.49-.25s.54-.61.82-.24C114.13,85.18,113.88,85.54,113.7,85.54Zm10.18-2.25c0-.44-.28-3.07.31-3.07.05,0,.46.19.37.94A16.49,16.49,0,0,1,123.89,83.29Zm4.83,4.15a.4.4,0,0,1-.49-.34c-.06-.62.53-.75.83-.93C129.06,86.73,129.13,87.36,128.72,87.43Z" style="fill:#2cb34a"/><path d="M80.85,42.78q0,2,0,3.84H93a3.44,3.44,0,0,0,.14-.68,7.65,7.65,0,0,0,0-1.67,3.44,3.44,0,0,0-.14-.68c-.57-.06-1.6-.1-2.27-.1H86.27q-1,0-1.86-.1-.09-1.4-.1-2.93t0-3.12q0-1.58.06-3.16t0-3.1a2.8,2.8,0,0,0-.84-.24,5.25,5.25,0,0,0-.92,0,7.59,7.59,0,0,0-.93.1l-.85.17q-.09,1.88-.1,3.84t0,3.94Q80.82,40.82,80.85,42.78Z" style="fill:#515555"/><path d="M93.38,35.73a14.82,14.82,0,0,0,.46,2.49,8.18,8.18,0,0,0,.87,2.05,4.38,4.38,0,0,0,1.42,1.46,8.86,8.86,0,0,0,2.09.85,7.57,7.57,0,0,0,2.82.14,5.57,5.57,0,0,1,.6-.16l.65-.14a5.67,5.67,0,0,0,.64-.17,2.43,2.43,0,0,0,.58-.29,4.19,4.19,0,0,0,1.78-1.28,6,6,0,0,0,1-2,11.87,11.87,0,0,0,.47-2.53,10.31,10.31,0,0,0,.1-1.65c0-1,0-.37-.08-1.4s-.07-1.22-.07-2.21a6.74,6.74,0,0,0-.84-.14,9,9,0,0,0-1.81,0,5.92,5.92,0,0,0-.81.14,8.35,8.35,0,0,0,0,1.57c.05.86.11.08.16,1s.08,1.31.07,2.13a3.69,3.69,0,0,1-.26,1.41,4.11,4.11,0,0,1-.83,1.67,2.64,2.64,0,0,1-1.63.86,4,4,0,0,1-1.44-.07,3.31,3.31,0,0,1-1.08-.48,3.77,3.77,0,0,1-.8-.76,8.51,8.51,0,0,1-.62-.89,6.38,6.38,0,0,1-.18-1.59c0-.86,0-1.33.06-2.22a9.14,9.14,0,0,0,.06-1,6.18,6.18,0,0,0-.18-1.58,2.08,2.08,0,0,0-.73-.22,4.88,4.88,0,0,0-.75,0l-.75,0a2.37,2.37,0,0,1-.73-.07.21.21,0,0,0-.23.14.37.37,0,0,0,0,.11c0,.95-.07,1.09-.11,2.07a10,10,0,0,0-.06,1.25A8.87,8.87,0,0,0,93.38,35.73Zm12.54-4.37s0,.05,0,.07,0,0-.1,0l0-.11A.29.29,0,0,1,105.92,31.35Zm-3.39,10.37h0Zm-5.66-.3,0,0h0Z" style="fill:#515555"/><path d="M110.07,42.57a5.17,5.17,0,0,0,1.44,1.75,5.76,5.76,0,0,0,1.9,1.56,12.54,12.54,0,0,0,2.66,1q5.34,0,7.66-3-.57-.6-1.05-1.15a8.3,8.3,0,0,0-1.24-1.12,4.16,4.16,0,0,1-1.57,1.25,5.34,5.34,0,0,1-1.94.48,6,6,0,0,1-2-.23,5,5,0,0,1-1.77-.91,4.68,4.68,0,0,1-1.24-1.54,4.09,4.09,0,0,1-.4-2.13,4.51,4.51,0,0,1,.39-2.12,4.36,4.36,0,0,1,1.19-1.55,5.16,5.16,0,0,1,1.74-.93,5.94,5.94,0,0,1,2-.28,5.54,5.54,0,0,1,1.95.42,4.73,4.73,0,0,1,1.65,1.15q.57-.57,1.24-1.2a4.47,4.47,0,0,0,1.05-1.59,6.71,6.71,0,0,0-2.29-1.4,11.23,11.23,0,0,0-3-.7,10.8,10.8,0,0,0-3.18.17,6.79,6.79,0,0,0-2.72,1.17,4.92,4.92,0,0,0-1.73,1.46,7.46,7.46,0,0,0-1.12,2.13,10.19,10.19,0,0,0-.5,2.49,9.81,9.81,0,0,0,.13,2.56A8.26,8.26,0,0,0,110.07,42.57Zm3,1.74,0,0h0Zm9.4-11.47v.05h0Z" style="fill:#515555"/><path d="M127.07,46.44l.86,0h.85a4,4,0,0,1,.8.1q.09-1.05.15-2.14a15.2,15.2,0,0,1,.24-2.05,5.11,5.11,0,0,1,.61-1.67,2.32,2.32,0,0,1,1.3-1l2.33,3.54a31.39,31.39,0,0,0,2.51,3.34h4.06a58.25,58.25,0,0,0-3.3-4.81q-1.77-2.32-3.3-4.61.57-.76,1.27-1.51t1.43-1.49l1.48-1.46,1.41-1.39c0-.06,0-.13.15-.22l.29-.25a1.42,1.42,0,0,0,.19-.21q.06-.08-.13-.08h-4.06q-.76.76-1.57,1.64L133,33.94q-.8.87-1.61,1.71t-1.56,1.5v-6.6h-3.58q0,1.81,0,3.82t-.06,4.06q0,2.05,0,4.07t.1,3.83A4.15,4.15,0,0,0,127.07,46.44Z" style="fill:#515555"/><path d="M146.48,40.8v5.82h3.28a6.88,6.88,0,0,0,.27-1.41q.07-.74.07-1.52t0-1.58q0-.8,0-1.56,1.51-2.48,3-4.85t3-5h-3.55A6.11,6.11,0,0,0,151.25,32q-.55.78-1,1.63t-.94,1.72a11.79,11.79,0,0,1-1,1.63q-.48-.76-.92-1.55t-.88-1.57q-.45-.78-.94-1.54a13.28,13.28,0,0,0-1.07-1.42,3.66,3.66,0,0,0-.88-.28,5.73,5.73,0,0,0-1-.09,6.52,6.52,0,0,0-1.09.09,5.45,5.45,0,0,0-1,.28q1.54,2.45,3.14,4.85A47.37,47.37,0,0,1,146.48,40.8Z" style="fill:#515555"/><path d="M88.27,63.32,87.2,61.91q-.54-.7-1-1.36a3.46,3.46,0,0,0,1-.5,3.48,3.48,0,0,1,1-.5l.55-1a7.5,7.5,0,0,0,.49-1.05,8,8,0,0,0,.36-1.25,7.81,7.81,0,0,0,.14-1.55A4.58,4.58,0,0,0,89,52.45a4.44,4.44,0,0,0-1.64-1.38,7.69,7.69,0,0,0-2.32-.7,19.84,19.84,0,0,0-2.75-.21q-1.44,0-3,.08l-3,.16v15.7a8.58,8.58,0,0,0,3.53,0q0-.57,0-1.21t-.06-1.32q0-.68,0-1.32a8.7,8.7,0,0,1,.1-1.17h0l.12,0a2.45,2.45,0,0,0,.6.05l.68-.07.66-.07a2.43,2.43,0,0,1,.72.07,9.36,9.36,0,0,1,.88,1.25l.8,1.36q.4.69.85,1.33a5.73,5.73,0,0,0,1,1.12H90a8.69,8.69,0,0,0-.73-1.38Q88.8,64,88.27,63.32Zm-4.64-4.53h0Zm2.3-1h0Zm.18-1.57a1.7,1.7,0,0,1-.58,1,2.85,2.85,0,0,1-1.12.54,9.14,9.14,0,0,1-1.47.24q-.79.07-1.6.07h-1.5q0-.48,0-1.13t0-1.32a10.42,10.42,0,0,1,.07-1.24,2.19,2.19,0,0,1,.25-.87h1.75a12.49,12.49,0,0,1,1.72.09,5.57,5.57,0,0,1,1.44.37,1.68,1.68,0,0,1,.91.84A2.68,2.68,0,0,1,86.11,56.2ZM88.54,65a.44.44,0,0,0,0-.05.72.72,0,0,0,.2.05Z" style="fill:#515555"/><path d="M104.4,65.55a7.19,7.19,0,0,0,3.82-4.72,11.8,11.8,0,0,0,.28-4A11.44,11.44,0,0,0,107.4,54a7.46,7.46,0,0,0-1.79-2.14A8.41,8.41,0,0,0,103,50.46a12.69,12.69,0,0,0-3.57-.62v.25a6.71,6.71,0,0,0-3.16.5,7.26,7.26,0,0,0-2.45,1.73,8.58,8.58,0,0,0-1.64,2.58,9.72,9.72,0,0,0-.72,3A8.78,8.78,0,0,0,91.78,61a7.48,7.48,0,0,0,1.47,2.76,13.52,13.52,0,0,0,1.16,1.08,7.82,7.82,0,0,0,1.24.84,8.19,8.19,0,0,0,1.4.6,8,8,0,0,0,1.62.33h2.59A12.86,12.86,0,0,0,104.4,65.55ZM99.24,63a5.69,5.69,0,0,1-2.11-.77,4.61,4.61,0,0,1-1.55-1.57,4,4,0,0,1-.53-2.34A5,5,0,0,1,95.23,57a4.51,4.51,0,0,1,.47-1.09,5.65,5.65,0,0,1,.66-.89q.37-.4.76-.79a4,4,0,0,0,.53-.22l.52-.25a3.21,3.21,0,0,1,.57-.21,2.81,2.81,0,0,1,.7-.08h.28a6,6,0,0,1,2.53.5,4.4,4.4,0,0,1,1.74,1.4,4.63,4.63,0,0,1,.83,2.13,6.73,6.73,0,0,1-.22,2.68A3.51,3.51,0,0,1,103.42,62a4.73,4.73,0,0,1-1.94.94A5.83,5.83,0,0,1,99.24,63Z" style="fill:#515555"/><path d="M119.54,49.77h-.27s0,0,0,.07h.27Z" style="fill:#515555"/><path d="M121.67,50.17a8,8,0,0,0-1.62-.33h-.5V50q-.21.21-.24.07a1.27,1.27,0,0,1,0-.25H118V50c-.14.06-.24.07-.3,0a.16.16,0,0,1-.07-.22h-.16V50h-.25V49.9a12.72,12.72,0,0,0-2.9,1,7.19,7.19,0,0,0-3.82,4.72,11.82,11.82,0,0,0-.28,4,11.47,11.47,0,0,0,1.09,2.79,7.47,7.47,0,0,0,1.79,2.14A8.41,8.41,0,0,0,115.7,66a12.69,12.69,0,0,0,3.57.62v-.25a6.72,6.72,0,0,0,3.16-.5,7.27,7.27,0,0,0,2.45-1.73,8.58,8.58,0,0,0,1.64-2.58,9.72,9.72,0,0,0,.72-3,8.78,8.78,0,0,0-.32-3.08,7.48,7.48,0,0,0-1.47-2.76,13.51,13.51,0,0,0-1.16-1.08,7.8,7.8,0,0,0-1.24-.84A8.19,8.19,0,0,0,121.67,50.17Zm2,7.92a5,5,0,0,1-.17,1.38,4.51,4.51,0,0,1-.47,1.09,5.67,5.67,0,0,1-.67.89q-.37.4-.76.79a4,4,0,0,0-.53.22l-.52.25a3.21,3.21,0,0,1-.57.21,2.81,2.81,0,0,1-.7.08H119a6,6,0,0,1-2.53-.5,4.4,4.4,0,0,1-1.74-1.4,4.63,4.63,0,0,1-.83-2.13,6.73,6.73,0,0,1,.22-2.68,3.51,3.51,0,0,1,1.17-1.86,4.73,4.73,0,0,1,1.94-.94,5.83,5.83,0,0,1,2.25-.07,5.69,5.69,0,0,1,2.11.77,4.61,4.61,0,0,1,1.55,1.57A4,4,0,0,1,123.65,58.09Z" style="fill:#515555"/><path d="M117.46,49.77h-.25v.13l.25-.06Z" style="fill:#515555"/><path d="M118,49.77c-.14-.06-.24-.07-.3,0a.23.23,0,0,0-.07.09H118Z" style="fill:#515555"/><path d="M133.39,53.69V66.23a8.81,8.81,0,0,0,3.58,0q0-3.28-.09-6.5t.09-6.32q.57,0,1.18,0l1.21.07q.61,0,1.17,0a4.9,4.9,0,0,0,1-.13,8,8,0,0,0,.22-1.52q0-.77,0-1.52-3.07-.21-6.45-.1t-6.87.1a.87.87,0,0,0-.21.58,5.34,5.34,0,0,0,0,.85q0,.45.11.89a5,5,0,0,1,.07.72,3,3,0,0,0,1.23.16l1.31-.11a12.06,12.06,0,0,1,1.26-.07A2,2,0,0,1,133.39,53.69Z" style="fill:#515555"/><path d="M154.44,58.76a1.48,1.48,0,0,0-.61-.5,3.28,3.28,0,0,0-1.07-.7,11.51,11.51,0,0,0-1.33-.46L150,56.72a10,10,0,0,1-1.38-.45,4.14,4.14,0,0,1-1.15-.7,2.66,2.66,0,0,1-.76-1.12,1.88,1.88,0,0,1,.72-.92,2.47,2.47,0,0,1,1-.37,3.82,3.82,0,0,1,1.2.06,9,9,0,0,1,1.21.33A9.51,9.51,0,0,1,152,54l.83.44a4.85,4.85,0,0,0,1.1-1.08,9.63,9.63,0,0,0,.92-1.44,5.94,5.94,0,0,0-2.24-1.38,9.36,9.36,0,0,0-5.61-.22,5.76,5.76,0,0,0-2.32,1.2,4.1,4.1,0,0,0-1.27,2.12,5.2,5.2,0,0,0,.31,3.06,6,6,0,0,0,1.51,1.69,6.85,6.85,0,0,0,2.27,1.11,8.15,8.15,0,0,0,1.24.29,9.89,9.89,0,0,1,1.28.29,3.29,3.29,0,0,1,1.11.57,2,2,0,0,1,.68,1.15V62a2.05,2.05,0,0,1-.87,1,2.8,2.8,0,0,1-1.2.33,4.48,4.48,0,0,1-1.39-.16,10.4,10.4,0,0,1-1.41-.48,13.55,13.55,0,0,1-1.26-.61q-.58-.32-1-.57-.57.55-1.11,1.11a8.8,8.8,0,0,0-.93,1.13,13.6,13.6,0,0,0,1.43,1.08,8.81,8.81,0,0,0,1.7.86,10,10,0,0,0,2,.53,11,11,0,0,0,2.43.08,6.25,6.25,0,0,0,2.42-.64,4.75,4.75,0,0,0,1.75-1.48,4.63,4.63,0,0,0,.81-2.19,5.89,5.89,0,0,0-.42-2.77A3.49,3.49,0,0,1,154.44,58.76Z" style="fill:#515555"/><path d="M81.49,73.57a.64.64,0,0,0-.26-.22,1.43,1.43,0,0,0-.46-.3,5,5,0,0,0-.58-.2l-.62-.16a4.38,4.38,0,0,1-.6-.19,1.81,1.81,0,0,1-.5-.3,1.16,1.16,0,0,1-.33-.49.82.82,0,0,1,.31-.4,1.07,1.07,0,0,1,.45-.16,1.64,1.64,0,0,1,.52,0,3.88,3.88,0,0,1,.53.14,4.19,4.19,0,0,1,.47.2l.36.19a2.11,2.11,0,0,0,.48-.47,4.17,4.17,0,0,0,.4-.63,2.58,2.58,0,0,0-1-.6,4.07,4.07,0,0,0-2.43-.09,2.5,2.5,0,0,0-1,.52,1.78,1.78,0,0,0-.55.92,2.26,2.26,0,0,0,.13,1.33,2.59,2.59,0,0,0,.66.73,3,3,0,0,0,1,.48A3.53,3.53,0,0,0,79,74a4.25,4.25,0,0,1,.56.12,1.43,1.43,0,0,1,.48.25.87.87,0,0,1,.29.5V75a.89.89,0,0,1-.38.44,1.22,1.22,0,0,1-.52.14,2,2,0,0,1-.6-.07,4.51,4.51,0,0,1-.61-.21,5.88,5.88,0,0,1-.55-.26l-.41-.25-.48.48a3.81,3.81,0,0,0-.4.49,6,6,0,0,0,.62.47,3.83,3.83,0,0,0,.74.37,4.36,4.36,0,0,0,.88.23,4.76,4.76,0,0,0,1.06,0,2.71,2.71,0,0,0,1.05-.28,2.05,2.05,0,0,0,.76-.64,2,2,0,0,0,.35-1,2.56,2.56,0,0,0-.18-1.2A1.54,1.54,0,0,1,81.49,73.57Z" style="fill:#2cb34a"/><path d="M89.85,70.22l-.36-.06-.39,0-.39,0-.35.06a8.38,8.38,0,0,0,0,1l.07,1.13q0,.57,0,1.11a4.13,4.13,0,0,1-.1.88,2.64,2.64,0,0,1-.39.83,1.15,1.15,0,0,1-.69.36,1.73,1.73,0,0,1-.63,0,1.43,1.43,0,0,1-.47-.21,1.63,1.63,0,0,1-.35-.33,3.66,3.66,0,0,1-.27-.39,6.49,6.49,0,0,1-.08-1q0-.56,0-1.14t0-1.15a6.37,6.37,0,0,0-.08-1,.91.91,0,0,0-.32-.09h-.32l-.32,0a1,1,0,0,1-.32,0,.09.09,0,0,0-.1.06.16.16,0,0,0,0,0q0,.62,0,1.25t0,1.26q0,.62.06,1.2a6.43,6.43,0,0,0,.2,1.08,3.53,3.53,0,0,0,.38.89,1.9,1.9,0,0,0,.62.63,3.85,3.85,0,0,0,.91.37,3.29,3.29,0,0,0,1.22.06l.26-.07.28-.06.28-.07a1.06,1.06,0,0,0,.25-.12,1.82,1.82,0,0,0,.77-.56,2.61,2.61,0,0,0,.45-.87,5.15,5.15,0,0,0,.2-1.1q0-.6,0-1.25t0-1.32Q89.85,70.87,89.85,70.22Z" style="fill:#2cb34a"/><path d="M96.9,70.51a3.53,3.53,0,0,0-1.23-.4A8.48,8.48,0,0,0,94.13,70l-1.7.07q-.08,1.65,0,3.39t.05,3.39h1.42a1.57,1.57,0,0,0,.07-.51q0-.26,0-.53t0-.53a1.68,1.68,0,0,1,.08-.51,5.74,5.74,0,0,0,1.8,0,3,3,0,0,0,1.33-.59,2.05,2.05,0,0,0,.7-1.12,3.07,3.07,0,0,0-.11-1.64A1.82,1.82,0,0,0,96.9,70.51Zm-.64,2.31a1.06,1.06,0,0,1-.52.48,2.5,2.5,0,0,1-.84.2,5.4,5.4,0,0,1-.93,0q0-.5,0-1V71.43a3.49,3.49,0,0,1,.6,0,4.54,4.54,0,0,1,.71.06,2.63,2.63,0,0,1,.63.18.68.68,0,0,1,.37.32A1.15,1.15,0,0,1,96.26,72.82Z" style="fill:#2cb34a"/><path d="M105,76.43q0-.17,0-.35a1.87,1.87,0,0,0,0-.33.55.55,0,0,0-.09-.28q-.5,0-1,0l-1,0q-.47,0-.92,0a4.2,4.2,0,0,1-.86-.15,2,2,0,0,0,0-.33,2.42,2.42,0,0,1,0-.34,1.05,1.05,0,0,1,0-.3.36.36,0,0,1,.15-.21,2,2,0,0,1,.67-.14q.39,0,.81,0l.83,0a3.55,3.55,0,0,0,.74,0,2.08,2.08,0,0,1,0-.34l.06-.35a3,3,0,0,0,0-.33.8.8,0,0,0,0-.29,6,6,0,0,0-.78,0l-.83,0h-.81a3,3,0,0,1-.72-.1,1.6,1.6,0,0,1-.08-.28q0-.16-.05-.32a2.58,2.58,0,0,1,0-.31.85.85,0,0,1,0-.27,3.55,3.55,0,0,1,.83-.15q.46,0,.94,0l1,0,.88,0a3,3,0,0,0,.1-.7q0-.38,0-.71l-1.22.06-1.32,0H99.76v6.86q.65,0,1.31,0h2.65q.65,0,1.26-.05A2,2,0,0,1,105,76.43Z" style="fill:#2cb34a"/><path d="M108.71,74.57l.06,0v0h0a1.08,1.08,0,0,0,.31,0l.29,0,.29,0a1.06,1.06,0,0,1,.31,0,4.07,4.07,0,0,1,.38.54l.35.59q.17.3.37.58a2.48,2.48,0,0,0,.44.49h1.65a3.78,3.78,0,0,0-.32-.6q-.2-.31-.43-.62l-.46-.61-.44-.59a1.5,1.5,0,0,0,.44-.22,1.51,1.51,0,0,1,.44-.22l.24-.42a3.23,3.23,0,0,0,.21-.46,3.52,3.52,0,0,0,.15-.54,3.4,3.4,0,0,0,.06-.67,2,2,0,0,0-.33-1,1.93,1.93,0,0,0-.71-.6,3.35,3.35,0,0,0-1-.3,8.56,8.56,0,0,0-1.19-.09q-.63,0-1.29,0l-1.29.07v6.82a3.73,3.73,0,0,0,1.53,0q0-.25,0-.53c0-.19,0-.38,0-.57s0-.39,0-.57a3.75,3.75,0,0,1,0-.52Zm0-2.93a1,1,0,0,1,.11-.38h.76a5.42,5.42,0,0,1,.75,0,2.43,2.43,0,0,1,.63.16.73.73,0,0,1,.39.36,1.16,1.16,0,0,1,.08.64.73.73,0,0,1-.25.41,1.24,1.24,0,0,1-.49.23,4,4,0,0,1-.64.1q-.34,0-.7,0h-.65q0-.21,0-.49t0-.57A4.56,4.56,0,0,1,108.76,71.64Z" style="fill:#2cb34a"/><polygon points="108.75 74.57 108.75 74.57 108.75 74.56 108.75 74.57" style="fill:#2cb34a"/><path d="M117,71.3h3.52a1.11,1.11,0,0,0,0-.28,2.24,2.24,0,0,0,0-.33l0-.34c0-.12,0-.23,0-.33A24.24,24.24,0,0,0,118,70q-1.3,0-2.59,0-.08.73-.09,1.55t0,1.7q0,.88,0,1.76t0,1.73a1.7,1.7,0,0,1,.41,0l.38,0,.36,0a1.12,1.12,0,0,0,.34,0,1.75,1.75,0,0,0,.11-.67c0-.24,0-.47,0-.7s0-.46,0-.68a1.49,1.49,0,0,1,.11-.62h3.1a1.49,1.49,0,0,0,.06-.29,3,3,0,0,0,0-.35,3.1,3.1,0,0,0,0-.35,1.49,1.49,0,0,0-.06-.29,7,7,0,0,0-.84,0l-.85,0h-.81a3.64,3.64,0,0,1-.72-.09q0-.16,0-.35c0-.13,0-.26,0-.38a2.12,2.12,0,0,1,0-.36A.75.75,0,0,1,117,71.3Z" style="fill:#2cb34a"/><path d="M125.71,69.7v.11a2.91,2.91,0,0,0-1.37.22,3.15,3.15,0,0,0-1.07.75,3.73,3.73,0,0,0-.71,1.12,4.22,4.22,0,0,0-.31,1.31,3.82,3.82,0,0,0,.14,1.34,3.24,3.24,0,0,0,.64,1.2,5.9,5.9,0,0,0,.5.47,3.39,3.39,0,0,0,.54.36,3.53,3.53,0,0,0,.61.26,3.44,3.44,0,0,0,.7.14h1.12a5.57,5.57,0,0,0,1.37-.47,3.12,3.12,0,0,0,1.66-2.05,5.12,5.12,0,0,0,.12-1.74,5,5,0,0,0-.47-1.21,3.25,3.25,0,0,0-.78-.93,3.66,3.66,0,0,0-1.13-.62A5.51,5.51,0,0,0,125.71,69.7Zm2,6.58h0l.05,0Zm0-4.19A2,2,0,0,1,128,73a2.93,2.93,0,0,1-.09,1.16,1.53,1.53,0,0,1-.51.81,2.06,2.06,0,0,1-.84.41,2.53,2.53,0,0,1-1,0,2.46,2.46,0,0,1-.92-.33,2,2,0,0,1-.67-.68,1.75,1.75,0,0,1-.23-1,2.16,2.16,0,0,1,.07-.6,2,2,0,0,1,.2-.47,2.43,2.43,0,0,1,.29-.39l.33-.34.23-.09.22-.11.25-.09a1.2,1.2,0,0,1,.3,0h.12a2.59,2.59,0,0,1,1.1.22A1.91,1.91,0,0,1,127.69,72.1Z" style="fill:#2cb34a"/><path d="M138.77,74.47a5.12,5.12,0,0,0,.12-1.74,5,5,0,0,0-.47-1.21,3.25,3.25,0,0,0-.78-.93A3.66,3.66,0,0,0,136.5,70,5.51,5.51,0,0,0,135,69.7v.11a2.91,2.91,0,0,0-1.37.22,3.15,3.15,0,0,0-1.07.75,3.73,3.73,0,0,0-.71,1.12,4.22,4.22,0,0,0-.31,1.31,3.82,3.82,0,0,0,.14,1.34,3.24,3.24,0,0,0,.64,1.2,5.9,5.9,0,0,0,.5.47,3.39,3.39,0,0,0,.54.36,3.53,3.53,0,0,0,.61.26,3.44,3.44,0,0,0,.7.14h1.12a5.57,5.57,0,0,0,1.37-.47,3.12,3.12,0,0,0,1.66-2.05Zm-1.86,1.82h0l.05,0Zm.29-2.1a1.53,1.53,0,0,1-.51.81,2.06,2.06,0,0,1-.84.41,2.53,2.53,0,0,1-1,0,2.46,2.46,0,0,1-.92-.33,2,2,0,0,1-.67-.68,1.75,1.75,0,0,1-.23-1,2.16,2.16,0,0,1,.07-.6,2,2,0,0,1,.2-.47,2.43,2.43,0,0,1,.29-.39l.33-.34.23-.09.22-.11.25-.09a1.2,1.2,0,0,1,.3,0h.12a2.59,2.59,0,0,1,1.1.22,1.91,1.91,0,0,1,.76.61,2,2,0,0,1,.36.93A2.93,2.93,0,0,1,137.19,74.19Z" style="fill:#2cb34a"/><path d="M154.31,73.57a.64.64,0,0,0-.26-.22,1.43,1.43,0,0,0-.46-.3,5,5,0,0,0-.58-.2l-.62-.16a4.38,4.38,0,0,1-.6-.19,1.81,1.81,0,0,1-.5-.3,1.16,1.16,0,0,1-.33-.49.82.82,0,0,1,.31-.4,1.07,1.07,0,0,1,.45-.16,1.64,1.64,0,0,1,.51,0,3.89,3.89,0,0,1,.53.14,4.22,4.22,0,0,1,.47.2l.36.19h0a2.11,2.11,0,0,0,.48-.47,4.17,4.17,0,0,0,.4-.63,2.58,2.58,0,0,0-1-.6,4,4,0,0,0-1.21-.23h0a4,4,0,0,0-1.22.14,2.5,2.5,0,0,0-1,.52,1.78,1.78,0,0,0-.55.92,2.26,2.26,0,0,0,.13,1.33,2.59,2.59,0,0,0,.66.73,3,3,0,0,0,1,.48,3.54,3.54,0,0,0,.54.12,4.23,4.23,0,0,1,.56.12,1.43,1.43,0,0,1,.48.25.87.87,0,0,1,.29.5V75a.89.89,0,0,1-.38.44,1.22,1.22,0,0,1-.52.14,2,2,0,0,1-.6-.07,4.51,4.51,0,0,1-.61-.21,5.88,5.88,0,0,1-.55-.26l-.41-.25h0l-.48.48a3.87,3.87,0,0,0-.4.49,6,6,0,0,0,.62.47,3.83,3.83,0,0,0,.74.37,4.36,4.36,0,0,0,.88.23,4.18,4.18,0,0,0,.51,0h.55a2.71,2.71,0,0,0,1.05-.28,2.05,2.05,0,0,0,.76-.64,2,2,0,0,0,.35-1,2.56,2.56,0,0,0-.18-1.2A1.54,1.54,0,0,1,154.31,73.57Z" style="fill:#2cb34a"/><path d="M141.26,69.92a.16.16,0,0,0,0,0q0,.79-.06,1.65t0,1.75q0,.89,0,1.75v1.65a3.62,3.62,0,0,0,.71.09h.79l.81,0a5.8,5.8,0,0,1,.77,0,5.4,5.4,0,0,0,1.27-.45,3.72,3.72,0,0,0,1-.73,3.59,3.59,0,0,0,.68-1,4.25,4.25,0,0,0,.34-1.32,3.88,3.88,0,0,0-.22-1.37,2.72,2.72,0,0,0-.62-1,3,3,0,0,0-1-.64,5.94,5.94,0,0,0-1.24-.37,9.67,9.67,0,0,0-1.47-.15q-.79,0-1.63,0A.09.09,0,0,0,141.26,69.92Zm1.52,1.37a4.12,4.12,0,0,1,1.86.23,2.07,2.07,0,0,1,1.11,1,2.64,2.64,0,0,1,.09,1.42,1.86,1.86,0,0,1-.59,1,2.43,2.43,0,0,1-1.08.52,4.28,4.28,0,0,1-1.39.06q-.08-1-.08-2.09T142.78,71.29Z" style="fill:#2cb34a"/><path d="M74,41.55q-.09,0,0-.2c.71.21-.14-1.86-.41-2.26A9.56,9.56,0,0,0,71,36.64a18.27,18.27,0,0,0-5.8-2.53v.24c-.29-.12-.44-.27,0-.25a18.57,18.57,0,0,0-2.27-.45,18.72,18.72,0,0,0,.8,7.94,8.81,8.81,0,0,0,3,4.42c.06,0,.32.15.5.27s.38.15.57.24a5.08,5.08,0,0,0,2,.37c-.09-.11-.38-.12-.5-.1a4.71,4.71,0,0,0,2.21-.22c.17-.11.21-.28.39-.38s.17.07.33,0a4.35,4.35,0,0,0,.55-.43c-.34-.2.32-.84.7-.76-.13-.3,0-.49.21-.71s.17.08.29-.08.22-.36,0-.25c0,0,.3-.87.13-.73a.16.16,0,0,1,.18,0,1.14,1.14,0,0,0-.06-.56c.23,0,.21-.5.16-.7C74.24,41.52,74.4,41.65,74,41.55ZM72,46C72.13,45.88,72.11,45.94,72,46Zm2.19-3.85H74C74,41.78,74.18,41.79,74.18,42.12Z" style="fill:#bad982"/><path d="M77.53,21.42a.07.07,0,0,0,0-.07h0l0,.08Z" style="fill:#6cca81"/><path d="M77.24,25.87c-.13,0,.5-1.54.51-1.94,0-.22-.08-.72-.1-1.06.12.25,0,0,.16.11,0-.25-.06-1.51-.38-1.51a2.29,2.29,0,0,0-1.25-1.83c.37,0,.15,0,0-.26a3.43,3.43,0,0,0-1-.82,4.79,4.79,0,0,0-1.22-.48,2.7,2.7,0,0,0-.89,0c0-.58-1.19.26-1.28-.13-2.94.29-5.12,2.72-6.14,5.22v-.1a17.3,17.3,0,0,0-.79,1.68c.31.06-.13.41-.23.62a8.08,8.08,0,0,0-.49,1.51h.18c-.08.26-.21.16-.26.28a8.87,8.87,0,0,0-.27,1.11c-.1.44-.18.89-.26,1.34a18.79,18.79,0,0,0-.24,1.93,25,25,0,0,0,7-.84C72.87,30.06,76.17,28.43,77.24,25.87ZM77.68,24v.25h-.11Q77.49,24,77.68,24Zm0-1.78,0,.22C77.56,22.48,77.54,22.15,77.65,22.26ZM76.4,27l.23-.35C76.61,26.85,76.49,27.28,76.4,27Zm-12-.44-.1-.23Q64.57,26.31,64.37,26.58ZM68.88,19H69C68.67,19.21,69,19.06,68.88,19Zm1.29-.54-.23.09c0-.22.12-.16.24-.22Zm2.28-.21-.17,0a.2.2,0,0,1,.23-.16Zm1.35.08q0-.18.09-.09C74,18.3,73.93,18.33,73.81,18.33Zm1.31.65c0,.08-.25,0-.23,0a.3.3,0,0,1,.23-.11Zm1,.64-.34-.19C75.95,19.18,76.19,19.38,76.14,19.61Z" style="fill:#6cca81"/><path d="M71.15,77.58a9.32,9.32,0,0,0-.58-1,14,14,0,0,0-3.52-3.28c.49-.87,3.58.28,3.88-2.24-.52,2.52-3.66.88-4.23,2-1.26-.87-2.55-1.68-3.62-2.52.7-.91,4.23.34,4.58-2.6-.61,2.91-4.16,1.15-5,2.28-1.46-1.24-2.36-2.57-1.91-4.31,5.42,1.78,11.34-2.86,8.8-7-1.51-2.45-5.24-1.56-7.67-.39a.46.46,0,0,0,.12.23q-.13,0-.21-.15v0a10.64,10.64,0,0,0-1.36.79h0a.26.26,0,0,1-.18.13h0l-.2.16,0,0a.21.21,0,0,1,.18.09.5.5,0,0,1,0,.15h0c.25.26.6.62,1,1V60.9l.07.07h-.06l.31.27h0l0,0,.13.11h0a6.14,6.14,0,0,0,1.78,1.06v0h0l.23.07v.06l.29.05.09,0a.24.24,0,0,1,.12,0,3.14,3.14,0,0,0,1.11,0h0a2.9,2.9,0,0,0,.85-.27l0-.11.28,0a2.28,2.28,0,0,0,.33-.26.35.35,0,0,1,.09-.13l.07,0c.87-1.08.08-2.68-4.67-2.14a16.67,16.67,0,0,1,2.3-.57.42.42,0,0,1,0-.1.26.26,0,0,1,.25.07c6.27-.92,4.34,4.79-.64,5.12-3.76.25-7.77-3-7.78-6.89,0-6,2.62-11.06,3.69-15.69a1.18,1.18,0,0,1-.23.15.86.86,0,0,1-.34.09l-.2.52h.15l-.18.09c-.5,1.31-1.08,2.65-1.66,4h.32c.06.06.08.11.07.15s-.06.07-.13.08l-.23,0h-.14l-.44,1h.11a.19.19,0,0,1-.14.21h-.06c-2.21,5.32-3.91,10.8,0,15.53a8.76,8.76,0,0,0,2.48,2c-.93,3.09,1.13,4.86,3.78,6.55-.49,1-.58,3-2.54,2.84,2,.38,2.29-1.73,2.85-2.64l.06,0,.38.23a33.26,33.26,0,0,1,4.47,3c-.47.73-.31,2.61-2,2.52,1.73.24,1.73-1.72,2.23-2.32a9.59,9.59,0,0,1,1.24,1.36c1.78,2.42,3,6-.16,9.08,2.92-2.45,2.58-5.82,1.4-8.27l0,0c.19-.79,2.57.19,2.8-1.68C73.76,78,71.63,76.89,71.15,77.58ZM60.61,60.09s0,0,0-.08l.06.09Zm.43.52s0-.05,0-.07l.11.12Zm5.82.93v.05h-.05Zm-4.27-1.91v0l-.16,0Zm.41-.2h0l.1,0S63,59.43,63,59.43ZM58.35,46.18h.23v.25h-.23Zm-.53,1.26h.25c0-.12,0-.19,0-.21a.67.67,0,0,1,.24,0v.23h-.28a.44.44,0,0,1,0,.14.21.21,0,0,1-.23.14Z" style="fill:#2cb34a"/>
    </symbol>
    <symbol id="luckyHerbsMissionLogo">
        <title>luckyherbs-misson-logo</title>
        <g style="isolation:isolate"><g id="lucky_herbs_herbal_supplements_by_lucky_vitmain" data-name="lucky herbs herbal supplements by lucky vitmain"><rect width="204" height="100" style="fill:none"/><path d="M2.3,55.59a15.65,15.65,0,1,0,31.31,0Z" style="fill:#6cca81"/><path d="M2.21,43.73a2.67,2.67,0,0,1,.4,0A2.67,2.67,0,0,0,2.21,43.73Z" style="fill:#2cb34a"/><path d="M2.76,43.71a2.55,2.55,0,0,1,.35,0A2.55,2.55,0,0,0,2.76,43.71Z" style="fill:#2cb34a"/><path d="M.76,44.46a2.61,2.61,0,0,0,0,3.69l6,6h3.7L.77,44.45Z" style="fill:#2cb34a"/><path d="M1.25,44.08a2.61,2.61,0,0,1,.38-.2A2.61,2.61,0,0,0,1.25,44.08Z" style="fill:#2cb34a"/><path d="M.86,44.38a2.65,2.65,0,0,1,.31-.25A2.65,2.65,0,0,0,.86,44.38Z" style="fill:#2cb34a"/><path d="M1.7,43.86a2.59,2.59,0,0,1,.41-.12A2.59,2.59,0,0,0,1.7,43.86Z" style="fill:#2cb34a"/><path d="M3.3,43.8a2.48,2.48,0,0,1,.29.09A2.47,2.47,0,0,0,3.3,43.8Z" style="fill:#2cb34a"/><path d="M3.85,44l.19.1Z" style="fill:#2cb34a"/><path d="M4,44.12a2.58,2.58,0,0,1,.41.33A2.58,2.58,0,0,0,4,44.12Z" style="fill:#fff;opacity:0.30000000000000004;mix-blend-mode:screen"/><path d="M1.18,44.12l.07,0Z" style="fill:#fff;opacity:0.30000000000000004;mix-blend-mode:screen"/><path d="M3.11,43.74l.19.06Z" style="fill:#fff;opacity:0.30000000000000004;mix-blend-mode:screen"/><path d="M.77,44.45h0l.1-.08Z" style="fill:#fff;opacity:0.30000000000000004;mix-blend-mode:screen"/><path d="M2.11,43.74h0Z" style="fill:#fff;opacity:0.30000000000000004;mix-blend-mode:screen"/><path d="M2.61,43.69h0Z" style="fill:#fff;opacity:0.30000000000000004;mix-blend-mode:screen"/><path d="M3.59,43.88a2.58,2.58,0,0,1,.26.14A2.58,2.58,0,0,0,3.59,43.88Z" style="fill:#fff;opacity:0.30000000000000004;mix-blend-mode:screen"/><path d="M1.63,43.88l.07,0Z" style="fill:#fff;opacity:0.30000000000000004;mix-blend-mode:screen"/><path d="M4.45,44.46A2.58,2.58,0,0,0,4,44.12L3.85,44a2.58,2.58,0,0,0-.26-.14,2.48,2.48,0,0,0-.29-.09l-.19-.06a2.55,2.55,0,0,0-.35,0H2.61a2.67,2.67,0,0,0-.4,0h-.1a2.59,2.59,0,0,0-.41.12l-.07,0a2.61,2.61,0,0,0-.38.2l-.07,0a2.65,2.65,0,0,0-.31.25l-.1.08,9.67,9.67h3.68Z" style="fill:#2cb34a"/><path d="M4.45,44.46A2.58,2.58,0,0,0,4,44.12L3.85,44a2.58,2.58,0,0,0-.26-.14,2.48,2.48,0,0,0-.29-.09l-.19-.06a2.55,2.55,0,0,0-.35,0H2.61a2.67,2.67,0,0,0-.4,0h-.1a2.59,2.59,0,0,0-.41.12l-.07,0a2.61,2.61,0,0,0-.38.2l-.07,0a2.65,2.65,0,0,0-.31.25l-.1.08,9.67,9.67h3.68Z" style="fill:#6cca81"/><path d="M14.92,28.79a8.15,8.15,0,0,0-6.27-3.7,5.24,5.24,0,0,0-2.75.56l-1,.54C1.7,27.86,1.13,33,2.39,35.41c3.76,7.12,13.34,10.08,13.34,10.08S18.7,35.93,14.92,28.79Z" style="fill:#cee4a7"/><path d="M31.83,41.79c1.72-1.55,2.79-5.85.73-8.14l-.65-.73a4.48,4.48,0,0,0-2-1.27,7,7,0,0,0-6.12,1.11c-5.14,4.61-5.59,13.15-5.59,13.15S26.71,46.38,31.83,41.79Z" style="fill:#6cca81"/><path d="M29,53.76C25.22,49,17.74,48.18,17.74,48.18A22.5,22.5,0,0,0,18,54.12H29.24A3.31,3.31,0,0,0,29,53.76Z" style="fill:#bad982"/><path d="M29.63,55.59H17.95V71.25A15.65,15.65,0,0,0,33.6,55.59Z" style="fill:#2cb34a"/><path d="M49.47,48.07a1.48,1.48,0,0,0,.81-.22,1.42,1.42,0,0,0,.49-1,1.78,1.78,0,0,1,.33-.9.69.69,0,0,1,.45-.16.57.57,0,0,1,.39.2.73.73,0,0,1,.2.54,16,16,0,0,0,.15,2.18q0,.68-.65.61a12.28,12.28,0,0,0-1.32-.05H40.55q-1.15,0-1.15-.6,0-.39.21-.5a1.54,1.54,0,0,1,.63-.12q.82-.05,1-.43a1.85,1.85,0,0,0,.2-.87V33.63a1.57,1.57,0,0,0-.23-.83,1.71,1.71,0,0,0-1-.61,2.1,2.1,0,0,1-.92-.44.74.74,0,0,1-.16-.46.39.39,0,0,1,.19-.29.73.73,0,0,1,.45-.14,3.79,3.79,0,0,1,.85.23,4.5,4.5,0,0,0,1.48.23,6.92,6.92,0,0,0,1.92-.26,5.83,5.83,0,0,1,1.16-.26.72.72,0,0,1,.51.21.61.61,0,0,1,.22.45.5.5,0,0,1-.13.35,1.43,1.43,0,0,1-.68.25,2.3,2.3,0,0,0-1,.38,1.75,1.75,0,0,0-.49,1.4V46.4a2.13,2.13,0,0,0,.3,1.3,1,1,0,0,0,.86.36Z" style="fill:#515555"/><path d="M56.68,43.91a1.28,1.28,0,0,0,.47,1,1.66,1.66,0,0,0,1.11.4A1.94,1.94,0,0,0,59.2,45a1.87,1.87,0,0,1,.79-.32q.25,0,.25.31t-.93.9a4.13,4.13,0,0,1-2.11.54,2.43,2.43,0,0,1-1.6-.56,2,2,0,0,1-.79-1.25c-.07-.46-.11-1.67-.11-4.65q0-.6-1.23-.88-.54-.11-.54-.42a.36.36,0,0,1,.17-.32.73.73,0,0,1,.42-.12l.74.1a7.49,7.49,0,0,0,1.11.1,1.88,1.88,0,0,0,.48-.09,2.13,2.13,0,0,1,.4-.09q.41,0,.42,1.71Zm4.13-3.77a1,1,0,0,0-1-1,1.67,1.67,0,0,1-.74-.22.43.43,0,0,1-.15-.34q0-.47.72-.47a4.29,4.29,0,0,1,.76.13,5.49,5.49,0,0,0,1.23.13,2.4,2.4,0,0,0,.44-.05l.33-.05q.34,0,.34.76c0,3.85,0,5.39.1,5.63s.41.44,1,.59a1.73,1.73,0,0,1,.59.23.31.31,0,0,1,.11.24.38.38,0,0,1-.21.31.94.94,0,0,1-.53.14,5.88,5.88,0,0,1-.68-.09,5.55,5.55,0,0,0-.77-.09,2.37,2.37,0,0,0-.58.09,2.27,2.27,0,0,1-.45.09A.42.42,0,0,1,61,46a1.81,1.81,0,0,1-.13-.74q0-.59,0-2.27Z" style="fill:#515555"/><path d="M74.6,47.43c.23,0,.35.2.35.59s-.42.57-1.27,1a6.21,6.21,0,0,1-2.66.59,5.84,5.84,0,0,1-3.91-1.39,4.39,4.39,0,0,1-1.63-3.49A4.34,4.34,0,0,1,67,41.41,5.26,5.26,0,0,1,70.72,40a8.64,8.64,0,0,1,2.62.47q1.47.48,1.47.86a6.89,6.89,0,0,0,.08,1.14q.08.44.08.5,0,.56-.52.56t-.61-.75a2.07,2.07,0,0,0-.92-1.2,3.17,3.17,0,0,0-1.73-.45,3.61,3.61,0,0,0-2.4,1,3.38,3.38,0,0,0-1.11,2.71,3.26,3.26,0,0,0,1.24,2.64,4,4,0,0,0,2.59,1,4.4,4.4,0,0,0,1-.13,4.24,4.24,0,0,0,1.18-.51A2.23,2.23,0,0,1,74.6,47.43Z" style="fill:#515555"/><path d="M85.78,47.57a.87.87,0,0,0,.68.31q.24,0,.56-.38c.22-.25.39-.38.53-.38a.43.43,0,0,1,.34.18.6.6,0,0,1,.15.38,1.73,1.73,0,0,1-.69,1.25,2.05,2.05,0,0,1-1.33.62A2.48,2.48,0,0,1,84.65,49a15.37,15.37,0,0,1-2.31-2.36q-1.1-1.3-1.33-1.3t-.34.24l-.54.51a1,1,0,0,0-.32.41,6.72,6.72,0,0,0,0,.89A1,1,0,0,0,80,48a1.09,1.09,0,0,0,.75.32,1.25,1.25,0,0,1,.71.24.59.59,0,0,1,.13.39.4.4,0,0,1-.11.3.79.79,0,0,1-.5.11,9.64,9.64,0,0,1-1.12-.09,9.65,9.65,0,0,0-1.12-.09,8.11,8.11,0,0,0-1,.09,8.1,8.1,0,0,1-1,.09q-.79,0-.79-.48a.56.56,0,0,1,.13-.37,1.37,1.37,0,0,1,.76-.21,1,1,0,0,0,.82-.38,1.4,1.4,0,0,0,.19-.74V33.48a1,1,0,0,0-.18-.6,1.41,1.41,0,0,0-.81-.4,1.74,1.74,0,0,1-.77-.3.53.53,0,0,1-.14-.37.37.37,0,0,1,.21-.32.83.83,0,0,1,.43-.13,2.84,2.84,0,0,1,.65.11,2.93,2.93,0,0,0,.69.11,3.43,3.43,0,0,0,.69-.09,3.43,3.43,0,0,1,.55-.09.51.51,0,0,1,.38.13,1.3,1.3,0,0,1,.23.67,17.65,17.65,0,0,1,.08,2.16v9.89c0,.21.08.31.23.31s.44-.3,1-.89L82.66,42q.14-.12.14-.21c0-.05-.1-.12-.3-.2a.4.4,0,0,1-.3-.37.56.56,0,0,1,.12-.39.72.72,0,0,1,.51-.13,7.35,7.35,0,0,1,.76.06c.34,0,.6.06.78.06a9.82,9.82,0,0,0,1-.08,9.74,9.74,0,0,1,1-.08,1.27,1.27,0,0,1,.63.15.47.47,0,0,1,.27.42q0,.49-.93.49a5.33,5.33,0,0,0-1.88.22,4.08,4.08,0,0,0-1.16.87q-.65.65-.73.74a.39.39,0,0,0-.08.26.9.9,0,0,0,.29.62Z" style="fill:#515555"/><path d="M95.11,47.54a.28.28,0,0,1,.32.31q0,.39-1,1a4,4,0,0,1-2,.58A2.89,2.89,0,0,1,91,48.94a2,2,0,0,1-1-1.14,10.39,10.39,0,0,1-.19-2.46l0-2.52a1.08,1.08,0,0,0-.9-1.2,2.27,2.27,0,0,1-.67-.2.42.42,0,0,1-.14-.37.55.55,0,0,1,.11-.35.36.36,0,0,1,.3-.15,4.27,4.27,0,0,1,.72.12,4.42,4.42,0,0,0,.69.12,4.5,4.5,0,0,0,.73-.12,4.74,4.74,0,0,1,.69-.12.4.4,0,0,1,.21.09.31.31,0,0,1,.14.19q0,.1.05,1.74t0,3a10.89,10.89,0,0,0,.07,1.52,1.15,1.15,0,0,0,.47.76,1.69,1.69,0,0,0,1,.29,2,2,0,0,0,1-.31A1.9,1.9,0,0,1,95.11,47.54Zm2.34-7q.44,0,.44.61,0,1.22,0,3.55t0,3.14a9,9,0,0,1-.65,4,4.45,4.45,0,0,1-1.4,1.69,3.9,3.9,0,0,1-3.28.21q-.53-.26-.53-.48a.36.36,0,0,1,.1-.22.3.3,0,0,1,.24-.12,1.44,1.44,0,0,1,.41.13,1.83,1.83,0,0,0,.7.13,2.37,2.37,0,0,0,1.37-.47,2.12,2.12,0,0,0,.87-1.3A11.61,11.61,0,0,0,96,49q0-5.88,0-6.55T95,41.63q-.9-.14-.9-.6t.64-.47a6.93,6.93,0,0,1,.77.08,7.18,7.18,0,0,0,.93.07,2.39,2.39,0,0,0,.58-.07A2.08,2.08,0,0,1,97.45,40.56Z" style="fill:#515555"/><path d="M43.77,67.52a1.24,1.24,0,0,0,.21.7,1.55,1.55,0,0,0,.85.52,2,2,0,0,1,.77.36.53.53,0,0,1,.13.36c0,.12-.09.23-.26.34a1.23,1.23,0,0,1-.66.16,7.18,7.18,0,0,1-1-.12,7.31,7.31,0,0,0-1-.12,6.88,6.88,0,0,0-1,.11,6.71,6.71,0,0,1-.93.11q-.9,0-.9-.55a.48.48,0,0,1,.15-.42,1.59,1.59,0,0,1,.56-.17,1.26,1.26,0,0,0,.68-.33,1.59,1.59,0,0,0,.27-1.11V54.17a1.58,1.58,0,0,0-.19-.77,1.24,1.24,0,0,0-.81-.51,1.58,1.58,0,0,1-.75-.33.63.63,0,0,1-.13-.39.4.4,0,0,1,.19-.3.71.71,0,0,1,.45-.15,8.17,8.17,0,0,1,1.19.11,7.85,7.85,0,0,0,1.11.11,7.2,7.2,0,0,0,1-.09,7.92,7.92,0,0,1,1.18-.09c.4,0,.6.17.6.5a.49.49,0,0,1-.16.43,1.83,1.83,0,0,1-.58.2,1.41,1.41,0,0,0-.71.38,1.65,1.65,0,0,0-.28,1.13Zm11.24,0a1.21,1.21,0,0,0,1.07,1.28,2,2,0,0,1,.77.32.5.5,0,0,1,.12.34c0,.12-.09.23-.26.34A1.23,1.23,0,0,1,56,70a7.2,7.2,0,0,1-1-.12,7.32,7.32,0,0,0-1-.12,6.88,6.88,0,0,0-1,.11,6.71,6.71,0,0,1-.93.11q-.9,0-.9-.55a.47.47,0,0,1,.16-.42,1.69,1.69,0,0,1,.58-.17,1.31,1.31,0,0,0,.7-.33,1.57,1.57,0,0,0,.28-1.11v-5a.82.82,0,0,0-.25-.63,1.81,1.81,0,0,0-1.11-.23h-6a1.72,1.72,0,0,1-.9-.15.53.53,0,0,1-.19-.45.46.46,0,0,1,.26-.43,2.22,2.22,0,0,1,.94-.14h6.46a.87.87,0,0,0,.63-.16.93.93,0,0,0,.14-.59c0-1.84,0-5.52-.07-5.91s-.4-.67-1-.84a1.27,1.27,0,0,1-.63-.32.65.65,0,0,1-.12-.39.4.4,0,0,1,.19-.3.71.71,0,0,1,.45-.15,8.17,8.17,0,0,1,1.19.11,7.85,7.85,0,0,0,1.11.11,7.2,7.2,0,0,0,1-.09,7.92,7.92,0,0,1,1.18-.09c.4,0,.6.17.6.5a.48.48,0,0,1-.15.42,1.66,1.66,0,0,1-.58.18,1.32,1.32,0,0,0-.71.36A1.71,1.71,0,0,0,55,54.37Z" style="fill:#515555"/><path d="M65.57,64.84a.56.56,0,0,0,.39-.1.51.51,0,0,0,.1-.36,2.64,2.64,0,0,0-.75-1.79,2.87,2.87,0,0,0-2.25-.83,3.3,3.3,0,0,0-2.15,1,3.56,3.56,0,0,0-1.11,2.81A3.16,3.16,0,0,0,61,67.93,3.82,3.82,0,0,0,63.6,69,5.05,5.05,0,0,0,66,68.3a1.91,1.91,0,0,1,.64-.26.49.49,0,0,1,.36.13.42.42,0,0,1,.13.32q0,.46-1.39,1.11a6.63,6.63,0,0,1-2.85.65,5,5,0,0,1-3.65-1.48,4.81,4.81,0,0,1-1.48-3.53A4,4,0,0,1,59.36,62,5.61,5.61,0,0,1,63,60.71a5.25,5.25,0,0,1,3.93,1.34,4.45,4.45,0,0,1,1.3,3.21q0,.4-.2.5a2,2,0,0,1-.74.09H61.54c-.47,0-.7-.17-.7-.52s.24-.5.73-.5Z" style="fill:#515555"/><path d="M73.26,63.67l0,.35a6,6,0,0,0,.59-1.19,5.51,5.51,0,0,1,1-1.69,1.54,1.54,0,0,1,1.07-.5,1.14,1.14,0,0,1,.65.15.42.42,0,0,1,.22.34.84.84,0,0,1-.15.53,3,3,0,0,1-.53.49,7,7,0,0,0-2.31,2.95A8,8,0,0,0,73.18,68a1.3,1.3,0,0,0,.14.73A1.26,1.26,0,0,0,74,69a1.74,1.74,0,0,1,.72.28.47.47,0,0,1,.16.36q0,.37-.44.37a5.87,5.87,0,0,1-1-.11,7.52,7.52,0,0,0-1.34-.11,4.31,4.31,0,0,0-1,.11,3.88,3.88,0,0,1-.63.11A1.06,1.06,0,0,1,70,69.9a.39.39,0,0,1-.21-.34.38.38,0,0,1,.12-.27,2.09,2.09,0,0,1,.67-.31,1.39,1.39,0,0,0,.68-.37,3,3,0,0,0,.13-1.17V63.63A1.26,1.26,0,0,0,71.2,63a1.13,1.13,0,0,0-.68-.44,1.51,1.51,0,0,1-.6-.27.39.39,0,0,1-.09-.25q0-.42.59-.42a4,4,0,0,1,.55.06,3.85,3.85,0,0,0,.53.06,2.67,2.67,0,0,0,.41-.05,3.92,3.92,0,0,1,.67-.05q.68,0,.68,1.44Z" style="fill:#515555"/><path d="M81.4,69.33a.82.82,0,0,0-.15.26.67.67,0,0,1-.18.27.62.62,0,0,1-.38.09,3.32,3.32,0,0,1-.67-.11,3.41,3.41,0,0,0-.72-.11,3.58,3.58,0,0,0-.73.11,3.51,3.51,0,0,1-.71.11.87.87,0,0,1-.5-.15.46.46,0,0,1-.21-.4.37.37,0,0,1,.12-.28,2.53,2.53,0,0,1,.87-.26,1.47,1.47,0,0,0,1-.58,1.86,1.86,0,0,0,.27-1V54.38a1.83,1.83,0,0,0-.49-1.45,1.72,1.72,0,0,0-.88-.33,1.36,1.36,0,0,1-.73-.23.52.52,0,0,1-.12-.35.39.39,0,0,1,.24-.34,1,1,0,0,1,.47-.13,3.82,3.82,0,0,1,.74.11,3.77,3.77,0,0,0,.73.11,3.62,3.62,0,0,0,.64-.08,3.53,3.53,0,0,1,.61-.08.68.68,0,0,1,.55.21,1.24,1.24,0,0,1,.18.77V67.26a1.69,1.69,0,0,0,1,1.39,3.4,3.4,0,0,0,1.81.61,3.47,3.47,0,0,0,2.07-.83,3.24,3.24,0,0,0,1.09-2.75,3.92,3.92,0,0,0-.86-2.55,2.76,2.76,0,0,0-2.24-1.06,2.34,2.34,0,0,0-1.08.29,2.22,2.22,0,0,1-.73.29.48.48,0,0,1-.31-.13.36.36,0,0,1-.16-.26q0-.56,1-1a4.3,4.3,0,0,1,1.7-.43A4.48,4.48,0,0,1,88,62.31a5.08,5.08,0,0,1,1.37,3.59,4.08,4.08,0,0,1-1.44,3.21,5.07,5.07,0,0,1-3.46,1.26,6,6,0,0,1-2.61-.83Z" style="fill:#515555"/><path d="M93.44,62.66a.9.9,0,0,0,.27.59,8.18,8.18,0,0,0,1.72,1.06,5.46,5.46,0,0,1,2,1.5,2.69,2.69,0,0,1,.51,1.55,2.36,2.36,0,0,1-1.06,2,4.63,4.63,0,0,1-2.74.75,4.55,4.55,0,0,1-1.85-.41q-.92-.41-.92-.82t0-.84q-.05-.5-.05-.8,0-.62.57-.62a.43.43,0,0,1,.3.14,3.53,3.53,0,0,1,.44.92,2.19,2.19,0,0,0,.73,1.07,1.69,1.69,0,0,0,1,.29,1.57,1.57,0,0,0,1.12-.44,1.49,1.49,0,0,0,.46-1.13,1.33,1.33,0,0,0-.31-.85,5.54,5.54,0,0,0-1.71-1.06A4.5,4.5,0,0,1,92,64.31a2.43,2.43,0,0,1-.42-1.37,2,2,0,0,1,.91-1.64,3.49,3.49,0,0,1,2.11-.66,5.66,5.66,0,0,1,2,.35q1,.35,1,.74a4.29,4.29,0,0,0,0,.59,4.13,4.13,0,0,1,.05.56.82.82,0,0,1-.13.46.39.39,0,0,1-.34.2.51.51,0,0,1-.41-.15,1.42,1.42,0,0,1-.22-.51,1.23,1.23,0,0,0-.32-.58,2.23,2.23,0,0,0-.6-.39,1.92,1.92,0,0,0-.83-.18,1.5,1.5,0,0,0-.88.29A.81.81,0,0,0,93.44,62.66Z" style="fill:#515555"/><path d="M64.65,48.47a.65.65,0,0,1-.65.65H54.91a.65.65,0,0,1-.65-.65h0a.65.65,0,0,1,.65-.65H64a.65.65,0,0,1,.65.65Z" style="fill:#bad982"/><path d="M117.86,44.92h-3.09v2.93h-1.4v-7h1.4v2.75h3.09V40.83h1.4v7h-1.4Z" style="fill:#2cb34a"/><path d="M122.53,40.83h5v1.29h-3.59V43.6h2.7V44.9h-2.7v1.66h3.63v1.29h-5Z" style="fill:#2cb34a"/><path d="M133,45.39h-1v2.47h-1.4v-7h2.49c1.74,0,2.75.88,2.75,2.31a1.92,1.92,0,0,1-1.43,2l1.66,2.74h-1.66Zm.19-1.12c.76,0,1.23-.32,1.23-1.05s-.44-1.1-1.24-1.1H132v2.16Z" style="fill:#2cb34a"/><path d="M143,44.11a1.74,1.74,0,0,1,1.38,1.73c0,1.11-.8,2-2.48,2H139v-7h2.86a1.93,1.93,0,0,1,2.13,1.8,1.5,1.5,0,0,1-1,1.45Zm-1.41-.43a.85.85,0,0,0,1-.84c0-.49-.37-.84-1-.84h-1.19v1.69Zm.18,3c.71,0,1.13-.36,1.13-1a1,1,0,0,0-1.13-1h-1.41v2Z" style="fill:#2cb34a"/><path d="M148.85,46.45l-.53,1.41h-1.48l2.81-7h1.58l2.81,7h-1.5L152,46.45Zm2.09-2.81c-.24-.6-.48-1.22-.49-1.23h0s-.25.62-.49,1.23l-.59,1.55h2.19Z" style="fill:#2cb34a"/><path d="M156.85,40.83h1.4v5.73h3.33v1.29h-4.73Z" style="fill:#2cb34a"/><path d="M114.37,56.61c.11.69.72,1.05,1.59,1.05s1.23-.29,1.23-.87c0-.83-.94-.82-1.82-1s-2.15-.63-2.15-2.1,1-2.07,2.57-2.07a2.58,2.58,0,0,1,2.76,1.81l-1.34.35a1.33,1.33,0,0,0-1.46-.92c-.77,0-1.11.3-1.11.79,0,.7.74.83,1.73,1s2.23.6,2.23,2.14-1,2.1-2.65,2.1c-1.2,0-2.58-.37-2.92-1.92Z" style="fill:#2cb34a"/><path d="M127.44,55.7c0,2.07-1.14,3.19-3,3.19s-3-1.12-3-3.19v-4h1.42v3.92c0,1.32.52,1.92,1.58,1.92s1.58-.6,1.58-1.92V51.73h1.39Z" style="fill:#2cb34a"/><path d="M133.1,51.73c1.69,0,2.71.85,2.71,2.35s-1,2.34-2.71,2.34H132v2.34h-1.4v-7Zm0,3.46c.86,0,1.27-.41,1.27-1.09S134,53,133.14,53H132V55.2Z" style="fill:#2cb34a"/><path d="M141.15,51.73c1.69,0,2.71.85,2.71,2.35s-1,2.34-2.71,2.34h-1.06v2.34h-1.4v-7Zm0,3.46c.86,0,1.27-.41,1.27-1.09S142,53,141.19,53h-1.1V55.2Z" style="fill:#2cb34a"/><path d="M146.75,51.73h1.4v5.73h3.33v1.29h-4.73Z" style="fill:#2cb34a"/><path d="M154.45,51.73h5V53h-3.59v1.48h2.7v1.31h-2.7v1.66h3.63v1.29h-5Z" style="fill:#2cb34a"/><path d="M168.06,56.56c0-1.47,0-2.5,0-2.51h0s-.32.61-.76,1.4L166.42,57h-.79l-.88-1.56c-.45-.8-.75-1.41-.76-1.42h0s0,1,0,2.51v2.2h-1.4v-7h1.49l2,3.52h0l2-3.52h1.43v7h-1.4Z" style="fill:#2cb34a"/><path d="M172.73,51.73h5V53h-3.59v1.48h2.7v1.31h-2.7v1.66h3.63v1.29h-5Z" style="fill:#2cb34a"/><path d="M182.26,54.06h0s0,.85,0,1.75v3h-1.4v-7h1.42l3.36,4.63h0s0-.88,0-1.66v-3H187v7h-1.42Z" style="fill:#2cb34a"/><path d="M193.65,53v5.73h-1.4V53H190V51.73h5.87V53Z" style="fill:#2cb34a"/><path d="M199.76,56.61c.11.69.72,1.05,1.59,1.05s1.23-.29,1.23-.87c0-.83-.94-.82-1.82-1s-2.15-.63-2.15-2.1,1-2.07,2.57-2.07a2.58,2.58,0,0,1,2.76,1.81l-1.34.35a1.33,1.33,0,0,0-1.46-.92c-.77,0-1.11.3-1.11.79,0,.7.74.83,1.73,1s2.23.6,2.23,2.14-1,2.1-2.65,2.1c-1.2,0-2.58-.37-2.92-1.92Z" style="fill:#2cb34a"/><path d="M119.42,67.07c0,.54,0,.37-.63,1a2.17,2.17,0,0,1-1.73.23,2,2,0,0,1,.17.81,1.91,1.91,0,0,1-2,2c-2.06,0-1.63-2.38-1.63-4.67,0-1.18.07-2.45.15-3.3.07-.67-.12-1.13.33-1.13s.6.3.6,1.19c0,1.13-.28,5-.28,5.33,0,1.51.47,1.69,1.18,1.69.56,0,.82-.64.82-1.13a2.2,2.2,0,0,0-.15-.95c-.3-.05-1-.13-1-.58s.32-.39.73-.39a15,15,0,0,0,2,.34c.56,0,.72-.89.93-.89A.56.56,0,0,1,119.42,67.07Z" style="fill:#2cb34a"/><path d="M123.56,70.08c.41-.34.43-.53.68-.53s.31.6.07.86a17.85,17.85,0,0,1-1.39,1.24s.3,3-1.45,3.12a1.41,1.41,0,0,1-1.62-1.58c0-1.12,1.13-1.66,2.09-2.2,0-.25,0-.74,0-.91a1.83,1.83,0,0,1-1.42.85,1.79,1.79,0,0,1-1.71-1.25,7.5,7.5,0,0,1-.15-1.5c0-.54-.26-1.83.63-1.83.54,0,.35.75.32,1.13,0,.67-.1,1-.1,1.49a1,1,0,0,0,1,1.08c.81-.05,1.55-1.49,1.55-2.59,0-.76-.09-1.07.44-1.07s.39.58.39,1.39c0,.59-.13,1.82-.11,2.89A4,4,0,0,0,123.56,70.08ZM122,71.91c-.47.29-1.39.5-1.3,1.46a.62.62,0,0,0,.76.53C122.14,73.79,122,72.81,122,71.91Z" style="fill:#2cb34a"/><path d="M133.5,70c0,.67-.76,1.18-1.86,1.18a6.85,6.85,0,0,1-2.6-.55c-.29.63-.56,1-1.37,1-.46,0-1.51-.21-1.59-.82s.72-1.37,1.75-1.37a2.27,2.27,0,0,1,.34,0c0-1-.67-2.36-.67-3.54a2.82,2.82,0,0,1,2.77-3.13,1.86,1.86,0,0,1,2,1.93,2.07,2.07,0,0,1-1.94,2.18c-.25,0,0-.72.21-.79a1.87,1.87,0,0,0,.87-1.55c0-1-1-1-1.64-.85a2.12,2.12,0,0,0-1.2,2.18c0,1.3.57,2.64.6,3.75v.15a7.7,7.7,0,0,0,2.56.59c.76,0,1.11-.8,1.22-.91S133.5,69.6,133.5,70Zm-5.37.15c-.44-.58-1.34.09-1.28.37s.53.39.77.39S128.28,70.34,128.13,70.14Z" style="fill:#2cb34a"/><path d="M136.15,70.14a2,2,0,0,1-3,.24,3.15,3.15,0,0,1-.6-2.11c0-.64,0-1.76.63-1.76.41,0,.43.34.43.75s-.15.76-.15,1.45c0,.47.28,1.36,1.09,1.36a1.3,1.3,0,0,0,1.18-1.26c.12-1.45-.08-2.35.59-2.45.42-.06.45.3.45.69s-.08,1.5-.08,1.81c0,.81.5,1.35.78,1.36,1.09,0,1.18-.94,1.39-1.11s.54.19.54.47a1,1,0,0,1-.32.69,2.56,2.56,0,0,1-1.61.74A1.5,1.5,0,0,1,136.15,70.14Z" style="fill:#2cb34a"/><path d="M143.13,69.09a.48.48,0,0,1,.46.46,1.12,1.12,0,0,1-.44.71,3.55,3.55,0,0,1-2.25.81,2.25,2.25,0,0,1-2.45-2.32,2.39,2.39,0,0,1,2.11-2.45,1.22,1.22,0,0,1,1.32,1.13c0,.29-.17.25-.5.25s-.24-.64-.55-.64a1.54,1.54,0,0,0-1.5,1.5c-.09,1.47.9,1.81,1.78,1.81.69,0,1.47,0,1.77-1.45C142.93,68.71,142.95,69.09,143.13,69.09Z" style="fill:#2cb34a"/><path d="M149,69.55a1.11,1.11,0,0,1-.39.78,2.43,2.43,0,0,1-1.91.74,2.21,2.21,0,0,1-2.18-1.91c0-.36.31-.42.52-.46.49-.09,1.48-.45,1.29-1.42a.21.21,0,0,0-.2-.19,3.14,3.14,0,0,0-2.28,2.08c-.08.36.21,1.71-.34,1.71-.29,0-.69-.09-.69-.8,0-.24.07-1.38.07-2.72,0-2.6-.08-3.31-.08-3.84a1.59,1.59,0,0,1,1.37-1.71,1,1,0,0,1,.78.41,2.2,2.2,0,0,1,.42,1.27,8.19,8.19,0,0,1-1.1,3.77c1-1,1.52-1,2.1-1s.89.44.89,1.08a1.43,1.43,0,0,1-.28.87,3.46,3.46,0,0,1-1.73,1,2.09,2.09,0,0,0,1.5,1.11c1.48.11,1.72-.84,1.66-1.54C148.41,68.54,149,69.28,149,69.55ZM144.67,64c.14-1.19-.49-1.48-.58-1.48-.92,0-.47,4.13-.48,4.82C143.62,66.78,144.47,65.71,144.67,64Z" style="fill:#2cb34a"/><path d="M162.93,63.51c0,.41-.39.73-1.22.95.15,2.47-1.35,6.48-3.31,6.48-2.66,0-3.3-4-3.3-6.1,0-1.62.18-1.94.78-1.94.24,0,.24.21.24.8,0,.17-.08.84-.09,1.44,0,1.59.61,3.78,1.92,4.73a1,1,0,0,0,.46.17c1.14.11,2.63-3.84,2.5-5.58-.52,0-1-.17-1.22-.76a.67.67,0,0,1,.71-1,1.44,1.44,0,0,1,1.22.77,5.11,5.11,0,0,1,.91-.4C162.85,63.09,162.93,63.15,162.93,63.51Z" style="fill:#2cb34a"/><path d="M166.43,69.56a.85.85,0,0,1-.1.39,2.35,2.35,0,0,1-1.9,1c-1.32,0-1.89-1.33-1.89-2.82a3.87,3.87,0,0,1,.31-1.44.66.66,0,0,1,.64-.37c.44,0-.35.93-.18,2.13.07.49.39,1.7,1.17,1.7a1.46,1.46,0,0,0,1.43-1.11C166.24,68.27,166.43,69.31,166.43,69.56Zm-2.64-4a.57.57,0,0,1-.59-.55.74.74,0,0,1,.75-.7.51.51,0,0,1,.54.53A.69.69,0,0,1,163.79,65.56Z" style="fill:#2cb34a"/><path d="M169,69.09c0-.32.45.25.45.45a1.74,1.74,0,0,1-1.9,1.49c-1.69,0-2-1.37-1.81-3.58-.62-.2-.85-.43-.83-.71,0-.44.63-.22,1-.22h.17c.2-1.1.5-3.24,1.38-3.24.49,0,0,1.12-.14,1.81s-.28,1.55-.28,1.55l1.12-.08c.31,0,.71-.11.67.21-.05.51-.68.74-1.86.79a1.64,1.64,0,0,0-.17.36c-.13,1.11-.31,2.42,1,2.42A1.58,1.58,0,0,0,169,69.09Z" style="fill:#2cb34a"/><path d="M175.24,69.56a1,1,0,0,1-.32.69,2.61,2.61,0,0,1-1.74.78,1.44,1.44,0,0,1-1.3-.63,2.18,2.18,0,0,1-1.4.56,1.56,1.56,0,0,1-1.61-1.62,3,3,0,0,1,2.7-2.93,1.41,1.41,0,0,1,.93.36c.25,0,.73.05.73.32a11.8,11.8,0,0,1-.32,2.23c-.08.3-.5,1,.26,1,1,0,1.43-1,1.9-1C175.39,69.3,175.24,69.35,175.24,69.56Zm-3.41-.13a2.33,2.33,0,0,0,.33-1.61c0-.17-.36-.55-.52-.55a2.1,2.1,0,0,0-1.9,2c0,.32.24.87.59.89A1.72,1.72,0,0,0,171.82,69.44Z" style="fill:#2cb34a"/><path d="M183.56,69.6a.71.71,0,0,1-.09.34,2.61,2.61,0,0,1-2,1.1c-.81,0-1.19-.29-1.19-1.1,0-.25.2-1.13.2-1.5s.08-1.09-.36-1.09-1.37,1.14-1.42,1.69-.05,1.78-.74,1.78-.42-.41-.42-.79c0-.14.05-.58.05-1.1s-.14-1.12-.46-1.12-1,.7-1.27,1.36c0,.42-.15.92-.15,1.41,0,.32-.1.43-.46.43s-.43-.08-.46-.35c-.07-.49.06-2.12.06-3.32,0-.29-.31-.89.35-.89s.58,1.14.58,1.73c.29-.42.87-1.77,1.41-1.77s.87,1,1,1.69c.34-.49,1-1.64,1.83-1.64A1.4,1.4,0,0,1,181.39,68c0,.61-.26,1.47-.26,1.76s.12.47.3.47c.42,0,1.12-.79,1.32-.95s.11-.24.29-.24A.53.53,0,0,1,183.56,69.6Z" style="fill:#2cb34a"/><path d="M186.51,69.56a.84.84,0,0,1-.1.39,2.34,2.34,0,0,1-1.89,1c-1.32,0-1.72-1.18-1.69-2.67,0-.81.39-2,.74-2s.39.43.39.67-.22,1.17-.22,1.84c0,.49.11,1.26.83,1.29,1,0,.93-1.08,1.42-1.08A.52.52,0,0,1,186.51,69.56Zm-2.76-4.15a.54.54,0,0,1-.57-.53.71.71,0,0,1,.72-.67.49.49,0,0,1,.52.5A.66.66,0,0,1,183.75,65.42Z" style="fill:#2cb34a"/><path d="M191.35,69.27c.14-.1,0,1.82-1.13,1.79-.74,0-1.09-.29-1.09-1.29,0-.62,0-1.56,0-1.95s-.09-.56-.34-.56c-.53,0-1.69,1.52-2.05,2.42,0,1,0,1.24-.59,1.24-.83,0-.31-1.44-.31-3.77,0-.39-.06-.84.38-.84.74,0,.47.94.53,2.09.47-.78,1.35-2.12,2.06-2.12,1,0,1.13.75,1.13,1.36,0,.78,0,.82,0,1.33,0,.25-.14,1.48.26,1.5S191.15,69.43,191.35,69.27Z" style="fill:#2cb34a"/><path d="M153.26,70c.61-.62,1.07,0,.75.32-.49.46-1.39,1.24-1.39,1.24s.3,3-1.45,3.12a1.41,1.41,0,0,1-1.62-1.58c0-1.12,1.13-1.66,2.09-2.2,0-.25,0-.74,0-.91a1.83,1.83,0,0,1-1.42.85,1.79,1.79,0,0,1-1.71-1.25,7.54,7.54,0,0,1-.15-1.5c0-.54-.27-1.83.63-1.83.54,0,.34.76.32,1.13,0,.67-.1,1-.1,1.49A1,1,0,0,0,150.27,70c.81-.05,1.55-1.49,1.55-2.59,0-.76-.09-1.07.44-1.07s.38.58.38,1.4c0,.59-.13,1.82-.11,2.89A3,3,0,0,0,153.26,70Zm-1.53,1.84c-.47.29-1.39.5-1.3,1.46a.62.62,0,0,0,.76.53C151.84,73.76,151.73,72.78,151.73,71.88Z" style="fill:#2cb34a"/><path d="M107,74.92c-.36,0-.4-.32-.4-.68V37.94c0-.36,0-.65.39-.65h0c.36,0,.4.29.4.65v36.3c0,.36,0,.68-.4.68Z" style="fill:#bad982"/></g></g>
    </symbol>
    <symbol id="eductionIcon">
        <title>education-icon</title>
        <path d="M80.52,12h-4V4.64A4.28,4.28,0,0,0,73.3.5,21.48,21.48,0,0,0,68.23,0,44.71,44.71,0,0,0,54.28,2.46,42.4,42.4,0,0,0,41.75,9.55,42.38,42.38,0,0,0,29.22,2.46,44.7,44.7,0,0,0,15.28,0,21.48,21.48,0,0,0,10.2.5,4.28,4.28,0,0,0,7,4.64V12H3.48A3.49,3.49,0,0,0,0,15.5V56.25a3.49,3.49,0,0,0,3.48,3.47H33.89a44.77,44.77,0,0,1,3.78,2.49,8.19,8.19,0,0,0,3.22,1.7h0a4.33,4.33,0,0,0,1.72,0h0a8.19,8.19,0,0,0,3.22-1.7,44.73,44.73,0,0,1,3.78-2.49h30.9A3.49,3.49,0,0,0,84,56.25V15.5A3.49,3.49,0,0,0,80.52,12ZM72.22,50.12s-5.73-.51-16.36,2.35c-8.52,2.29-13.34,7.25-14.11,7.25s-5.59-5-14.11-7.25C17,49.61,11.28,50.12,11.28,50.12V4.64s6.14-1.58,16.59,1.88c4.84,1.61,10.28,5.11,12.66,7.84V51.59a1.23,1.23,0,0,0,2.46,0V14.36c2.38-2.73,7.82-6.23,12.66-7.83C66.09,3.06,72.22,4.64,72.22,4.64Z" style="fill:#6bcaba"/>
    </symbol>
    <symbol id="nutritionIcon">
        <title>nutrition-icon</title>
        <path d="M68.83,25.72c-3.36-15.41-26.84-7-26.84-7s-23.48-8.46-26.83,7c-2,9.38,1.15,41.89,26.83,38C67.69,67.61,70.88,35.1,68.83,25.72ZM27.08,47.41a2,2,0,0,1-1.48,3.24A1.94,1.94,0,0,1,24.15,50c-.18-.21-4.49-5.16-4.49-16,0-8,4.69-11.19,4.89-11.32a2,2,0,0,1,2.15,3.26c-.17.12-3.13,2.28-3.13,8.06C23.56,43.22,27,47.37,27.08,47.41Z" style="fill:#43b02a"/><polygon points="46.64 0 40.3 0 40.3 14.76 43.47 14.76 46.64 0" style="fill:#43b02a"/><path d="M61,4.75c-10.6-1.8-15.63,7.9-15.63,7.9C56.47,15.89,61,4.75,61,4.75Z" style="fill:#43b02a"/><rect width="84" height="64" style="fill:none"/>
    </symbol>
    <symbol id="fitnessIcon">
        <title>fitness-icon</title>
        <rect width="84" height="64" style="fill:none"/><circle cx="55.96" cy="6.17" r="6.17" transform="translate(34.69 58.3) rotate(-74.1)" style="fill:#fac153"/><path d="M59.94,35.45c4.65,0,12.27-3.74,12.27-3.74l-.76-3.14s-11,2.81-12.68-1.42c-.7-1.76-1.7-6.39-3-8.33-2.44-3.55-4.55-5.53-6.6-6.7-3.88-2.23-14.61-.58-14.61-.58-6,1.23-9.68,10.38-9.68,10.38l2.47,1.29s4-5.32,8.38-5.72a20.37,20.37,0,0,1,7.24.49c-4.32,9.14-7.77,18.89-16.36,20.58s-12.65-5.75-12.65-5.75l-2.13,3.11s7.14,10,15.93,9.29c8.34-.63,12.06-4.47,12.06-4.47s10.71,2,11.18,9.2C51.31,55.06,46.77,64,46.77,64h4.85s5.66-8.11,5.84-15.69c.27-11.15-11.2-14.76-11.2-14.76l5.1-6.83S54.83,35.12,59.94,35.45Z" style="fill:#fac153"/>
    </symbol>
    <symbol id="luckyKidsLogo">
        <title>lucky-kids-logo</title>
        <path d="M105.24,100H58.56V19.21a247.48,247.48,0,0,0-25.68,17.9v84.74h67Z" style="fill:#fff"/><path d="M142.1,143.59c4,10.23,16.52,15.74,16.52,15.74s5.5-12.5,1.49-22.77c-1-2.6-4.4-5.39-7.93-6a7.16,7.16,0,0,0-3.82.33l-1.45.57C142.34,133.25,140.76,140.14,142.1,143.59Z" style="fill:#fff"/><path d="M183.28,145.88l-.77-1.08a6.09,6.09,0,0,0-2.58-2,9.49,9.49,0,0,0-8.47.56c-7.69,5.45-9.62,17-9.62,17s11.53,2,19.19-3.48C183.59,155,185.71,149.31,183.28,145.88Z" style="fill:#fff"/><path d="M139.93,172.82l.56.87a4.77,4.77,0,0,0,1.93,1.7,7.42,7.42,0,0,0,6.63-.08c6.22-3.93,8.22-12.82,8.22-12.82s-8.92-2-15.12,1.91C140.07,165.71,138.19,170,139.93,172.82Z" style="fill:#fff"/><path d="M160.92,163.28s-2.32,10,2.08,17a8.35,8.35,0,0,0,6.69,3.31,5.4,5.4,0,0,0,2.78-.78l1-.62c3.13-2,3.33-7.27,1.85-9.62C170.94,165.59,160.92,163.28,160.92,163.28Z" style="fill:#fff"/><path d="M377.52,218.42c-2.79,0-5,.84-8.38,3.35-7.82,5.87-12.57,6.7-22.63,5.87-5.59-8.66-8.66-15.92-8.66-21.51,0-4.47,1.4-7,1.4-12.57,0-4.47-5.59-8.66-16.48-8.66-6.15,0-8.66,3.07-11.45,7.54-14,22.07-21.79,36.31-37.15,48.88a20.68,20.68,0,0,0-2.29,2.18c-3.33,2.74-6.84,5.37-11.12,5.37-9.78,0-10.06-6.7-10.61-13.41,4.19-17.32,11.45-67,11.45-90.23,0-10.34-2-17.88-11.17-17.88-10.62,0-17.88,25.14-17.88,55,0,4.19.28,8.38.56,12.57a22.58,22.58,0,0,0-11.73-3.07c-13.41,0-37.43,14.25-37.43,43.86a36.11,36.11,0,0,0,.24,4.06c-4.7,3.28-9,8.79-16.44,8.79s-10.34-7.26-10.34-15.36c0-11.17,3.63-25.42,3.63-30.45,0-3.91-3.07-10.33-10.33-10.33-5.87,0-9.78,2-12,5.59-2.51,3.91-3.63,17.32-3.63,24.3,0,24.58,9.5,46.65,31.29,46.65,11.09,0,20.05-5.44,25.57-10.48a28.7,28.7,0,0,0,22.75,10.76c12.29,0,21.51-8.1,25.14-12,2.79,6.15,7.54,12.29,20.95,12.29,9.18,0,18.56-6.47,23.64-10.93,3.95-2.24,8.87-7,13.79-13.93a24.66,24.66,0,0,0-.56,4.75c0,11.73,13.13,22.07,29.33,22.07s26.54-10.34,26-25.14c14.53,0,23.74-5.87,28.49-10.06,3.63-2.79,5-6.15,5-9.22A8.75,8.75,0,0,0,377.52,218.42ZM230.59,236c-4.75,7.82-9.78,11.73-14.25,11.73-5.87,0-9.78-5.59-9.78-13.13,0-14.25,10.61-22.91,17.32-22.91,6.15,0,10.62,5.87,10.62,12.29C234.5,227.64,233.38,231.55,230.59,236Zm90.23-26.82c.28,6.15,2.51,14.81,5.59,18.44-8.1.84-13.41,2-19.27,5.59C311.32,226,316.35,216.19,320.82,209.2ZM326.12,255c-5.31,0-11.17-2.23-11.17-7,0-6.15,14.53-5.31,18.16-5a8,8,0,0,1,1.4,4.75C334.5,252.22,331.15,255,326.12,255Z" style="fill:#fff"/><path d="M116.63,87.08s25.73.52,25.73-27.12l-.78-21.42H121.7s1.28,17.16.78,24.17-6.64,6.87-6.64,6.87c-3.61,0-6.91-2.29-7.36-7s.78-24,.78-24H89.44L88.66,60C88.66,74.72,97.39,87.08,116.63,87.08Z" style="fill:#fff"/><polygon points="244.74 89.29 250.65 81.92 265.73 108.27 291.6 108.27 265.55 64.07 285.84 37.96 285.81 37.93 259.95 37.93 244.74 58.66 244.74 0 222.86 0 222.86 108.27 244.74 108.27 244.74 89.29" style="fill:#fff"/><polygon points="293.02 152.57 319.37 152.57 368.88 46.6 344.81 46.6 327.28 82.85 303.48 45.56 289.8 64.5 315.44 107.59 293.02 152.57" style="fill:#fff"/><path d="M185.31,119.95a32.33,32.33,0,0,0,24.42-10.41l-10-14.29a14.49,14.49,0,0,1-11.53,6.08c-8.64,0-15.56-6.06-15.56-16.38s6.92-16.54,15.56-16.54a14.62,14.62,0,0,1,11.51,6.09l10-14.3c-6.1-6.72-14.73-10.31-24.42-10.31-18.25,0-33,13.2-33,35S167.05,119.95,185.31,119.95Z" style="fill:#fff"/><path d="M44.88,176a18.49,18.49,0,1,0,0-37,19,19,0,0,0-2.88.22c5.46,1.83,9.34,6.43,9.34,11.81,0,7-6.54,12.66-14.61,12.66A15.76,15.76,0,0,1,26.39,160,18.6,18.6,0,0,0,44.88,176Z" style="fill:#fff"/><path d="M22.27,301.17c-3.15-36.52-.69-76.77-.71-78.24C21.27,196.28,5,155.15,6.9,95.42-8,169.26,5.72,191.11,6.23,214.81,7,249.3,3.15,302,13.52,329.39c3.85,10.16,10,14.35,15.83,14.6,6.86.3,11.8-5.48,15.05-14.25,5.45-14.72,7.46-70.06,8.68-77.44C42.8,270.49,41.14,307,35.24,318.94,29.76,330.08,23.92,320.3,22.27,301.17Z" style="fill:#fff"/><path d="M116.31,267.85c-13.85-7.34-30.16-23.25-32.61-41.18-.58-4.28,2.66-7.42,10.14-14.39,12.85-12,28.48-32.36,30.79-49.27,1.3-9.57-1.43-19.55-6.78-22.11-8.29-4-15.32,4.11-24,14.54C82.16,169.45,68,188,48.34,189.59c46.65,5.44,58.47-51.06,66.42-37.2,8,14-20.91,43.06-31,51.6-8.24,7-16.72,13.12-17,20.31-.72,21.49,28.8,47.46,45,55.09,11,5.19,20.88,9.87,19.43,15.78-1.12,4.58-8.51,6.64-19.82,4.39-16.12-3.21-33.57-16-47.51-27.1.86,6.23,20.6,35.68,47.67,39.91,18.49,2.89,35.08-3.23,37.51-12.58C152,288.48,132.11,276.21,116.31,267.85Z" style="fill:#fff"/><polygon points="362.99 181.56 362.99 165.46 368.87 165.46 368.87 162.46 353.87 162.46 353.87 165.46 359.76 165.46 359.76 181.56 362.99 181.56" style="fill:#fff"/><path d="M386.11,162.46l-5,15.15h-.05L376,162.46h-4.26v19.1h2.92V167.19h.05a32.66,32.66,0,0,0,1.16,4l3.69,10.35h2.86l3.72-10.35a38.85,38.85,0,0,0,1.14-3.9h.05v14.25h3.12v-19.1Z" style="fill:#fff"/>
    </symbol>
    <symbol id="spreadTheWellness">
        <title>spread-the-wellness-text</title>
        <path d="M206.36,22.56h-2.94V19.45h2.94Z" style="fill:#54585a"/><path d="M74.84,19.15a1.42,1.42,0,0,0-1.06.49,1.86,1.86,0,0,1-1.3.59c-1.76,0-1.86-1.27-2-2.28v-.19C71.11,9,72.73,7.42,73.12,3.52,73.3,1.7,72.9.76,71.87,1c-2,.39-3.45,11-3.45,11L68,11.65a3.26,3.26,0,0,0-1.7-.44c-2,0-5.65,2.22-5.65,6.66a5.52,5.52,0,0,0,.31,1.81,2.92,2.92,0,0,1-1.59.56c-.55,0-1.21-.26-1.21-1.48A12.61,12.61,0,0,1,58.38,17a24.85,24.85,0,0,0,.57-4.13c0-.36-.81-.55-1.61-.55h-.11l-.08-.07a3.37,3.37,0,0,0-2.25-.87c-3.76,0-6.8,4-6.8,7.37a4.55,4.55,0,0,0,.09.88,6,6,0,0,1-3,1,3.67,3.67,0,0,1-1.56-.33l-.51-.23.48-.28A5.58,5.58,0,0,0,46.68,15a3.48,3.48,0,0,0-3.74-3.61c-4.78,0-4.84,5.45-4.84,5.51a6.47,6.47,0,0,0,.76,3,9.1,9.1,0,0,1-2.51.43c-.73,0-1.26-.38-1.26-.91a6.09,6.09,0,0,1,.76-2.11c.18-.39.39-.83.6-1.33a2.88,2.88,0,0,0,.23-1.21,2.17,2.17,0,0,0-1.74-2.29,8.55,8.55,0,0,0-.95.08,11.35,11.35,0,0,1-1.31.1c-.78,0-2.1,0-2.1-1,0-1.71-.86-2.44-1.84-2.44-1.35,0-1.83,1.34-1.83,2.49a4,4,0,0,0,1,2.07l0,.16c-.46,3.22-1.15,4-1.81,4.74a4.27,4.27,0,0,1-1.14.85,6.11,6.11,0,0,0,.54-2.53c0-3.18-1.92-5.86-4.19-5.86A7.24,7.24,0,0,0,16.7,13.6l-.54.55s.19-2.55-1.56-2.37a2,2,0,0,0-1.88,2.06V14l.06.78c.07.93.16,2.11.23,3.79a6.17,6.17,0,0,1-1.72,1.35h0a6.06,6.06,0,0,0-1.39-3.27,9.81,9.81,0,0,1-1.59-4.75c0-.14,0-.28,0-.44.23-2.22-3.72-2-3.39.52a6.6,6.6,0,0,0,.14.77,3.61,3.61,0,0,1,.13.72C5.33,15.55,1.78,18.58.11,20c0,0-.11.15-.11.49a1.44,1.44,0,0,0,1.6,1.47c.49,0,4.17-2.87,4.82-4.66l.26-.72.28.71a6.38,6.38,0,0,0,.7,1.27,1.93,1.93,0,0,1,.45,1.14c0,.82-.95,1.18-1.86,1.53s-1.79.7-1.79,1.36a1.58,1.58,0,0,0,1.74,1.6,15,15,0,0,0,3.62-.7,9.93,9.93,0,0,0,3.25-1.73c0,.94,0,2,0,3.12,0,.76,0,1.55-.06,2.36S13,28.91,13,29.76c0,1.55.5,2.24,1.62,2.24a.94.94,0,0,0,.7-.29c.88-.88.85-3.55.84-5.5v-.78c0-.56,0-1.67,0-2.79s0-2.31,0-2.92c0-2,3-5.59,4.62-5.59,1.24,0,1.71,1.77,1.71,2.89,0,2.42-1.43,2.46-2.58,2.5-.82,0-1.9,0-2.3.68a2.12,2.12,0,0,0-.27,1c0,1.07,1.35,1.72,3,1.72.13,0,.27,0,.4,0s0,0,.06,0c.43,0,4.58.08,7.39-2.52a8.19,8.19,0,0,0,2.07-5.47l0-.43.41.16a7,7,0,0,0,1.64.39c.82.11,1.59.22,1.59,1.16a3.43,3.43,0,0,1-.58,1.6,5.08,5.08,0,0,0-.83,2.63c0,1.62,1.3,2.59,3.47,2.59a11.23,11.23,0,0,0,4.64-1.19,6.54,6.54,0,0,0,4,1.19,10.25,10.25,0,0,0,5-1.17,4.07,4.07,0,0,0,2.53.86,5.39,5.39,0,0,0,3.46-1.37l.28-.31.19.37a3.5,3.5,0,0,0,3.15,1.48,5.93,5.93,0,0,0,3.28-1.08,4.25,4.25,0,0,0,2.81,1A5.5,5.5,0,0,0,69,21.07l.29-.32.18.39c.42.93,1.08,1.78,3.06,1.78a3.62,3.62,0,0,0,2.73-1.22A2.32,2.32,0,0,0,76,20.23,1.11,1.11,0,0,0,74.84,19.15Zm-33.28-.36-.21.1-.14-.18a3,3,0,0,1-.41-1.6c0-1.58,1-3,2.06-3A1.24,1.24,0,0,1,44,15.43,4.26,4.26,0,0,1,41.56,18.79Zm13.9-.56a4.48,4.48,0,0,1-2.92,1.56,1.65,1.65,0,0,1-1-.38,1.49,1.49,0,0,1-.52-.81,2.2,2.2,0,0,1-.09-.59,4.18,4.18,0,0,1,4.18-3.74,1,1,0,0,1,1,1A4.81,4.81,0,0,1,55.46,18.23ZM68,18.06c-.8,1.31-1.66,2-2.5,2a1.64,1.64,0,0,1-1.25-.6,2.29,2.29,0,0,1-.46-.83,3.44,3.44,0,0,1-.13-.94c0-2.39,1.8-3.92,3-3.92a2.12,2.12,0,0,1,2,2.24A3.81,3.81,0,0,1,68,18.06Z" style="fill:#43b02a"/><path d="M128.2,12c-1.33,0-1.21,3.21-1.21,3.21v.14c-.07,2.43-.34,4.79-2.58,4.79-1.06,0-2.2-.7-2.2-2.64,0-.28,0-.6.08-1s.09-.95.1-1.5c.08-2.41-1.26-2.51-1.61-2.51-1.76,0-2.24,2.82-2.24,4.55-.34,1.73-1.69,3.15-3,3.15-.89,0-1.84-.72-1.84-2.32,0-.57.21-2.49.26-2.92.36-3-1.58-2.63-1.71-2.63-1.7,0-1.79,3.82-1.79,4.58,0,2.44.55,6.53,4.27,6.53,1.84,0,3.45-1,4.94-3.11l.32-.46.18.52a4.19,4.19,0,0,0,4.08,3.09c4.83,0,5.49-6.87,5.55-7.65C130,14,129.88,12,128.2,12Z" style="fill:#43b02a"/><path d="M200.28,15.4a1.8,1.8,0,0,0-1.15.48,4.2,4.2,0,0,1-2.86,1c-.27,0-.57,0-.92,0h-.14l-.09-.11a7.22,7.22,0,0,1-1.4-3.56,5,5,0,0,1,.1-.93,5.34,5.34,0,0,0,.11-1.06c0-.54-.8-1.09-2.32-1.09-.73,0-1,.42-1.36,1l-.13.21c-.35.54-.65,1-.93,1.49-1.36,2.22-2.12,3.44-4.3,3.94l-.17,0-.12-.14c-.23-.29-.48-.57-.72-.85-1-1.09-1.94-2.22-1.94-3.63a6.72,6.72,0,0,1,.07-.69,2.76,2.76,0,0,0,.06-.55c0-.23,0-.95-1.44-.95-2,0-2.24,1-2.24,2.11,0,1.26,1.63,3.3,3.21,4.54l.57.45-.72.06c-1.52.14-4.06.72-4.14,3h0a5.34,5.34,0,0,1-2.11.48,3.71,3.71,0,0,1-1.57-.33l-.51-.23.48-.28a5.59,5.59,0,0,0,3.1-4.75A3.49,3.49,0,0,0,173,11.42c-4.8,0-4.85,5.45-4.85,5.51a6.47,6.47,0,0,0,.67,2.82h0a2.88,2.88,0,0,1-1.43.47,1.17,1.17,0,0,1-1.16-1.31,15.57,15.57,0,0,1,.17-2,23,23,0,0,0,.22-2.91,2.91,2.91,0,0,0-3.2-3.07c-1.79,0-3.72,1.86-4.85,3.71l-.49.8,0-.94c0-.52,0-1,0-1.37,0-1.87,0-2.11-1.36-2.11-1,0-1.16.76-1.16,1.67s0,1.84,0,2.66c0,1.4-.11,2.66-.15,3.74a3.84,3.84,0,0,1-2.22.95c-1,0-1.74-1.14-1.83-2.53a49.23,49.23,0,0,0,4-15.39c.16-3.2-3.64-2.43-4.63-.43-.42.84-2.12,3.33-2.12,10.64a36.28,36.28,0,0,0,.25,4.74,4.06,4.06,0,0,1,0,.48c0,1.18-1.86,2.51-2.85,2.51-2.1,0-2.26-2.13-2.32-2.87A68.21,68.21,0,0,0,145.88,5.4c0-3.21-.49-4.46-1.61-3.65-.26.18-2.94,3.35-2.94,10.47,0,2.53,0,4.52.11,6.08-.95,1.66-2.69,3.1-6.08,1.76l.49-.28A5.58,5.58,0,0,0,138.93,15a3.48,3.48,0,0,0-3.74-3.61c-4.79,0-4.85,5.45-4.85,5.51a6,6,0,0,0,6.35,6.13c2.2,0,4-.16,5.34-2,.54,1.15,1.49,1.72,3.18,1.83a5.77,5.77,0,0,0,4.19-1.69l.26-.24.19.3a3.16,3.16,0,0,0,2.93,1.63,5.9,5.9,0,0,0,2.79-.74,1.09,1.09,0,0,0,.12.19,1,1,0,0,0,.74.28,1.39,1.39,0,0,0,1.09-.36c.42-.42.6-1.33.57-2.94v-.05l0,0c.88-2.23,3-5.45,4.65-5.45.77,0,1.17.59,1.17,1.75a13.59,13.59,0,0,1-.15,1.63,19.11,19.11,0,0,0-.21,2.53,3.11,3.11,0,0,0,3.44,3.3,6.5,6.5,0,0,0,3.4-1.14h0a6.48,6.48,0,0,0,4.05,1.27,11.33,11.33,0,0,0,4-.65,5.44,5.44,0,0,0,3.32,1,3.84,3.84,0,0,0,4.14-3.78,3.69,3.69,0,0,0-.09-.75l0-.25.24-.08a7.44,7.44,0,0,0,4.77-4.42,4.49,4.49,0,0,1,.31-.59l.49-.75,0,.89a5.5,5.5,0,0,0,.81,2.74l.35.42-.54.06c-1.6.17-4.29.81-4.29,3.17,0,1.74,2,3.21,4.35,3.21a3.92,3.92,0,0,0,2.92-1.1,3.43,3.43,0,0,0,.9-2.59v-.3h.3a6.43,6.43,0,0,0,4.35-1.54,1.55,1.55,0,0,0,.68-1.23A1.12,1.12,0,0,0,200.28,15.4Zm-66.47,3.39-.2.1-.15-.18a3,3,0,0,1-.41-1.6c0-1.59,1-3,2.06-3a1.22,1.22,0,0,1,1.17,1.31A4.28,4.28,0,0,1,133.81,18.79ZM151.18,5.28s.49-1.58,1.23-1.81.61.78.52,1.59a63.91,63.91,0,0,1-2.26,8.76A20.88,20.88,0,0,1,151.18,5.28Zm20.58,13.39-.19.12-.21.1-.14-.18a1.07,1.07,0,0,1-.16-.29,3.52,3.52,0,0,1-.26-1.32c0-1.58,1-3,2-3a1.24,1.24,0,0,1,1.18,1.3A4.26,4.26,0,0,1,171.76,18.67Zm10,2.62a1.78,1.78,0,0,1-1-.31.92.92,0,0,1-.41-.77c0-.28.14-.85,1.15-1.1a4.75,4.75,0,0,1,1.12-.13h.32l.08.1a1.64,1.64,0,0,1,.3,1C183.32,20.66,182.92,21.29,181.8,21.29Zm10.35-.08c-1,0-2-.48-2-1.4,0-.31.15-.73.9-1a5.34,5.34,0,0,1,1.44-.16c.36,0,.66,0,.82,0h.13l.08.1a1.55,1.55,0,0,1,.28.93A1.44,1.44,0,0,1,192.14,21.2Z" style="fill:#43b02a"/><path d="M107.65,19.42a1.26,1.26,0,0,0-.92.37,3.71,3.71,0,0,1-2.31,1,3.31,3.31,0,0,1-1.58-.32l.52-.35a4.76,4.76,0,0,0,2.37-3.94,3.08,3.08,0,0,0-3.31-3.2c-3.47,0-4.23,3.46-4.23,4.8a5.54,5.54,0,0,0,.54,2.31,4.38,4.38,0,0,1-.77.2c-.63.1-2.1.36-2-1.27,0-.4.07-.9.17-1.55A15.34,15.34,0,0,0,96.36,15c0-1.89-.72-2.84-2.64-2.84-1.44,0-3,1-4.15,2.83l-.47.7h0c0-.15,2.23-7.1,2.41-8.47.3-2.29-.05-3.82-1.09-3.82s-3,8.1-3.27,9.88c-.44,3-.75,4.06-.69,5.29a11.33,11.33,0,0,1-.95,1,3.2,3.2,0,0,1-1.91.83,1.54,1.54,0,0,1-1.18-.47c-.56-.56-.81-1.61-.8-3.32v-.08l0-.9.57,0c2.28,0,3-.8,3.1-2a.53.53,0,0,0-.13-.47,1.39,1.39,0,0,0-1-.29h0c-.23,0-.56,0-1.08,0l-1,0c.43-2.26,2-5.9,1.39-6.57A.82.82,0,0,0,82.78,6c-1.39,0-2.61,2.43-3.36,6.38l0,.23h-.45c-1,0-1.53.24-1.58,1,0,.43.15,1.22,1.56,1.72l.21.07,0,.22c-.28,3.29.06,5.24,1,6.32A3.77,3.77,0,0,0,83.08,23a5.83,5.83,0,0,0,3.8-1.4c.3.85.71,1,1.23,1,.9,0,1.37-.72,1.37-2.15a10.91,10.91,0,0,0-.06-1.1l0-.18,0,0c.38-1.83,1.82-4,3.35-4,.61,0,.92.43.92,1.29a10.18,10.18,0,0,1-.15,1.5,14.13,14.13,0,0,0-.19,2c0,2,1.34,3.06,3.37,3.06a8.56,8.56,0,0,0,3.59-1,5.58,5.58,0,0,0,3.4,1.07c3.16,0,5-1.4,5-2.75A1.08,1.08,0,0,0,107.65,19.42Zm-6.28-.27-.28.15L101,19a3,3,0,0,1-.2-1.06c0-1.25.76-2.38,1.6-2.38a.88.88,0,0,1,.84,1A3.45,3.45,0,0,1,101.37,19.15Z" style="fill:#43b02a"/>
    </symbol>
</svg>