<svg id="lucky_roots_super_foods_by_lucky_vitamin" data-name="lucky roots super foods by lucky vitamin" xmlns="http://www.w3.org/2000/svg" width="204" height="100" viewBox="0 0 204 100"><title>luckyroots-misson-logo</title><rect width="204" height="100" style="fill:none"/><path d="M60.61,60.09h0L60.58,60S60.58,60.07,60.61,60.09Z" style="fill:none"/><path d="M61,60.61l.08,0L61,60.54S61,60.6,61,60.61Z" style="fill:none"/><path d="M62.59,59.64l-.15,0,.16,0Z" style="fill:none"/><path d="M66.86,61.55l0,.06h.05Z" style="fill:none"/><path d="M50.7,35.49q.1.17.21,0Q50.84,35.4,50.7,35.49Z" style="fill:none"/><path d="M48.93,40.33v.25h.18L49,40.33Z" style="fill:none"/><path d="M53.49,34.23q0,.17.19.06Q53.66,34.12,53.49,34.23Z" style="fill:none"/><path d="M63,59.43s0,0,.07,0l-.1,0Z" style="fill:none"/><path d="M55.56,33.82c-.06-.08-.32-.21-.26.06Z" style="fill:none"/><path d="M77.43,21.47c.05,0,.08,0,.09,0l0-.08h0S77.43,21.39,77.43,21.47Z" style="fill:none"/><path d="M77.66,23h0a.24.24,0,0,0,0-.11S77.66,22.94,77.66,23Z" style="fill:none"/><path d="M77.57,24.29h.11V24h-.07C77.6,24.12,77.59,24.2,77.57,24.29Z" style="fill:none"/><path d="M58.06,47.57a.44.44,0,0,0,0-.14h-.25v.28A.21.21,0,0,0,58.06,47.57Z" style="fill:none"/><path d="M58.35,47.21a.67.67,0,0,0-.24,0s0,.08,0,.21h.28Z" style="fill:none"/><rect x="58.35" y="46.18" width="0.23" height="0.25" style="fill:none"/><path d="M72,46h.1s0,0,0-.06Z" style="fill:none"/><path d="M74,42.12h.19v-.25H74C74,42,74,42,74,42.12Z" style="fill:none"/><path d="M125.83,71.27h-.12a1.2,1.2,0,0,0-.3,0l-.25.09-.22.11-.23.09-.33.34a2.43,2.43,0,0,0-.29.39,2,2,0,0,0-.2.47,2.16,2.16,0,0,0-.07.6,1.75,1.75,0,0,0,.23,1,2,2,0,0,0,.67.68,2.46,2.46,0,0,0,.92.33,2.53,2.53,0,0,0,1,0,2.06,2.06,0,0,0,.84-.41,1.53,1.53,0,0,0,.51-.81A2.93,2.93,0,0,0,128,73a2,2,0,0,0-.36-.93,1.91,1.91,0,0,0-.76-.61A2.59,2.59,0,0,0,125.83,71.27Z" style="fill:none"/><path d="M121.57,54.19a5.69,5.69,0,0,0-2.11-.77,5.83,5.83,0,0,0-2.25.07,4.73,4.73,0,0,0-1.94.94,3.51,3.51,0,0,0-1.17,1.86,6.73,6.73,0,0,0-.22,2.68,4.63,4.63,0,0,0,.83,2.13,4.4,4.4,0,0,0,1.74,1.4A6,6,0,0,0,119,63h.28a2.81,2.81,0,0,0,.7-.08,3.21,3.21,0,0,0,.57-.21l.52-.25a4,4,0,0,1,.53-.22q.39-.39.76-.79a5.67,5.67,0,0,0,.67-.89,4.51,4.51,0,0,0,.47-1.09,5,5,0,0,0,.17-1.38,4,4,0,0,0-.53-2.34A4.61,4.61,0,0,0,121.57,54.19Z" style="fill:none"/><path d="M127.66,76.28h0l-.05,0Z" style="fill:none"/><polygon points="113.05 44.31 113.05 44.33 113.08 44.33 113.05 44.31" style="fill:none"/><path d="M108.75,73.24h.65q.35,0,.7,0a4,4,0,0,0,.64-.1,1.24,1.24,0,0,0,.49-.23.73.73,0,0,0,.25-.41,1.16,1.16,0,0,0-.08-.64.73.73,0,0,0-.39-.36,2.43,2.43,0,0,0-.63-.16,5.42,5.42,0,0,0-.75,0h-.76a1,1,0,0,0-.11.38,4.56,4.56,0,0,0,0,.54q0,.29,0,.57T108.75,73.24Z" style="fill:none"/><path d="M108.78,74.54l-.06,0h.06Z" style="fill:none"/><path d="M119.54,50v-.19h-.27a1.27,1.27,0,0,0,0,.25Q119.34,50.23,119.54,50Z" style="fill:none"/><path d="M117.69,50.06c.06,0,.16,0,.3,0v-.19h-.37a.16.16,0,0,0,.07.22Z" style="fill:none"/><path d="M117.46,50v-.19l-.25.06V50Z" style="fill:none"/><path d="M77.68,22.48a.39.39,0,0,0,0-.22l-.07,0c0,.08,0,.15,0,.23Z" style="fill:none"/><polygon points="122.45 32.84 122.41 32.89 122.45 32.89 122.45 32.84" style="fill:none"/><path d="M59.85,35.61a.49.49,0,0,0-.06-.27C59.83,35.21,59.6,35.86,59.85,35.61Z" style="fill:none"/><path d="M50,13.73s-.25.1-.25.25A.33.33,0,0,0,50,13.73Z" style="fill:none"/><path d="M105.94,31.42s0,0,0-.07a.29.29,0,0,0-.11-.07l0,.11C105.9,31.42,105.93,31.43,105.94,31.42Z" style="fill:none"/><polygon points="102.53 41.72 102.53 41.72 102.53 41.72 102.53 41.72" style="fill:none"/><path d="M96.87,41.42v0h0Z" style="fill:none"/><path d="M61.86,21.93q0-.11,0-.13Q61.79,22,61.86,21.93Z" style="fill:none"/><path d="M73.81,18.33c.12,0,.15,0,.09-.09S73.81,18.2,73.81,18.33Z" style="fill:none"/><path d="M103.42,62a3.51,3.51,0,0,0,1.17-1.86,6.73,6.73,0,0,0,.22-2.68,4.63,4.63,0,0,0-.83-2.13,4.4,4.4,0,0,0-1.74-1.4,6,6,0,0,0-2.53-.5h-.28a2.81,2.81,0,0,0-.7.08,3.21,3.21,0,0,0-.57.21l-.52.25a4,4,0,0,1-.53.22q-.39.39-.76.79a5.65,5.65,0,0,0-.66.89A4.51,4.51,0,0,0,95.23,57a5,5,0,0,0-.17,1.38,4,4,0,0,0,.53,2.34,4.61,4.61,0,0,0,1.55,1.57,5.69,5.69,0,0,0,2.11.77,5.83,5.83,0,0,0,2.25-.07A4.73,4.73,0,0,0,103.42,62Z" style="fill:none"/><path d="M95.9,71.64a2.63,2.63,0,0,0-.63-.18,4.54,4.54,0,0,0-.71-.06,3.49,3.49,0,0,0-.6,0v1.08q0,.5,0,1a5.4,5.4,0,0,0,.93,0,2.5,2.5,0,0,0,.84-.2,1.06,1.06,0,0,0,.52-.48,1.15,1.15,0,0,0,0-.86A.68.68,0,0,0,95.9,71.64Z" style="fill:none"/><path d="M109.32,87.12a.4.4,0,0,0,.49.34c.41-.07.34-.7.34-1.27C109.85,86.37,109.26,86.5,109.32,87.12Z" style="fill:none"/><path d="M113.21,85.29c0,.24.34.25.49.25s.43-.36.33-.49C113.75,84.68,113.18,85.11,113.21,85.29Z" style="fill:none"/><path d="M88.54,65h.19a.72.72,0,0,1-.2-.05A.44.44,0,0,1,88.54,65Z" style="fill:none"/><polygon points="85.93 57.77 85.93 57.77 85.93 57.77 85.93 57.77" style="fill:none"/><path d="M85,53.89a5.57,5.57,0,0,0-1.44-.37,12.49,12.49,0,0,0-1.72-.09H80.11a2.19,2.19,0,0,0-.25.87,10.42,10.42,0,0,0-.07,1.24q0,.67,0,1.32t0,1.13h1.5q.81,0,1.6-.07a9.14,9.14,0,0,0,1.47-.24,2.85,2.85,0,0,0,1.12-.54,1.7,1.7,0,0,0,.58-1,2.68,2.68,0,0,0-.18-1.48A1.68,1.68,0,0,0,85,53.89Z" style="fill:none"/><path d="M136.9,76.28h0l-.05,0Z" style="fill:none"/><path d="M136.93,72.1a1.91,1.91,0,0,0-.76-.61,2.59,2.59,0,0,0-1.1-.22H135a1.2,1.2,0,0,0-.3,0l-.25.09-.22.11-.23.09-.33.34a2.43,2.43,0,0,0-.29.39,2,2,0,0,0-.2.47,2.16,2.16,0,0,0-.07.6,1.75,1.75,0,0,0,.23,1,2,2,0,0,0,.67.68,2.46,2.46,0,0,0,.92.33,2.53,2.53,0,0,0,1,0,2.06,2.06,0,0,0,.84-.41,1.53,1.53,0,0,0,.51-.81,2.93,2.93,0,0,0,.09-1.16A2,2,0,0,0,136.93,72.1Z" style="fill:none"/><path d="M76.61,26.83c0-.06,0-.11,0-.16L76.4,27v.1Q76.58,27.13,76.61,26.83Z" style="fill:none"/><path d="M128.23,87.1a.4.4,0,0,0,.49.34c.41-.07.34-.7.34-1.27C128.76,86.35,128.18,86.48,128.23,87.1Z" style="fill:none"/><path d="M83.63,58.79h0Z" style="fill:none"/><path d="M124.2,80.22c-.59,0-.3,2.63-.31,3.07a16.49,16.49,0,0,0,.68-2.12C124.65,80.41,124.25,80.22,124.2,80.22Z" style="fill:none"/><path d="M144.18,75.4a2.43,2.43,0,0,0,1.08-.52,1.86,1.86,0,0,0,.59-1,2.64,2.64,0,0,0-.09-1.42,2.07,2.07,0,0,0-1.11-1,4.12,4.12,0,0,0-1.86-.23q-.08,1-.08,2.09t.08,2.09A4.28,4.28,0,0,0,144.18,75.4Z" style="fill:none"/><path d="M141.74,83.23a1.34,1.34,0,0,0-1.21,1.25c0,.2.15.55.38.57a1.09,1.09,0,0,0,1-.45,1.49,1.49,0,0,0,.21-1C142.07,83.47,141.84,83.23,141.74,83.23Z" style="fill:none"/><path d="M72.29,18.23l.17,0a.23.23,0,0,0,.07-.18l-.14,0A.18.18,0,0,0,72.29,18.23Z" style="fill:none"/><path d="M75.85,19.35s0,.05,0,.08l.34.19v-.23C76,19.32,75.91,19.31,75.85,19.35Z" style="fill:none"/><path d="M74.88,19,75,19l.09,0h0v-.13l-.16,0Z" style="fill:none"/><path d="M68.88,19v.09L69,19Z" style="fill:none"/><path d="M69.94,18.55l.23-.09a1.22,1.22,0,0,0,0-.14l-.14,0A.23.23,0,0,0,69.94,18.55Z" style="fill:none"/><path d="M64.37,26.58q.2-.27-.1-.23Z" style="fill:none"/><path d="M59.59,14.58c.06.17-.11.16.15.18Z" style="fill:#cee4a7"/><path d="M49.25,22.71c.11.18.31.33.05.33a18.66,18.66,0,0,0,3.27,3.49,25.64,25.64,0,0,0,5.76,3.54c.05-.23.22,0,.44.06a.19.19,0,0,1-.15.07q.62.28,1.25.52,0-.25.22-.05,0,.12-.21.06c.36.14.73.28,1.1.4l.06-.22a.16.16,0,0,1-.15,0c.66-.72.75-2.36.84-3.31a31.9,31.9,0,0,0,.2-5.87,19.19,19.19,0,0,0-.49-3.06,12.06,12.06,0,0,0-.76-2c.06-.05.1,0,.12.07a6.15,6.15,0,0,0-.44-.71h.13l-.25-.5c-.11.3-.22-.09-.3-.22a.71.71,0,0,1,.14-.05c0-.06-.84-.86-.6-.79a8.31,8.31,0,0,0-3.26-2.08,6.11,6.11,0,0,0-.81-.23,3.37,3.37,0,0,0-.54-.1c-.11,0-.56.09-.35,0a5.5,5.5,0,0,0-1.43.06.22.22,0,0,1,.19.08,5.94,5.94,0,0,0-4.8,3.63,6.92,6.92,0,0,0-.5,2.1c0,.24-.08.52-.09.83a3.66,3.66,0,0,0,0,1.06s.56.61,0,.34A7,7,0,0,0,49.25,23Zm12.59-.9q.07.1,0,.14Q61.76,21.78,61.83,21.8Zm-6,6.85C55.88,28.7,55.81,28.71,55.81,28.66Zm-.5-.29C55.47,28.46,55.3,28.47,55.32,28.37Zm-3.73-2.78S51.59,25.6,51.59,25.58ZM49.87,13.75l.14,0a2,2,0,0,1-.25.25A.22.22,0,0,1,49.87,13.75Z" style="fill:#cee4a7"/><path d="M55.55,42.88a10.62,10.62,0,0,0,3.27-4.32,17.62,17.62,0,0,0,.82-2.18,8.91,8.91,0,0,0,.29-1.06c0-.07.1-1,.11-.49a4.77,4.77,0,0,0,.21-1.12c-.07-.47.14-.19-.3-.36a5,5,0,0,0-1.69,0c-.23,0-1.23.11-1.2.07a18,18,0,0,0-2.1.32l-.72.17v.24c-.22.11-.6.24-.43-.12a12.27,12.27,0,0,0-1.86.72c.13.29-.19.18-.38.25a4.87,4.87,0,0,0-1.31.79A4.23,4.23,0,0,0,49,37.53h.17c-.1.26-.21.18-.32.4s0,.43-.07.6a4.35,4.35,0,0,0-.2,1c.38-.11.49.28,0,.28,0,.32,0,.14.18.19-.37.22.67,1.48.84,1.83-.1,0-.2,0-.3,0,.1.23.91.57.65.76a3.73,3.73,0,0,0,2.08.93,4.3,4.3,0,0,0,2,0C54.56,43.41,55,43,55.55,42.88Zm4.24-7.54c0,.09,0,.39-.06.29A.36.36,0,0,1,59.79,35.34Zm-2.22-1.89Zm-2,.28c-.08.18.31,0-.26.15C55.24,33.63,55.38,33.75,55.56,33.73Zm-6.63,6.85v-.25c.2.09,0-.27.18.25Zm.76-4.06Zm1.11-.95-.11-.09q.15-.1.21,0Zm2.75-1.25c-.11-.17.1-.16.13,0Z" style="fill:#2cb34a"/><path d="M48.86,41.09c0,.08.07.15.11.22h0A.19.19,0,0,0,48.86,41.09Z" style="fill:#2cb34a"/><path d="M73.48,45h-.06a.46.46,0,0,0,0,.13Z" style="fill:#bad982"/><path d="M60.48,40.3h-.12l-.19,0-.05.17h0l.18.08.09,0Z" style="fill:#2cb34a"/><path d="M60.66,38.46c0-.11,0-.21,0-.32-.07.44-.17.9-.29,1.35a.61.61,0,0,1,.21,0c0-.28.06-.55.07-.83h0v-.23Z" style="fill:#2cb34a"/><path d="M60.12,40.77a.45.45,0,0,0,.13.33l.07,0q.06-.26.1-.52h0l-.18,0A.11.11,0,0,0,60.12,40.77Z" style="fill:#2cb34a"/><path d="M60.55,39.78v0h-.18V39.5l-.13.46h.2a.72.72,0,0,1,0-.18Z" style="fill:#2cb34a"/><path d="M111.56,84.67c-.16,0-.17.13-.43.34a2.56,2.56,0,0,1-.47.37c0-.68.07-1.46.07-1.84s.12-.89-.25-.89-.28.2-.28.68c0,.7-.47,1.62-1,1.65a.65.65,0,0,1-.67-.69c0-.29,0-.52.06-.95,0-.24.14-.72-.2-.72s-.36.17-.4.39-.21.3-.39.3a9.64,9.64,0,0,1-1.3-.21c-.26,0-.47,0-.47.25s.45.34.64.37a1.41,1.41,0,0,1,.1.6c0,.31-.17.72-.52.72s-.75-.12-.75-1.08c0-.24.18-2.67.18-3.39s0-.76-.38-.76-.17.29-.21.72-.1,1.35-.1,2.1c0,1.45-.27,3,1,3a1.21,1.21,0,0,0,1.25-1.25,1.24,1.24,0,0,0-.11-.52,1.48,1.48,0,0,0,1-.09v0a4.7,4.7,0,0,0,.1,1,1.14,1.14,0,0,0,1.09.8,1.17,1.17,0,0,0,.9-.54c0,.11,0,.42,0,.58-.61.34-1.35.69-1.33,1.4a.9.9,0,0,0,1,1c1.11-.07.92-2,.92-2a11.07,11.07,0,0,0,.89-.79C111.75,85.06,111.72,84.67,111.56,84.67Zm-1.75,2.78a.4.4,0,0,1-.49-.34c-.06-.62.53-.75.83-.93C110.15,86.76,110.22,87.38,109.81,87.45Z" style="fill:#2cb34a"/><path d="M136.2,80.83c0-.22-.05-.27-.26-.27a3.24,3.24,0,0,0-.58.26.92.92,0,0,0-.77-.49.43.43,0,0,0-.45.61c.11.38.44.45.78.49.09,1.11-.86,3.63-1.59,3.56a.61.61,0,0,1-.29-.11,4,4,0,0,1-1.22-3c0-.38.05-.81.05-.92,0-.38,0-.51-.15-.51-.38,0-.5.2-.5,1.24,0,1.37.41,3.89,2.1,3.89,1.25,0,2.2-2.56,2.11-4.13C135.95,81.29,136.2,81.09,136.2,80.83Z" style="fill:#2cb34a"/><path d="M136.37,81.78a.36.36,0,0,0,.38.35.44.44,0,0,0,.45-.46.33.33,0,0,0-.35-.34A.47.47,0,0,0,136.37,81.78Z" style="fill:#2cb34a"/><path d="M149.88,81.61a.31.31,0,0,0-.33-.32.45.45,0,0,0-.46.43.34.34,0,0,0,.36.34A.42.42,0,0,0,149.88,81.61Z" style="fill:#2cb34a"/><path d="M153.56,85.26c-.26,0-.17-.79-.17-1,0-.32,0-.35,0-.84s-.1-.87-.72-.87c-.45,0-1,.86-1.31,1.35,0-.73.14-1.33-.33-1.33-.28,0-.24.29-.24.54,0,.51,0,.94-.07,1.3-.17.18-.24.63-.76.61s-.53-.51-.53-.82.14-1,.14-1.17,0-.43-.25-.43-.47.73-.47,1.25a3.78,3.78,0,0,0,0,.55.3.3,0,0,1-.07.09c-.13.1-.57.6-.84.6-.12,0-.19-.09-.19-.3s.17-.73.17-1.12a.89.89,0,0,0-.86-1c-.53,0-1,.73-1.17,1-.11-.41-.3-1.08-.66-1.08s-.72.86-.9,1.13c0-.38,0-1.1-.37-1.1s-.22.38-.22.57c0,.42,0,.91,0,1.33-.24.18-.52.58-1,.57s-.22-.45-.17-.63a7.51,7.51,0,0,0,.2-1.42c0-.17-.3-.2-.46-.2a.9.9,0,0,0-.59-.23A1.92,1.92,0,0,0,140,84.55s0,.06,0,.09a1,1,0,0,1-.73.53c-.81,0-.69-.83-.61-1.54a.94.94,0,0,1,.11-.23c.75,0,1.15-.18,1.18-.5s-.23-.13-.43-.13l-.71.05s.11-.56.18-1,.4-1.15.09-1.15c-.56,0-.75,1.36-.88,2.06h-.11c-.21,0-.59-.14-.61.14s.13.32.53.45a5.26,5.26,0,0,0,0,1.23.86.86,0,0,1-.83.52c-.5,0-.7-.77-.74-1.08-.11-.76.4-1.36.12-1.36a.42.42,0,0,0-.41.23,2.46,2.46,0,0,0-.2.92c0,.95.37,1.8,1.21,1.8a1.5,1.5,0,0,0,1-.46,1,1,0,0,0,.95.48,1.23,1.23,0,0,0,1-.45,1,1,0,0,0,.84.41,1.38,1.38,0,0,0,.89-.35.92.92,0,0,0,.83.4,1.6,1.6,0,0,0,1-.4,1.56,1.56,0,0,0,0,.16c0,.17.12.22.29.22s.29-.07.29-.27.08-.63.1-.9c.17-.42.55-.87.81-.87s.29.41.29.71,0,.61,0,.7c0,.24-.09.5.27.5s.43-.7.47-1.13.54-1.08.91-1.08.23.46.23.7-.13.79-.13,1c0,.52.24.7.76.7a1.77,1.77,0,0,0,1.12-.48.9.9,0,0,0,.84.46,1.42,1.42,0,0,0,.8-.26.25.25,0,0,0,.26.21c.37,0,.39-.15.38-.79.23-.57,1-1.54,1.31-1.54.16,0,.21.14.21.35s0,.84,0,1.24c0,.64.22.81.7.82.72,0,.81-1.21.72-1.14S153.81,85.27,153.56,85.26Zm-11.7-.66a1.09,1.09,0,0,1-1,.45c-.23,0-.38-.36-.38-.57a1.34,1.34,0,0,1,1.21-1.25c.1,0,.33.24.33.35A1.49,1.49,0,0,1,141.86,84.61Z" style="fill:#2cb34a"/><path d="M130,85a1.84,1.84,0,0,1-.47.36c0-.68.07-1.46.07-1.84s.12-.89-.25-.89-.28.2-.28.68c0,.7-.47,1.62-1,1.65a.65.65,0,0,1-.67-.69c0-.29,0-.52.07-.95,0-.24.14-.72-.2-.72-.57,0-.4.82-.4,1.16a4.68,4.68,0,0,0,0,.61c0,.41-.25.85-1.06.79a1.33,1.33,0,0,1-1-.71,2.21,2.21,0,0,0,1.1-.63.91.91,0,0,0,.18-.55c0-.41-.17-.69-.57-.69s-.68,0-1.34.63a5.2,5.2,0,0,0,.7-2.4,1.41,1.41,0,0,0-.27-.81.62.62,0,0,0-.5-.26,1,1,0,0,0-.87,1.09c0,.33.05.79.05,2.44,0,.36,0,.7,0,1h0c-.19.89-.68.92-1.12.92S121.11,85,121.17,84a1,1,0,0,1,1-1c.19,0,.13.41.35.41s.32,0,.32-.16a.78.78,0,0,0-.84-.72,1.53,1.53,0,0,0-1.35,1.56,1.61,1.61,0,0,0,.08.51.72.72,0,0,1-.72.42c-.18,0-.5-.35-.5-.86,0-.19.05-.9.05-1.15s0-.48-.29-.44c-.43.06-.3.63-.37,1.56a.83.83,0,0,1-.75.8c-.52,0-.7-.56-.7-.87s.1-.66.1-.93,0-.48-.28-.48-.4.71-.4,1.12a2.79,2.79,0,0,0,.13.88.83.83,0,0,1-.67.42,4.93,4.93,0,0,1-1.63-.37v-.1c0-.71-.38-1.56-.38-2.39s.36-1.3.76-1.39,1-.11,1,.54a1.19,1.19,0,0,1-.55,1c-.13,0-.3.5-.14.5a1.32,1.32,0,0,0,1.24-1.39,1.19,1.19,0,0,0-1.25-1.23,1.8,1.8,0,0,0-1.77,2c0,.75.41,1.63.42,2.26h-.22c-.66,0-1.18.39-1.11.88s.72.5,1,.52c.52,0,.69-.21.87-.61a4.35,4.35,0,0,0,1.66.35,1.31,1.31,0,0,0,1.06-.41,1.27,1.27,0,0,0,.85.27,1.21,1.21,0,0,0,1-.52,1,1,0,0,0,.83.55,1.6,1.6,0,0,0,1-.44,1.59,1.59,0,0,0,1.2.49,2.32,2.32,0,0,0,1.27-.39.38.38,0,0,0,.41.27c.36,0,.17-.86.22-1.09a2,2,0,0,1,1.45-1.32.13.13,0,0,1,.13.12c.12.62-.51.85-.82.9-.13,0-.33.07-.33.29a1.41,1.41,0,0,0,1.39,1.22,1.54,1.54,0,0,0,1.22-.47l.08-.09a1.27,1.27,0,0,0,.93.45A1.17,1.17,0,0,0,129,85c0,.11,0,.42,0,.58-.61.34-1.35.69-1.33,1.4a.9.9,0,0,0,1,1c1.11-.07.92-2,.92-2s.58-.5.89-.79S130.43,84.6,130,85Zm-16.33.55c-.15,0-.45,0-.49-.25s.54-.61.82-.24C114.13,85.18,113.88,85.54,113.7,85.54Zm10.18-2.25c0-.44-.28-3.07.31-3.07.05,0,.46.19.37.94A16.49,16.49,0,0,1,123.89,83.29Zm4.83,4.15a.4.4,0,0,1-.49-.34c-.06-.62.53-.75.83-.93C129.06,86.73,129.13,87.36,128.72,87.43Z" style="fill:#2cb34a"/><path d="M80.85,42.78q0,2,0,3.84H93a3.44,3.44,0,0,0,.14-.68,7.65,7.65,0,0,0,0-1.67,3.44,3.44,0,0,0-.14-.68c-.57-.06-1.6-.1-2.27-.1H86.27q-1,0-1.86-.1-.09-1.4-.1-2.93t0-3.12q0-1.58.06-3.16t0-3.1a2.8,2.8,0,0,0-.84-.24,5.25,5.25,0,0,0-.92,0,7.59,7.59,0,0,0-.93.1l-.85.17q-.09,1.88-.1,3.84t0,3.94Q80.82,40.82,80.85,42.78Z" style="fill:#515555"/><path d="M93.38,35.73a14.82,14.82,0,0,0,.46,2.49,8.18,8.18,0,0,0,.87,2.05,4.38,4.38,0,0,0,1.42,1.46,8.86,8.86,0,0,0,2.09.85,7.57,7.57,0,0,0,2.82.14,5.57,5.57,0,0,1,.6-.16l.65-.14a5.67,5.67,0,0,0,.64-.17,2.43,2.43,0,0,0,.58-.29,4.19,4.19,0,0,0,1.78-1.28,6,6,0,0,0,1-2,11.87,11.87,0,0,0,.47-2.53,10.31,10.31,0,0,0,.1-1.65c0-1,0-.37-.08-1.4s-.07-1.22-.07-2.21a6.74,6.74,0,0,0-.84-.14,9,9,0,0,0-1.81,0,5.92,5.92,0,0,0-.81.14,8.35,8.35,0,0,0,0,1.57c.05.86.11.08.16,1s.08,1.31.07,2.13a3.69,3.69,0,0,1-.26,1.41,4.11,4.11,0,0,1-.83,1.67,2.64,2.64,0,0,1-1.63.86,4,4,0,0,1-1.44-.07,3.31,3.31,0,0,1-1.08-.48,3.77,3.77,0,0,1-.8-.76,8.51,8.51,0,0,1-.62-.89,6.38,6.38,0,0,1-.18-1.59c0-.86,0-1.33.06-2.22a9.14,9.14,0,0,0,.06-1,6.18,6.18,0,0,0-.18-1.58,2.08,2.08,0,0,0-.73-.22,4.88,4.88,0,0,0-.75,0l-.75,0a2.37,2.37,0,0,1-.73-.07.21.21,0,0,0-.23.14.37.37,0,0,0,0,.11c0,.95-.07,1.09-.11,2.07a10,10,0,0,0-.06,1.25A8.87,8.87,0,0,0,93.38,35.73Zm12.54-4.37s0,.05,0,.07,0,0-.1,0l0-.11A.29.29,0,0,1,105.92,31.35Zm-3.39,10.37h0Zm-5.66-.3,0,0h0Z" style="fill:#515555"/><path d="M110.07,42.57a5.17,5.17,0,0,0,1.44,1.75,5.76,5.76,0,0,0,1.9,1.56,12.54,12.54,0,0,0,2.66,1q5.34,0,7.66-3-.57-.6-1.05-1.15a8.3,8.3,0,0,0-1.24-1.12,4.16,4.16,0,0,1-1.57,1.25,5.34,5.34,0,0,1-1.94.48,6,6,0,0,1-2-.23,5,5,0,0,1-1.77-.91,4.68,4.68,0,0,1-1.24-1.54,4.09,4.09,0,0,1-.4-2.13,4.51,4.51,0,0,1,.39-2.12,4.36,4.36,0,0,1,1.19-1.55,5.16,5.16,0,0,1,1.74-.93,5.94,5.94,0,0,1,2-.28,5.54,5.54,0,0,1,1.95.42,4.73,4.73,0,0,1,1.65,1.15q.57-.57,1.24-1.2a4.47,4.47,0,0,0,1.05-1.59,6.71,6.71,0,0,0-2.29-1.4,11.23,11.23,0,0,0-3-.7,10.8,10.8,0,0,0-3.18.17,6.79,6.79,0,0,0-2.72,1.17,4.92,4.92,0,0,0-1.73,1.46,7.46,7.46,0,0,0-1.12,2.13,10.19,10.19,0,0,0-.5,2.49,9.81,9.81,0,0,0,.13,2.56A8.26,8.26,0,0,0,110.07,42.57Zm3,1.74,0,0h0Zm9.4-11.47v.05h0Z" style="fill:#515555"/><path d="M127.07,46.44l.86,0h.85a4,4,0,0,1,.8.1q.09-1.05.15-2.14a15.2,15.2,0,0,1,.24-2.05,5.11,5.11,0,0,1,.61-1.67,2.32,2.32,0,0,1,1.3-1l2.33,3.54a31.39,31.39,0,0,0,2.51,3.34h4.06a58.25,58.25,0,0,0-3.3-4.81q-1.77-2.32-3.3-4.61.57-.76,1.27-1.51t1.43-1.49l1.48-1.46,1.41-1.39c0-.06,0-.13.15-.22l.29-.25a1.42,1.42,0,0,0,.19-.21q.06-.08-.13-.08h-4.06q-.76.76-1.57,1.64L133,33.94q-.8.87-1.61,1.71t-1.56,1.5v-6.6h-3.58q0,1.81,0,3.82t-.06,4.06q0,2.05,0,4.07t.1,3.83A4.15,4.15,0,0,0,127.07,46.44Z" style="fill:#515555"/><path d="M146.48,40.8v5.82h3.28a6.88,6.88,0,0,0,.27-1.41q.07-.74.07-1.52t0-1.58q0-.8,0-1.56,1.51-2.48,3-4.85t3-5h-3.55A6.11,6.11,0,0,0,151.25,32q-.55.78-1,1.63t-.94,1.72a11.79,11.79,0,0,1-1,1.63q-.48-.76-.92-1.55t-.88-1.57q-.45-.78-.94-1.54a13.28,13.28,0,0,0-1.07-1.42,3.66,3.66,0,0,0-.88-.28,5.73,5.73,0,0,0-1-.09,6.52,6.52,0,0,0-1.09.09,5.45,5.45,0,0,0-1,.28q1.54,2.45,3.14,4.85A47.37,47.37,0,0,1,146.48,40.8Z" style="fill:#515555"/><path d="M88.27,63.32,87.2,61.91q-.54-.7-1-1.36a3.46,3.46,0,0,0,1-.5,3.48,3.48,0,0,1,1-.5l.55-1a7.5,7.5,0,0,0,.49-1.05,8,8,0,0,0,.36-1.25,7.81,7.81,0,0,0,.14-1.55A4.58,4.58,0,0,0,89,52.45a4.44,4.44,0,0,0-1.64-1.38,7.69,7.69,0,0,0-2.32-.7,19.84,19.84,0,0,0-2.75-.21q-1.44,0-3,.08l-3,.16v15.7a8.58,8.58,0,0,0,3.53,0q0-.57,0-1.21t-.06-1.32q0-.68,0-1.32a8.7,8.7,0,0,1,.1-1.17h0l.12,0a2.45,2.45,0,0,0,.6.05l.68-.07.66-.07a2.43,2.43,0,0,1,.72.07,9.36,9.36,0,0,1,.88,1.25l.8,1.36q.4.69.85,1.33a5.73,5.73,0,0,0,1,1.12H90a8.69,8.69,0,0,0-.73-1.38Q88.8,64,88.27,63.32Zm-4.64-4.53h0Zm2.3-1h0Zm.18-1.57a1.7,1.7,0,0,1-.58,1,2.85,2.85,0,0,1-1.12.54,9.14,9.14,0,0,1-1.47.24q-.79.07-1.6.07h-1.5q0-.48,0-1.13t0-1.32a10.42,10.42,0,0,1,.07-1.24,2.19,2.19,0,0,1,.25-.87h1.75a12.49,12.49,0,0,1,1.72.09,5.57,5.57,0,0,1,1.44.37,1.68,1.68,0,0,1,.91.84A2.68,2.68,0,0,1,86.11,56.2ZM88.54,65a.44.44,0,0,0,0-.05.72.72,0,0,0,.2.05Z" style="fill:#515555"/><path d="M104.4,65.55a7.19,7.19,0,0,0,3.82-4.72,11.8,11.8,0,0,0,.28-4A11.44,11.44,0,0,0,107.4,54a7.46,7.46,0,0,0-1.79-2.14A8.41,8.41,0,0,0,103,50.46a12.69,12.69,0,0,0-3.57-.62v.25a6.71,6.71,0,0,0-3.16.5,7.26,7.26,0,0,0-2.45,1.73,8.58,8.58,0,0,0-1.64,2.58,9.72,9.72,0,0,0-.72,3A8.78,8.78,0,0,0,91.78,61a7.48,7.48,0,0,0,1.47,2.76,13.52,13.52,0,0,0,1.16,1.08,7.82,7.82,0,0,0,1.24.84,8.19,8.19,0,0,0,1.4.6,8,8,0,0,0,1.62.33h2.59A12.86,12.86,0,0,0,104.4,65.55ZM99.24,63a5.69,5.69,0,0,1-2.11-.77,4.61,4.61,0,0,1-1.55-1.57,4,4,0,0,1-.53-2.34A5,5,0,0,1,95.23,57a4.51,4.51,0,0,1,.47-1.09,5.65,5.65,0,0,1,.66-.89q.37-.4.76-.79a4,4,0,0,0,.53-.22l.52-.25a3.21,3.21,0,0,1,.57-.21,2.81,2.81,0,0,1,.7-.08h.28a6,6,0,0,1,2.53.5,4.4,4.4,0,0,1,1.74,1.4,4.63,4.63,0,0,1,.83,2.13,6.73,6.73,0,0,1-.22,2.68A3.51,3.51,0,0,1,103.42,62a4.73,4.73,0,0,1-1.94.94A5.83,5.83,0,0,1,99.24,63Z" style="fill:#515555"/><path d="M119.54,49.77h-.27s0,0,0,.07h.27Z" style="fill:#515555"/><path d="M121.67,50.17a8,8,0,0,0-1.62-.33h-.5V50q-.21.21-.24.07a1.27,1.27,0,0,1,0-.25H118V50c-.14.06-.24.07-.3,0a.16.16,0,0,1-.07-.22h-.16V50h-.25V49.9a12.72,12.72,0,0,0-2.9,1,7.19,7.19,0,0,0-3.82,4.72,11.82,11.82,0,0,0-.28,4,11.47,11.47,0,0,0,1.09,2.79,7.47,7.47,0,0,0,1.79,2.14A8.41,8.41,0,0,0,115.7,66a12.69,12.69,0,0,0,3.57.62v-.25a6.72,6.72,0,0,0,3.16-.5,7.27,7.27,0,0,0,2.45-1.73,8.58,8.58,0,0,0,1.64-2.58,9.72,9.72,0,0,0,.72-3,8.78,8.78,0,0,0-.32-3.08,7.48,7.48,0,0,0-1.47-2.76,13.51,13.51,0,0,0-1.16-1.08,7.8,7.8,0,0,0-1.24-.84A8.19,8.19,0,0,0,121.67,50.17Zm2,7.92a5,5,0,0,1-.17,1.38,4.51,4.51,0,0,1-.47,1.09,5.67,5.67,0,0,1-.67.89q-.37.4-.76.79a4,4,0,0,0-.53.22l-.52.25a3.21,3.21,0,0,1-.57.21,2.81,2.81,0,0,1-.7.08H119a6,6,0,0,1-2.53-.5,4.4,4.4,0,0,1-1.74-1.4,4.63,4.63,0,0,1-.83-2.13,6.73,6.73,0,0,1,.22-2.68,3.51,3.51,0,0,1,1.17-1.86,4.73,4.73,0,0,1,1.94-.94,5.83,5.83,0,0,1,2.25-.07,5.69,5.69,0,0,1,2.11.77,4.61,4.61,0,0,1,1.55,1.57A4,4,0,0,1,123.65,58.09Z" style="fill:#515555"/><path d="M117.46,49.77h-.25v.13l.25-.06Z" style="fill:#515555"/><path d="M118,49.77c-.14-.06-.24-.07-.3,0a.23.23,0,0,0-.07.09H118Z" style="fill:#515555"/><path d="M133.39,53.69V66.23a8.81,8.81,0,0,0,3.58,0q0-3.28-.09-6.5t.09-6.32q.57,0,1.18,0l1.21.07q.61,0,1.17,0a4.9,4.9,0,0,0,1-.13,8,8,0,0,0,.22-1.52q0-.77,0-1.52-3.07-.21-6.45-.1t-6.87.1a.87.87,0,0,0-.21.58,5.34,5.34,0,0,0,0,.85q0,.45.11.89a5,5,0,0,1,.07.72,3,3,0,0,0,1.23.16l1.31-.11a12.06,12.06,0,0,1,1.26-.07A2,2,0,0,1,133.39,53.69Z" style="fill:#515555"/><path d="M154.44,58.76a1.48,1.48,0,0,0-.61-.5,3.28,3.28,0,0,0-1.07-.7,11.51,11.51,0,0,0-1.33-.46L150,56.72a10,10,0,0,1-1.38-.45,4.14,4.14,0,0,1-1.15-.7,2.66,2.66,0,0,1-.76-1.12,1.88,1.88,0,0,1,.72-.92,2.47,2.47,0,0,1,1-.37,3.82,3.82,0,0,1,1.2.06,9,9,0,0,1,1.21.33A9.51,9.51,0,0,1,152,54l.83.44a4.85,4.85,0,0,0,1.1-1.08,9.63,9.63,0,0,0,.92-1.44,5.94,5.94,0,0,0-2.24-1.38,9.36,9.36,0,0,0-5.61-.22,5.76,5.76,0,0,0-2.32,1.2,4.1,4.1,0,0,0-1.27,2.12,5.2,5.2,0,0,0,.31,3.06,6,6,0,0,0,1.51,1.69,6.85,6.85,0,0,0,2.27,1.11,8.15,8.15,0,0,0,1.24.29,9.89,9.89,0,0,1,1.28.29,3.29,3.29,0,0,1,1.11.57,2,2,0,0,1,.68,1.15V62a2.05,2.05,0,0,1-.87,1,2.8,2.8,0,0,1-1.2.33,4.48,4.48,0,0,1-1.39-.16,10.4,10.4,0,0,1-1.41-.48,13.55,13.55,0,0,1-1.26-.61q-.58-.32-1-.57-.57.55-1.11,1.11a8.8,8.8,0,0,0-.93,1.13,13.6,13.6,0,0,0,1.43,1.08,8.81,8.81,0,0,0,1.7.86,10,10,0,0,0,2,.53,11,11,0,0,0,2.43.08,6.25,6.25,0,0,0,2.42-.64,4.75,4.75,0,0,0,1.75-1.48,4.63,4.63,0,0,0,.81-2.19,5.89,5.89,0,0,0-.42-2.77A3.49,3.49,0,0,1,154.44,58.76Z" style="fill:#515555"/><path d="M81.49,73.57a.64.64,0,0,0-.26-.22,1.43,1.43,0,0,0-.46-.3,5,5,0,0,0-.58-.2l-.62-.16a4.38,4.38,0,0,1-.6-.19,1.81,1.81,0,0,1-.5-.3,1.16,1.16,0,0,1-.33-.49.82.82,0,0,1,.31-.4,1.07,1.07,0,0,1,.45-.16,1.64,1.64,0,0,1,.52,0,3.88,3.88,0,0,1,.53.14,4.19,4.19,0,0,1,.47.2l.36.19a2.11,2.11,0,0,0,.48-.47,4.17,4.17,0,0,0,.4-.63,2.58,2.58,0,0,0-1-.6,4.07,4.07,0,0,0-2.43-.09,2.5,2.5,0,0,0-1,.52,1.78,1.78,0,0,0-.55.92,2.26,2.26,0,0,0,.13,1.33,2.59,2.59,0,0,0,.66.73,3,3,0,0,0,1,.48A3.53,3.53,0,0,0,79,74a4.25,4.25,0,0,1,.56.12,1.43,1.43,0,0,1,.48.25.87.87,0,0,1,.29.5V75a.89.89,0,0,1-.38.44,1.22,1.22,0,0,1-.52.14,2,2,0,0,1-.6-.07,4.51,4.51,0,0,1-.61-.21,5.88,5.88,0,0,1-.55-.26l-.41-.25-.48.48a3.81,3.81,0,0,0-.4.49,6,6,0,0,0,.62.47,3.83,3.83,0,0,0,.74.37,4.36,4.36,0,0,0,.88.23,4.76,4.76,0,0,0,1.06,0,2.71,2.71,0,0,0,1.05-.28,2.05,2.05,0,0,0,.76-.64,2,2,0,0,0,.35-1,2.56,2.56,0,0,0-.18-1.2A1.54,1.54,0,0,1,81.49,73.57Z" style="fill:#2cb34a"/><path d="M89.85,70.22l-.36-.06-.39,0-.39,0-.35.06a8.38,8.38,0,0,0,0,1l.07,1.13q0,.57,0,1.11a4.13,4.13,0,0,1-.1.88,2.64,2.64,0,0,1-.39.83,1.15,1.15,0,0,1-.69.36,1.73,1.73,0,0,1-.63,0,1.43,1.43,0,0,1-.47-.21,1.63,1.63,0,0,1-.35-.33,3.66,3.66,0,0,1-.27-.39,6.49,6.49,0,0,1-.08-1q0-.56,0-1.14t0-1.15a6.37,6.37,0,0,0-.08-1,.91.91,0,0,0-.32-.09h-.32l-.32,0a1,1,0,0,1-.32,0,.09.09,0,0,0-.1.06.16.16,0,0,0,0,0q0,.62,0,1.25t0,1.26q0,.62.06,1.2a6.43,6.43,0,0,0,.2,1.08,3.53,3.53,0,0,0,.38.89,1.9,1.9,0,0,0,.62.63,3.85,3.85,0,0,0,.91.37,3.29,3.29,0,0,0,1.22.06l.26-.07.28-.06.28-.07a1.06,1.06,0,0,0,.25-.12,1.82,1.82,0,0,0,.77-.56,2.61,2.61,0,0,0,.45-.87,5.15,5.15,0,0,0,.2-1.1q0-.6,0-1.25t0-1.32Q89.85,70.87,89.85,70.22Z" style="fill:#2cb34a"/><path d="M96.9,70.51a3.53,3.53,0,0,0-1.23-.4A8.48,8.48,0,0,0,94.13,70l-1.7.07q-.08,1.65,0,3.39t.05,3.39h1.42a1.57,1.57,0,0,0,.07-.51q0-.26,0-.53t0-.53a1.68,1.68,0,0,1,.08-.51,5.74,5.74,0,0,0,1.8,0,3,3,0,0,0,1.33-.59,2.05,2.05,0,0,0,.7-1.12,3.07,3.07,0,0,0-.11-1.64A1.82,1.82,0,0,0,96.9,70.51Zm-.64,2.31a1.06,1.06,0,0,1-.52.48,2.5,2.5,0,0,1-.84.2,5.4,5.4,0,0,1-.93,0q0-.5,0-1V71.43a3.49,3.49,0,0,1,.6,0,4.54,4.54,0,0,1,.71.06,2.63,2.63,0,0,1,.63.18.68.68,0,0,1,.37.32A1.15,1.15,0,0,1,96.26,72.82Z" style="fill:#2cb34a"/><path d="M105,76.43q0-.17,0-.35a1.87,1.87,0,0,0,0-.33.55.55,0,0,0-.09-.28q-.5,0-1,0l-1,0q-.47,0-.92,0a4.2,4.2,0,0,1-.86-.15,2,2,0,0,0,0-.33,2.42,2.42,0,0,1,0-.34,1.05,1.05,0,0,1,0-.3.36.36,0,0,1,.15-.21,2,2,0,0,1,.67-.14q.39,0,.81,0l.83,0a3.55,3.55,0,0,0,.74,0,2.08,2.08,0,0,1,0-.34l.06-.35a3,3,0,0,0,0-.33.8.8,0,0,0,0-.29,6,6,0,0,0-.78,0l-.83,0h-.81a3,3,0,0,1-.72-.1,1.6,1.6,0,0,1-.08-.28q0-.16-.05-.32a2.58,2.58,0,0,1,0-.31.85.85,0,0,1,0-.27,3.55,3.55,0,0,1,.83-.15q.46,0,.94,0l1,0,.88,0a3,3,0,0,0,.1-.7q0-.38,0-.71l-1.22.06-1.32,0H99.76v6.86q.65,0,1.31,0h2.65q.65,0,1.26-.05A2,2,0,0,1,105,76.43Z" style="fill:#2cb34a"/><path d="M108.71,74.57l.06,0v0h0a1.08,1.08,0,0,0,.31,0l.29,0,.29,0a1.06,1.06,0,0,1,.31,0,4.07,4.07,0,0,1,.38.54l.35.59q.17.3.37.58a2.48,2.48,0,0,0,.44.49h1.65a3.78,3.78,0,0,0-.32-.6q-.2-.31-.43-.62l-.46-.61-.44-.59a1.5,1.5,0,0,0,.44-.22,1.51,1.51,0,0,1,.44-.22l.24-.42a3.23,3.23,0,0,0,.21-.46,3.52,3.52,0,0,0,.15-.54,3.4,3.4,0,0,0,.06-.67,2,2,0,0,0-.33-1,1.93,1.93,0,0,0-.71-.6,3.35,3.35,0,0,0-1-.3,8.56,8.56,0,0,0-1.19-.09q-.63,0-1.29,0l-1.29.07v6.82a3.73,3.73,0,0,0,1.53,0q0-.25,0-.53c0-.19,0-.38,0-.57s0-.39,0-.57a3.75,3.75,0,0,1,0-.52Zm0-2.93a1,1,0,0,1,.11-.38h.76a5.42,5.42,0,0,1,.75,0,2.43,2.43,0,0,1,.63.16.73.73,0,0,1,.39.36,1.16,1.16,0,0,1,.08.64.73.73,0,0,1-.25.41,1.24,1.24,0,0,1-.49.23,4,4,0,0,1-.64.1q-.34,0-.7,0h-.65q0-.21,0-.49t0-.57A4.56,4.56,0,0,1,108.76,71.64Z" style="fill:#2cb34a"/><polygon points="108.75 74.57 108.75 74.57 108.75 74.56 108.75 74.57" style="fill:#2cb34a"/><path d="M117,71.3h3.52a1.11,1.11,0,0,0,0-.28,2.24,2.24,0,0,0,0-.33l0-.34c0-.12,0-.23,0-.33A24.24,24.24,0,0,0,118,70q-1.3,0-2.59,0-.08.73-.09,1.55t0,1.7q0,.88,0,1.76t0,1.73a1.7,1.7,0,0,1,.41,0l.38,0,.36,0a1.12,1.12,0,0,0,.34,0,1.75,1.75,0,0,0,.11-.67c0-.24,0-.47,0-.7s0-.46,0-.68a1.49,1.49,0,0,1,.11-.62h3.1a1.49,1.49,0,0,0,.06-.29,3,3,0,0,0,0-.35,3.1,3.1,0,0,0,0-.35,1.49,1.49,0,0,0-.06-.29,7,7,0,0,0-.84,0l-.85,0h-.81a3.64,3.64,0,0,1-.72-.09q0-.16,0-.35c0-.13,0-.26,0-.38a2.12,2.12,0,0,1,0-.36A.75.75,0,0,1,117,71.3Z" style="fill:#2cb34a"/><path d="M125.71,69.7v.11a2.91,2.91,0,0,0-1.37.22,3.15,3.15,0,0,0-1.07.75,3.73,3.73,0,0,0-.71,1.12,4.22,4.22,0,0,0-.31,1.31,3.82,3.82,0,0,0,.14,1.34,3.24,3.24,0,0,0,.64,1.2,5.9,5.9,0,0,0,.5.47,3.39,3.39,0,0,0,.54.36,3.53,3.53,0,0,0,.61.26,3.44,3.44,0,0,0,.7.14h1.12a5.57,5.57,0,0,0,1.37-.47,3.12,3.12,0,0,0,1.66-2.05,5.12,5.12,0,0,0,.12-1.74,5,5,0,0,0-.47-1.21,3.25,3.25,0,0,0-.78-.93,3.66,3.66,0,0,0-1.13-.62A5.51,5.51,0,0,0,125.71,69.7Zm2,6.58h0l.05,0Zm0-4.19A2,2,0,0,1,128,73a2.93,2.93,0,0,1-.09,1.16,1.53,1.53,0,0,1-.51.81,2.06,2.06,0,0,1-.84.41,2.53,2.53,0,0,1-1,0,2.46,2.46,0,0,1-.92-.33,2,2,0,0,1-.67-.68,1.75,1.75,0,0,1-.23-1,2.16,2.16,0,0,1,.07-.6,2,2,0,0,1,.2-.47,2.43,2.43,0,0,1,.29-.39l.33-.34.23-.09.22-.11.25-.09a1.2,1.2,0,0,1,.3,0h.12a2.59,2.59,0,0,1,1.1.22A1.91,1.91,0,0,1,127.69,72.1Z" style="fill:#2cb34a"/><path d="M138.77,74.47a5.12,5.12,0,0,0,.12-1.74,5,5,0,0,0-.47-1.21,3.25,3.25,0,0,0-.78-.93A3.66,3.66,0,0,0,136.5,70,5.51,5.51,0,0,0,135,69.7v.11a2.91,2.91,0,0,0-1.37.22,3.15,3.15,0,0,0-1.07.75,3.73,3.73,0,0,0-.71,1.12,4.22,4.22,0,0,0-.31,1.31,3.82,3.82,0,0,0,.14,1.34,3.24,3.24,0,0,0,.64,1.2,5.9,5.9,0,0,0,.5.47,3.39,3.39,0,0,0,.54.36,3.53,3.53,0,0,0,.61.26,3.44,3.44,0,0,0,.7.14h1.12a5.57,5.57,0,0,0,1.37-.47,3.12,3.12,0,0,0,1.66-2.05Zm-1.86,1.82h0l.05,0Zm.29-2.1a1.53,1.53,0,0,1-.51.81,2.06,2.06,0,0,1-.84.41,2.53,2.53,0,0,1-1,0,2.46,2.46,0,0,1-.92-.33,2,2,0,0,1-.67-.68,1.75,1.75,0,0,1-.23-1,2.16,2.16,0,0,1,.07-.6,2,2,0,0,1,.2-.47,2.43,2.43,0,0,1,.29-.39l.33-.34.23-.09.22-.11.25-.09a1.2,1.2,0,0,1,.3,0h.12a2.59,2.59,0,0,1,1.1.22,1.91,1.91,0,0,1,.76.61,2,2,0,0,1,.36.93A2.93,2.93,0,0,1,137.19,74.19Z" style="fill:#2cb34a"/><path d="M154.31,73.57a.64.64,0,0,0-.26-.22,1.43,1.43,0,0,0-.46-.3,5,5,0,0,0-.58-.2l-.62-.16a4.38,4.38,0,0,1-.6-.19,1.81,1.81,0,0,1-.5-.3,1.16,1.16,0,0,1-.33-.49.82.82,0,0,1,.31-.4,1.07,1.07,0,0,1,.45-.16,1.64,1.64,0,0,1,.51,0,3.89,3.89,0,0,1,.53.14,4.22,4.22,0,0,1,.47.2l.36.19h0a2.11,2.11,0,0,0,.48-.47,4.17,4.17,0,0,0,.4-.63,2.58,2.58,0,0,0-1-.6,4,4,0,0,0-1.21-.23h0a4,4,0,0,0-1.22.14,2.5,2.5,0,0,0-1,.52,1.78,1.78,0,0,0-.55.92,2.26,2.26,0,0,0,.13,1.33,2.59,2.59,0,0,0,.66.73,3,3,0,0,0,1,.48,3.54,3.54,0,0,0,.54.12,4.23,4.23,0,0,1,.56.12,1.43,1.43,0,0,1,.48.25.87.87,0,0,1,.29.5V75a.89.89,0,0,1-.38.44,1.22,1.22,0,0,1-.52.14,2,2,0,0,1-.6-.07,4.51,4.51,0,0,1-.61-.21,5.88,5.88,0,0,1-.55-.26l-.41-.25h0l-.48.48a3.87,3.87,0,0,0-.4.49,6,6,0,0,0,.62.47,3.83,3.83,0,0,0,.74.37,4.36,4.36,0,0,0,.88.23,4.18,4.18,0,0,0,.51,0h.55a2.71,2.71,0,0,0,1.05-.28,2.05,2.05,0,0,0,.76-.64,2,2,0,0,0,.35-1,2.56,2.56,0,0,0-.18-1.2A1.54,1.54,0,0,1,154.31,73.57Z" style="fill:#2cb34a"/><path d="M141.26,69.92a.16.16,0,0,0,0,0q0,.79-.06,1.65t0,1.75q0,.89,0,1.75v1.65a3.62,3.62,0,0,0,.71.09h.79l.81,0a5.8,5.8,0,0,1,.77,0,5.4,5.4,0,0,0,1.27-.45,3.72,3.72,0,0,0,1-.73,3.59,3.59,0,0,0,.68-1,4.25,4.25,0,0,0,.34-1.32,3.88,3.88,0,0,0-.22-1.37,2.72,2.72,0,0,0-.62-1,3,3,0,0,0-1-.64,5.94,5.94,0,0,0-1.24-.37,9.67,9.67,0,0,0-1.47-.15q-.79,0-1.63,0A.09.09,0,0,0,141.26,69.92Zm1.52,1.37a4.12,4.12,0,0,1,1.86.23,2.07,2.07,0,0,1,1.11,1,2.64,2.64,0,0,1,.09,1.42,1.86,1.86,0,0,1-.59,1,2.43,2.43,0,0,1-1.08.52,4.28,4.28,0,0,1-1.39.06q-.08-1-.08-2.09T142.78,71.29Z" style="fill:#2cb34a"/><path d="M74,41.55q-.09,0,0-.2c.71.21-.14-1.86-.41-2.26A9.56,9.56,0,0,0,71,36.64a18.27,18.27,0,0,0-5.8-2.53v.24c-.29-.12-.44-.27,0-.25a18.57,18.57,0,0,0-2.27-.45,18.72,18.72,0,0,0,.8,7.94,8.81,8.81,0,0,0,3,4.42c.06,0,.32.15.5.27s.38.15.57.24a5.08,5.08,0,0,0,2,.37c-.09-.11-.38-.12-.5-.1a4.71,4.71,0,0,0,2.21-.22c.17-.11.21-.28.39-.38s.17.07.33,0a4.35,4.35,0,0,0,.55-.43c-.34-.2.32-.84.7-.76-.13-.3,0-.49.21-.71s.17.08.29-.08.22-.36,0-.25c0,0,.3-.87.13-.73a.16.16,0,0,1,.18,0,1.14,1.14,0,0,0-.06-.56c.23,0,.21-.5.16-.7C74.24,41.52,74.4,41.65,74,41.55ZM72,46C72.13,45.88,72.11,45.94,72,46Zm2.19-3.85H74C74,41.78,74.18,41.79,74.18,42.12Z" style="fill:#bad982"/><path d="M77.53,21.42a.07.07,0,0,0,0-.07h0l0,.08Z" style="fill:#6cca81"/><path d="M77.24,25.87c-.13,0,.5-1.54.51-1.94,0-.22-.08-.72-.1-1.06.12.25,0,0,.16.11,0-.25-.06-1.51-.38-1.51a2.29,2.29,0,0,0-1.25-1.83c.37,0,.15,0,0-.26a3.43,3.43,0,0,0-1-.82,4.79,4.79,0,0,0-1.22-.48,2.7,2.7,0,0,0-.89,0c0-.58-1.19.26-1.28-.13-2.94.29-5.12,2.72-6.14,5.22v-.1a17.3,17.3,0,0,0-.79,1.68c.31.06-.13.41-.23.62a8.08,8.08,0,0,0-.49,1.51h.18c-.08.26-.21.16-.26.28a8.87,8.87,0,0,0-.27,1.11c-.1.44-.18.89-.26,1.34a18.79,18.79,0,0,0-.24,1.93,25,25,0,0,0,7-.84C72.87,30.06,76.17,28.43,77.24,25.87ZM77.68,24v.25h-.11Q77.49,24,77.68,24Zm0-1.78,0,.22C77.56,22.48,77.54,22.15,77.65,22.26ZM76.4,27l.23-.35C76.61,26.85,76.49,27.28,76.4,27Zm-12-.44-.1-.23Q64.57,26.31,64.37,26.58ZM68.88,19H69C68.67,19.21,69,19.06,68.88,19Zm1.29-.54-.23.09c0-.22.12-.16.24-.22Zm2.28-.21-.17,0a.2.2,0,0,1,.23-.16Zm1.35.08q0-.18.09-.09C74,18.3,73.93,18.33,73.81,18.33Zm1.31.65c0,.08-.25,0-.23,0a.3.3,0,0,1,.23-.11Zm1,.64-.34-.19C75.95,19.18,76.19,19.38,76.14,19.61Z" style="fill:#6cca81"/><path d="M71.15,77.58a9.32,9.32,0,0,0-.58-1,14,14,0,0,0-3.52-3.28c.49-.87,3.58.28,3.88-2.24-.52,2.52-3.66.88-4.23,2-1.26-.87-2.55-1.68-3.62-2.52.7-.91,4.23.34,4.58-2.6-.61,2.91-4.16,1.15-5,2.28-1.46-1.24-2.36-2.57-1.91-4.31,5.42,1.78,11.34-2.86,8.8-7-1.51-2.45-5.24-1.56-7.67-.39a.46.46,0,0,0,.12.23q-.13,0-.21-.15v0a10.64,10.64,0,0,0-1.36.79h0a.26.26,0,0,1-.18.13h0l-.2.16,0,0a.21.21,0,0,1,.18.09.5.5,0,0,1,0,.15h0c.25.26.6.62,1,1V60.9l.07.07h-.06l.31.27h0l0,0,.13.11h0a6.14,6.14,0,0,0,1.78,1.06v0h0l.23.07v.06l.29.05.09,0a.24.24,0,0,1,.12,0,3.14,3.14,0,0,0,1.11,0h0a2.9,2.9,0,0,0,.85-.27l0-.11.28,0a2.28,2.28,0,0,0,.33-.26.35.35,0,0,1,.09-.13l.07,0c.87-1.08.08-2.68-4.67-2.14a16.67,16.67,0,0,1,2.3-.57.42.42,0,0,1,0-.1.26.26,0,0,1,.25.07c6.27-.92,4.34,4.79-.64,5.12-3.76.25-7.77-3-7.78-6.89,0-6,2.62-11.06,3.69-15.69a1.18,1.18,0,0,1-.23.15.86.86,0,0,1-.34.09l-.2.52h.15l-.18.09c-.5,1.31-1.08,2.65-1.66,4h.32c.06.06.08.11.07.15s-.06.07-.13.08l-.23,0h-.14l-.44,1h.11a.19.19,0,0,1-.14.21h-.06c-2.21,5.32-3.91,10.8,0,15.53a8.76,8.76,0,0,0,2.48,2c-.93,3.09,1.13,4.86,3.78,6.55-.49,1-.58,3-2.54,2.84,2,.38,2.29-1.73,2.85-2.64l.06,0,.38.23a33.26,33.26,0,0,1,4.47,3c-.47.73-.31,2.61-2,2.52,1.73.24,1.73-1.72,2.23-2.32a9.59,9.59,0,0,1,1.24,1.36c1.78,2.42,3,6-.16,9.08,2.92-2.45,2.58-5.82,1.4-8.27l0,0c.19-.79,2.57.19,2.8-1.68C73.76,78,71.63,76.89,71.15,77.58ZM60.61,60.09s0,0,0-.08l.06.09Zm.43.52s0-.05,0-.07l.11.12Zm5.82.93v.05h-.05Zm-4.27-1.91v0l-.16,0Zm.41-.2h0l.1,0S63,59.43,63,59.43ZM58.35,46.18h.23v.25h-.23Zm-.53,1.26h.25c0-.12,0-.19,0-.21a.67.67,0,0,1,.24,0v.23h-.28a.44.44,0,0,1,0,.14.21.21,0,0,1-.23.14Z" style="fill:#2cb34a"/></svg>