<svg id="nutrition" xmlns="http://www.w3.org/2000/svg" width="84" height="64" viewBox="0 0 84 64"><title>nutrition-icon</title><path d="M68.83,25.72c-3.36-15.41-26.84-7-26.84-7s-23.48-8.46-26.83,7c-2,9.38,1.15,41.89,26.83,38C67.69,67.61,70.88,35.1,68.83,25.72ZM27.08,47.41a2,2,0,0,1-1.48,3.24A1.94,1.94,0,0,1,24.15,50c-.18-.21-4.49-5.16-4.49-16,0-8,4.69-11.19,4.89-11.32a2,2,0,0,1,2.15,3.26c-.17.12-3.13,2.28-3.13,8.06C23.56,43.22,27,47.37,27.08,47.41Z" style="fill:#43b02a"/><polygon points="46.64 0 40.3 0 40.3 14.76 43.47 14.76 46.64 0" style="fill:#43b02a"/><path d="M61,4.75c-10.6-1.8-15.63,7.9-15.63,7.9C56.47,15.89,61,4.75,61,4.75Z" style="fill:#43b02a"/><rect width="84" height="64" style="fill:none"/></svg>