<svg xmlns="http://www.w3.org/2000/svg" width="654" height="103.9" viewBox="0 0 654 103.9"><title>spread the wellness</title><path d="M243,62.16a4.63,4.63,0,0,0-3.43,1.6,6,6,0,0,1-4.23,1.92c-5.72,0-6-4.11-6.33-7.41v-.62c1.86-28.3,7.13-33.56,8.41-46.21.58-5.91-.72-9-4.08-8.33-6.62,1.26-11.18,35.65-11.18,35.65l-1.52-.93a10.57,10.57,0,0,0-5.54-1.45c-6.58,0-18.34,7.22-18.34,21.62a17.69,17.69,0,0,0,1,5.88,9.49,9.49,0,0,1-5.18,1.8c-1.78,0-3.93-.83-3.93-4.81a42.18,42.18,0,0,1,.88-5.55c.79-4,1.85-9.56,1.85-13.43,0-1.17-2.64-1.78-5.24-1.78h-.35l-.25-.22a11,11,0,0,0-7.3-2.8C166,37.09,156.19,50.18,156.19,61a15.27,15.27,0,0,0,.28,2.87A19.5,19.5,0,0,1,146.73,67a11.87,11.87,0,0,1-5.07-1.08L140,65.14l1.56-.9c6.36-3.7,10-9.32,10-15.43,0-7-4.87-11.72-12.13-11.72-15.54,0-15.73,17.69-15.73,17.9a21,21,0,0,0,2.49,9.84,29.55,29.55,0,0,1-8.2,1.42c-2.36.06-4.1-1.24-4.1-2.94s1-3.68,2.46-6.83c.58-1.27,1.25-2.7,2-4.32a9.31,9.31,0,0,0,.76-3.92c0-4.52-3.36-7.42-5.66-7.42a28.23,28.23,0,0,0-3.08.25,34.53,34.53,0,0,1-4.26.33c-2.55,0-6.82,0-6.82-3.09,0-5.55-2.78-7.9-6-7.9-4.39,0-6,4.35-6,8.1,0,3.06,3.35,6.73,3.35,6.73l-.07.51c-1.47,10.44-3.74,13.08-5.86,15.41A13.88,13.88,0,0,1,81,63.9a19.74,19.74,0,0,0,1.77-8.21c0-10.31-6.22-19-13.59-19-4.56,0-10.15,2.79-15,7.48l-1.77,1.79s.63-8.29-5.07-7.68a6.56,6.56,0,0,0-6.12,6.68v.5L41.45,48c.23,3,.52,6.85.75,12.3a19.82,19.82,0,0,1-5.58,4.37,0,0,0,0,1,0,0c0-3.88-2.17-7.14-4.5-10.61C29.59,50.2,27,43.7,27,38.59c0-.44.08-.92.13-1.42.76-7.19-12.08-6.47-11,1.71a22.44,22.44,0,0,0,.45,2.51A11.62,11.62,0,0,1,17,43.73C17.32,50.48,5.78,60.34.34,64.87.18,65,0,65.36,0,66.46c0,2.21,1.36,4.77,5.21,4.77,1.58,0,13.53-9.33,15.66-15.15l.84-2.32.92,2.3a20.7,20.7,0,0,0,2.26,4.14,6.27,6.27,0,0,1,1.48,3.71c0,2.65-3.08,3.83-6,5s-5.83,2.27-5.83,4.41c0,3.84,3,5.19,5.66,5.19A48.92,48.92,0,0,0,31.93,76.2a32.53,32.53,0,0,0,10.56-5.62c.06,3,.09,6.33.09,10.12,0,2.47-.1,5-.2,7.68s-.24,5.49-.24,8.26c0,5,1.62,7.26,5.25,7.26a3,3,0,0,0,2.26-.94c2.86-2.88,2.77-11.52,2.73-17.85l0-2.54c0-1.84,0-5.44-.07-9.07S52.21,66,52.21,64c0-6.45,9.67-18.15,15-18.15,4,0,5.55,5.76,5.55,9.39,0,7.87-4.65,8-8.38,8.12-2.67.07-6.17.09-7.45,2.2A6.88,6.88,0,0,0,56,69c0,3.48,4.38,5.6,9.74,5.6a13.41,13.41,0,0,0,1.42-.16s0,.08.08.08c1.38,0,14.87.26,24-8.2,4.78-4.41,6.85-13.19,6.71-17.75l-.07-1.42,1.34.52a22.32,22.32,0,0,0,5.34,1.28c2.65.36,5.15.72,5.15,3.77,0,1.81-.92,3.46-1.88,5.21-1.27,2.27-2.72,4.83-2.72,8.56,0,5.25,4.22,8.41,11.27,8.41A36.45,36.45,0,0,0,131.48,71a21.17,21.17,0,0,0,12.84,3.86c7,0,12.49-1.61,16.39-3.8a13.21,13.21,0,0,0,8.21,2.81c4.36,0,9.21-2.32,11.23-4.46l.9-1,.61,1.21c1.17,2.33,4.87,4.82,10.22,4.82A19.4,19.4,0,0,0,202.53,71a13.85,13.85,0,0,0,9.12,3.35c6.06,0,10.59-4.12,12.28-5.89l.94-1,.59,1.28c1.36,3,3.5,5.78,9.92,5.78a11.72,11.72,0,0,0,8.86-4,7.53,7.53,0,0,0,2.47-4.8A3.59,3.59,0,0,0,243,62.16ZM134.94,61l-.69.32-.44-.58a9.88,9.88,0,0,1-1.34-5.2c0-5.14,3.12-9.68,6.69-9.68a4,4,0,0,1,3.8,4.23C143,53.52,139.9,58.69,134.94,61Zm45.15-1.83c-2.62,3-6.59,5.07-9.5,5.07A5.43,5.43,0,0,1,167.37,63a4.78,4.78,0,0,1-1.68-2.64,7.16,7.16,0,0,1-.3-1.93c0-5.63,5.92-12.16,13.57-12.16a3.34,3.34,0,0,1,3.37,3.39C182.33,51.75,182.33,56.63,180.09,59.17Zm40.56-.55c-2.6,4.26-5.4,6.51-8.14,6.51a5.38,5.38,0,0,1-4.06-1.94,7.4,7.4,0,0,1-1.48-2.7,10.79,10.79,0,0,1-.43-3.07c0-7.75,5.84-12.71,9.87-12.71,3.51,0,6.38,3.26,6.38,7.26A12.32,12.32,0,0,1,220.65,58.62Z" style="fill:#fff"/><path d="M416.28,38.8c-4.32-.1-3.92,10.44-3.92,10.44l0,.45c-.24,7.87-1.11,15.56-8.38,15.56-3.43,0-7.13-2.26-7.13-8.55,0-.91.13-2,.25-3.15.16-1.44.28-3.08.32-4.88.25-7.83-4.07-8.15-5.23-8.15-5.74,0-7.27,9.18-7.27,14.79-1.1,5.64-5.48,10.22-9.67,10.22-2.88,0-6-2.34-6-7.53,0-1.84.69-8.09.85-9.48C371.25,38.81,365,40,364.56,40c-5.53,0-5.81,12.38-5.81,14.86,0,7.91,1.79,21.21,13.85,21.21,6,0,11.22-3.32,16-10.1l1-1.48.6,1.7c1.29,3.75,4.69,10,13.23,10,15.68,0,17.83-22.31,18-24.85C422,45.52,421.72,38.94,416.28,38.8Z" style="fill:#fff"/><path d="M650.3,50c-1,0-2,.26-3.74,1.57-3.32,2.5-5.67,3.34-9.29,3.34-.89,0-1.86,0-3-.15l-.45,0-.27-.37c-3.06-4.8-4.56-8.58-4.56-11.58a16.29,16.29,0,0,1,.33-3,17.49,17.49,0,0,0,.37-3.45c0-1.77-2.59-3.55-7.52-3.55-2.36,0-3.17,1.35-4.42,3.35l-.42.68c-1.13,1.78-2.13,3.39-3,4.85-4.42,7.2-6.89,11.16-14,12.81l-.55.13-.39-.44c-.76-.94-1.55-1.85-2.35-2.76-3.09-3.53-6.31-7.18-6.31-11.77a22.07,22.07,0,0,1,.21-2.25,8.45,8.45,0,0,0,.2-1.78c0-.76,0-3.07-4.66-3.07-6.38,0-7.27,3.27-7.27,6.83,0,4.1,5.29,10.72,10.43,14.76l1.84,1.44-2.33.2c-5,.48-13.16,2.36-13.45,9.65A17.41,17.41,0,0,1,568.91,67a12,12,0,0,1-5.11-1.08l-1.64-.74,1.55-.9c6.38-3.7,10.07-9.32,10.07-15.43,0-7-4.91-11.72-12.16-11.72C546,37.09,545.87,54.78,545.87,55A21.11,21.11,0,0,0,548,64.16a9.33,9.33,0,0,1-4.64,1.52c-1.86,0-3.77-1.31-3.77-4.24a51,51,0,0,1,.55-6.34,73.82,73.82,0,0,0,.72-9.46c0-4.83-2.73-10-10.39-10-5.81,0-12.07,6-15.74,12l-1.6,2.61L513,47.24c-.07-1.71-.07-3.17-.11-4.45-.1-6.06-.1-6.85-4.42-6.85-3.09,0-3.78,2.49-3.78,5.44s-.05,6-.06,8.65c-.06,4.53-.35,8.65-.5,12.15-2,1.44-4.27,3.07-7.2,3.07-3.11,0-5.64-3.7-5.94-8.23C497.44,43.28,503.36,21,504,7c.52-10.41-11.81-7.88-15-1.41-1.36,2.72-6.9,10.81-6.9,34.54a115.67,115.67,0,0,0,.83,15.4,13.53,13.53,0,0,1,.14,1.55c0,3.83-6,8.13-9.26,8.13-6.83,0-7.34-6.93-7.53-9.32,2.52-8,7.39-31.32,7.39-38.38,0-10.43-1.58-14.49-5.22-11.86-.83.6-9.55,10.86-9.55,34,0,8.21-.07,14.68.36,19.73-3.08,5.39-8.74,10.09-19.74,5.74l1.58-.9c6.37-3.7,10-9.32,10-15.42,0-7-4.88-11.73-12.15-11.73-15.56,0-15.76,17.71-15.76,17.89,0,9.59,6.47,19.9,20.63,19.9,7.16.13,13.05-.51,17.36-6.65C463,72,466,73.81,471.51,74.17c7.37.48,12.62-4.58,13.61-5.49l.82-.79.62,1a10.27,10.27,0,0,0,9.53,5.29,19.07,19.07,0,0,0,9.05-2.42,3.54,3.54,0,0,0,.39.63,3.24,3.24,0,0,0,2.42.92,4.58,4.58,0,0,0,3.53-1.16c1.36-1.38,2-4.33,1.86-9.54v-.18l.06-.16c2.85-7.24,9.86-17.71,15.08-17.71,2.51,0,3.81,1.92,3.81,5.69a44,44,0,0,1-.48,5.3,62.35,62.35,0,0,0-.68,8.2c0,9.69,7.82,10.72,11.17,10.72a21.11,21.11,0,0,0,11-3.72h0a21.1,21.1,0,0,0,13.16,4.13,36.72,36.72,0,0,0,12.84-2.13,10,10,0,0,1-1.53-1.44,10,10,0,0,0,1.53,1.44,17.65,17.65,0,0,0,10.77,3.14c7.79,0,13.45-5.16,13.45-12.28a11.81,11.81,0,0,0-.31-2.44l-.14-.81.8-.25C614.09,57,617.52,49.7,619.4,45.78a15.22,15.22,0,0,1,1-1.92L622,41.42l.13,2.9c.14,3,1.17,7.22,2.64,8.9l1.14,1.35-1.76.19c-5.21.56-14,2.64-14,10.28,0,5.65,6.45,10.42,14.13,10.42,4,0,7.25-1.23,9.49-3.56a11.15,11.15,0,0,0,2.92-8.4l0-1h1a20.93,20.93,0,0,0,14.12-5,5.06,5.06,0,0,0,2.2-4A3.64,3.64,0,0,0,650.3,50ZM434.49,61l-.66.31-.48-.57A9.8,9.8,0,0,1,432,55.54c0-5.14,3.13-9.67,6.69-9.67,2.46,0,3.78,2.19,3.78,4.23C442.48,53.53,439.42,58.69,434.49,61Zm56.39-43.86s1.58-5.15,4-5.87,2,2.55,1.68,5.18a208.26,208.26,0,0,1-7.33,28.45A67.59,67.59,0,0,1,490.88,17.15Zm66.84,43.47c-.22.11-.4.27-.61.39l-.68.32-.46-.58a3.77,3.77,0,0,1-.5-.94,11.43,11.43,0,0,1-.83-4.27c0-5.14,3.12-9.68,6.66-9.68a4,4,0,0,1,3.84,4.23C565.14,53.39,562.26,58.15,557.72,60.62Zm32.57,8.5a5.83,5.83,0,0,1-3.37-1,3,3,0,0,1-1.32-2.51c0-.92.45-2.77,3.74-3.57a15.3,15.3,0,0,1,3.64-.41l1,0,.26.33a5.31,5.31,0,0,1,1,3.18C595.23,67.1,593.94,69.12,590.29,69.12Zm33.6-.27c-3.32,0-6.64-1.56-6.64-4.53,0-1,.47-2.36,2.93-3.09a17.48,17.48,0,0,1,4.68-.52c1.17,0,2.14,0,2.67.1l.42,0,.26.31a5,5,0,0,1,.91,3C629.12,67,627,68.85,623.89,68.85Z" style="fill:#fff"/><path d="M349.53,63.06a4.1,4.1,0,0,0-3,1.19,12,12,0,0,1-7.49,3.25,10.87,10.87,0,0,1-5.13-1l1.7-1.13c4.89-3.16,7.7-7.82,7.7-12.79,0-6.2-4.32-10.38-10.75-10.38-11.26,0-13.74,11.24-13.74,15.58a17.92,17.92,0,0,0,1.75,7.48,14.15,14.15,0,0,1-2.5.64c-2,.34-6.82,1.16-6.58-4.12.07-1.3.24-2.92.55-5a49.43,49.43,0,0,0,.82-8.09c0-6.11-2.33-9.22-8.57-9.22-4.66,0-9.59,3.35-13.49,9.19l-1.54,2.29,0,0c.14-.43,7.26-23,7.83-27.51,1-7.43-.16-12.42-3.52-12.42-3.84,0-9.74,26.31-10.61,32.08-1.43,9.75-2.45,13.19-2.24,17.18a37.84,37.84,0,0,1-3.07,3.28c-1.7,1.26-3.62,2.7-6.19,2.7a5,5,0,0,1-3.83-1.52c-1.83-1.81-2.64-5.22-2.58-10.77v-.27l.05-2.92,1.86.11c7.41,0,9.67-2.6,10.08-6.55a1.76,1.76,0,0,0-.41-1.53c-.55-.61-1.68-.94-3.36-.94h0c-.73,0-1.82,0-3.52.09l-3.36-.08c1.38-7.35,6.53-19.17,4.5-21.34a2.69,2.69,0,0,0-2.08-.91c-4.51,0-8.49,7.88-10.91,20.7l-.15.75h-1.47c-3.09,0-5,.79-5.15,3.15-.06,1.38.49,4,5.08,5.59l.67.23-.05.73c-.89,10.69.18,17,3.4,20.51,2.14,2.31,5.24,3.45,9.55,3.45a18.92,18.92,0,0,0,12.35-4.56c1,2.74,2.32,3.34,4,3.34,2.93,0,4.44-2.34,4.44-7,0-1.18-.08-2.34-.2-3.56l-.06-.6.06-.13c1.24-5.95,5.89-12.95,10.87-12.95q3,0,3,4.19a33.46,33.46,0,0,1-.48,4.86,44.83,44.83,0,0,0-.62,6.45c0,6.38,4.36,9.93,11,9.93a27.77,27.77,0,0,0,11.64-3.1,18.13,18.13,0,0,0,11,3.45c10.24,0,16.39-4.52,16.39-8.91A3.5,3.5,0,0,0,349.53,63.06Zm-20.4-.9-.89.49-.41-.94a9.68,9.68,0,0,1-.66-3.45c0-4,2.47-7.73,5.19-7.73a2.88,2.88,0,0,1,2.74,3.09C335.1,56.23,332.86,60.13,329.13,62.16Z" style="fill:#fff"/></svg>