<svg id="thumbs_up_applied" data-name="thumbs up applied" xmlns="http://www.w3.org/2000/svg" width="18" height="18" viewBox="0 0 18 18"><title>thumbs-up-applied</title><path d="M10,2c.94,0,2.84.51,1.68,5h3.2A1.08,1.08,0,0,1,16,8v.09A1.08,1.08,0,0,1,14.9,9.21,1.08,1.08,0,0,1,16,10.28v.09a1.08,1.08,0,0,1-1.09,1.07A1.08,1.08,0,0,1,16,12.51v.09a1.08,1.08,0,0,1-1.09,1.07h-.76a1.08,1.08,0,0,1,1.09,1.07v.09a1.08,1.08,0,0,1-1.09,1.07H8.2L6,15v1H2V7.13H6V8.55L7.91,6.63,9.32,4.39,9.56,2A2.26,2.26,0,0,1,10,2m1.72,7.21h0M10,0h0A4.18,4.18,0,0,0,9.1.1,2,2,0,0,0,7.57,1.84L7.38,3.72,6.46,5.17a2,2,0,0,0-.42,0H2a2,2,0,0,0-2,2V16a2,2,0,0,0,2,2H6a2,2,0,0,0,1.14-.35l.23.1a2,2,0,0,0,.8.17h5.94a3.09,3.09,0,0,0,3.09-3.07v-.09s0-.08,0-.13a3,3,0,0,0,.76-2v-.09a3,3,0,0,0-.19-1.07A3,3,0,0,0,18,10.37v-.09a3,3,0,0,0-.19-1.07A3,3,0,0,0,18,8.13V8A3.09,3.09,0,0,0,14.9,5h-.84a5.1,5.1,0,0,0-.91-3.5A3.84,3.84,0,0,0,10,0Z" style="fill:#fff"/></svg>