<svg id="How_we_spread_wellness" data-name="How we spread wellness" xmlns="http://www.w3.org/2000/svg" width="217.25" height="58.77" viewBox="0 0 217.25 58.77"><defs><style>.cls-1{fill:#43b02a;}</style></defs><title>wellness</title><path class="cls-1" d="M22.23,12.77A1.36,1.36,0,0,0,21,11.28c-.86,0-2.3.53-3.55.67,0-3.12.38-6.38.38-7.3a2.18,2.18,0,0,0-2.35-2.4c-1.82,0-2,1.73-2,3.17s0,5,.1,6.91c-1.15.1-2.4.14-3.6.14-.91,0-2.4,0-2.69-.1,0-1.44,0-3.74,0-6.72,0-3.89-.19-5.09-2.5-5.09A1.7,1.7,0,0,0,3,2.45C3,4,3.41,6.91,3.41,12a6.74,6.74,0,0,0-1.58-.19A1.66,1.66,0,0,0,0,13.59c0,1,.53,1.68,3.41,2.26,0,2.88-.1,4.94-.1,6.14,0,2,1.15,2.59,2.35,2.59,1.44,0,1.73-.82,1.73-2.11,0-.82-.1-4.7-.1-6.24.82,0,1.87.1,2.83.1,1.15,0,2.4,0,3.55-.14,0,2.4,0,4.66,0,6.77,0,.77.48,1.49,2,1.49,1.15,0,1.87-.48,1.87-2,0-1.68-.24-4.56-.24-6.77C19.92,15.22,22.23,14.35,22.23,12.77Z"/><path class="cls-1" d="M50.5,25c3.84,0,5.71-4.13,6-7.34,0-.34.19-.48.62-.48,3.55,0,5.23-2.45,5.23-3.94a1.83,1.83,0,0,0-1.73-1.78c-1.34,0-2.06,2.21-4.13,2.21a25.92,25.92,0,0,0-2.74-.34,1.73,1.73,0,0,0-1.78,1.87A2.78,2.78,0,0,0,53,17.28c-.29,2.78-1.1,3.46-2.4,3.46-1,0-2-.58-2-2.54,0-.67.19-1.58.19-2.69,0-1.3-.38-1.92-.91-2.26a1.25,1.25,0,0,0-1.15-.77c-2.21,0-2.74,3.36-2.74,5.18-.34,1.68-1.73,3.17-3,3.17-.82,0-1.68-.67-1.68-2.21,0-.91.24-1.78.24-2.74v-.38A4.85,4.85,0,0,0,39,13.06a2.21,2.21,0,0,0-1.49-.77,1.57,1.57,0,0,0-1.32.79,4.24,4.24,0,0,0-1.65,1.14,1.84,1.84,0,0,1-1.25.62c-1.34,0-1.68-1.2-3.22-1.44a1.79,1.79,0,0,0,.19-1c0-.77-.72-1.58-2.69-1.58-4.8,0-6.29,5.52-6.29,7.73a5.8,5.8,0,0,0,5.57,6c4.27,0,6.29-3.22,6.29-5.38A2.9,2.9,0,0,0,32.93,18h.38a5.82,5.82,0,0,0,1.92-.36c0,3.7,1.24,7.27,4.94,7.27,2.83,0,4.75-2.16,5.71-3.5A4.7,4.7,0,0,0,50.5,25ZM27,21a2.4,2.4,0,0,1-2.3-2.64A3.85,3.85,0,0,1,28,14.5a1.92,1.92,0,0,0-.14.72,2.49,2.49,0,0,0,1.82,2.16,2.54,2.54,0,0,1,.19.86A2.69,2.69,0,0,1,27,21Z"/><path class="cls-1" d="M68.78,6.1A2.06,2.06,0,0,0,70,5.76c.24.1.34,1.25.34,2,0,2.3-.34,5.23-.34,8.16,0,3.5,1.78,7.68,6,7.68A7.93,7.93,0,0,0,82.7,19.3c1,2.88,2.88,4.8,6.29,4.8,5.52,0,8-7.2,8-14.64a19.79,19.79,0,0,0-1-6.72c-.38-1.15-1-1.44-1.78-1.44-1.1,0-2.4.48-2.4,1.82S93,5.86,93,10.85s-1.54,9.31-4.27,9.31c-3.12,0-3.55-5.47-3.55-7.34s.19-5,.19-7.2c0-1.58-.38-2.74-2-2.74s-2.26.86-2.26,2.5c0,2.06.29,4.13.29,7.44,0,4.46-2.59,7-4.46,7s-2.88-1.3-2.88-5.47c0-2.74.29-4.8.29-7.63s-1-4.9-4.13-4.9c-2.06,0-3.36,1-3.36,2.4A1.8,1.8,0,0,0,68.78,6.1Z"/><path class="cls-1" d="M105.36,24.58c5.28,0,8-2.54,8-4.32a1.49,1.49,0,0,0-1.54-1.34,2.07,2.07,0,0,0-1.3.53c-2.16,1.73-4.27,2.3-6,1.54a6.33,6.33,0,0,0,3.5-5.42,4.07,4.07,0,0,0-4.37-4.22c-4.61,0-5.57,4.51-5.57,6.29A6.82,6.82,0,0,0,105.36,24.58Zm-1.73-9.7a1,1,0,0,1,1,1.1,4.29,4.29,0,0,1-2.5,3.36,3,3,0,0,1-.38-1.54C101.71,16.27,102.62,14.88,103.63,14.88Z"/><path class="cls-1" d="M130.18,21.51c-2.06,0-3.89-.72-4.56-2.4-.48-1.2-.62-1.87-1.58-1.87a2.12,2.12,0,0,0-2.4,2.21c0,1.92,1.44,5.38,8.64,5.38,4.7,0,8.54-2.4,8.54-7.06,0-9.41-13.58-4.32-13.58-9.46,0-2.45,3.12-4.13,6-4.13,1.58,0,3.26.48,3.26,1.2,0,.38-1.58.86-1.58,2.69a1.66,1.66,0,0,0,1.78,1.63,3.49,3.49,0,0,0,3.22-3.55c0-3.65-3.07-5.33-6.53-5.33-4.7,0-9.75,2.64-9.75,7.92,0,9.12,13.44,4.46,13.44,9.5C135.07,20.59,132.58,21.51,130.18,21.51Z"/><path class="cls-1" d="M140.54,31.54c0,1.3.29,2.74,2.06,2.74,2.26,0,2-4.66,2-7.44,0-1.25,0-4.9,0-6.19,0-2,3.07-5.76,4.7-5.76,1.06,0,1.54,1.68,1.54,2.83,0,4-3.6,1.25-4.85,3.31a2.61,2.61,0,0,0-.34,1.3c0,1.1.86,2.16,3.17,2.16a6.38,6.38,0,0,0,6-6.62c0-3.6-2.21-6.67-4.85-6.67-1.92,0-3.89,1.3-5.23,2.59-.53-1.54-1.39-2.06-2.06-2.06a2.4,2.4,0,0,0-2.35,2.54v.19c.14,2.06.43,4.85.43,11.76C140.69,27.89,140.54,29.71,140.54,31.54Z"/><path class="cls-1" d="M215.71,18.91c-1.3,0-2.26,2-3.79,2s-1.73-1.15-1.82-2.3a96.75,96.75,0,0,0,2-15.51c0-1.78-.34-3.07-1.92-3.07-1.82,0-3.07,4.32-3.07,9.46,0,.72,0,1.44.1,2.16a3.88,3.88,0,0,0-2-.53c-2.3,0-6.43,2.45-6.43,7.54a6.2,6.2,0,0,0,0,.66c-.91.57-1.8,1.6-3,1.6-.82,0-1-.62-1-1.3s.91-4.22.91-6.34c0-.77-1.34-.91-2.06-.91a4,4,0,0,0-2.64-1c-4.1,0-7.47,4.25-7.66,8l-.21.15c-2.16,1.73-4.27,2.3-6,1.54a6.33,6.33,0,0,0,3.5-5.42,4.07,4.07,0,0,0-4.37-4.22c-4.61,0-5.57,4.51-5.57,6.29a7.48,7.48,0,0,0,.18,1.59c-1,.59-1.82,1.87-3.49,1.87-.62,0-.82-.29-.82-.67a11.91,11.91,0,0,1,1.2-3.6,3.35,3.35,0,0,0,.29-1.44,2.64,2.64,0,0,0-2.21-2.78c-.62,0-1.63.19-2.45.19-1.1,0-1.73-.1-1.73-.72,0-2-1.25-3.17-2.5-3.17-1.63,0-2.4,1.54-2.4,3a2.83,2.83,0,0,0,1.2,2.5c-.86,4.42-3,5.86-3,7.39a1.72,1.72,0,0,0,1.73,1.82,1.77,1.77,0,0,0,1.49-.58c1.63-1.78,2.83-6,3.17-7.49,1.39.62,2.93.1,2.93,1.3s-1.3,2.3-1.3,4.61c0,1.87,1.25,3.12,3.84,3.12a7.79,7.79,0,0,0,5.53-2.32,7.08,7.08,0,0,0,5.51,2.32,10.53,10.53,0,0,0,6.49-1.85,4.59,4.59,0,0,0,3.45,1.51,6.15,6.15,0,0,0,4-1.58,4.1,4.1,0,0,0,3.7,1.78,7.25,7.25,0,0,0,4.59-1.88,4.93,4.93,0,0,0,3.9,1.84,6.2,6.2,0,0,0,4.32-2.06c.48,1.06,1.3,2.11,3.6,2.11,1.82,0,3.7-1.49,4.42-2.21a2.77,2.77,0,0,0,.91-1.82A1.5,1.5,0,0,0,215.71,18.91Zm-41.09.43a3,3,0,0,1-.38-1.54c0-1.54.91-2.93,1.92-2.93a1,1,0,0,1,1,1.1A4.29,4.29,0,0,1,174.62,19.35Zm16.7-.53a4.6,4.6,0,0,1-2.93,1.58A1.44,1.44,0,0,1,187,18.77,4.24,4.24,0,0,1,191.18,15a.81.81,0,0,1,.82.82A5,5,0,0,1,191.33,18.82Zm15.41-.14c-.82,1.34-1.68,2-2.45,2-1,0-1.68-1-1.68-2.26,0-2.45,1.82-3.94,3-3.94a2,2,0,0,1,1.82,2.11A3.86,3.86,0,0,1,206.73,18.67Z"/><path class="cls-1" d="M73.71,35.3c-1.1,0-2.4.48-2.4,1.82s1.15,2.74,1.15,7.73-1.54,9.31-4.27,9.31c-3.12,0-3.55-5.47-3.55-7.34s.19-5,.19-7.2c0-1.58-.38-2.74-2-2.74s-2.26.86-2.26,2.5c0,2.06.29,4.13.29,7.44,0,4.46-2.59,7-4.46,7s-2.88-1.3-2.88-5.47c0-2.74.29-4.8.29-7.63s-1-4.9-4.13-4.9c-2.06,0-3.36,1-3.36,2.4a1.8,1.8,0,0,0,1.92,1.92,2.06,2.06,0,0,0,1.2-.34c.24.1.34,1.25.34,2,0,2.3-.34,5.23-.34,8.16,0,3.5,1.78,7.68,6,7.68a7.93,7.93,0,0,0,6.72-4.32c1,2.88,2.88,4.8,6.29,4.8,5.52,0,8-7.2,8-14.64a19.79,19.79,0,0,0-1-6.72C75.1,35.58,74.52,35.3,73.71,35.3Z"/><path class="cls-1" d="M169.37,49.65a2.23,2.23,0,0,0-1.44.58,4.67,4.67,0,0,1-3.89,1,7.57,7.57,0,0,1-1.49-3.7c0-.77.24-1.2.24-2.16,0-.77-1-1.49-2.83-1.49-1.06,0-1.39.72-1.87,1.49-2.3,3.6-3.07,5.81-5.76,5.86a7.57,7.57,0,0,1-1.49-3.7c0-.77.24-1.73.24-2.16,0-.86-1-1.49-2.83-1.49a2.11,2.11,0,0,0-2,1.3c-2.4,3.79-3.74,6.23-6.37,8.39-2.1,1.61-4.14,2.15-5.77,1.4a6.33,6.33,0,0,0,3.5-5.42,4.07,4.07,0,0,0-4.37-4.22c-4.61,0-5.57,4.51-5.57,6.29a7.48,7.48,0,0,0,.17,1.58l-.22.15c-.58.43-1.73,1.54-2.83,1.54a1,1,0,0,1-1-1.1c0-1.44.43-3.07.43-5.28a3.48,3.48,0,0,0-3.79-3.65c-2,0-4.18,2-5.52,4.18-.14-3.26.29-4.08-1.82-4.08a2.32,2.32,0,0,0-2.06,2.4c0,2.22-.05,4.14,0,5.73-1.17.47-2.22,1.9-3.95,1.9a2.61,2.61,0,0,1-2.26-1.54c2.88-4.22,5-10.51,5-14.79,0-1.87-.58-6.24-3.84-6.24-3.84,0-6.1,6.24-6.1,12.72a23.77,23.77,0,0,0,1.3,7.84c-1.31.3-2.39,2-4.28,2a2.61,2.61,0,0,1-2.26-1.54c2.88-4.22,5-10.51,5-14.79,0-1.87-.58-6.24-3.84-6.24-3.84,0-6.1,6.24-6.1,12.72A23.78,23.78,0,0,0,91,52.94a2.3,2.3,0,0,0-1,.5c-2.16,1.73-4.27,2.3-6,1.54a6.33,6.33,0,0,0,3.5-5.42,4.07,4.07,0,0,0-4.37-4.22c-4.61,0-5.57,4.51-5.57,6.29a6.82,6.82,0,0,0,7.2,7,12.75,12.75,0,0,0,4.31-.69,1.25,1.25,0,0,0,.73.3c.58,0,1.82-1,2.88-2.06a5.49,5.49,0,0,0,4.37,2.3A6.56,6.56,0,0,0,99.43,58a1.16,1.16,0,0,0,.62.22c.58,0,1.82-1,2.88-2.06a5.49,5.49,0,0,0,4.37,2.3,7.28,7.28,0,0,0,4.2-1.5A1.49,1.49,0,0,0,113,58.05c1.63,0,2.16-1,2.11-3.89,1-2.54,3.26-5.71,4.75-5.71.72,0,1,.62,1,1.58s-.38,2.74-.38,4.51c0,2.83,1.92,3.89,4,3.89a7.62,7.62,0,0,0,4.95-2.19,7.08,7.08,0,0,0,5.52,2.33,10.37,10.37,0,0,0,6.6-1.94A7.89,7.89,0,0,0,144,54.16a4.24,4.24,0,0,0-.1.82c0,2,2.26,3.79,5,3.79s4.56-1.78,4.46-4.32a4.6,4.6,0,0,0,2.3-.43,4.92,4.92,0,0,0-.1,1c0,2,2.26,3.79,5,3.79s4.56-1.78,4.46-4.32a7.23,7.23,0,0,0,4.9-1.73,2,2,0,0,0,.86-1.58A1.5,1.5,0,0,0,169.37,49.65Zm-87.79,3.7a3,3,0,0,1-.38-1.54c0-1.54.91-2.93,1.92-2.93a1,1,0,0,1,1,1.1A4.29,4.29,0,0,1,81.58,53.35Zm11.66-9.22c0-3.94.91-7.2,2.11-7.2.62,0,.91,1.2.91,2.59a19.6,19.6,0,0,1-2.69,10A35.6,35.6,0,0,1,93.24,44.13Zm10.18,0c0-3.94.91-7.2,2.11-7.2.62,0,.91,1.2.91,2.59a19.6,19.6,0,0,1-2.69,10A35.6,35.6,0,0,1,103.41,44.13Zm28.22,9.22a3,3,0,0,1-.38-1.54c0-1.54.91-2.93,1.92-2.93a1,1,0,0,1,1,1.1A4.29,4.29,0,0,1,131.64,53.35Zm16.27-5.28a6.33,6.33,0,0,0,1,3.17,7.07,7.07,0,0,0-3.31,1C146.28,50.95,147.14,49.27,147.91,48.07Zm.91,7.87c-.91,0-1.92-.38-1.92-1.2,0-1.06,2.5-.91,3.12-.86a1.37,1.37,0,0,1,.24.82A1.27,1.27,0,0,1,148.82,55.94Zm10.8-7.87a6.33,6.33,0,0,0,1,3.17,7.07,7.07,0,0,0-3.31,1C158,50.95,158.85,49.27,159.62,48.07Zm.91,7.87c-.91,0-1.92-.38-1.92-1.2,0-1.06,2.5-.91,3.12-.86a1.37,1.37,0,0,1,.24.82A1.27,1.27,0,0,1,160.54,55.94Z"/></svg>